<svg width="98" height="80" viewBox="0 0 98 80" fill="none" xmlns="http://www.w3.org/2000/svg">
<circle cx="41" cy="4" r="1" transform="rotate(90 41 4)" fill="#00DBB1" fill-opacity="0.4"/>
<circle cx="41" cy="12" r="1" transform="rotate(90 41 12)" fill="#00DBB1" fill-opacity="0.4"/>
<circle cx="41" cy="20" r="1" transform="rotate(90 41 20)" fill="#00DBB1" fill-opacity="0.4"/>
<circle cx="41" cy="28" r="1" transform="rotate(90 41 28)" fill="#00DBB1" fill-opacity="0.4"/>
<circle cx="41" cy="36" r="1" transform="rotate(90 41 36)" fill="#00DBB1" fill-opacity="0.4"/>
<circle cx="33" cy="4" r="1" transform="rotate(90 33 4)" fill="#00DBB1" fill-opacity="0.4"/>
<circle cx="33" cy="12" r="1" transform="rotate(90 33 12)" fill="#00DBB1" fill-opacity="0.4"/>
<circle cx="33" cy="20" r="1" transform="rotate(90 33 20)" fill="#00DBB1" fill-opacity="0.4"/>
<circle cx="33" cy="28" r="1" transform="rotate(90 33 28)" fill="#00DBB1" fill-opacity="0.4"/>
<circle cx="33" cy="36" r="1" transform="rotate(90 33 36)" fill="#00DBB1" fill-opacity="0.4"/>
<circle cx="25" cy="4" r="1" transform="rotate(90 25 4)" fill="#00DBB1" fill-opacity="0.4"/>
<circle cx="25" cy="12" r="1" transform="rotate(90 25 12)" fill="#00DBB1" fill-opacity="0.4"/>
<circle cx="25" cy="20" r="1" transform="rotate(90 25 20)" fill="#00DBB1" fill-opacity="0.4"/>
<circle cx="25" cy="28" r="1" transform="rotate(90 25 28)" fill="#00DBB1" fill-opacity="0.4"/>
<circle cx="25" cy="36" r="1" transform="rotate(90 25 36)" fill="#00DBB1" fill-opacity="0.4"/>
<circle cx="17" cy="4" r="1" transform="rotate(90 17 4)" fill="#00DBB1" fill-opacity="0.4"/>
<circle cx="17" cy="12" r="1" transform="rotate(90 17 12)" fill="#00DBB1" fill-opacity="0.4"/>
<circle cx="17" cy="20" r="1" transform="rotate(90 17 20)" fill="#00DBB1" fill-opacity="0.4"/>
<circle cx="17" cy="28" r="1" transform="rotate(90 17 28)" fill="#00DBB1" fill-opacity="0.4"/>
<circle cx="17" cy="36" r="1" transform="rotate(90 17 36)" fill="#00DBB1" fill-opacity="0.4"/>
<circle cx="9" cy="4" r="1" transform="rotate(90 9 4)" fill="#00DBB1" fill-opacity="0.4"/>
<circle cx="9" cy="12" r="1" transform="rotate(90 9 12)" fill="#00DBB1" fill-opacity="0.4"/>
<circle cx="9" cy="20" r="1" transform="rotate(90 9 20)" fill="#00DBB1" fill-opacity="0.4"/>
<circle cx="9" cy="28" r="1" transform="rotate(90 9 28)" fill="#00DBB1" fill-opacity="0.4"/>
<circle cx="9" cy="36" r="1" transform="rotate(90 9 36)" fill="#00DBB1" fill-opacity="0.4"/>
<circle cx="1" cy="4" r="1" transform="rotate(90 1 4)" fill="#00DBB1" fill-opacity="0.4"/>
<circle cx="1" cy="12" r="1" transform="rotate(90 1 12)" fill="#00DBB1" fill-opacity="0.4"/>
<circle cx="1" cy="20" r="1" transform="rotate(90 1 20)" fill="#00DBB1" fill-opacity="0.4"/>
<circle cx="1" cy="28" r="1" transform="rotate(90 1 28)" fill="#00DBB1" fill-opacity="0.4"/>
<circle cx="1" cy="36" r="1" transform="rotate(90 1 36)" fill="#00DBB1" fill-opacity="0.4"/>
<circle cx="97" cy="44" r="1" transform="rotate(90 97 44)" fill="#00DBB1" fill-opacity="0.4"/>
<circle cx="97" cy="52" r="1" transform="rotate(90 97 52)" fill="#00DBB1" fill-opacity="0.4"/>
<circle cx="97" cy="60" r="1" transform="rotate(90 97 60)" fill="#00DBB1" fill-opacity="0.4"/>
<circle cx="97" cy="68" r="1" transform="rotate(90 97 68)" fill="#00DBB1" fill-opacity="0.4"/>
<circle cx="97" cy="76" r="1" transform="rotate(90 97 76)" fill="#00DBB1" fill-opacity="0.4"/>
<circle cx="89" cy="44" r="1" transform="rotate(90 89 44)" fill="#00DBB1" fill-opacity="0.4"/>
<circle cx="89" cy="52" r="1" transform="rotate(90 89 52)" fill="#00DBB1" fill-opacity="0.4"/>
<circle cx="89" cy="60" r="1" transform="rotate(90 89 60)" fill="#00DBB1" fill-opacity="0.4"/>
<circle cx="89" cy="68" r="1" transform="rotate(90 89 68)" fill="#00DBB1" fill-opacity="0.4"/>
<circle cx="89" cy="76" r="1" transform="rotate(90 89 76)" fill="#00DBB1" fill-opacity="0.4"/>
<circle cx="81" cy="44" r="1" transform="rotate(90 81 44)" fill="#00DBB1" fill-opacity="0.4"/>
<circle cx="81" cy="52" r="1" transform="rotate(90 81 52)" fill="#00DBB1" fill-opacity="0.4"/>
<circle cx="81" cy="60" r="1" transform="rotate(90 81 60)" fill="#00DBB1" fill-opacity="0.4"/>
<circle cx="81" cy="68" r="1" transform="rotate(90 81 68)" fill="#00DBB1" fill-opacity="0.4"/>
<circle cx="81" cy="76" r="1" transform="rotate(90 81 76)" fill="#00DBB1" fill-opacity="0.4"/>
<circle cx="73" cy="44" r="1" transform="rotate(90 73 44)" fill="#00DBB1" fill-opacity="0.4"/>
<circle cx="73" cy="52" r="1" transform="rotate(90 73 52)" fill="#00DBB1" fill-opacity="0.4"/>
<circle cx="73" cy="60" r="1" transform="rotate(90 73 60)" fill="#00DBB1" fill-opacity="0.4"/>
<circle cx="73" cy="68" r="1" transform="rotate(90 73 68)" fill="#00DBB1" fill-opacity="0.4"/>
<circle cx="73" cy="76" r="1" transform="rotate(90 73 76)" fill="#00DBB1" fill-opacity="0.4"/>
<circle cx="65" cy="44" r="1" transform="rotate(90 65 44)" fill="#00DBB1" fill-opacity="0.4"/>
<circle cx="65" cy="52" r="1" transform="rotate(90 65 52)" fill="#00DBB1" fill-opacity="0.4"/>
<circle cx="65" cy="60" r="1" transform="rotate(90 65 60)" fill="#00DBB1" fill-opacity="0.4"/>
<circle cx="65" cy="68" r="1" transform="rotate(90 65 68)" fill="#00DBB1" fill-opacity="0.4"/>
<circle cx="65" cy="76" r="1" transform="rotate(90 65 76)" fill="#00DBB1" fill-opacity="0.4"/>
<circle cx="57" cy="44" r="1" transform="rotate(90 57 44)" fill="#00DBB1" fill-opacity="0.4"/>
<circle cx="57" cy="52" r="1" transform="rotate(90 57 52)" fill="#00DBB1" fill-opacity="0.4"/>
<circle cx="57" cy="60" r="1" transform="rotate(90 57 60)" fill="#00DBB1" fill-opacity="0.4"/>
<circle cx="57" cy="68" r="1" transform="rotate(90 57 68)" fill="#00DBB1" fill-opacity="0.4"/>
<circle cx="57" cy="76" r="1" transform="rotate(90 57 76)" fill="#00DBB1" fill-opacity="0.4"/>
<rect x="15" width="80" height="80" rx="6" fill="#E0F7F0"/>
<rect x="19" y="4" width="72" height="72" rx="4" fill="white"/>
<path d="M48.7016 20.9811C49.4137 19.9653 48.5294 18.5946 47.3191 18.8111C46.5642 18.9435 46.0548 19.6636 46.1896 20.4241C46.4033 21.6429 47.9902 21.996 48.7016 20.9811Z" fill="#2E3746"/>
<path d="M48.4771 31.8246C48.3587 31.1515 48.0592 30.5455 47.637 30.0314L47.928 29.589C48.0979 29.3309 48.0257 28.9831 47.7676 28.8132C47.5095 28.6448 47.1617 28.7155 46.9918 28.9736L46.8041 29.259C45.0107 28.0483 42.6199 28.5158 41.402 30.2555C40.1564 32.0347 40.5924 34.4775 42.3649 35.7184C45.1943 37.6986 49.0859 35.2777 48.4771 31.8246ZM43.0073 34.8011C41.7388 33.9127 41.431 32.1673 42.3193 30.8979C43.1884 29.6584 44.9052 29.3144 46.1906 30.1917L44.743 32.3927L43.5505 31.8035C43.2734 31.6664 42.9369 31.7802 42.8005 32.058C42.6635 32.3351 42.7772 32.6712 43.0546 32.8083C44.7131 33.6054 44.7089 33.6738 44.9392 33.6738C45.1222 33.6738 45.3001 33.5834 45.4073 33.4215L46.9886 31.0173C47.5751 31.9518 47.5721 33.1676 46.9101 34.1128C46.0199 35.3838 44.2743 35.687 43.0073 34.8011Z" fill="#2E3746"/>
<path d="M51.6078 43.5772C52.6243 42.241 52.6367 40.4137 51.4465 39.0892L51.847 38.4154C52.0052 38.15 51.9177 37.8065 51.6516 37.6483C51.3854 37.4908 51.042 37.5776 50.8845 37.8437L50.572 38.3694C48.7494 37.2913 46.4531 37.839 45.2706 39.3939C43.9898 41.079 44.3968 43.3882 46.1762 44.5353C47.9278 45.662 50.3471 45.2364 51.6078 43.5772ZM46.7829 43.5932C45.5535 42.8023 45.2762 41.2375 46.1624 40.0721C47.0228 38.9392 48.7083 38.5633 50.0024 39.3279L48.7116 41.4998L47.7002 40.8049C47.445 40.6306 47.0972 40.694 46.9214 40.9493C46.7464 41.2045 46.8113 41.553 47.0658 41.728L48.5701 42.7612C48.8352 42.9441 49.2041 42.8642 49.3685 42.5855L50.8402 40.1094C51.4138 40.9741 51.3534 42.0615 50.716 42.8998C49.7999 44.106 48.0266 44.3935 46.7829 43.5932Z" fill="#2E3746"/>
<path d="M52.1699 31.0369L60.7311 28.8793C61.0307 28.8035 61.2123 28.4994 61.1372 28.199C61.0614 27.8986 60.7537 27.7178 60.4569 27.7929L51.8957 29.9505C51.5961 30.0263 51.4145 30.3304 51.4896 30.6308C51.566 30.9328 51.8735 31.1122 52.1699 31.0369Z" fill="#2E3746"/>
<path d="M77.8855 28.2071C78.3698 27.6843 78.2739 26.8338 77.6738 26.2187C78.0834 25.7552 78.274 25.6496 78.412 25.3029C78.6176 24.7786 78.4616 24.1501 78.0226 23.7373L77.7907 23.5215C76.9682 22.777 76.3929 22.7304 75.7688 23.4092L75.1665 24.0533C74.5625 23.6848 73.8497 23.7089 73.4303 24.1493C71.808 25.7495 70.1782 27.4041 68.5456 29.0976L66.3793 20.0281C65.769 17.4643 63.241 15.8616 60.7421 16.4544L58.0474 17.0828C57.8326 16.6518 57.8086 16.5177 57.6767 16.3983C57.2275 15.9878 56.5946 15.8303 55.9741 15.9732L50.1983 17.3929L48.4068 16.0454C47.0675 15.0393 45.1517 15.6218 44.5889 17.1836L43.9873 18.8512L38.0789 20.0871C37.4084 20.2424 36.8976 20.7536 36.778 21.3894C36.7454 21.5603 36.798 21.6475 36.8703 22.0522C35.325 22.4577 34.5169 22.4687 33.5037 23.1757C31.8957 24.2881 31.1833 26.2981 31.6283 28.1809L39.4209 60.7579C40.0287 63.3047 42.5428 64.9203 45.0469 64.3335C45.1234 64.3156 46.3799 64.0217 46.3034 64.0397L70.7477 58.3115C73.1243 57.7577 74.8104 55.2808 74.1741 52.6043L73.363 49.2133C73.6072 49.1009 73.8451 48.9921 74.072 48.8907C75.5424 48.2165 75.941 46.1423 74.8157 45.0961C73.5685 43.9444 72.4047 42.501 71.3512 40.808L70.3395 36.576C72.8586 33.8924 75.1051 31.4101 77.1156 29.0936C77.5186 29.625 77.4555 30.3549 77.0032 30.8124L73.3056 34.513C72.8029 35.0173 72.8301 35.844 73.3691 36.3125C73.5989 36.5138 73.9538 36.4938 74.1588 36.2579C74.3622 36.0253 74.3374 35.6709 74.1041 35.4682C74.0565 35.4252 74.0516 35.3507 74.0982 35.3041L77.7973 31.6021C78.6761 30.7151 78.78 29.2521 77.8535 28.244C77.8638 28.2319 77.8752 28.2192 77.8855 28.2071ZM74.2288 24.9346C74.2645 24.896 74.4956 24.9004 74.7319 25.1191L75.8242 26.074C76.4539 26.6532 76.4661 26.7292 76.6546 26.8L76.8545 26.9748C77.0864 27.1899 77.0907 27.4174 77.0499 27.4619C72.2817 33.0234 66.5736 38.99 61.4389 44.1768C60.3353 42.5367 60.0105 42.2181 58.6325 41.5853C63.8111 35.6392 69.0515 30.0419 74.2288 24.9346ZM55.2588 51.0855C53.8051 52.8526 50.6011 52.3945 50.2363 50.3352C49.939 48.641 51.9268 47.0992 53.9535 47.6148L53.4198 48.6114C53.1599 49.0969 53.6845 49.6228 54.1687 49.3741L55.4966 48.6936C55.9772 49.4893 55.8298 50.3901 55.2588 51.0855ZM56.9314 46.7001L56.14 45.9046L57.9581 42.509C59.2867 43.1047 59.5098 43.3096 60.5423 44.8496L56.9314 46.7001ZM60.998 17.5445C62.8968 17.0939 64.8225 18.3233 65.2899 20.2877L67.623 30.0559C67.3941 30.2956 67.1652 30.5375 66.9362 30.7789C65.5288 26.338 64.8082 22.5745 64.2662 20.6121C63.9854 19.6569 63.1615 19.1064 62.1742 19.2362L59.2426 19.843C59.1539 19.2623 59.0169 19.1915 58.5383 18.1183L60.998 17.5445ZM38.3199 21.1809L44.5225 19.8837C44.7128 19.8436 44.8689 19.708 44.9345 19.5257L45.6418 17.5642C45.9525 16.7056 47.0026 16.391 47.733 16.9408L49.7375 18.448C49.8717 18.5486 50.0459 18.5843 50.2078 18.5442L56.2358 17.0626C56.4531 17.0115 56.6777 17.0516 56.8476 17.1668L58.0486 19.6999C58.2501 20.0975 58.2145 20.713 57.7306 20.8309L39.3892 24.8398C38.9463 24.9443 38.3474 24.7347 38.4289 24.3272C38.4434 24.2543 38.4434 24.1792 38.4285 24.1063C38.4021 23.9756 37.87 21.3469 37.9035 21.5127C37.9688 21.3522 38.127 21.2254 38.3199 21.1809ZM72.1413 56.2842C71.3175 56.7362 72.4599 56.2946 45.5754 62.6544C43.6756 63.0992 41.7488 61.864 41.2803 59.9033L33.488 27.327C33.1981 26.1026 33.5454 24.8257 34.3866 23.9524C35.1781 23.4972 35.4782 23.5755 37.0927 23.1511L37.3111 24.2303C37.3045 24.2868 37.311 24.3417 37.3108 24.3976L37.0526 24.4519C35.8528 24.6573 34.8439 25.9143 35.1246 27.128C39.5095 45.3746 46.8238 57.5656 47.4501 58.5871C47.7299 59.4628 48.6914 59.8202 49.6092 59.5766C53.8163 58.4106 65.9702 52.6236 72.3256 49.6917L73.0847 52.8639C73.3699 54.066 73.0727 55.3464 72.1413 56.2842ZM74.0545 45.9171C74.5953 46.4207 74.3441 47.5333 73.6104 47.8706C69.2628 49.8108 53.9651 57.2072 49.3161 58.496C49.0087 58.5776 48.5901 58.5341 48.5089 58.2182C48.4943 58.162 48.471 58.1088 48.4403 58.0592C48.3638 57.9374 40.7287 45.6539 36.2148 26.8713C36.0831 26.3023 36.6839 25.6511 37.2622 25.5522L37.749 25.4502C37.7521 25.4533 37.7541 25.4573 37.7573 25.4604C38.2224 25.9104 38.9668 26.0897 39.6364 25.9321L57.9807 21.9224C58.4922 21.7992 58.8922 21.4773 59.1067 21.0148L62.363 20.3394C62.7517 20.2833 63.0689 20.513 63.1892 20.9191C63.7766 23.0535 64.5335 27.0442 66.0587 31.7086C65.2257 32.594 64.3928 33.4874 63.5599 34.3939L55.5125 36.4219C55.2128 36.4978 55.0313 36.8018 55.1064 37.1022C55.1827 37.4042 55.4903 37.5837 55.7867 37.5084L62.1937 35.8938C61.8281 36.2969 57.3464 41.2796 57.2166 41.5217L54.4894 46.6141C51.6285 45.6717 48.6734 47.922 49.1338 50.5291C49.6672 53.5575 54.0759 54.2905 56.1236 51.7964C56.9447 50.7975 57.2051 49.4449 56.4829 48.1881C60.8389 45.9414 61.63 45.5768 61.752 45.4541C61.7561 45.45 61.7892 45.4163 61.794 45.4115C64.2861 42.8995 66.5852 40.5367 68.706 38.3074C70.0688 41.1168 71.7586 43.7962 74.0545 45.9171Z" fill="#2E3746"/>
<path d="M69.2218 34.0776L73.5341 29.397C73.7434 29.1695 73.7288 28.8159 73.5013 28.6059C73.2753 28.3966 72.9202 28.4105 72.7102 28.6387L68.3979 33.3192C68.1886 33.5467 68.2032 33.9004 68.4307 34.1104C68.6537 34.3167 69.0089 34.3087 69.2218 34.0776Z" fill="#2E3746"/>
</svg>
