<svg width="98" height="98" viewBox="0 0 98 98" fill="none" xmlns="http://www.w3.org/2000/svg">
<circle cx="41" cy="1" r="1" transform="rotate(90 41 1)" fill="#00DBB1" fill-opacity="0.4"/>
<circle cx="41" cy="9" r="1" transform="rotate(90 41 9)" fill="#00DBB1" fill-opacity="0.4"/>
<circle cx="41" cy="17" r="1" transform="rotate(90 41 17)" fill="#00DBB1" fill-opacity="0.4"/>
<circle cx="41" cy="25" r="1" transform="rotate(90 41 25)" fill="#00DBB1" fill-opacity="0.4"/>
<circle cx="41" cy="33" r="1" transform="rotate(90 41 33)" fill="#00DBB1" fill-opacity="0.4"/>
<circle cx="33" cy="1" r="1" transform="rotate(90 33 1)" fill="#00DBB1" fill-opacity="0.4"/>
<circle cx="33" cy="9" r="1" transform="rotate(90 33 9)" fill="#00DBB1" fill-opacity="0.4"/>
<circle cx="33" cy="17" r="1" transform="rotate(90 33 17)" fill="#00DBB1" fill-opacity="0.4"/>
<circle cx="33" cy="25" r="1" transform="rotate(90 33 25)" fill="#00DBB1" fill-opacity="0.4"/>
<circle cx="33" cy="33" r="1" transform="rotate(90 33 33)" fill="#00DBB1" fill-opacity="0.4"/>
<circle cx="25" cy="1" r="1" transform="rotate(90 25 1)" fill="#00DBB1" fill-opacity="0.4"/>
<circle cx="25" cy="9" r="1" transform="rotate(90 25 9)" fill="#00DBB1" fill-opacity="0.4"/>
<circle cx="25" cy="17" r="1" transform="rotate(90 25 17)" fill="#00DBB1" fill-opacity="0.4"/>
<circle cx="25" cy="25" r="1" transform="rotate(90 25 25)" fill="#00DBB1" fill-opacity="0.4"/>
<circle cx="25" cy="33" r="1" transform="rotate(90 25 33)" fill="#00DBB1" fill-opacity="0.4"/>
<circle cx="17" cy="1" r="1" transform="rotate(90 17 1)" fill="#00DBB1" fill-opacity="0.4"/>
<circle cx="17" cy="9" r="1" transform="rotate(90 17 9)" fill="#00DBB1" fill-opacity="0.4"/>
<circle cx="17" cy="17" r="1" transform="rotate(90 17 17)" fill="#00DBB1" fill-opacity="0.4"/>
<circle cx="17" cy="25" r="1" transform="rotate(90 17 25)" fill="#00DBB1" fill-opacity="0.4"/>
<circle cx="17" cy="33" r="1" transform="rotate(90 17 33)" fill="#00DBB1" fill-opacity="0.4"/>
<circle cx="9" cy="1" r="1" transform="rotate(90 9 1)" fill="#00DBB1" fill-opacity="0.4"/>
<circle cx="9" cy="9" r="1" transform="rotate(90 9 9)" fill="#00DBB1" fill-opacity="0.4"/>
<circle cx="9" cy="17" r="1" transform="rotate(90 9 17)" fill="#00DBB1" fill-opacity="0.4"/>
<circle cx="9" cy="25" r="1" transform="rotate(90 9 25)" fill="#00DBB1" fill-opacity="0.4"/>
<circle cx="9" cy="33" r="1" transform="rotate(90 9 33)" fill="#00DBB1" fill-opacity="0.4"/>
<circle cx="1" cy="1" r="1" transform="rotate(90 1 1)" fill="#00DBB1" fill-opacity="0.4"/>
<circle cx="1" cy="9" r="1" transform="rotate(90 1 9)" fill="#00DBB1" fill-opacity="0.4"/>
<circle cx="1" cy="17" r="1" transform="rotate(90 1 17)" fill="#00DBB1" fill-opacity="0.4"/>
<circle cx="1" cy="25" r="1" transform="rotate(90 1 25)" fill="#00DBB1" fill-opacity="0.4"/>
<circle cx="1" cy="33" r="1" transform="rotate(90 1 33)" fill="#00DBB1" fill-opacity="0.4"/>
<circle cx="97" cy="65" r="1" transform="rotate(90 97 65)" fill="#00DBB1" fill-opacity="0.4"/>
<circle cx="97" cy="73" r="1" transform="rotate(90 97 73)" fill="#00DBB1" fill-opacity="0.4"/>
<circle cx="97" cy="81" r="1" transform="rotate(90 97 81)" fill="#00DBB1" fill-opacity="0.4"/>
<circle cx="97" cy="89" r="1" transform="rotate(90 97 89)" fill="#00DBB1" fill-opacity="0.4"/>
<circle cx="97" cy="97" r="1" transform="rotate(90 97 97)" fill="#00DBB1" fill-opacity="0.4"/>
<circle cx="89" cy="65" r="1" transform="rotate(90 89 65)" fill="#00DBB1" fill-opacity="0.4"/>
<circle cx="89" cy="73" r="1" transform="rotate(90 89 73)" fill="#00DBB1" fill-opacity="0.4"/>
<circle cx="89" cy="81" r="1" transform="rotate(90 89 81)" fill="#00DBB1" fill-opacity="0.4"/>
<circle cx="89" cy="89" r="1" transform="rotate(90 89 89)" fill="#00DBB1" fill-opacity="0.4"/>
<circle cx="89" cy="97" r="1" transform="rotate(90 89 97)" fill="#00DBB1" fill-opacity="0.4"/>
<circle cx="81" cy="65" r="1" transform="rotate(90 81 65)" fill="#00DBB1" fill-opacity="0.4"/>
<circle cx="81" cy="73" r="1" transform="rotate(90 81 73)" fill="#00DBB1" fill-opacity="0.4"/>
<circle cx="81" cy="81" r="1" transform="rotate(90 81 81)" fill="#00DBB1" fill-opacity="0.4"/>
<circle cx="81" cy="89" r="1" transform="rotate(90 81 89)" fill="#00DBB1" fill-opacity="0.4"/>
<circle cx="81" cy="97" r="1" transform="rotate(90 81 97)" fill="#00DBB1" fill-opacity="0.4"/>
<circle cx="73" cy="65" r="1" transform="rotate(90 73 65)" fill="#00DBB1" fill-opacity="0.4"/>
<circle cx="73" cy="73" r="1" transform="rotate(90 73 73)" fill="#00DBB1" fill-opacity="0.4"/>
<circle cx="73" cy="81" r="1" transform="rotate(90 73 81)" fill="#00DBB1" fill-opacity="0.4"/>
<circle cx="73" cy="89" r="1" transform="rotate(90 73 89)" fill="#00DBB1" fill-opacity="0.4"/>
<circle cx="73" cy="97" r="1" transform="rotate(90 73 97)" fill="#00DBB1" fill-opacity="0.4"/>
<circle cx="65" cy="65" r="1" transform="rotate(90 65 65)" fill="#00DBB1" fill-opacity="0.4"/>
<circle cx="65" cy="73" r="1" transform="rotate(90 65 73)" fill="#00DBB1" fill-opacity="0.4"/>
<circle cx="65" cy="81" r="1" transform="rotate(90 65 81)" fill="#00DBB1" fill-opacity="0.4"/>
<circle cx="65" cy="89" r="1" transform="rotate(90 65 89)" fill="#00DBB1" fill-opacity="0.4"/>
<circle cx="65" cy="97" r="1" transform="rotate(90 65 97)" fill="#00DBB1" fill-opacity="0.4"/>
<circle cx="57" cy="65" r="1" transform="rotate(90 57 65)" fill="#00DBB1" fill-opacity="0.4"/>
<circle cx="57" cy="73" r="1" transform="rotate(90 57 73)" fill="#00DBB1" fill-opacity="0.4"/>
<circle cx="57" cy="81" r="1" transform="rotate(90 57 81)" fill="#00DBB1" fill-opacity="0.4"/>
<circle cx="57" cy="89" r="1" transform="rotate(90 57 89)" fill="#00DBB1" fill-opacity="0.4"/>
<circle cx="57" cy="97" r="1" transform="rotate(90 57 97)" fill="#00DBB1" fill-opacity="0.4"/>
<rect x="15" y="13" width="80" height="80" rx="6" fill="#E0F7F0"/>
<rect x="19" y="17" width="72" height="72" rx="4" fill="white"/>
<path d="M40.8007 72.6924C43.1384 73.479 52.83 76.9301 54.438 77.2092C54.9773 77.4641 55.5721 77.5334 56.1775 77.3545C56.9646 77.2367 55.6854 77.5361 70.3837 72.9863C71.363 72.6675 71.9361 71.8297 71.9361 70.9752L71.9438 59.4318L74.5268 58.521C75.4329 58.201 75.838 57.091 75.2859 56.2628L71.9544 51.2058C71.9113 51.018 71.7783 50.8606 71.5897 50.7984L59.5659 46.8248C61.3257 46.5678 63.538 46.6418 66.1568 47.503C66.5461 47.8185 66.9383 48.0699 67.1958 48.2048C67.1965 48.2055 67.1972 48.2055 67.198 48.2063C67.8896 48.564 68.682 48.7431 69.3935 48.4192C72.9307 46.7935 69.2925 35.4772 64.5387 30.5247C61.4396 27.2949 59.3321 28.4133 58.9941 31.0528C58.5108 31.8778 54.7618 38.0661 50.1272 39.8611C50.016 39.9045 46.004 41.9662 46.0792 41.9276C46.0035 41.966 45.2721 42.3369 45.3478 42.2985C43.9376 43.0211 43.3776 44.7595 44.0994 46.1726C44.9615 47.864 45.3759 48.6721 45.3662 48.653L38.856 50.7984C38.7185 50.8436 38.399 51.1201 38.3485 51.1973L34.7136 56.739C34.2394 57.4625 34.5661 58.4392 35.3815 58.7289L39.031 60.0323V70.2132C39.031 71.3332 39.7412 72.3293 40.8007 72.6924ZM41.1609 71.6315C40.5571 71.4251 40.151 70.8549 40.151 70.2132V60.4324L49.7002 63.8432C50.55 64.1482 51.513 63.808 51.9803 63.0193L54.2415 59.2019C54.6294 75.3864 54.5923 72.2293 54.614 76.1065C53.4903 75.9601 43.1242 72.293 41.1609 71.6315ZM58.3412 54.4279L55.6028 55.7794C55.4927 55.8355 55.3556 55.8115 55.263 55.7189C55.1881 55.6445 50.4407 50.9269 50.5154 51.0011L50.8738 50.7478C51.2955 50.5653 51.5498 50.4118 53.2353 49.5585C54.6519 50.7641 57.1094 53.1082 58.3412 54.4279ZM74.1483 56.5718C74.1741 56.7401 74.0984 56.9346 73.8983 57.0044L59.0605 62.2405C58.8913 62.301 58.7017 62.2332 58.6055 62.0816L55.4279 57.1991L55.4292 57.1969C55.437 57.1838 55.4363 57.1679 55.443 57.1544C55.5187 57.1302 72.2741 51.7731 71.2113 52.1131L74.1483 56.5718ZM57.923 63.1571C58.316 63.7581 59.0539 63.9861 59.6919 63.7521L70.2709 60.0217L70.2641 70.1979C70.2641 70.623 69.9542 71.0051 69.4919 71.1495C64.9057 72.5762 56.1501 75.3322 55.7625 75.4134C55.5342 56.7813 55.7885 78.5862 55.5762 59.5498L57.923 63.1571ZM53.0735 48.3829L50.6182 49.6383C49.9901 49.9594 49.2877 50.0421 48.6069 49.907C48.261 49.7466 47.9616 49.4807 47.7766 49.1184L45.8232 45.2932C45.6373 44.9303 45.5924 44.5236 45.6767 44.1289C45.9562 43.5338 46.4152 43.0191 47.0413 42.6932L49.8858 41.2378C50.3631 44.0717 51.5477 46.41 53.4175 48.207C53.3419 48.2456 52.9979 48.4215 53.0735 48.3829ZM69.621 51.3271L63.1347 53.4535C57.6646 51.6725 58.0069 51.6982 56.9939 51.489C55.9341 50.4721 54.8741 49.4915 54.3131 49.0072C54.3879 48.9457 55.872 47.8783 57.5005 47.3216L69.621 51.3271ZM61.3983 38.044L64.5968 36.5627C64.6363 36.7851 64.6947 37.0298 64.7954 37.3213C64.7954 37.3213 64.7961 37.322 64.7961 37.3227C65.0911 38.1712 65.6443 39.2076 66.2614 39.8673C65.6281 40.1619 62.747 41.5022 62.9293 41.4173C62.2612 40.1838 61.8062 39.1165 61.3983 38.044ZM60.8163 29.7394C61.4201 29.4601 62.5379 30.058 63.7308 31.3005C65.1118 32.7392 66.49 34.8749 67.6114 37.314C69.928 42.3685 70.216 46.8084 68.9268 47.4005C68.6711 47.5186 68.3609 47.4663 68.0778 47.3665C68.3106 45.7189 67.9415 43.3637 67.0381 40.7436C67.644 40.4299 67.7435 40.4883 67.9015 40.242C68.1576 39.9829 68.3013 39.4654 67.9884 38.4376C67.635 37.2634 66.3288 34.7657 65.1648 35.0952C65.1376 35.1028 65.1088 35.0978 65.0827 35.1097L64.5475 35.3569C63.1686 33.0376 61.6549 31.2777 60.2909 30.4051C60.4 30.1249 60.5624 29.8555 60.8163 29.7394ZM58.9982 33.1428C59.4161 37.2072 61.8439 42.6828 64.5784 45.9233C59.0913 44.7588 55.5664 46.7881 54.4298 47.6036C52.5102 45.8683 51.3668 43.6088 50.949 40.7219C54.5573 39.1298 57.5166 35.3377 58.9982 33.1428ZM45.8813 49.6618C45.9855 49.8043 46.3472 50.9793 47.7314 51.427C48.3105 51.6137 48.8315 51.6063 49.3777 51.455L50.3909 52.4608L47.3587 53.4554L40.8306 51.3264L45.8813 49.6618ZM35.6499 57.3529L39.0478 52.1722L54.0473 57.2005L54.0881 57.2632L51.0163 62.4491C50.8253 62.7735 50.4308 62.915 50.0764 62.7889L35.7578 57.6737C35.6264 57.6281 35.5733 57.4711 35.6499 57.3529Z" fill="#2E3746"/>
<path d="M43.3175 42.4837C43.6259 42.4669 43.8629 42.203 43.8462 41.8938L43.5647 36.7102C43.5479 36.4017 43.3015 36.156 42.9748 36.1815C42.6664 36.1983 42.4294 36.4622 42.4462 36.7714L42.7276 41.9551C42.7446 42.2715 43.0203 42.5035 43.3175 42.4837Z" fill="#2E3746"/>
<path d="M34.5731 40.6871C34.3887 40.9357 34.4412 41.2865 34.6898 41.4702C39.0101 44.6166 38.85 44.6676 39.1953 44.6676C39.7366 44.6676 39.9595 43.9756 39.5293 43.6577L35.3563 40.5704C35.1054 40.3845 34.7562 40.4399 34.5731 40.6871Z" fill="#2E3746"/>
<path d="M41.2167 42.9789C41.4828 42.8214 41.5718 42.4779 41.415 42.2118L40.0194 39.8449C39.8612 39.5788 39.5177 39.4891 39.2523 39.6466C38.9862 39.8041 38.8972 40.1475 39.054 40.4137L40.4496 42.7805C40.6097 43.0507 40.955 43.1333 41.2167 42.9789Z" fill="#2E3746"/>
</svg>
