<svg width="552" height="114" viewBox="0 0 552 114" fill="none" xmlns="http://www.w3.org/2000/svg">
<circle cx="73" cy="113" r="1" transform="rotate(-180 73 113)" fill="#00DBB1" fill-opacity="0.4"/>
<circle cx="65" cy="113" r="1" transform="rotate(-180 65 113)" fill="#00DBB1" fill-opacity="0.4"/>
<circle cx="57" cy="113" r="1" transform="rotate(-180 57 113)" fill="#00DBB1" fill-opacity="0.4"/>
<circle cx="49" cy="113" r="1" transform="rotate(-180 49 113)" fill="#00DBB1" fill-opacity="0.4"/>
<circle cx="41" cy="113" r="1" transform="rotate(-180 41 113)" fill="#00DBB1" fill-opacity="0.4"/>
<circle cx="33" cy="113" r="1" transform="rotate(-180 33 113)" fill="#00DBB1" fill-opacity="0.4"/>
<circle cx="25" cy="113" r="1" transform="rotate(-180 25 113)" fill="#00DBB1" fill-opacity="0.4"/>
<circle cx="17" cy="113" r="1" transform="rotate(-180 17 113)" fill="#00DBB1" fill-opacity="0.4"/>
<circle cx="9" cy="113" r="1" transform="rotate(-180 9 113)" fill="#00DBB1" fill-opacity="0.4"/>
<circle cx="1" cy="113" r="1" transform="rotate(-180 1 113)" fill="#00DBB1" fill-opacity="0.4"/>
<circle cx="73" cy="105" r="1" transform="rotate(-180 73 105)" fill="#00DBB1" fill-opacity="0.4"/>
<circle cx="65" cy="105" r="1" transform="rotate(-180 65 105)" fill="#00DBB1" fill-opacity="0.4"/>
<circle cx="57" cy="105" r="1" transform="rotate(-180 57 105)" fill="#00DBB1" fill-opacity="0.4"/>
<circle cx="49" cy="105" r="1" transform="rotate(-180 49 105)" fill="#00DBB1" fill-opacity="0.4"/>
<circle cx="41" cy="105" r="1" transform="rotate(-180 41 105)" fill="#00DBB1" fill-opacity="0.4"/>
<circle cx="33" cy="105" r="1" transform="rotate(-180 33 105)" fill="#00DBB1" fill-opacity="0.4"/>
<circle cx="25" cy="105" r="1" transform="rotate(-180 25 105)" fill="#00DBB1" fill-opacity="0.4"/>
<circle cx="17" cy="105" r="1" transform="rotate(-180 17 105)" fill="#00DBB1" fill-opacity="0.4"/>
<circle cx="9" cy="105" r="1" transform="rotate(-180 9 105)" fill="#00DBB1" fill-opacity="0.4"/>
<circle cx="1" cy="105" r="1" transform="rotate(-180 1 105)" fill="#00DBB1" fill-opacity="0.4"/>
<circle cx="73" cy="97" r="1" transform="rotate(-180 73 97)" fill="#00DBB1" fill-opacity="0.4"/>
<circle cx="65" cy="97" r="1" transform="rotate(-180 65 97)" fill="#00DBB1" fill-opacity="0.4"/>
<circle cx="57" cy="97" r="1" transform="rotate(-180 57 97)" fill="#00DBB1" fill-opacity="0.4"/>
<circle cx="49" cy="97" r="1" transform="rotate(-180 49 97)" fill="#00DBB1" fill-opacity="0.4"/>
<circle cx="41" cy="97" r="1" transform="rotate(-180 41 97)" fill="#00DBB1" fill-opacity="0.4"/>
<circle cx="33" cy="97" r="1" transform="rotate(-180 33 97)" fill="#00DBB1" fill-opacity="0.4"/>
<circle cx="25" cy="97" r="1" transform="rotate(-180 25 97)" fill="#00DBB1" fill-opacity="0.4"/>
<circle cx="17" cy="97" r="1" transform="rotate(-180 17 97)" fill="#00DBB1" fill-opacity="0.4"/>
<circle cx="9" cy="97" r="1" transform="rotate(-180 9 97)" fill="#00DBB1" fill-opacity="0.4"/>
<circle cx="1" cy="97" r="1" transform="rotate(-180 1 97)" fill="#00DBB1" fill-opacity="0.4"/>
<circle cx="73" cy="89" r="1" transform="rotate(-180 73 89)" fill="#00DBB1" fill-opacity="0.4"/>
<circle cx="65" cy="89" r="1" transform="rotate(-180 65 89)" fill="#00DBB1" fill-opacity="0.4"/>
<circle cx="57" cy="89" r="1" transform="rotate(-180 57 89)" fill="#00DBB1" fill-opacity="0.4"/>
<circle cx="49" cy="89" r="1" transform="rotate(-180 49 89)" fill="#00DBB1" fill-opacity="0.4"/>
<circle cx="41" cy="89" r="1" transform="rotate(-180 41 89)" fill="#00DBB1" fill-opacity="0.4"/>
<circle cx="33" cy="89" r="1" transform="rotate(-180 33 89)" fill="#00DBB1" fill-opacity="0.4"/>
<circle cx="25" cy="89" r="1" transform="rotate(-180 25 89)" fill="#00DBB1" fill-opacity="0.4"/>
<circle cx="17" cy="89" r="1" transform="rotate(-180 17 89)" fill="#00DBB1" fill-opacity="0.4"/>
<circle cx="9" cy="89" r="1" transform="rotate(-180 9 89)" fill="#00DBB1" fill-opacity="0.4"/>
<circle cx="1" cy="89" r="1" transform="rotate(-180 1 89)" fill="#00DBB1" fill-opacity="0.4"/>
<circle cx="73" cy="81" r="1" transform="rotate(-180 73 81)" fill="#00DBB1" fill-opacity="0.4"/>
<circle cx="65" cy="81" r="1" transform="rotate(-180 65 81)" fill="#00DBB1" fill-opacity="0.4"/>
<circle cx="57" cy="81" r="1" transform="rotate(-180 57 81)" fill="#00DBB1" fill-opacity="0.4"/>
<circle cx="49" cy="81" r="1" transform="rotate(-180 49 81)" fill="#00DBB1" fill-opacity="0.4"/>
<circle cx="41" cy="81" r="1" transform="rotate(-180 41 81)" fill="#00DBB1" fill-opacity="0.4"/>
<circle cx="33" cy="81" r="1" transform="rotate(-180 33 81)" fill="#00DBB1" fill-opacity="0.4"/>
<circle cx="25" cy="81" r="1" transform="rotate(-180 25 81)" fill="#00DBB1" fill-opacity="0.4"/>
<circle cx="17" cy="81" r="1" transform="rotate(-180 17 81)" fill="#00DBB1" fill-opacity="0.4"/>
<circle cx="9" cy="81" r="1" transform="rotate(-180 9 81)" fill="#00DBB1" fill-opacity="0.4"/>
<circle cx="1" cy="81" r="1" transform="rotate(-180 1 81)" fill="#00DBB1" fill-opacity="0.4"/>
<circle cx="73" cy="73" r="1" transform="rotate(-180 73 73)" fill="#00DBB1" fill-opacity="0.4"/>
<circle cx="65" cy="73" r="1" transform="rotate(-180 65 73)" fill="#00DBB1" fill-opacity="0.4"/>
<circle cx="57" cy="73" r="1" transform="rotate(-180 57 73)" fill="#00DBB1" fill-opacity="0.4"/>
<circle cx="49" cy="73" r="1" transform="rotate(-180 49 73)" fill="#00DBB1" fill-opacity="0.4"/>
<circle cx="41" cy="73" r="1" transform="rotate(-180 41 73)" fill="#00DBB1" fill-opacity="0.4"/>
<circle cx="33" cy="73" r="1" transform="rotate(-180 33 73)" fill="#00DBB1" fill-opacity="0.4"/>
<circle cx="25" cy="73" r="1" transform="rotate(-180 25 73)" fill="#00DBB1" fill-opacity="0.4"/>
<circle cx="17" cy="73" r="1" transform="rotate(-180 17 73)" fill="#00DBB1" fill-opacity="0.4"/>
<circle cx="9" cy="73" r="1" transform="rotate(-180 9 73)" fill="#00DBB1" fill-opacity="0.4"/>
<circle cx="1" cy="73" r="1" transform="rotate(-180 1 73)" fill="#00DBB1" fill-opacity="0.4"/>
<circle cx="73" cy="65" r="1" transform="rotate(-180 73 65)" fill="#00DBB1" fill-opacity="0.4"/>
<circle cx="65" cy="65" r="1" transform="rotate(-180 65 65)" fill="#00DBB1" fill-opacity="0.4"/>
<circle cx="57" cy="65" r="1" transform="rotate(-180 57 65)" fill="#00DBB1" fill-opacity="0.4"/>
<circle cx="49" cy="65" r="1" transform="rotate(-180 49 65)" fill="#00DBB1" fill-opacity="0.4"/>
<circle cx="41" cy="65" r="1" transform="rotate(-180 41 65)" fill="#00DBB1" fill-opacity="0.4"/>
<circle cx="33" cy="65" r="1" transform="rotate(-180 33 65)" fill="#00DBB1" fill-opacity="0.4"/>
<circle cx="25" cy="65" r="1" transform="rotate(-180 25 65)" fill="#00DBB1" fill-opacity="0.4"/>
<circle cx="17" cy="65" r="1" transform="rotate(-180 17 65)" fill="#00DBB1" fill-opacity="0.4"/>
<circle cx="9" cy="65" r="1" transform="rotate(-180 9 65)" fill="#00DBB1" fill-opacity="0.4"/>
<circle cx="1" cy="65" r="1" transform="rotate(-180 1 65)" fill="#00DBB1" fill-opacity="0.4"/>
<circle cx="73" cy="57" r="1" transform="rotate(-180 73 57)" fill="#00DBB1" fill-opacity="0.4"/>
<circle cx="65" cy="57" r="1" transform="rotate(-180 65 57)" fill="#00DBB1" fill-opacity="0.4"/>
<circle cx="57" cy="57" r="1" transform="rotate(-180 57 57)" fill="#00DBB1" fill-opacity="0.4"/>
<circle cx="49" cy="57" r="1" transform="rotate(-180 49 57)" fill="#00DBB1" fill-opacity="0.4"/>
<circle cx="41" cy="57" r="1" transform="rotate(-180 41 57)" fill="#00DBB1" fill-opacity="0.4"/>
<circle cx="33" cy="57" r="1" transform="rotate(-180 33 57)" fill="#00DBB1" fill-opacity="0.4"/>
<circle cx="25" cy="57" r="1" transform="rotate(-180 25 57)" fill="#00DBB1" fill-opacity="0.4"/>
<circle cx="17" cy="57" r="1" transform="rotate(-180 17 57)" fill="#00DBB1" fill-opacity="0.4"/>
<circle cx="9" cy="57" r="1" transform="rotate(-180 9 57)" fill="#00DBB1" fill-opacity="0.4"/>
<circle cx="1" cy="57" r="1" transform="rotate(-180 1 57)" fill="#00DBB1" fill-opacity="0.4"/>
<circle cx="73" cy="49" r="1" transform="rotate(-180 73 49)" fill="#00DBB1" fill-opacity="0.4"/>
<circle cx="65" cy="49" r="1" transform="rotate(-180 65 49)" fill="#00DBB1" fill-opacity="0.4"/>
<circle cx="57" cy="49" r="1" transform="rotate(-180 57 49)" fill="#00DBB1" fill-opacity="0.4"/>
<circle cx="49" cy="49" r="1" transform="rotate(-180 49 49)" fill="#00DBB1" fill-opacity="0.4"/>
<circle cx="41" cy="49" r="1" transform="rotate(-180 41 49)" fill="#00DBB1" fill-opacity="0.4"/>
<circle cx="33" cy="49" r="1" transform="rotate(-180 33 49)" fill="#00DBB1" fill-opacity="0.4"/>
<circle cx="25" cy="49" r="1" transform="rotate(-180 25 49)" fill="#00DBB1" fill-opacity="0.4"/>
<circle cx="17" cy="49" r="1" transform="rotate(-180 17 49)" fill="#00DBB1" fill-opacity="0.4"/>
<circle cx="9" cy="49" r="1" transform="rotate(-180 9 49)" fill="#00DBB1" fill-opacity="0.4"/>
<circle cx="1" cy="49" r="1" transform="rotate(-180 1 49)" fill="#00DBB1" fill-opacity="0.4"/>
<circle cx="73" cy="41" r="1" transform="rotate(-180 73 41)" fill="#00DBB1" fill-opacity="0.4"/>
<circle cx="65" cy="41" r="1" transform="rotate(-180 65 41)" fill="#00DBB1" fill-opacity="0.4"/>
<circle cx="57" cy="41" r="1" transform="rotate(-180 57 41)" fill="#00DBB1" fill-opacity="0.4"/>
<circle cx="49" cy="41" r="1" transform="rotate(-180 49 41)" fill="#00DBB1" fill-opacity="0.4"/>
<circle cx="41" cy="41" r="1" transform="rotate(-180 41 41)" fill="#00DBB1" fill-opacity="0.4"/>
<circle cx="33" cy="41" r="1" transform="rotate(-180 33 41)" fill="#00DBB1" fill-opacity="0.4"/>
<circle cx="25" cy="41" r="1" transform="rotate(-180 25 41)" fill="#00DBB1" fill-opacity="0.4"/>
<circle cx="17" cy="41" r="1" transform="rotate(-180 17 41)" fill="#00DBB1" fill-opacity="0.4"/>
<circle cx="9" cy="41" r="1" transform="rotate(-180 9 41)" fill="#00DBB1" fill-opacity="0.4"/>
<circle cx="1" cy="41" r="1" transform="rotate(-180 1 41)" fill="#00DBB1" fill-opacity="0.4"/>
<circle cx="73" cy="33" r="1" transform="rotate(-180 73 33)" fill="#00DBB1" fill-opacity="0.4"/>
<circle cx="65" cy="33" r="1" transform="rotate(-180 65 33)" fill="#00DBB1" fill-opacity="0.4"/>
<circle cx="57" cy="33" r="1" transform="rotate(-180 57 33)" fill="#00DBB1" fill-opacity="0.4"/>
<circle cx="49" cy="33" r="1" transform="rotate(-180 49 33)" fill="#00DBB1" fill-opacity="0.4"/>
<circle cx="41" cy="33" r="1" transform="rotate(-180 41 33)" fill="#00DBB1" fill-opacity="0.4"/>
<circle cx="33" cy="33" r="1" transform="rotate(-180 33 33)" fill="#00DBB1" fill-opacity="0.4"/>
<circle cx="25" cy="33" r="1" transform="rotate(-180 25 33)" fill="#00DBB1" fill-opacity="0.4"/>
<circle cx="17" cy="33" r="1" transform="rotate(-180 17 33)" fill="#00DBB1" fill-opacity="0.4"/>
<circle cx="9" cy="33" r="1" transform="rotate(-180 9 33)" fill="#00DBB1" fill-opacity="0.4"/>
<circle cx="1" cy="33" r="1" transform="rotate(-180 1 33)" fill="#00DBB1" fill-opacity="0.4"/>
<circle cx="73" cy="25" r="1" transform="rotate(-180 73 25)" fill="#00DBB1" fill-opacity="0.4"/>
<circle cx="65" cy="25" r="1" transform="rotate(-180 65 25)" fill="#00DBB1" fill-opacity="0.4"/>
<circle cx="57" cy="25" r="1" transform="rotate(-180 57 25)" fill="#00DBB1" fill-opacity="0.4"/>
<circle cx="49" cy="25" r="1" transform="rotate(-180 49 25)" fill="#00DBB1" fill-opacity="0.4"/>
<circle cx="41" cy="25" r="1" transform="rotate(-180 41 25)" fill="#00DBB1" fill-opacity="0.4"/>
<circle cx="33" cy="25" r="1" transform="rotate(-180 33 25)" fill="#00DBB1" fill-opacity="0.4"/>
<circle cx="25" cy="25" r="1" transform="rotate(-180 25 25)" fill="#00DBB1" fill-opacity="0.4"/>
<circle cx="17" cy="25" r="1" transform="rotate(-180 17 25)" fill="#00DBB1" fill-opacity="0.4"/>
<circle cx="9" cy="25" r="1" transform="rotate(-180 9 25)" fill="#00DBB1" fill-opacity="0.4"/>
<circle cx="1" cy="25" r="1" transform="rotate(-180 1 25)" fill="#00DBB1" fill-opacity="0.4"/>
<circle cx="73" cy="17" r="1" transform="rotate(-180 73 17)" fill="#00DBB1" fill-opacity="0.4"/>
<circle cx="65" cy="17" r="1" transform="rotate(-180 65 17)" fill="#00DBB1" fill-opacity="0.4"/>
<circle cx="57" cy="17" r="1" transform="rotate(-180 57 17)" fill="#00DBB1" fill-opacity="0.4"/>
<circle cx="49" cy="17" r="1" transform="rotate(-180 49 17)" fill="#00DBB1" fill-opacity="0.4"/>
<circle cx="41" cy="17" r="1" transform="rotate(-180 41 17)" fill="#00DBB1" fill-opacity="0.4"/>
<circle cx="33" cy="17" r="1" transform="rotate(-180 33 17)" fill="#00DBB1" fill-opacity="0.4"/>
<circle cx="25" cy="17" r="1" transform="rotate(-180 25 17)" fill="#00DBB1" fill-opacity="0.4"/>
<circle cx="17" cy="17" r="1" transform="rotate(-180 17 17)" fill="#00DBB1" fill-opacity="0.4"/>
<circle cx="9" cy="17" r="1" transform="rotate(-180 9 17)" fill="#00DBB1" fill-opacity="0.4"/>
<circle cx="1" cy="17" r="1" transform="rotate(-180 1 17)" fill="#00DBB1" fill-opacity="0.4"/>
<circle cx="73" cy="9" r="1" transform="rotate(-180 73 9)" fill="#00DBB1" fill-opacity="0.4"/>
<circle cx="65" cy="9" r="1" transform="rotate(-180 65 9)" fill="#00DBB1" fill-opacity="0.4"/>
<circle cx="57" cy="9" r="1" transform="rotate(-180 57 9)" fill="#00DBB1" fill-opacity="0.4"/>
<circle cx="49" cy="9" r="1" transform="rotate(-180 49 9)" fill="#00DBB1" fill-opacity="0.4"/>
<circle cx="41" cy="9" r="1" transform="rotate(-180 41 9)" fill="#00DBB1" fill-opacity="0.4"/>
<circle cx="33" cy="9" r="1" transform="rotate(-180 33 9)" fill="#00DBB1" fill-opacity="0.4"/>
<circle cx="25" cy="9" r="1" transform="rotate(-180 25 9)" fill="#00DBB1" fill-opacity="0.4"/>
<circle cx="17" cy="9" r="1" transform="rotate(-180 17 9)" fill="#00DBB1" fill-opacity="0.4"/>
<circle cx="9" cy="9" r="1" transform="rotate(-180 9 9)" fill="#00DBB1" fill-opacity="0.4"/>
<circle cx="1" cy="9" r="1" transform="rotate(-180 1 9)" fill="#00DBB1" fill-opacity="0.4"/>
<circle cx="73" cy="1" r="1" transform="rotate(-180 73 1)" fill="#00DBB1" fill-opacity="0.4"/>
<circle cx="65" cy="1" r="1" transform="rotate(-180 65 1)" fill="#00DBB1" fill-opacity="0.4"/>
<circle cx="57" cy="1" r="1" transform="rotate(-180 57 1)" fill="#00DBB1" fill-opacity="0.4"/>
<circle cx="49" cy="1" r="1" transform="rotate(-180 49 1)" fill="#00DBB1" fill-opacity="0.4"/>
<circle cx="41" cy="1" r="1" transform="rotate(-180 41 1)" fill="#00DBB1" fill-opacity="0.4"/>
<circle cx="33" cy="1" r="1" transform="rotate(-180 33 1)" fill="#00DBB1" fill-opacity="0.4"/>
<circle cx="25" cy="1" r="1" transform="rotate(-180 25 1)" fill="#00DBB1" fill-opacity="0.4"/>
<circle cx="17" cy="1" r="1" transform="rotate(-180 17 1)" fill="#00DBB1" fill-opacity="0.4"/>
<circle cx="9" cy="1" r="1" transform="rotate(-180 9 1)" fill="#00DBB1" fill-opacity="0.4"/>
<circle cx="1" cy="1" r="1" transform="rotate(-180 1 1)" fill="#00DBB1" fill-opacity="0.4"/>
<circle cx="551" cy="3" r="1" transform="rotate(90 551 3)" fill="#00DBB1" fill-opacity="0.4"/>
<circle cx="551" cy="11" r="1" transform="rotate(90 551 11)" fill="#00DBB1" fill-opacity="0.4"/>
<circle cx="551" cy="19" r="1" transform="rotate(90 551 19)" fill="#00DBB1" fill-opacity="0.4"/>
<circle cx="551" cy="27" r="1" transform="rotate(90 551 27)" fill="#00DBB1" fill-opacity="0.4"/>
<circle cx="551" cy="35" r="1" transform="rotate(90 551 35)" fill="#00DBB1" fill-opacity="0.4"/>
<circle cx="551" cy="43" r="1" transform="rotate(90 551 43)" fill="#00DBB1" fill-opacity="0.4"/>
<circle cx="551" cy="51" r="1" transform="rotate(90 551 51)" fill="#00DBB1" fill-opacity="0.4"/>
<circle cx="551" cy="59" r="1" transform="rotate(90 551 59)" fill="#00DBB1" fill-opacity="0.4"/>
<circle cx="551" cy="67" r="1" transform="rotate(90 551 67)" fill="#00DBB1" fill-opacity="0.4"/>
<circle cx="551" cy="75" r="1" transform="rotate(90 551 75)" fill="#00DBB1" fill-opacity="0.4"/>
<circle cx="543" cy="3" r="1" transform="rotate(90 543 3)" fill="#00DBB1" fill-opacity="0.4"/>
<circle cx="543" cy="11" r="1" transform="rotate(90 543 11)" fill="#00DBB1" fill-opacity="0.4"/>
<circle cx="543" cy="19" r="1" transform="rotate(90 543 19)" fill="#00DBB1" fill-opacity="0.4"/>
<circle cx="543" cy="27" r="1" transform="rotate(90 543 27)" fill="#00DBB1" fill-opacity="0.4"/>
<circle cx="543" cy="35" r="1" transform="rotate(90 543 35)" fill="#00DBB1" fill-opacity="0.4"/>
<circle cx="543" cy="43" r="1" transform="rotate(90 543 43)" fill="#00DBB1" fill-opacity="0.4"/>
<circle cx="543" cy="51" r="1" transform="rotate(90 543 51)" fill="#00DBB1" fill-opacity="0.4"/>
<circle cx="543" cy="59" r="1" transform="rotate(90 543 59)" fill="#00DBB1" fill-opacity="0.4"/>
<circle cx="543" cy="67" r="1" transform="rotate(90 543 67)" fill="#00DBB1" fill-opacity="0.4"/>
<circle cx="543" cy="75" r="1" transform="rotate(90 543 75)" fill="#00DBB1" fill-opacity="0.4"/>
<circle cx="535" cy="3" r="1" transform="rotate(90 535 3)" fill="#00DBB1" fill-opacity="0.4"/>
<circle cx="535" cy="11" r="1" transform="rotate(90 535 11)" fill="#00DBB1" fill-opacity="0.4"/>
<circle cx="535" cy="19" r="1" transform="rotate(90 535 19)" fill="#00DBB1" fill-opacity="0.4"/>
<circle cx="535" cy="27" r="1" transform="rotate(90 535 27)" fill="#00DBB1" fill-opacity="0.4"/>
<circle cx="535" cy="35" r="1" transform="rotate(90 535 35)" fill="#00DBB1" fill-opacity="0.4"/>
<circle cx="535" cy="43" r="1" transform="rotate(90 535 43)" fill="#00DBB1" fill-opacity="0.4"/>
<circle cx="535" cy="51" r="1" transform="rotate(90 535 51)" fill="#00DBB1" fill-opacity="0.4"/>
<circle cx="535" cy="59" r="1" transform="rotate(90 535 59)" fill="#00DBB1" fill-opacity="0.4"/>
<circle cx="535" cy="67" r="1" transform="rotate(90 535 67)" fill="#00DBB1" fill-opacity="0.4"/>
<circle cx="535" cy="75" r="1" transform="rotate(90 535 75)" fill="#00DBB1" fill-opacity="0.4"/>
<circle cx="527" cy="3" r="1" transform="rotate(90 527 3)" fill="#00DBB1" fill-opacity="0.4"/>
<circle cx="527" cy="11" r="1" transform="rotate(90 527 11)" fill="#00DBB1" fill-opacity="0.4"/>
<circle cx="527" cy="19" r="1" transform="rotate(90 527 19)" fill="#00DBB1" fill-opacity="0.4"/>
<circle cx="527" cy="27" r="1" transform="rotate(90 527 27)" fill="#00DBB1" fill-opacity="0.4"/>
<circle cx="527" cy="35" r="1" transform="rotate(90 527 35)" fill="#00DBB1" fill-opacity="0.4"/>
<circle cx="527" cy="43" r="1" transform="rotate(90 527 43)" fill="#00DBB1" fill-opacity="0.4"/>
<circle cx="527" cy="51" r="1" transform="rotate(90 527 51)" fill="#00DBB1" fill-opacity="0.4"/>
<circle cx="527" cy="59" r="1" transform="rotate(90 527 59)" fill="#00DBB1" fill-opacity="0.4"/>
<circle cx="527" cy="67" r="1" transform="rotate(90 527 67)" fill="#00DBB1" fill-opacity="0.4"/>
<circle cx="527" cy="75" r="1" transform="rotate(90 527 75)" fill="#00DBB1" fill-opacity="0.4"/>
<circle cx="519" cy="3" r="1" transform="rotate(90 519 3)" fill="#00DBB1" fill-opacity="0.4"/>
<circle cx="519" cy="11" r="1" transform="rotate(90 519 11)" fill="#00DBB1" fill-opacity="0.4"/>
<circle cx="519" cy="19" r="1" transform="rotate(90 519 19)" fill="#00DBB1" fill-opacity="0.4"/>
<circle cx="519" cy="27" r="1" transform="rotate(90 519 27)" fill="#00DBB1" fill-opacity="0.4"/>
<circle cx="519" cy="35" r="1" transform="rotate(90 519 35)" fill="#00DBB1" fill-opacity="0.4"/>
<circle cx="519" cy="43" r="1" transform="rotate(90 519 43)" fill="#00DBB1" fill-opacity="0.4"/>
<circle cx="519" cy="51" r="1" transform="rotate(90 519 51)" fill="#00DBB1" fill-opacity="0.4"/>
<circle cx="519" cy="59" r="1" transform="rotate(90 519 59)" fill="#00DBB1" fill-opacity="0.4"/>
<circle cx="519" cy="67" r="1" transform="rotate(90 519 67)" fill="#00DBB1" fill-opacity="0.4"/>
<circle cx="519" cy="75" r="1" transform="rotate(90 519 75)" fill="#00DBB1" fill-opacity="0.4"/>
<circle cx="511" cy="3" r="1" transform="rotate(90 511 3)" fill="#00DBB1" fill-opacity="0.4"/>
<circle cx="511" cy="11" r="1" transform="rotate(90 511 11)" fill="#00DBB1" fill-opacity="0.4"/>
<circle cx="511" cy="19" r="1" transform="rotate(90 511 19)" fill="#00DBB1" fill-opacity="0.4"/>
<circle cx="511" cy="27" r="1" transform="rotate(90 511 27)" fill="#00DBB1" fill-opacity="0.4"/>
<circle cx="511" cy="35" r="1" transform="rotate(90 511 35)" fill="#00DBB1" fill-opacity="0.4"/>
<circle cx="511" cy="43" r="1" transform="rotate(90 511 43)" fill="#00DBB1" fill-opacity="0.4"/>
<circle cx="511" cy="51" r="1" transform="rotate(90 511 51)" fill="#00DBB1" fill-opacity="0.4"/>
<circle cx="511" cy="59" r="1" transform="rotate(90 511 59)" fill="#00DBB1" fill-opacity="0.4"/>
<circle cx="511" cy="67" r="1" transform="rotate(90 511 67)" fill="#00DBB1" fill-opacity="0.4"/>
<circle cx="511" cy="75" r="1" transform="rotate(90 511 75)" fill="#00DBB1" fill-opacity="0.4"/>
<circle cx="503" cy="3" r="1" transform="rotate(90 503 3)" fill="#00DBB1" fill-opacity="0.4"/>
<circle cx="503" cy="11" r="1" transform="rotate(90 503 11)" fill="#00DBB1" fill-opacity="0.4"/>
<circle cx="503" cy="19" r="1" transform="rotate(90 503 19)" fill="#00DBB1" fill-opacity="0.4"/>
<circle cx="503" cy="27" r="1" transform="rotate(90 503 27)" fill="#00DBB1" fill-opacity="0.4"/>
<circle cx="503" cy="35" r="1" transform="rotate(90 503 35)" fill="#00DBB1" fill-opacity="0.4"/>
<circle cx="503" cy="43" r="1" transform="rotate(90 503 43)" fill="#00DBB1" fill-opacity="0.4"/>
<circle cx="503" cy="51" r="1" transform="rotate(90 503 51)" fill="#00DBB1" fill-opacity="0.4"/>
<circle cx="503" cy="59" r="1" transform="rotate(90 503 59)" fill="#00DBB1" fill-opacity="0.4"/>
<circle cx="503" cy="67" r="1" transform="rotate(90 503 67)" fill="#00DBB1" fill-opacity="0.4"/>
<circle cx="503" cy="75" r="1" transform="rotate(90 503 75)" fill="#00DBB1" fill-opacity="0.4"/>
<circle cx="495" cy="3" r="1" transform="rotate(90 495 3)" fill="#00DBB1" fill-opacity="0.4"/>
<circle cx="495" cy="11" r="1" transform="rotate(90 495 11)" fill="#00DBB1" fill-opacity="0.4"/>
<circle cx="495" cy="19" r="1" transform="rotate(90 495 19)" fill="#00DBB1" fill-opacity="0.4"/>
<circle cx="495" cy="27" r="1" transform="rotate(90 495 27)" fill="#00DBB1" fill-opacity="0.4"/>
<circle cx="495" cy="35" r="1" transform="rotate(90 495 35)" fill="#00DBB1" fill-opacity="0.4"/>
<circle cx="495" cy="43" r="1" transform="rotate(90 495 43)" fill="#00DBB1" fill-opacity="0.4"/>
<circle cx="495" cy="51" r="1" transform="rotate(90 495 51)" fill="#00DBB1" fill-opacity="0.4"/>
<circle cx="495" cy="59" r="1" transform="rotate(90 495 59)" fill="#00DBB1" fill-opacity="0.4"/>
<circle cx="495" cy="67" r="1" transform="rotate(90 495 67)" fill="#00DBB1" fill-opacity="0.4"/>
<circle cx="495" cy="75" r="1" transform="rotate(90 495 75)" fill="#00DBB1" fill-opacity="0.4"/>
<circle cx="487" cy="3" r="1" transform="rotate(90 487 3)" fill="#00DBB1" fill-opacity="0.4"/>
<circle cx="487" cy="11" r="1" transform="rotate(90 487 11)" fill="#00DBB1" fill-opacity="0.4"/>
<circle cx="487" cy="19" r="1" transform="rotate(90 487 19)" fill="#00DBB1" fill-opacity="0.4"/>
<circle cx="487" cy="27" r="1" transform="rotate(90 487 27)" fill="#00DBB1" fill-opacity="0.4"/>
<circle cx="487" cy="35" r="1" transform="rotate(90 487 35)" fill="#00DBB1" fill-opacity="0.4"/>
<circle cx="487" cy="43" r="1" transform="rotate(90 487 43)" fill="#00DBB1" fill-opacity="0.4"/>
<circle cx="487" cy="51" r="1" transform="rotate(90 487 51)" fill="#00DBB1" fill-opacity="0.4"/>
<circle cx="487" cy="59" r="1" transform="rotate(90 487 59)" fill="#00DBB1" fill-opacity="0.4"/>
<circle cx="487" cy="67" r="1" transform="rotate(90 487 67)" fill="#00DBB1" fill-opacity="0.4"/>
<circle cx="487" cy="75" r="1" transform="rotate(90 487 75)" fill="#00DBB1" fill-opacity="0.4"/>
<circle cx="479" cy="3" r="1" transform="rotate(90 479 3)" fill="#00DBB1" fill-opacity="0.4"/>
<circle cx="479" cy="11" r="1" transform="rotate(90 479 11)" fill="#00DBB1" fill-opacity="0.4"/>
<circle cx="479" cy="19" r="1" transform="rotate(90 479 19)" fill="#00DBB1" fill-opacity="0.4"/>
<circle cx="479" cy="27" r="1" transform="rotate(90 479 27)" fill="#00DBB1" fill-opacity="0.4"/>
<circle cx="479" cy="35" r="1" transform="rotate(90 479 35)" fill="#00DBB1" fill-opacity="0.4"/>
<circle cx="479" cy="43" r="1" transform="rotate(90 479 43)" fill="#00DBB1" fill-opacity="0.4"/>
<circle cx="479" cy="51" r="1" transform="rotate(90 479 51)" fill="#00DBB1" fill-opacity="0.4"/>
<circle cx="479" cy="59" r="1" transform="rotate(90 479 59)" fill="#00DBB1" fill-opacity="0.4"/>
<circle cx="479" cy="67" r="1" transform="rotate(90 479 67)" fill="#00DBB1" fill-opacity="0.4"/>
<circle cx="479" cy="75" r="1" transform="rotate(90 479 75)" fill="#00DBB1" fill-opacity="0.4"/>
<circle cx="471" cy="3" r="1" transform="rotate(90 471 3)" fill="#00DBB1" fill-opacity="0.4"/>
<circle cx="471" cy="11" r="1" transform="rotate(90 471 11)" fill="#00DBB1" fill-opacity="0.4"/>
<circle cx="471" cy="19" r="1" transform="rotate(90 471 19)" fill="#00DBB1" fill-opacity="0.4"/>
<circle cx="471" cy="27" r="1" transform="rotate(90 471 27)" fill="#00DBB1" fill-opacity="0.4"/>
<circle cx="471" cy="35" r="1" transform="rotate(90 471 35)" fill="#00DBB1" fill-opacity="0.4"/>
<circle cx="471" cy="43" r="1" transform="rotate(90 471 43)" fill="#00DBB1" fill-opacity="0.4"/>
<circle cx="471" cy="51" r="1" transform="rotate(90 471 51)" fill="#00DBB1" fill-opacity="0.4"/>
<circle cx="471" cy="59" r="1" transform="rotate(90 471 59)" fill="#00DBB1" fill-opacity="0.4"/>
<circle cx="471" cy="67" r="1" transform="rotate(90 471 67)" fill="#00DBB1" fill-opacity="0.4"/>
<circle cx="471" cy="75" r="1" transform="rotate(90 471 75)" fill="#00DBB1" fill-opacity="0.4"/>
<circle cx="463" cy="3" r="1" transform="rotate(90 463 3)" fill="#00DBB1" fill-opacity="0.4"/>
<circle cx="463" cy="11" r="1" transform="rotate(90 463 11)" fill="#00DBB1" fill-opacity="0.4"/>
<circle cx="463" cy="19" r="1" transform="rotate(90 463 19)" fill="#00DBB1" fill-opacity="0.4"/>
<circle cx="463" cy="27" r="1" transform="rotate(90 463 27)" fill="#00DBB1" fill-opacity="0.4"/>
<circle cx="463" cy="35" r="1" transform="rotate(90 463 35)" fill="#00DBB1" fill-opacity="0.4"/>
<circle cx="463" cy="43" r="1" transform="rotate(90 463 43)" fill="#00DBB1" fill-opacity="0.4"/>
<circle cx="463" cy="51" r="1" transform="rotate(90 463 51)" fill="#00DBB1" fill-opacity="0.4"/>
<circle cx="463" cy="59" r="1" transform="rotate(90 463 59)" fill="#00DBB1" fill-opacity="0.4"/>
<circle cx="463" cy="67" r="1" transform="rotate(90 463 67)" fill="#00DBB1" fill-opacity="0.4"/>
<circle cx="463" cy="75" r="1" transform="rotate(90 463 75)" fill="#00DBB1" fill-opacity="0.4"/>
<circle cx="455" cy="3" r="1" transform="rotate(90 455 3)" fill="#00DBB1" fill-opacity="0.4"/>
<circle cx="455" cy="11" r="1" transform="rotate(90 455 11)" fill="#00DBB1" fill-opacity="0.4"/>
<circle cx="455" cy="19" r="1" transform="rotate(90 455 19)" fill="#00DBB1" fill-opacity="0.4"/>
<circle cx="455" cy="27" r="1" transform="rotate(90 455 27)" fill="#00DBB1" fill-opacity="0.4"/>
<circle cx="455" cy="35" r="1" transform="rotate(90 455 35)" fill="#00DBB1" fill-opacity="0.4"/>
<circle cx="455" cy="43" r="1" transform="rotate(90 455 43)" fill="#00DBB1" fill-opacity="0.4"/>
<circle cx="455" cy="51" r="1" transform="rotate(90 455 51)" fill="#00DBB1" fill-opacity="0.4"/>
<circle cx="455" cy="59" r="1" transform="rotate(90 455 59)" fill="#00DBB1" fill-opacity="0.4"/>
<circle cx="455" cy="67" r="1" transform="rotate(90 455 67)" fill="#00DBB1" fill-opacity="0.4"/>
<circle cx="455" cy="75" r="1" transform="rotate(90 455 75)" fill="#00DBB1" fill-opacity="0.4"/>
<circle cx="447" cy="3" r="1" transform="rotate(90 447 3)" fill="#00DBB1" fill-opacity="0.4"/>
<circle cx="447" cy="11" r="1" transform="rotate(90 447 11)" fill="#00DBB1" fill-opacity="0.4"/>
<circle cx="447" cy="19" r="1" transform="rotate(90 447 19)" fill="#00DBB1" fill-opacity="0.4"/>
<circle cx="447" cy="27" r="1" transform="rotate(90 447 27)" fill="#00DBB1" fill-opacity="0.4"/>
<circle cx="447" cy="35" r="1" transform="rotate(90 447 35)" fill="#00DBB1" fill-opacity="0.4"/>
<circle cx="447" cy="43" r="1" transform="rotate(90 447 43)" fill="#00DBB1" fill-opacity="0.4"/>
<circle cx="447" cy="51" r="1" transform="rotate(90 447 51)" fill="#00DBB1" fill-opacity="0.4"/>
<circle cx="447" cy="59" r="1" transform="rotate(90 447 59)" fill="#00DBB1" fill-opacity="0.4"/>
<circle cx="447" cy="67" r="1" transform="rotate(90 447 67)" fill="#00DBB1" fill-opacity="0.4"/>
<circle cx="447" cy="75" r="1" transform="rotate(90 447 75)" fill="#00DBB1" fill-opacity="0.4"/>
<circle cx="439" cy="3" r="1" transform="rotate(90 439 3)" fill="#00DBB1" fill-opacity="0.4"/>
<circle cx="439" cy="11" r="1" transform="rotate(90 439 11)" fill="#00DBB1" fill-opacity="0.4"/>
<circle cx="439" cy="19" r="1" transform="rotate(90 439 19)" fill="#00DBB1" fill-opacity="0.4"/>
<circle cx="439" cy="27" r="1" transform="rotate(90 439 27)" fill="#00DBB1" fill-opacity="0.4"/>
<circle cx="439" cy="35" r="1" transform="rotate(90 439 35)" fill="#00DBB1" fill-opacity="0.4"/>
<circle cx="439" cy="43" r="1" transform="rotate(90 439 43)" fill="#00DBB1" fill-opacity="0.4"/>
<circle cx="439" cy="51" r="1" transform="rotate(90 439 51)" fill="#00DBB1" fill-opacity="0.4"/>
<circle cx="439" cy="59" r="1" transform="rotate(90 439 59)" fill="#00DBB1" fill-opacity="0.4"/>
<circle cx="439" cy="67" r="1" transform="rotate(90 439 67)" fill="#00DBB1" fill-opacity="0.4"/>
<circle cx="439" cy="75" r="1" transform="rotate(90 439 75)" fill="#00DBB1" fill-opacity="0.4"/>
</svg>
