<svg width="28" height="28" viewBox="0 0 28 28" fill="none" xmlns="http://www.w3.org/2000/svg">
<g clip-path="url(#clip0_14177_51609)">
<path d="M9.03335 6.98856C5.94606 8.66955 4.37786 9.593 3.91472 11.1577C3.45158 12.7224 4.26451 14.3507 5.93948 17.4412L9.53748 15.4867C9.10609 15.3053 8.70836 15.031 8.37612 14.669C7.12554 13.3065 7.77785 11.1027 9.56854 10.6404C10.0443 10.5176 10.5272 10.5039 10.9879 10.5866L9.03335 6.98856Z" fill="#00DBB1" fill-opacity="0.2"/>
<path d="M6.53616 18.5396C8.21715 21.6269 9.1406 23.1951 10.7053 23.6583C12.27 24.1214 13.8983 23.3085 16.9888 21.6335L13.8559 15.8661C13.9044 17.3166 13.1505 18.74 11.7884 19.4799C11.4851 19.6446 11.1057 19.5323 10.9409 19.229C10.7761 18.9257 10.8885 18.5463 11.1918 18.3815C12.3171 17.7702 12.8357 16.4769 12.5135 15.2926L6.53616 18.5396Z" fill="#00DBB1" fill-opacity="0.2"/>
<path d="M18.0872 21.0368C21.1745 19.3559 22.7427 18.4324 23.2059 16.8677C23.669 15.303 22.8561 13.6747 21.1811 10.5842L15.2038 13.8312C16.0219 14.7461 17.3891 15.015 18.5144 14.4036C18.8177 14.2389 19.1972 14.3512 19.362 14.6545C19.5267 14.9578 19.4144 15.3373 19.1111 15.502C17.7491 16.2419 16.1446 16.0996 14.9542 15.2694L18.0872 21.0368Z" fill="#00DBB1" fill-opacity="0.2"/>
<path d="M20.5844 9.48576C18.9034 6.39846 17.98 4.83027 16.4153 4.36713C14.8505 3.90399 13.2223 4.71692 10.1317 6.39188L12.0863 9.98988C12.2677 9.55849 12.542 9.16077 12.904 8.82853C14.2665 7.57795 16.4703 8.23026 16.9326 10.0209C17.0554 10.4967 17.0691 10.9796 16.9864 11.4403L20.5844 9.48576Z" fill="#00DBB1" fill-opacity="0.2"/>
<path d="M9.881 11.8507C10.8055 11.6121 11.7737 12.0332 12.2295 12.8722L12.7128 13.7618L11.8231 14.2451C10.9841 14.7009 9.94264 14.5271 9.29701 13.8238C8.68454 13.1565 9.004 12.0771 9.881 11.8507Z" fill="#00DBB1" fill-opacity="0.2"/>
<path d="M13.3279 12.2755L13.8112 13.1652L14.7008 12.6819C15.5398 12.2261 15.9609 11.2579 15.7223 10.3334C15.4958 9.45641 14.4165 9.13694 13.7492 9.74941C13.0459 10.395 12.8721 11.4365 13.3279 12.2755Z" fill="#00DBB1" fill-opacity="0.2"/>
</g>
<defs>
<clipPath id="clip0_14177_51609">
<rect width="20" height="20" fill="white" transform="translate(0 10) rotate(-28.5119)"/>
</clipPath>
</defs>
</svg>
