<svg width="364" height="79" viewBox="0 0 364 79" fill="none" xmlns="http://www.w3.org/2000/svg">
<circle cx="73" cy="57" r="1" transform="rotate(-180 73 57)" fill="#00DBB1" fill-opacity="0.4"/>
<circle cx="65" cy="57" r="1" transform="rotate(-180 65 57)" fill="#00DBB1" fill-opacity="0.4"/>
<circle cx="57" cy="57" r="1" transform="rotate(-180 57 57)" fill="#00DBB1" fill-opacity="0.4"/>
<circle cx="49" cy="57" r="1" transform="rotate(-180 49 57)" fill="#00DBB1" fill-opacity="0.4"/>
<circle cx="41" cy="57" r="1" transform="rotate(-180 41 57)" fill="#00DBB1" fill-opacity="0.4"/>
<circle cx="33" cy="57" r="1" transform="rotate(-180 33 57)" fill="#00DBB1" fill-opacity="0.4"/>
<circle cx="25" cy="57" r="1" transform="rotate(-180 25 57)" fill="#00DBB1" fill-opacity="0.4"/>
<circle cx="17" cy="57" r="1" transform="rotate(-180 17 57)" fill="#00DBB1" fill-opacity="0.4"/>
<circle cx="9" cy="57" r="1" transform="rotate(-180 9 57)" fill="#00DBB1" fill-opacity="0.4"/>
<circle cx="1" cy="57" r="1" transform="rotate(-180 1 57)" fill="#00DBB1" fill-opacity="0.4"/>
<circle cx="73" cy="49" r="1" transform="rotate(-180 73 49)" fill="#00DBB1" fill-opacity="0.4"/>
<circle cx="65" cy="49" r="1" transform="rotate(-180 65 49)" fill="#00DBB1" fill-opacity="0.4"/>
<circle cx="57" cy="49" r="1" transform="rotate(-180 57 49)" fill="#00DBB1" fill-opacity="0.4"/>
<circle cx="49" cy="49" r="1" transform="rotate(-180 49 49)" fill="#00DBB1" fill-opacity="0.4"/>
<circle cx="41" cy="49" r="1" transform="rotate(-180 41 49)" fill="#00DBB1" fill-opacity="0.4"/>
<circle cx="33" cy="49" r="1" transform="rotate(-180 33 49)" fill="#00DBB1" fill-opacity="0.4"/>
<circle cx="25" cy="49" r="1" transform="rotate(-180 25 49)" fill="#00DBB1" fill-opacity="0.4"/>
<circle cx="17" cy="49" r="1" transform="rotate(-180 17 49)" fill="#00DBB1" fill-opacity="0.4"/>
<circle cx="9" cy="49" r="1" transform="rotate(-180 9 49)" fill="#00DBB1" fill-opacity="0.4"/>
<circle cx="1" cy="49" r="1" transform="rotate(-180 1 49)" fill="#00DBB1" fill-opacity="0.4"/>
<circle cx="73" cy="41" r="1" transform="rotate(-180 73 41)" fill="#00DBB1" fill-opacity="0.4"/>
<circle cx="65" cy="41" r="1" transform="rotate(-180 65 41)" fill="#00DBB1" fill-opacity="0.4"/>
<circle cx="57" cy="41" r="1" transform="rotate(-180 57 41)" fill="#00DBB1" fill-opacity="0.4"/>
<circle cx="49" cy="41" r="1" transform="rotate(-180 49 41)" fill="#00DBB1" fill-opacity="0.4"/>
<circle cx="41" cy="41" r="1" transform="rotate(-180 41 41)" fill="#00DBB1" fill-opacity="0.4"/>
<circle cx="33" cy="41" r="1" transform="rotate(-180 33 41)" fill="#00DBB1" fill-opacity="0.4"/>
<circle cx="25" cy="41" r="1" transform="rotate(-180 25 41)" fill="#00DBB1" fill-opacity="0.4"/>
<circle cx="17" cy="41" r="1" transform="rotate(-180 17 41)" fill="#00DBB1" fill-opacity="0.4"/>
<circle cx="9" cy="41" r="1" transform="rotate(-180 9 41)" fill="#00DBB1" fill-opacity="0.4"/>
<circle cx="1" cy="41" r="1" transform="rotate(-180 1 41)" fill="#00DBB1" fill-opacity="0.4"/>
<circle cx="73" cy="33" r="1" transform="rotate(-180 73 33)" fill="#00DBB1" fill-opacity="0.4"/>
<circle cx="65" cy="33" r="1" transform="rotate(-180 65 33)" fill="#00DBB1" fill-opacity="0.4"/>
<circle cx="57" cy="33" r="1" transform="rotate(-180 57 33)" fill="#00DBB1" fill-opacity="0.4"/>
<circle cx="49" cy="33" r="1" transform="rotate(-180 49 33)" fill="#00DBB1" fill-opacity="0.4"/>
<circle cx="41" cy="33" r="1" transform="rotate(-180 41 33)" fill="#00DBB1" fill-opacity="0.4"/>
<circle cx="33" cy="33" r="1" transform="rotate(-180 33 33)" fill="#00DBB1" fill-opacity="0.4"/>
<circle cx="25" cy="33" r="1" transform="rotate(-180 25 33)" fill="#00DBB1" fill-opacity="0.4"/>
<circle cx="17" cy="33" r="1" transform="rotate(-180 17 33)" fill="#00DBB1" fill-opacity="0.4"/>
<circle cx="9" cy="33" r="1" transform="rotate(-180 9 33)" fill="#00DBB1" fill-opacity="0.4"/>
<circle cx="1" cy="33" r="1" transform="rotate(-180 1 33)" fill="#00DBB1" fill-opacity="0.4"/>
<circle cx="73" cy="25" r="1" transform="rotate(-180 73 25)" fill="#00DBB1" fill-opacity="0.4"/>
<circle cx="65" cy="25" r="1" transform="rotate(-180 65 25)" fill="#00DBB1" fill-opacity="0.4"/>
<circle cx="57" cy="25" r="1" transform="rotate(-180 57 25)" fill="#00DBB1" fill-opacity="0.4"/>
<circle cx="49" cy="25" r="1" transform="rotate(-180 49 25)" fill="#00DBB1" fill-opacity="0.4"/>
<circle cx="41" cy="25" r="1" transform="rotate(-180 41 25)" fill="#00DBB1" fill-opacity="0.4"/>
<circle cx="33" cy="25" r="1" transform="rotate(-180 33 25)" fill="#00DBB1" fill-opacity="0.4"/>
<circle cx="25" cy="25" r="1" transform="rotate(-180 25 25)" fill="#00DBB1" fill-opacity="0.4"/>
<circle cx="17" cy="25" r="1" transform="rotate(-180 17 25)" fill="#00DBB1" fill-opacity="0.4"/>
<circle cx="9" cy="25" r="1" transform="rotate(-180 9 25)" fill="#00DBB1" fill-opacity="0.4"/>
<circle cx="1" cy="25" r="1" transform="rotate(-180 1 25)" fill="#00DBB1" fill-opacity="0.4"/>
<circle cx="73" cy="17" r="1" transform="rotate(-180 73 17)" fill="#00DBB1" fill-opacity="0.4"/>
<circle cx="65" cy="17" r="1" transform="rotate(-180 65 17)" fill="#00DBB1" fill-opacity="0.4"/>
<circle cx="57" cy="17" r="1" transform="rotate(-180 57 17)" fill="#00DBB1" fill-opacity="0.4"/>
<circle cx="49" cy="17" r="1" transform="rotate(-180 49 17)" fill="#00DBB1" fill-opacity="0.4"/>
<circle cx="41" cy="17" r="1" transform="rotate(-180 41 17)" fill="#00DBB1" fill-opacity="0.4"/>
<circle cx="33" cy="17" r="1" transform="rotate(-180 33 17)" fill="#00DBB1" fill-opacity="0.4"/>
<circle cx="25" cy="17" r="1" transform="rotate(-180 25 17)" fill="#00DBB1" fill-opacity="0.4"/>
<circle cx="17" cy="17" r="1" transform="rotate(-180 17 17)" fill="#00DBB1" fill-opacity="0.4"/>
<circle cx="9" cy="17" r="1" transform="rotate(-180 9 17)" fill="#00DBB1" fill-opacity="0.4"/>
<circle cx="1" cy="17" r="1" transform="rotate(-180 1 17)" fill="#00DBB1" fill-opacity="0.4"/>
<circle cx="73" cy="9" r="1" transform="rotate(-180 73 9)" fill="#00DBB1" fill-opacity="0.4"/>
<circle cx="65" cy="9" r="1" transform="rotate(-180 65 9)" fill="#00DBB1" fill-opacity="0.4"/>
<circle cx="57" cy="9" r="1" transform="rotate(-180 57 9)" fill="#00DBB1" fill-opacity="0.4"/>
<circle cx="49" cy="9" r="1" transform="rotate(-180 49 9)" fill="#00DBB1" fill-opacity="0.4"/>
<circle cx="41" cy="9" r="1" transform="rotate(-180 41 9)" fill="#00DBB1" fill-opacity="0.4"/>
<circle cx="33" cy="9" r="1" transform="rotate(-180 33 9)" fill="#00DBB1" fill-opacity="0.4"/>
<circle cx="25" cy="9" r="1" transform="rotate(-180 25 9)" fill="#00DBB1" fill-opacity="0.4"/>
<circle cx="17" cy="9" r="1" transform="rotate(-180 17 9)" fill="#00DBB1" fill-opacity="0.4"/>
<circle cx="9" cy="9" r="1" transform="rotate(-180 9 9)" fill="#00DBB1" fill-opacity="0.4"/>
<circle cx="1" cy="9" r="1" transform="rotate(-180 1 9)" fill="#00DBB1" fill-opacity="0.4"/>
<circle cx="73" cy="1" r="1" transform="rotate(-180 73 1)" fill="#00DBB1" fill-opacity="0.4"/>
<circle cx="65" cy="1" r="1" transform="rotate(-180 65 1)" fill="#00DBB1" fill-opacity="0.4"/>
<circle cx="57" cy="1" r="1" transform="rotate(-180 57 1)" fill="#00DBB1" fill-opacity="0.4"/>
<circle cx="49" cy="1" r="1" transform="rotate(-180 49 1)" fill="#00DBB1" fill-opacity="0.4"/>
<circle cx="41" cy="1" r="1" transform="rotate(-180 41 1)" fill="#00DBB1" fill-opacity="0.4"/>
<circle cx="33" cy="1" r="1" transform="rotate(-180 33 1)" fill="#00DBB1" fill-opacity="0.4"/>
<circle cx="25" cy="1" r="1" transform="rotate(-180 25 1)" fill="#00DBB1" fill-opacity="0.4"/>
<circle cx="17" cy="1" r="1" transform="rotate(-180 17 1)" fill="#00DBB1" fill-opacity="0.4"/>
<circle cx="9" cy="1" r="1" transform="rotate(-180 9 1)" fill="#00DBB1" fill-opacity="0.4"/>
<circle cx="1" cy="1" r="1" transform="rotate(-180 1 1)" fill="#00DBB1" fill-opacity="0.4"/>
<circle cx="363" cy="78" r="1" transform="rotate(-180 363 78)" fill="#00DBB1" fill-opacity="0.4"/>
<circle cx="355" cy="78" r="1" transform="rotate(-180 355 78)" fill="#00DBB1" fill-opacity="0.4"/>
<circle cx="347" cy="78" r="1" transform="rotate(-180 347 78)" fill="#00DBB1" fill-opacity="0.4"/>
<circle cx="339" cy="78" r="1" transform="rotate(-180 339 78)" fill="#00DBB1" fill-opacity="0.4"/>
<circle cx="331" cy="78" r="1" transform="rotate(-180 331 78)" fill="#00DBB1" fill-opacity="0.4"/>
<circle cx="323" cy="78" r="1" transform="rotate(-180 323 78)" fill="#00DBB1" fill-opacity="0.4"/>
<circle cx="315" cy="78" r="1" transform="rotate(-180 315 78)" fill="#00DBB1" fill-opacity="0.4"/>
<circle cx="307" cy="78" r="1" transform="rotate(-180 307 78)" fill="#00DBB1" fill-opacity="0.4"/>
<circle cx="299" cy="78" r="1" transform="rotate(-180 299 78)" fill="#00DBB1" fill-opacity="0.4"/>
<circle cx="291" cy="78" r="1" transform="rotate(-180 291 78)" fill="#00DBB1" fill-opacity="0.4"/>
<circle cx="363" cy="70" r="1" transform="rotate(-180 363 70)" fill="#00DBB1" fill-opacity="0.4"/>
<circle cx="355" cy="70" r="1" transform="rotate(-180 355 70)" fill="#00DBB1" fill-opacity="0.4"/>
<circle cx="347" cy="70" r="1" transform="rotate(-180 347 70)" fill="#00DBB1" fill-opacity="0.4"/>
<circle cx="339" cy="70" r="1" transform="rotate(-180 339 70)" fill="#00DBB1" fill-opacity="0.4"/>
<circle cx="331" cy="70" r="1" transform="rotate(-180 331 70)" fill="#00DBB1" fill-opacity="0.4"/>
<circle cx="323" cy="70" r="1" transform="rotate(-180 323 70)" fill="#00DBB1" fill-opacity="0.4"/>
<circle cx="315" cy="70" r="1" transform="rotate(-180 315 70)" fill="#00DBB1" fill-opacity="0.4"/>
<circle cx="307" cy="70" r="1" transform="rotate(-180 307 70)" fill="#00DBB1" fill-opacity="0.4"/>
<circle cx="299" cy="70" r="1" transform="rotate(-180 299 70)" fill="#00DBB1" fill-opacity="0.4"/>
<circle cx="291" cy="70" r="1" transform="rotate(-180 291 70)" fill="#00DBB1" fill-opacity="0.4"/>
<circle cx="363" cy="62" r="1" transform="rotate(-180 363 62)" fill="#00DBB1" fill-opacity="0.4"/>
<circle cx="355" cy="62" r="1" transform="rotate(-180 355 62)" fill="#00DBB1" fill-opacity="0.4"/>
<circle cx="347" cy="62" r="1" transform="rotate(-180 347 62)" fill="#00DBB1" fill-opacity="0.4"/>
<circle cx="339" cy="62" r="1" transform="rotate(-180 339 62)" fill="#00DBB1" fill-opacity="0.4"/>
<circle cx="331" cy="62" r="1" transform="rotate(-180 331 62)" fill="#00DBB1" fill-opacity="0.4"/>
<circle cx="323" cy="62" r="1" transform="rotate(-180 323 62)" fill="#00DBB1" fill-opacity="0.4"/>
<circle cx="315" cy="62" r="1" transform="rotate(-180 315 62)" fill="#00DBB1" fill-opacity="0.4"/>
<circle cx="307" cy="62" r="1" transform="rotate(-180 307 62)" fill="#00DBB1" fill-opacity="0.4"/>
<circle cx="299" cy="62" r="1" transform="rotate(-180 299 62)" fill="#00DBB1" fill-opacity="0.4"/>
<circle cx="291" cy="62" r="1" transform="rotate(-180 291 62)" fill="#00DBB1" fill-opacity="0.4"/>
<circle cx="363" cy="54" r="1" transform="rotate(-180 363 54)" fill="#00DBB1" fill-opacity="0.4"/>
<circle cx="355" cy="54" r="1" transform="rotate(-180 355 54)" fill="#00DBB1" fill-opacity="0.4"/>
<circle cx="347" cy="54" r="1" transform="rotate(-180 347 54)" fill="#00DBB1" fill-opacity="0.4"/>
<circle cx="339" cy="54" r="1" transform="rotate(-180 339 54)" fill="#00DBB1" fill-opacity="0.4"/>
<circle cx="331" cy="54" r="1" transform="rotate(-180 331 54)" fill="#00DBB1" fill-opacity="0.4"/>
<circle cx="323" cy="54" r="1" transform="rotate(-180 323 54)" fill="#00DBB1" fill-opacity="0.4"/>
<circle cx="315" cy="54" r="1" transform="rotate(-180 315 54)" fill="#00DBB1" fill-opacity="0.4"/>
<circle cx="307" cy="54" r="1" transform="rotate(-180 307 54)" fill="#00DBB1" fill-opacity="0.4"/>
<circle cx="299" cy="54" r="1" transform="rotate(-180 299 54)" fill="#00DBB1" fill-opacity="0.4"/>
<circle cx="291" cy="54" r="1" transform="rotate(-180 291 54)" fill="#00DBB1" fill-opacity="0.4"/>
<circle cx="363" cy="46" r="1" transform="rotate(-180 363 46)" fill="#00DBB1" fill-opacity="0.4"/>
<circle cx="355" cy="46" r="1" transform="rotate(-180 355 46)" fill="#00DBB1" fill-opacity="0.4"/>
<circle cx="347" cy="46" r="1" transform="rotate(-180 347 46)" fill="#00DBB1" fill-opacity="0.4"/>
<circle cx="339" cy="46" r="1" transform="rotate(-180 339 46)" fill="#00DBB1" fill-opacity="0.4"/>
<circle cx="331" cy="46" r="1" transform="rotate(-180 331 46)" fill="#00DBB1" fill-opacity="0.4"/>
<circle cx="323" cy="46" r="1" transform="rotate(-180 323 46)" fill="#00DBB1" fill-opacity="0.4"/>
<circle cx="315" cy="46" r="1" transform="rotate(-180 315 46)" fill="#00DBB1" fill-opacity="0.4"/>
<circle cx="307" cy="46" r="1" transform="rotate(-180 307 46)" fill="#00DBB1" fill-opacity="0.4"/>
<circle cx="299" cy="46" r="1" transform="rotate(-180 299 46)" fill="#00DBB1" fill-opacity="0.4"/>
<circle cx="291" cy="46" r="1" transform="rotate(-180 291 46)" fill="#00DBB1" fill-opacity="0.4"/>
<circle cx="363" cy="38" r="1" transform="rotate(-180 363 38)" fill="#00DBB1" fill-opacity="0.4"/>
<circle cx="355" cy="38" r="1" transform="rotate(-180 355 38)" fill="#00DBB1" fill-opacity="0.4"/>
<circle cx="347" cy="38" r="1" transform="rotate(-180 347 38)" fill="#00DBB1" fill-opacity="0.4"/>
<circle cx="339" cy="38" r="1" transform="rotate(-180 339 38)" fill="#00DBB1" fill-opacity="0.4"/>
<circle cx="331" cy="38" r="1" transform="rotate(-180 331 38)" fill="#00DBB1" fill-opacity="0.4"/>
<circle cx="323" cy="38" r="1" transform="rotate(-180 323 38)" fill="#00DBB1" fill-opacity="0.4"/>
<circle cx="315" cy="38" r="1" transform="rotate(-180 315 38)" fill="#00DBB1" fill-opacity="0.4"/>
<circle cx="307" cy="38" r="1" transform="rotate(-180 307 38)" fill="#00DBB1" fill-opacity="0.4"/>
<circle cx="299" cy="38" r="1" transform="rotate(-180 299 38)" fill="#00DBB1" fill-opacity="0.4"/>
<circle cx="291" cy="38" r="1" transform="rotate(-180 291 38)" fill="#00DBB1" fill-opacity="0.4"/>
<circle cx="363" cy="30" r="1" transform="rotate(-180 363 30)" fill="#00DBB1" fill-opacity="0.4"/>
<circle cx="355" cy="30" r="1" transform="rotate(-180 355 30)" fill="#00DBB1" fill-opacity="0.4"/>
<circle cx="347" cy="30" r="1" transform="rotate(-180 347 30)" fill="#00DBB1" fill-opacity="0.4"/>
<circle cx="339" cy="30" r="1" transform="rotate(-180 339 30)" fill="#00DBB1" fill-opacity="0.4"/>
<circle cx="331" cy="30" r="1" transform="rotate(-180 331 30)" fill="#00DBB1" fill-opacity="0.4"/>
<circle cx="323" cy="30" r="1" transform="rotate(-180 323 30)" fill="#00DBB1" fill-opacity="0.4"/>
<circle cx="315" cy="30" r="1" transform="rotate(-180 315 30)" fill="#00DBB1" fill-opacity="0.4"/>
<circle cx="307" cy="30" r="1" transform="rotate(-180 307 30)" fill="#00DBB1" fill-opacity="0.4"/>
<circle cx="299" cy="30" r="1" transform="rotate(-180 299 30)" fill="#00DBB1" fill-opacity="0.4"/>
<circle cx="291" cy="30" r="1" transform="rotate(-180 291 30)" fill="#00DBB1" fill-opacity="0.4"/>
<circle cx="363" cy="22" r="1" transform="rotate(-180 363 22)" fill="#00DBB1" fill-opacity="0.4"/>
<circle cx="355" cy="22" r="1" transform="rotate(-180 355 22)" fill="#00DBB1" fill-opacity="0.4"/>
<circle cx="347" cy="22" r="1" transform="rotate(-180 347 22)" fill="#00DBB1" fill-opacity="0.4"/>
<circle cx="339" cy="22" r="1" transform="rotate(-180 339 22)" fill="#00DBB1" fill-opacity="0.4"/>
<circle cx="331" cy="22" r="1" transform="rotate(-180 331 22)" fill="#00DBB1" fill-opacity="0.4"/>
<circle cx="323" cy="22" r="1" transform="rotate(-180 323 22)" fill="#00DBB1" fill-opacity="0.4"/>
<circle cx="315" cy="22" r="1" transform="rotate(-180 315 22)" fill="#00DBB1" fill-opacity="0.4"/>
<circle cx="307" cy="22" r="1" transform="rotate(-180 307 22)" fill="#00DBB1" fill-opacity="0.4"/>
<circle cx="299" cy="22" r="1" transform="rotate(-180 299 22)" fill="#00DBB1" fill-opacity="0.4"/>
<circle cx="291" cy="22" r="1" transform="rotate(-180 291 22)" fill="#00DBB1" fill-opacity="0.4"/>
</svg>
