<svg width="16" height="16" viewBox="0 0 16 16" fill="none" xmlns="http://www.w3.org/2000/svg">
<g clip-path="url(#clip0_14604_76550)">
<path d="M7.99967 14.6693C11.6816 14.6693 14.6663 11.6845 14.6663 8.0026C14.6663 4.32071 11.6816 1.33594 7.99967 1.33594C4.31778 1.33594 1.33301 4.32071 1.33301 8.0026C1.33301 11.6845 4.31778 14.6693 7.99967 14.6693Z" stroke="#2D3646" stroke-width="1.2" stroke-linecap="round" stroke-linejoin="round"/>
<path d="M9.8862 9.88927C9.51314 10.2619 9.03798 10.5156 8.52078 10.6183C8.00358 10.7209 7.46755 10.6679 6.98045 10.466C6.49336 10.2641 6.07706 9.92228 5.78417 9.48382C5.49128 9.04535 5.33496 8.5299 5.33496 8.00261C5.33496 7.47531 5.49128 6.95986 5.78417 6.52139C6.07706 6.08293 6.49336 5.74113 6.98045 5.53921C7.46755 5.33729 8.00358 5.28431 8.52078 5.38696C9.03798 5.48961 9.51314 5.7433 9.8862 6.11594" stroke="#2D3646" stroke-width="1.2" stroke-linecap="round" stroke-linejoin="round"/>
</g>
<defs>
<clipPath id="clip0_14604_76550">
<rect width="16" height="16" fill="white"/>
</clipPath>
</defs>
</svg>
