<svg width="20" height="20" viewBox="0 0 20 20" fill="none" xmlns="http://www.w3.org/2000/svg">
<path d="M9.55746 17.3172L3.93246 11.6922C3.81519 11.5749 3.7493 11.4159 3.7493 11.25C3.7493 11.0841 3.81519 10.9251 3.93246 10.8078C4.04974 10.6905 4.2088 10.6247 4.37465 10.6247C4.5405 10.6247 4.69956 10.6905 4.81684 10.8078L9.37465 15.3664L9.37465 3.125C9.37465 2.95924 9.4405 2.80027 9.55771 2.68306C9.67492 2.56585 9.83389 2.5 9.99965 2.5C10.1654 2.5 10.3244 2.56585 10.4416 2.68306C10.5588 2.80027 10.6247 2.95924 10.6247 3.125L10.6247 15.3664L15.1825 10.8078C15.2997 10.6905 15.4588 10.6247 15.6247 10.6247C15.7905 10.6247 15.9496 10.6905 16.0668 10.8078C16.1841 10.9251 16.25 11.0841 16.25 11.25C16.25 11.4159 16.1841 11.5749 16.0668 11.6922L10.4418 17.3172C10.3838 17.3753 10.3149 17.4214 10.239 17.4529C10.1631 17.4843 10.0818 17.5005 9.99965 17.5005C9.91752 17.5005 9.83619 17.4843 9.76031 17.4529C9.68444 17.4214 9.61551 17.3753 9.55746 17.3172Z" fill="#121212"/>
</svg>
