<svg width="95" height="85" viewBox="0 0 95 85" fill="none" xmlns="http://www.w3.org/2000/svg">
<circle cx="41" cy="36" r="1" transform="rotate(90 41 36)" fill="#00DBB1" fill-opacity="0.4"/>
<circle cx="41" cy="44" r="1" transform="rotate(90 41 44)" fill="#00DBB1" fill-opacity="0.4"/>
<circle cx="41" cy="52" r="1" transform="rotate(90 41 52)" fill="#00DBB1" fill-opacity="0.4"/>
<circle cx="41" cy="60" r="1" transform="rotate(90 41 60)" fill="#00DBB1" fill-opacity="0.4"/>
<circle cx="41" cy="68" r="1" transform="rotate(90 41 68)" fill="#00DBB1" fill-opacity="0.4"/>
<circle cx="33" cy="36" r="1" transform="rotate(90 33 36)" fill="#00DBB1" fill-opacity="0.4"/>
<circle cx="33" cy="44" r="1" transform="rotate(90 33 44)" fill="#00DBB1" fill-opacity="0.4"/>
<circle cx="33" cy="52" r="1" transform="rotate(90 33 52)" fill="#00DBB1" fill-opacity="0.4"/>
<circle cx="33" cy="60" r="1" transform="rotate(90 33 60)" fill="#00DBB1" fill-opacity="0.4"/>
<circle cx="33" cy="68" r="1" transform="rotate(90 33 68)" fill="#00DBB1" fill-opacity="0.4"/>
<circle cx="25" cy="36" r="1" transform="rotate(90 25 36)" fill="#00DBB1" fill-opacity="0.4"/>
<circle cx="25" cy="44" r="1" transform="rotate(90 25 44)" fill="#00DBB1" fill-opacity="0.4"/>
<circle cx="25" cy="52" r="1" transform="rotate(90 25 52)" fill="#00DBB1" fill-opacity="0.4"/>
<circle cx="25" cy="60" r="1" transform="rotate(90 25 60)" fill="#00DBB1" fill-opacity="0.4"/>
<circle cx="25" cy="68" r="1" transform="rotate(90 25 68)" fill="#00DBB1" fill-opacity="0.4"/>
<circle cx="17" cy="36" r="1" transform="rotate(90 17 36)" fill="#00DBB1" fill-opacity="0.4"/>
<circle cx="17" cy="44" r="1" transform="rotate(90 17 44)" fill="#00DBB1" fill-opacity="0.4"/>
<circle cx="17" cy="52" r="1" transform="rotate(90 17 52)" fill="#00DBB1" fill-opacity="0.4"/>
<circle cx="17" cy="60" r="1" transform="rotate(90 17 60)" fill="#00DBB1" fill-opacity="0.4"/>
<circle cx="17" cy="68" r="1" transform="rotate(90 17 68)" fill="#00DBB1" fill-opacity="0.4"/>
<circle cx="9" cy="36" r="1" transform="rotate(90 9 36)" fill="#00DBB1" fill-opacity="0.4"/>
<circle cx="9" cy="44" r="1" transform="rotate(90 9 44)" fill="#00DBB1" fill-opacity="0.4"/>
<circle cx="9" cy="52" r="1" transform="rotate(90 9 52)" fill="#00DBB1" fill-opacity="0.4"/>
<circle cx="9" cy="60" r="1" transform="rotate(90 9 60)" fill="#00DBB1" fill-opacity="0.4"/>
<circle cx="9" cy="68" r="1" transform="rotate(90 9 68)" fill="#00DBB1" fill-opacity="0.4"/>
<circle cx="1" cy="36" r="1" transform="rotate(90 1 36)" fill="#00DBB1" fill-opacity="0.4"/>
<circle cx="1" cy="44" r="1" transform="rotate(90 1 44)" fill="#00DBB1" fill-opacity="0.4"/>
<circle cx="1" cy="52" r="1" transform="rotate(90 1 52)" fill="#00DBB1" fill-opacity="0.4"/>
<circle cx="1" cy="60" r="1" transform="rotate(90 1 60)" fill="#00DBB1" fill-opacity="0.4"/>
<circle cx="1" cy="68" r="1" transform="rotate(90 1 68)" fill="#00DBB1" fill-opacity="0.4"/>
<circle cx="89" cy="52" r="1" transform="rotate(90 89 52)" fill="#00DBB1" fill-opacity="0.4"/>
<circle cx="89" cy="60" r="1" transform="rotate(90 89 60)" fill="#00DBB1" fill-opacity="0.4"/>
<circle cx="89" cy="68" r="1" transform="rotate(90 89 68)" fill="#00DBB1" fill-opacity="0.4"/>
<circle cx="89" cy="76" r="1" transform="rotate(90 89 76)" fill="#00DBB1" fill-opacity="0.4"/>
<circle cx="89" cy="84" r="1" transform="rotate(90 89 84)" fill="#00DBB1" fill-opacity="0.4"/>
<circle cx="81" cy="52" r="1" transform="rotate(90 81 52)" fill="#00DBB1" fill-opacity="0.4"/>
<circle cx="81" cy="60" r="1" transform="rotate(90 81 60)" fill="#00DBB1" fill-opacity="0.4"/>
<circle cx="81" cy="68" r="1" transform="rotate(90 81 68)" fill="#00DBB1" fill-opacity="0.4"/>
<circle cx="81" cy="76" r="1" transform="rotate(90 81 76)" fill="#00DBB1" fill-opacity="0.4"/>
<circle cx="81" cy="84" r="1" transform="rotate(90 81 84)" fill="#00DBB1" fill-opacity="0.4"/>
<circle cx="73" cy="52" r="1" transform="rotate(90 73 52)" fill="#00DBB1" fill-opacity="0.4"/>
<circle cx="73" cy="60" r="1" transform="rotate(90 73 60)" fill="#00DBB1" fill-opacity="0.4"/>
<circle cx="73" cy="68" r="1" transform="rotate(90 73 68)" fill="#00DBB1" fill-opacity="0.4"/>
<circle cx="73" cy="76" r="1" transform="rotate(90 73 76)" fill="#00DBB1" fill-opacity="0.4"/>
<circle cx="73" cy="84" r="1" transform="rotate(90 73 84)" fill="#00DBB1" fill-opacity="0.4"/>
<circle cx="65" cy="52" r="1" transform="rotate(90 65 52)" fill="#00DBB1" fill-opacity="0.4"/>
<circle cx="65" cy="60" r="1" transform="rotate(90 65 60)" fill="#00DBB1" fill-opacity="0.4"/>
<circle cx="65" cy="68" r="1" transform="rotate(90 65 68)" fill="#00DBB1" fill-opacity="0.4"/>
<circle cx="65" cy="76" r="1" transform="rotate(90 65 76)" fill="#00DBB1" fill-opacity="0.4"/>
<circle cx="65" cy="84" r="1" transform="rotate(90 65 84)" fill="#00DBB1" fill-opacity="0.4"/>
<circle cx="57" cy="52" r="1" transform="rotate(90 57 52)" fill="#00DBB1" fill-opacity="0.4"/>
<circle cx="57" cy="60" r="1" transform="rotate(90 57 60)" fill="#00DBB1" fill-opacity="0.4"/>
<circle cx="57" cy="68" r="1" transform="rotate(90 57 68)" fill="#00DBB1" fill-opacity="0.4"/>
<circle cx="57" cy="76" r="1" transform="rotate(90 57 76)" fill="#00DBB1" fill-opacity="0.4"/>
<circle cx="57" cy="84" r="1" transform="rotate(90 57 84)" fill="#00DBB1" fill-opacity="0.4"/>
<circle cx="49" cy="52" r="1" transform="rotate(90 49 52)" fill="#00DBB1" fill-opacity="0.4"/>
<circle cx="49" cy="60" r="1" transform="rotate(90 49 60)" fill="#00DBB1" fill-opacity="0.4"/>
<circle cx="49" cy="68" r="1" transform="rotate(90 49 68)" fill="#00DBB1" fill-opacity="0.4"/>
<circle cx="49" cy="76" r="1" transform="rotate(90 49 76)" fill="#00DBB1" fill-opacity="0.4"/>
<circle cx="49" cy="84" r="1" transform="rotate(90 49 84)" fill="#00DBB1" fill-opacity="0.4"/>
<rect x="15" width="80" height="80" rx="6" fill="#E0F7F0"/>
<rect x="19" y="4" width="72" height="72" rx="4" fill="white"/>
<path d="M69.2218 26.6975L69.536 23.9321C70.2847 23.8574 70.9934 23.5112 71.3568 23.1769C72.5426 22.1891 72.5321 20.9406 72.5551 20.8658C72.8177 19.1852 71.534 17.3142 69.5547 17.1353L69.5178 17.132C64.6566 16.6926 63.5741 16.5947 63.6827 16.6045C61.8518 16.4441 60.2287 17.7916 60.0646 19.6189L60.0493 19.7983C59.8946 21.5221 61.0886 23.1442 62.9265 23.3892C62.9327 23.391 62.9374 23.3956 62.9437 23.3972L62.6757 25.7184C59.5391 25.9133 56.5251 27.0586 54.0475 28.9818C52.991 28.8057 51.9644 28.6064 51.2169 28.3973C50.1793 28.1078 49.0695 28.3565 48.2383 29.066C41.3979 32.8986 42.0378 32.4542 41.473 32.9262C40.1452 34.0367 39.2068 35.5526 38.7584 37.3107C38.1793 39.581 37.5509 42.4285 37.5205 44.1758C36.6624 43.9213 35.8841 44.1669 35.3524 44.7073L30.7215 49.1917C30.4991 49.4068 30.4933 49.7619 30.7084 49.9836C30.9235 50.2067 31.2778 50.2118 31.5002 49.9967L36.1406 45.5028C36.549 45.0879 37.2198 45.0828 37.634 45.4912L48.99 56.6708C49.4122 57.0868 49.4035 57.7541 49.0039 58.1612L44.7237 62.453C44.5056 62.6718 44.5056 63.0262 44.7251 63.2449C44.9449 63.4632 45.2993 63.4626 45.517 63.2435L49.7994 58.9494C50.1996 58.5427 50.4175 58.0071 50.422 57.4388L54.3327 54.1216C64.5404 61.6793 79.0437 54.5974 79.444 41.9243C79.6383 34.9302 75.3484 28.9948 69.2218 26.6975ZM61.1649 19.8945L61.1802 19.7159C61.2882 18.5162 62.3537 17.6133 63.5828 17.7201C64.0961 17.7668 61.7235 17.5512 68.6024 18.1766C69.8318 18.2859 70.7545 19.3719 70.6412 20.6244L70.6339 20.7228C70.5223 21.9541 69.4186 22.8582 68.1882 22.755L63.1396 22.2955C61.9424 22.173 61.0566 21.1163 61.1649 19.8945ZM64.0583 23.5101L67.7829 23.8433L67.5197 26.1593C65.9835 25.7761 65.0566 25.7278 63.8073 25.6823L64.0583 23.5101ZM64.8104 26.8498C64.7515 27.0482 64.8358 26.5867 64.2668 31.4336C64.2318 31.7406 64.452 32.0184 64.7597 32.0534C65.0815 32.0867 65.3455 31.8571 65.3795 31.5604C65.5094 30.3983 65.8932 27.1796 65.8867 26.9875C69.1956 27.4921 71.9149 28.9515 74.1054 31.1928C76.6328 34.2058 77.9455 38.2531 77.4 42.4531L73.7 42.0298C73.3938 41.997 73.1152 42.215 73.0802 42.5227C73.0452 42.8297 73.2654 43.1075 73.5732 43.1425L77.2163 43.5592C75.7932 50.4167 69.6626 55.3296 62.6735 55.2234L63.1038 51.4631C63.1388 51.1561 62.9186 50.8783 62.6109 50.8433C62.3075 50.8083 62.0261 51.0285 61.9911 51.3362L61.5544 55.1528C57.9906 54.8278 54.8862 53.2631 52.5997 50.9871C50.1409 48.1273 48.789 44.3419 49.0991 40.3274C49.255 40.3687 53.66 40.8697 53.7347 40.8697C54.0154 40.8697 54.2575 40.659 54.2903 40.3732C54.3253 40.0662 54.1051 39.7884 53.7974 39.7534C49.1247 39.2334 49.4484 39.2321 49.2098 39.2486C49.3398 38.3944 49.5426 37.5498 49.8215 36.7302C50.0742 36.3841 50.245 36.0982 50.3528 35.8873C55.247 36.1433 57.3864 34.3116 58.3051 32.7103C59.0982 31.3298 58.2447 29.5833 56.6681 29.3729C56.3389 29.3287 55.9832 29.2787 55.6195 29.2259C58.2112 27.5131 61.3943 26.5907 64.8104 26.8498ZM38.6764 44.9458C38.6751 44.9201 38.6823 44.8958 38.6774 44.8699C38.4929 43.8958 38.929 41.1731 39.8434 37.5877C40.5501 34.8177 42.4065 33.638 42.4859 33.5496C48.8354 30.0109 48.8558 30.0152 48.9324 29.9461C49.4829 29.4583 50.2252 29.2833 50.915 29.4765C52.3639 29.8812 54.7621 30.2472 56.5194 30.4827C57.3125 30.5896 57.7309 31.4616 57.3339 32.1525C56.2095 34.1111 53.6859 35.0087 50.0364 34.7462C49.7615 34.7316 49.5398 34.8949 49.4611 35.1407C49.4574 35.1509 49.1096 36.1834 47.2809 37.8357C47.0512 38.0435 47.0337 38.3971 47.2408 38.6268C47.4493 38.8572 47.8037 38.8747 48.0319 38.6669C48.0924 38.6122 48.1434 38.5614 48.2012 38.5079C47.8128 40.5475 47.8204 42.5982 48.275 44.7267C47.6052 45.1412 46.8668 45.4434 46.0653 45.6115C45.7627 45.6757 45.5688 45.9724 45.6322 46.275C45.6962 46.5796 45.995 46.7706 46.2958 46.7082C47.1009 46.539 47.8566 46.2584 48.5521 45.8719C49.4335 48.8731 51.248 51.5414 53.4302 53.4178L50.0817 56.2581C49.8046 55.824 50.3627 56.4847 38.6764 44.9458Z" fill="#2E3746"/>
<path d="M65.8659 45.351C65.9795 45.5042 67.2979 47.0431 67.8304 47.6719L66.8373 48.5173C66.5778 48.7382 66.6547 49.1571 66.9757 49.2713C67.059 49.3009 70.7152 50.6023 70.4954 50.5241C70.8164 50.6383 71.1406 50.3622 71.0791 50.0272C71.0649 49.95 70.3597 46.1107 70.4042 46.3527C70.3427 46.0176 69.9414 45.8747 69.682 46.0957L68.6835 46.9456C67.933 46.0662 66.8273 44.7574 66.7172 44.6425C68.1888 43.109 68.4806 40.7691 67.3626 38.9056C68.4318 38.1215 70.8836 36.3236 70.7271 36.4383L71.7845 37.8772C72.0121 38.1868 72.4895 38.1341 72.6438 37.7821C72.6829 37.693 74.3957 33.7895 74.3368 33.9235C74.4912 33.5717 74.2067 33.1846 73.8248 33.2268C73.7415 33.236 69.4506 33.7106 69.6366 33.69C69.2547 33.7323 69.0618 34.1721 69.2894 34.4817L70.0637 35.5355C68.5763 36.6317 66.8295 37.9027 66.6877 38.0249C63.9261 35.1985 59.019 36.7958 58.552 40.8121C58.0965 44.8292 62.5246 47.5109 65.8659 45.351ZM60.0311 40.9789C60.2359 39.1889 61.859 37.8995 63.6567 38.1042C65.4541 38.3091 66.736 39.9324 66.5313 41.7223C66.3266 43.52 64.7033 44.8094 62.9134 44.6045C61.1156 44.3997 59.8262 42.7767 60.0311 40.9789Z" fill="#2E3746"/>
<path d="M63.1175 42.8026C63.918 42.8941 64.6411 42.3194 64.7327 41.5189C64.8243 40.7183 64.2495 39.9951 63.449 39.9036C62.6485 39.812 61.9253 40.3868 61.8338 41.1873C61.7422 41.9879 62.3169 42.711 63.1175 42.8026Z" fill="#2E3746"/>
<path d="M45.813 58.2269C46.0266 58.003 46.0178 57.6487 45.794 57.435L43.2689 55.028C43.0443 54.8144 42.6907 54.8231 42.477 55.047C42.2634 55.2709 42.2721 55.6252 42.496 55.8389L45.0211 58.2459C45.2464 58.4606 45.6005 58.4492 45.813 58.2269Z" fill="#2E3746"/>
<path d="M45.4069 22.8302C45.1393 22.6763 44.7966 22.769 44.6427 23.0373C44.4888 23.3056 44.5815 23.6476 44.8498 23.8015L48.5634 25.9328C48.8303 26.0862 49.1734 25.9949 49.3276 25.7257C49.4815 25.4581 49.3888 25.1154 49.1205 24.9616L45.4069 22.8302Z" fill="#2E3746"/>
<path d="M51.7887 24.0602C52.0177 23.8516 52.0337 23.4973 51.8259 23.269L47.1206 18.1058C46.9121 17.8761 46.5577 17.8615 46.3295 18.0686C46.1005 18.2772 46.0845 18.6315 46.2923 18.8598L50.9976 24.023C51.2079 24.2541 51.5627 24.2662 51.7887 24.0602Z" fill="#2E3746"/>
<path d="M53.3553 20.9636C53.7543 20.9636 54.0268 20.5555 53.8715 20.1863L52.9455 17.9908C52.8252 17.7049 52.4941 17.573 52.2119 17.6918C51.9268 17.8121 51.7934 18.141 51.913 18.4254L52.839 20.6209C52.9294 20.8353 53.1372 20.9636 53.3553 20.9636Z" fill="#2E3746"/>
</svg>
