<svg width="44" height="44" viewBox="0 0 44 44" fill="none" xmlns="http://www.w3.org/2000/svg">
<rect width="44" height="44" rx="22" fill="#F8F9F9"/>
<path d="M23.6666 13.8926V17.3347C23.6666 17.8014 23.6666 18.0348 23.7574 18.213C23.8373 18.3698 23.9648 18.4973 24.1216 18.5772C24.2999 18.668 24.5332 18.668 24.9999 18.668H28.442M23.6666 26.168H18.6666M25.3333 22.8346H18.6666M28.6666 20.3248V26.3346C28.6666 27.7348 28.6666 28.4348 28.3941 28.9696C28.1544 29.44 27.772 29.8225 27.3016 30.0622C26.7668 30.3346 26.0667 30.3346 24.6666 30.3346H19.3333C17.9331 30.3346 17.2331 30.3346 16.6983 30.0622C16.2279 29.8225 15.8454 29.44 15.6057 28.9696C15.3333 28.4348 15.3333 27.7348 15.3333 26.3346V17.668C15.3333 16.2678 15.3333 15.5678 15.6057 15.033C15.8454 14.5626 16.2279 14.1801 16.6983 13.9405C17.2331 13.668 17.9331 13.668 19.3333 13.668H22.0097C22.6212 13.668 22.9269 13.668 23.2147 13.737C23.4698 13.7983 23.7136 13.8993 23.9373 14.0364C24.1896 14.191 24.4058 14.4072 24.8382 14.8395L27.495 17.4964C27.9274 17.9288 28.1436 18.145 28.2982 18.3973C28.4353 18.6209 28.5363 18.8648 28.5975 19.1199C28.6666 19.4076 28.6666 19.7133 28.6666 20.3248Z" stroke="#2E3746" stroke-width="1.5" stroke-linecap="round" stroke-linejoin="round"/>
</svg>
