<svg width="32" height="32" viewBox="0 0 32 32" fill="none" xmlns="http://www.w3.org/2000/svg">
<path d="M9.33301 13.3333V10.6667C9.33301 6.98477 12.3178 4 15.9997 4C18.7334 4 21.0829 5.64546 22.1116 8M15.9997 19.3333V22M11.733 28H20.2663C22.5066 28 23.6267 28 24.4823 27.564C25.235 27.1805 25.8469 26.5686 26.2304 25.816C26.6663 24.9603 26.6663 23.8402 26.6663 21.6V19.7333C26.6663 17.4931 26.6663 16.373 26.2304 15.5174C25.8469 14.7647 25.235 14.1528 24.4823 13.7693C23.6267 13.3333 22.5066 13.3333 20.2663 13.3333H11.733C9.4928 13.3333 8.37269 13.3333 7.51705 13.7693C6.7644 14.1528 6.15248 14.7647 5.76898 15.5174C5.33301 16.373 5.33301 17.4931 5.33301 19.7333V21.6C5.33301 23.8402 5.33301 24.9603 5.76898 25.816C6.15248 26.5686 6.7644 27.1805 7.51705 27.564C8.37269 28 9.4928 28 11.733 28Z" stroke="#00DBB1" stroke-width="2" stroke-linecap="round" stroke-linejoin="round"/>
</svg>
