<svg width="24" height="24" viewBox="0 0 24 24" fill="none" xmlns="http://www.w3.org/2000/svg">
<path d="M22.501 12.2326C22.501 11.3693 22.4296 10.7393 22.2748 10.0859H12.2153V13.9826H18.12C18.001 14.9509 17.3582 16.4093 15.9296 17.3892L15.9096 17.5197L19.0902 19.9344L19.3106 19.9559C21.3343 18.1242 22.501 15.4292 22.501 12.2326Z" fill="#4285F4"/>
<path d="M12.2145 22.5015C15.1073 22.5015 17.5358 21.5682 19.3097 19.9582L15.9287 17.3914C15.024 18.0098 13.8097 18.4414 12.2145 18.4414C9.38118 18.4414 6.97645 16.6098 6.11922 14.0781L5.99358 14.0886L2.68632 16.5969L2.64307 16.7148C4.40495 20.1448 8.02399 22.5015 12.2145 22.5015Z" fill="#34A853"/>
<path d="M6.11997 14.0755C5.89379 13.4222 5.76289 12.7221 5.76289 11.9988C5.76289 11.2754 5.89379 10.5755 6.10807 9.92215L6.10208 9.78301L2.75337 7.23438L2.64381 7.28545C1.91765 8.7088 1.50098 10.3072 1.50098 11.9988C1.50098 13.6905 1.91765 15.2888 2.64381 16.7121L6.11997 14.0755Z" fill="#FBBC05"/>
<path d="M12.2145 5.55997C14.2264 5.55997 15.5835 6.41163 16.3574 7.12335L19.3812 4.23C17.5241 2.53834 15.1074 1.5 12.2145 1.5C8.02402 1.5 4.40496 3.85665 2.64307 7.28662L6.10734 9.92332C6.97647 7.39166 9.38122 5.55997 12.2145 5.55997Z" fill="#EB4335"/>
</svg>
