<svg width="32" height="32" viewBox="0 0 32 32" fill="none" xmlns="http://www.w3.org/2000/svg">
<path d="M18.9994 2.66406H11.3253C11.086 2.66406 10.9663 2.66406 10.8607 2.7005C10.7673 2.73272 10.6822 2.78531 10.6116 2.85445C10.5317 2.93264 10.4782 3.03966 10.3712 3.2537L4.77122 14.4537C4.51564 14.9648 4.38786 15.2204 4.41855 15.4282C4.44535 15.6096 4.54569 15.7719 4.69596 15.877C4.86805 15.9974 5.15379 15.9974 5.72527 15.9974H13.9994L9.99937 29.3307L26.2568 12.4711C26.8053 11.9023 27.0796 11.6179 27.0956 11.3746C27.1095 11.1633 27.0223 10.958 26.8606 10.8214C26.6743 10.6641 26.2792 10.6641 25.489 10.6641H15.9994L18.9994 2.66406Z" stroke="#00DBB1" stroke-width="2" stroke-linecap="round" stroke-linejoin="round"/>
</svg>
