<svg width="24" height="24" viewBox="0 0 24 24" fill="none" xmlns="http://www.w3.org/2000/svg">
<path fill-rule="evenodd" clip-rule="evenodd" d="M5.81166 1.35156C4.62803 1.35156 3.49285 1.82164 2.65574 2.65843C1.81862 3.49522 1.34811 4.63022 1.34766 5.81385V17.7178C1.34766 18.9018 1.81797 20.0372 2.65513 20.8744C3.49229 21.7115 4.62773 22.1818 5.81166 22.1818H17.7157C18.8993 22.1814 20.0343 21.7109 20.8711 20.8738C21.7079 20.0367 22.1779 18.9015 22.1779 17.7178V5.81385C22.1775 4.63052 21.7072 3.49578 20.8705 2.65904C20.0337 1.82229 18.899 1.35202 17.7157 1.35156H5.81166ZM18.9997 5.82071C18.9997 6.1617 18.8642 6.48872 18.6231 6.72984C18.382 6.97096 18.0549 7.10642 17.7139 7.10642C17.3729 7.10642 17.0459 6.97096 16.8048 6.72984C16.5637 6.48872 16.4282 6.1617 16.4282 5.82071C16.4282 5.47971 16.5637 5.15269 16.8048 4.91157C17.0459 4.67045 17.3729 4.53499 17.7139 4.53499C18.0549 4.53499 18.382 4.67045 18.6231 4.91157C18.8642 5.15269 18.9997 5.47971 18.9997 5.82071ZM11.7654 8.20013C10.8197 8.20013 9.91273 8.57581 9.24403 9.24451C8.57533 9.91321 8.19966 10.8202 8.19966 11.7658C8.19966 12.7115 8.57533 13.6185 9.24403 14.2872C9.91273 14.9559 10.8197 15.3316 11.7654 15.3316C12.7111 15.3316 13.618 14.9559 14.2867 14.2872C14.9554 13.6185 15.3311 12.7115 15.3311 11.7658C15.3311 10.8202 14.9554 9.91321 14.2867 9.24451C13.618 8.57581 12.7111 8.20013 11.7654 8.20013ZM6.48366 11.7658C6.48366 10.3655 7.03994 9.02252 8.03013 8.03232C9.02032 7.04213 10.3633 6.48585 11.7637 6.48585C13.164 6.48585 14.507 7.04213 15.4972 8.03232C16.4874 9.02252 17.0437 10.3655 17.0437 11.7658C17.0437 13.1662 16.4874 14.5092 15.4972 15.4994C14.507 16.4896 13.164 17.0458 11.7637 17.0458C10.3633 17.0458 9.02032 16.4896 8.03013 15.4994C7.03994 14.5092 6.48366 13.1662 6.48366 11.7658Z" fill="#0F1723"/>
</svg>
