<svg width="327" height="171" viewBox="0 0 327 171" fill="none" xmlns="http://www.w3.org/2000/svg">
<g clip-path="url(#clip0_31_727)">
<rect width="327" height="171" rx="6" fill="#E0F7F0"/>
<path fill-rule="evenodd" clip-rule="evenodd" d="M160.432 145.094C160.663 145.094 160.851 145.274 160.864 145.502L160.865 145.528V160.301C160.865 160.541 160.671 160.735 160.432 160.735C160.201 160.735 160.012 160.554 159.999 160.326L159.998 160.301V145.528C159.998 145.288 160.192 145.094 160.432 145.094Z" fill="#2E3746"/>
<path fill-rule="evenodd" clip-rule="evenodd" d="M144.59 126.238C144.829 126.238 145.023 126.433 145.023 126.672C145.023 126.904 144.843 127.092 144.615 127.106L144.59 127.106H122C120.877 127.106 119.957 128.063 119.933 129.258L119.933 129.306V130.984C119.933 131.263 119.674 131.469 119.403 131.407C118.596 131.223 117.776 131.129 116.956 131.129C110.578 131.129 105.379 136.619 105.379 143.384C105.379 150.14 110.583 155.64 116.956 155.64C117.785 155.64 118.591 155.546 119.403 155.361C119.666 155.301 119.917 155.493 119.932 155.758L119.933 155.784V160.487C119.933 160.726 119.739 160.921 119.499 160.921C119.268 160.921 119.08 160.74 119.067 160.512L119.066 160.487V156.316L118.979 156.332C118.362 156.44 117.743 156.498 117.113 156.507L116.956 156.508C110.093 156.508 104.512 150.609 104.512 143.384C104.512 136.15 110.088 130.261 116.956 130.261C117.633 130.261 118.31 130.32 118.98 130.437L119.066 130.453V129.306C119.066 127.636 120.346 126.266 121.95 126.239L122 126.238H144.59Z" fill="#2E3746"/>
<path fill-rule="evenodd" clip-rule="evenodd" d="M116.957 134.934C112.535 134.934 108.936 138.736 108.936 143.384C108.936 148.036 112.525 151.834 116.957 151.834C117.898 151.834 118.803 151.668 119.655 151.342C119.823 151.278 119.934 151.116 119.934 150.936V135.831C119.934 135.651 119.823 135.489 119.655 135.425C118.803 135.1 117.898 134.934 116.957 134.934ZM117.066 135.802C117.753 135.812 118.417 135.923 119.049 136.13L119.067 136.136V150.629L119.049 150.635C118.384 150.853 117.683 150.964 116.957 150.964C113.015 150.964 109.803 147.566 109.803 143.383C109.803 139.204 113.025 135.801 116.957 135.801L117.066 135.802Z" fill="#2E3746"/>
<path fill-rule="evenodd" clip-rule="evenodd" d="M159.422 116.415L144.665 116.371C144.434 116.371 144.245 116.551 144.231 116.779L144.225 120.066L144.201 135.754L144.201 136.226C144.2 138.866 144.334 140.454 144.895 142.101C145.721 144.525 147.344 145.957 149.924 146.047L149.939 146.047H159.42C159.66 146.047 159.854 145.853 159.854 145.613V116.849C159.854 116.61 159.66 116.415 159.422 116.415ZM145.096 117.242L158.987 117.283V145.181L149.954 145.181C147.766 145.105 146.434 143.929 145.716 141.822C145.203 140.319 145.071 138.823 145.068 136.349L145.083 125.35L145.096 117.242Z" fill="#2E3746"/>
<path fill-rule="evenodd" clip-rule="evenodd" d="M148.219 121.363L157.354 121.378C157.593 121.378 157.787 121.573 157.787 121.813C157.786 122.044 157.605 122.232 157.378 122.245L157.352 122.246L148.218 122.231C147.979 122.231 147.785 122.036 147.785 121.797C147.786 121.565 147.966 121.377 148.194 121.364L148.219 121.363Z" fill="#2E3746"/>
<path fill-rule="evenodd" clip-rule="evenodd" d="M148.204 125.488L157.338 125.503C157.578 125.503 157.771 125.698 157.771 125.938C157.771 126.169 157.59 126.357 157.362 126.37L157.337 126.371L148.202 126.356C147.963 126.356 147.769 126.161 147.77 125.922C147.77 125.69 147.951 125.502 148.178 125.489L148.204 125.488Z" fill="#2E3746"/>
<path fill-rule="evenodd" clip-rule="evenodd" d="M148.19 129.625L157.339 129.639C157.578 129.64 157.772 129.834 157.772 130.074C157.771 130.305 157.591 130.494 157.363 130.507L157.337 130.508L148.189 130.493C147.949 130.493 147.755 130.298 147.756 130.058C147.756 129.827 147.937 129.639 148.165 129.626L148.19 129.625Z" fill="#2E3746"/>
<path fill-rule="evenodd" clip-rule="evenodd" d="M148.19 133.75L157.324 133.764C157.564 133.765 157.758 133.959 157.757 134.199C157.757 134.43 157.576 134.619 157.348 134.632L157.323 134.633L148.189 134.618C147.949 134.618 147.755 134.423 147.756 134.183C147.756 133.952 147.937 133.764 148.165 133.751L148.19 133.75Z" fill="#2E3746"/>
<path fill-rule="evenodd" clip-rule="evenodd" d="M148.176 137.887L157.325 137.901C157.565 137.902 157.758 138.096 157.758 138.336C157.758 138.567 157.577 138.756 157.349 138.769L157.324 138.769L148.175 138.755C147.936 138.754 147.742 138.56 147.742 138.32C147.743 138.089 147.923 137.9 148.151 137.887L148.176 137.887Z" fill="#2E3746"/>
<path fill-rule="evenodd" clip-rule="evenodd" d="M174.712 145.699L149.939 145.612C154.044 145.627 157.368 142.299 157.383 138.19L157.831 108.427C157.845 104.317 161.169 101.004 165.274 101.004L164.522 101.033C168.627 101.047 171.937 104.375 171.937 108.484V110.322L171.691 120.682C171.691 120.682 171.315 129.465 179.785 127.15C179.698 127.381 174.712 145.699 174.712 145.699Z" fill="#00DBB1"/>
<path fill-rule="evenodd" clip-rule="evenodd" d="M200.9 69.1744C195.191 70.2307 190.957 74.065 190.942 78.6372L190.639 91.7752L192.315 90.8058L212.954 90.7189L212.925 78.7096C212.925 73.3271 205.93 68.0748 200.9 69.1744Z" fill="#00DBB1"/>
<path fill-rule="evenodd" clip-rule="evenodd" d="M165.262 100.586C166.878 100.594 168.567 101.258 169.852 102.432C171.291 103.748 172.132 105.598 172.168 107.799L172.178 108.438C172.202 110.232 172.203 111.729 172.186 113.796L172.157 117.029L172.151 119.03C172.149 120.355 172.183 121.145 172.305 122.061C172.724 125.208 174.049 126.968 176.808 127.065C176.827 127.065 176.845 127.067 176.864 127.07L176.904 127.076C176.938 127.081 176.987 127.086 177.05 127.092C177.814 127.162 178.718 127.098 179.619 126.797C179.846 126.722 180.092 126.844 180.167 127.072C180.243 127.299 180.12 127.545 179.893 127.621C178.897 127.953 177.91 128.032 177.055 127.964L176.97 127.956C176.906 127.95 176.852 127.944 176.808 127.939L176.752 127.931L176.692 127.929C175.013 127.85 173.746 127.204 172.866 126.069L172.822 126.011C172.085 125.032 171.654 123.747 171.445 122.176L171.427 122.039C171.308 121.089 171.279 120.249 171.284 118.837L171.287 118.251L171.288 117.388C171.29 117.003 171.293 116.572 171.3 115.915L171.32 113.647C171.337 111.422 171.334 109.855 171.301 107.813C171.269 105.852 170.531 104.228 169.267 103.073C168.141 102.044 166.658 101.461 165.258 101.454C165.018 101.453 164.825 101.258 164.826 101.018C164.827 100.778 165.022 100.585 165.262 100.586Z" fill="#2E3746"/>
<path fill-rule="evenodd" clip-rule="evenodd" d="M173.875 103.941L181.275 103.97C181.514 103.971 181.707 104.166 181.707 104.406C181.706 104.637 181.524 104.826 181.297 104.838L181.271 104.838L173.871 104.81C173.632 104.809 173.439 104.614 173.439 104.374C173.44 104.143 173.622 103.954 173.849 103.942L173.875 103.941Z" fill="#2E3746"/>
<path fill-rule="evenodd" clip-rule="evenodd" d="M174.597 107.301L182.3 107.315C182.539 107.316 182.733 107.51 182.733 107.75C182.732 107.981 182.551 108.17 182.324 108.183L182.298 108.183L174.595 108.169C174.355 108.168 174.162 107.974 174.162 107.734C174.163 107.503 174.343 107.314 174.571 107.301L174.597 107.301Z" fill="#2E3746"/>
<path fill-rule="evenodd" clip-rule="evenodd" d="M174.568 110.641L182.965 110.67C183.205 110.67 183.398 110.865 183.397 111.105C183.396 111.336 183.215 111.525 182.988 111.537L182.962 111.538L174.565 111.509C174.325 111.508 174.132 111.313 174.133 111.073C174.134 110.842 174.315 110.654 174.542 110.641L174.568 110.641Z" fill="#2E3746"/>
<path fill-rule="evenodd" clip-rule="evenodd" d="M174.568 113.621L182.792 113.65C183.031 113.651 183.225 113.846 183.224 114.086C183.223 114.317 183.042 114.505 182.814 114.518L182.789 114.518L174.565 114.489C174.325 114.488 174.132 114.293 174.133 114.054C174.134 113.822 174.315 113.634 174.542 113.622L174.568 113.621Z" fill="#2E3746"/>
<path fill-rule="evenodd" clip-rule="evenodd" d="M174.553 116.617L182.792 116.632C183.031 116.632 183.225 116.827 183.224 117.066C183.224 117.298 183.043 117.486 182.816 117.499L182.79 117.5L174.552 117.485C174.313 117.485 174.119 117.29 174.119 117.05C174.12 116.819 174.3 116.631 174.528 116.618L174.553 116.617Z" fill="#2E3746"/>
<path fill-rule="evenodd" clip-rule="evenodd" d="M174.554 119.598L182.026 119.612C182.265 119.613 182.459 119.807 182.458 120.047C182.458 120.278 182.277 120.467 182.05 120.48L182.024 120.48L174.552 120.466C174.312 120.465 174.119 120.271 174.119 120.031C174.12 119.8 174.3 119.611 174.528 119.598L174.554 119.598Z" fill="#2E3746"/>
<path fill-rule="evenodd" clip-rule="evenodd" d="M174.554 122.578L181.13 122.593C181.369 122.593 181.563 122.788 181.562 123.028C181.562 123.259 181.381 123.447 181.153 123.46L181.128 123.461L174.552 123.446C174.312 123.446 174.119 123.251 174.119 123.011C174.12 122.78 174.301 122.592 174.528 122.579L174.554 122.578Z" fill="#2E3746"/>
<path fill-rule="evenodd" clip-rule="evenodd" d="M201.493 68.6953C208.177 68.7101 213.186 72.896 213.27 78.5085L213.271 78.679V105.418C213.271 105.658 213.077 105.852 212.838 105.852C212.607 105.852 212.418 105.671 212.405 105.443L212.404 105.418L212.404 78.6778C212.418 73.4946 207.793 69.5774 201.491 69.5635C201.252 69.5629 201.058 69.3682 201.059 69.1284C201.059 68.8887 201.254 68.6948 201.493 68.6953Z" fill="#2E3746"/>
<path fill-rule="evenodd" clip-rule="evenodd" d="M178.889 100.457C180.511 100.457 182.206 101.12 183.492 102.298C184.931 103.615 185.769 105.469 185.798 107.671C185.801 107.911 185.609 108.108 185.37 108.111C185.13 108.114 184.934 107.922 184.931 107.683C184.905 105.721 184.17 104.095 182.907 102.939C181.8 101.925 180.347 101.346 178.966 101.326L178.889 101.325H165.217C164.977 101.325 164.783 101.131 164.783 100.891C164.783 100.66 164.964 100.471 165.191 100.458L165.217 100.457H178.889Z" fill="#2E3746"/>
<path fill-rule="evenodd" clip-rule="evenodd" d="M291.592 97.4039L272.803 97.375L270.809 109.645C274.075 112.018 276.994 114.825 278.324 117.878C279.495 120.54 281.764 128.078 284.38 137.324L293.875 100.11C294.222 98.7351 293.109 97.4039 291.592 97.4039Z" fill="#2E3746"/>
<path fill-rule="evenodd" clip-rule="evenodd" d="M239.461 149.144C237.467 146.612 238.348 144.905 239.938 143.255C235.516 141.62 232.018 139.493 231.151 137.93C230.139 136.093 231.772 133.633 232.813 132.374C230.529 131.362 228.463 129.654 229.922 125.458C230.226 124.575 230.819 123.924 231.613 123.476L232.351 118.976C231.787 119.179 231.223 119.396 230.645 119.627C223.346 122.55 220.297 115.605 225.399 112.754C227.032 111.843 230.775 110.135 234.027 108.732L234.475 105.997L212.911 105.968V97.3446L197.49 97.2578C196.406 97.2578 195.452 97.9523 195.206 98.9362L180.421 149.795C180.074 151.17 181.187 152.486 182.705 152.501L243.262 152.617C241.774 151.951 240.777 150.822 239.461 149.144Z" fill="#2E3746"/>
<path fill-rule="evenodd" clip-rule="evenodd" d="M273.888 90.4453L304.646 90.5032C306.881 90.5191 308.725 93.5458 308.217 95.8866L308.201 95.9573L292.042 163.875C291.987 164.109 291.753 164.253 291.52 164.197C291.295 164.143 291.154 163.924 291.193 163.699L291.199 163.674L307.357 95.7558C307.795 93.923 306.312 91.4333 304.691 91.3724L304.642 91.3713L273.886 91.3135C273.646 91.313 273.453 91.1183 273.453 90.8786C273.454 90.6474 273.634 90.4588 273.862 90.446L273.888 90.4453Z" fill="#2E3746"/>
<path fill-rule="evenodd" clip-rule="evenodd" d="M192.634 90.2969L212.795 90.3403C213.035 90.3408 213.229 90.5356 213.228 90.7753C213.228 91.0065 213.047 91.195 212.819 91.2077L212.794 91.2084L192.633 91.165C191.602 91.165 190.431 92.6526 190.033 94.2215L190.019 94.2769L190.014 94.2962L170.791 160.261C170.724 160.491 170.484 160.623 170.254 160.556C170.032 160.491 169.901 160.265 169.952 160.042L169.959 160.018L189.179 94.0623L189.191 94.0138C189.668 92.1221 191.066 90.3337 192.586 90.2974L192.634 90.2969Z" fill="#2E3746"/>
<path fill-rule="evenodd" clip-rule="evenodd" d="M261.371 171.471C261.371 171.471 132.754 172.064 126.106 172.049C112.982 172.021 115.251 159.809 115.251 159.809L170.519 159.895L260.532 159.881L261.371 171.471Z" fill="#2E3746"/>
<path fill-rule="evenodd" clip-rule="evenodd" d="M300.161 90.5312C302.534 90.5312 304.159 92.2106 303.676 94.4011L303.661 94.4677L289.396 153.487C289.34 153.72 289.105 153.863 288.873 153.807C288.648 153.753 288.507 153.533 288.548 153.308L288.553 153.283L302.818 94.2646C303.208 92.6309 302.034 91.3994 300.161 91.3994C299.922 91.3994 299.728 91.2051 299.728 90.9653C299.728 90.7256 299.922 90.5312 300.161 90.5312Z" fill="#2E3746"/>
<path fill-rule="evenodd" clip-rule="evenodd" d="M216.12 75.4531L234.475 75.4821C234.714 75.4824 234.908 75.6771 234.908 75.9168C234.908 76.148 234.727 76.3367 234.499 76.3495L234.474 76.3502L216.118 76.3213C215.879 76.3209 215.685 76.1262 215.686 75.8865C215.686 75.6553 215.867 75.4667 216.094 75.4538L216.12 75.4531Z" fill="#2E3746"/>
<path fill-rule="evenodd" clip-rule="evenodd" d="M217.089 79.8789L235.444 79.9078C235.683 79.9082 235.877 80.1029 235.877 80.3426C235.876 80.5738 235.696 80.7624 235.468 80.7753L235.442 80.776L217.087 80.7471C216.848 80.7467 216.654 80.552 216.654 80.3123C216.655 80.0811 216.835 79.8924 217.063 79.8796L217.089 79.8789Z" fill="#2E3746"/>
<path fill-rule="evenodd" clip-rule="evenodd" d="M217.046 84.293L235.387 84.3364C235.626 84.3369 235.82 84.5317 235.819 84.7715C235.819 85.0026 235.638 85.1912 235.41 85.2038L235.385 85.2045L217.044 85.1611C216.804 85.1605 216.611 84.9657 216.611 84.726C216.612 84.4948 216.793 84.3063 217.02 84.2936L217.046 84.293Z" fill="#2E3746"/>
<path fill-rule="evenodd" clip-rule="evenodd" d="M217.03 88.2266L235.386 88.27C235.625 88.2705 235.819 88.4653 235.818 88.7051C235.818 88.9362 235.637 89.1248 235.409 89.1374L235.383 89.1381L217.028 89.0947C216.789 89.0941 216.595 88.8993 216.596 88.6596C216.596 88.4284 216.777 88.2399 217.005 88.2272L217.03 88.2266Z" fill="#2E3746"/>
<path fill-rule="evenodd" clip-rule="evenodd" d="M217.03 92.1641L235.371 92.2075C235.611 92.208 235.804 92.4028 235.804 92.6426C235.803 92.8737 235.622 93.0623 235.395 93.0749L235.369 93.0756L217.028 93.0322C216.789 93.0316 216.595 92.8368 216.596 92.5971C216.596 92.3659 216.777 92.1774 217.005 92.1647L217.03 92.1641Z" fill="#2E3746"/>
<path fill-rule="evenodd" clip-rule="evenodd" d="M217.017 96.1016L235.372 96.145C235.611 96.1455 235.805 96.3403 235.804 96.5801C235.804 96.8112 235.623 96.9998 235.395 97.0124L235.37 97.0131L217.015 96.9697C216.775 96.9691 216.581 96.7743 216.582 96.5346C216.583 96.3034 216.764 96.1149 216.991 96.1022L217.017 96.1016Z" fill="#2E3746"/>
<path fill-rule="evenodd" clip-rule="evenodd" d="M217.016 100.051L235.357 100.079C235.597 100.08 235.79 100.275 235.79 100.514C235.79 100.745 235.609 100.934 235.381 100.947L235.356 100.948L217.015 100.919C216.775 100.918 216.582 100.724 216.582 100.484C216.582 100.253 216.763 100.064 216.991 100.051L217.016 100.051Z" fill="#2E3746"/>
<path fill-rule="evenodd" clip-rule="evenodd" d="M227.495 68.6953C234.246 68.7102 239.288 72.981 239.273 78.6802C239.272 78.9199 239.078 79.1137 238.838 79.1131C238.599 79.1124 238.405 78.9176 238.406 78.6778C238.419 73.5464 233.887 69.6558 227.682 69.565L227.494 69.5635H201.912C201.673 69.5635 201.479 69.3691 201.479 69.1294C201.479 68.8982 201.659 68.7093 201.887 68.696L201.912 68.6953L227.495 68.6953Z" fill="#2E3746"/>
<path fill-rule="evenodd" clip-rule="evenodd" d="M233.55 108.446C233.769 108.351 234.025 108.451 234.121 108.671C234.216 108.89 234.116 109.146 233.897 109.242L233.237 109.531C229.824 111.032 226.91 112.392 225.581 113.13C223.394 114.352 222.726 116.477 223.719 118.128C224.781 119.893 227.318 120.479 230.452 119.222L230.64 119.144C230.682 119.126 230.725 119.108 230.769 119.089L231.318 118.849L231.449 118.792C231.554 118.748 231.65 118.708 231.747 118.669C231.865 118.623 231.982 118.578 232.103 118.535C232.329 118.454 232.577 118.572 232.657 118.798C232.738 119.024 232.62 119.272 232.395 119.353C232.283 119.392 232.176 119.433 232.067 119.476C231.977 119.512 231.887 119.549 231.788 119.592L231.253 119.825C231.08 119.9 230.934 119.962 230.777 120.027C227.274 121.432 224.278 120.74 222.976 118.576C221.721 116.489 222.559 113.824 225.159 112.371L225.294 112.297C226.801 111.478 229.942 110.023 233.55 108.446Z" fill="#2E3746"/>
<path fill-rule="evenodd" clip-rule="evenodd" d="M270.414 109.344C270.554 109.15 270.825 109.106 271.02 109.247C274.774 111.962 277.454 114.793 278.722 117.686C280.851 122.562 286.756 143.598 294.078 171.358C294.139 171.589 294.001 171.827 293.77 171.888C293.538 171.949 293.301 171.811 293.24 171.579L292.587 169.107C285.591 142.663 279.965 122.701 277.927 118.035C276.733 115.31 274.152 112.583 270.512 109.95C270.318 109.81 270.274 109.539 270.414 109.344Z" fill="#2E3746"/>
<path fill-rule="evenodd" clip-rule="evenodd" d="M249.785 152.929C249.933 152.74 250.205 152.706 250.394 152.854C253.23 155.07 256.769 157.134 261.082 159.02C261.223 159.081 261.32 159.212 261.339 159.363L261.342 159.391L262.079 171.531C262.093 171.77 261.911 171.976 261.672 171.99C261.442 172.004 261.242 171.836 261.215 171.609L261.213 171.583L260.492 159.708L260.327 159.635C256.201 157.8 252.777 155.796 249.996 153.644L249.86 153.538C249.671 153.39 249.638 153.118 249.785 152.929Z" fill="#2E3746"/>
<path fill-rule="evenodd" clip-rule="evenodd" d="M239.632 143.049C239.801 142.879 240.076 142.879 240.245 143.049C240.414 143.219 240.414 143.493 240.245 143.663C239.316 144.593 238.851 145.279 238.723 145.99C238.577 146.796 238.879 147.691 239.753 148.812L239.926 149.032C241.508 151.022 242.386 151.813 243.721 152.319C245.282 152.91 247.469 152.999 251.284 152.618L251.499 152.596C254.982 152.217 257.275 151.195 258.077 149.801C258.844 148.467 258.206 146.757 256.108 144.963C255.74 144.656 255.401 144.404 255.056 144.186C254.854 144.059 254.793 143.791 254.92 143.588C255.048 143.385 255.316 143.324 255.518 143.452C255.898 143.691 256.268 143.966 256.667 144.299C259.05 146.337 259.844 148.466 258.828 150.234C257.838 151.957 255.224 153.098 251.37 153.482L251.009 153.517C247.29 153.869 245.08 153.761 243.414 153.131C241.856 152.541 240.873 151.634 239.122 149.413C238.069 148.085 237.671 146.934 237.869 145.836C238.037 144.907 238.588 144.094 239.632 143.049Z" fill="#2E3746"/>
<path fill-rule="evenodd" clip-rule="evenodd" d="M232.594 132.168C232.748 131.984 233.021 131.959 233.205 132.113C233.389 132.266 233.414 132.54 233.26 132.724C232.528 133.601 232.007 134.346 231.65 135.126C231.186 136.141 231.119 137.014 231.514 137.734C232.164 138.91 234.609 140.551 237.917 141.995C241.506 143.562 245.64 144.712 249.406 145.109C252.885 145.481 254.93 144.365 255.329 142.461C255.69 140.744 254.577 138.808 252.705 138.09L252.524 138.022C251.849 137.77 251.017 137.479 250.121 137.184C249.893 137.11 249.77 136.864 249.844 136.636C249.919 136.409 250.164 136.285 250.392 136.36L250.637 136.441C251.532 136.738 252.354 137.029 253.013 137.278C255.277 138.147 256.628 140.496 256.178 142.64C255.676 145.034 253.196 146.387 249.315 145.972C241.624 145.162 232.403 141.137 230.755 138.153C230.206 137.153 230.294 136.006 230.862 134.765C231.258 133.898 231.817 133.099 232.594 132.168Z" fill="#2E3746"/>
<path fill-rule="evenodd" clip-rule="evenodd" d="M231.431 123.082C231.641 122.966 231.905 123.042 232.021 123.251C232.137 123.461 232.061 123.725 231.851 123.841C231.109 124.252 230.604 124.832 230.331 125.601C229.552 127.835 229.772 129.387 230.794 130.517C231.532 131.334 232.468 131.83 234.285 132.501L236.848 133.432L237.733 133.751C238.304 133.956 238.841 134.148 239.363 134.333L240.037 134.571L240.392 134.695C242.793 135.535 244.662 136.145 245.91 136.481L245.974 136.498C247.929 137.019 249.424 136.721 250.383 135.772C251.252 134.912 251.646 133.53 251.473 132.004C251.446 131.765 251.618 131.55 251.855 131.524C252.093 131.497 252.308 131.668 252.335 131.906C252.535 133.68 252.066 135.326 250.993 136.389C249.814 137.557 248.029 137.924 245.833 137.359L245.751 137.337C244.498 137.003 242.634 136.397 240.233 135.559L239.387 135.262L239.074 135.152C238.445 134.929 237.796 134.697 237.092 134.443L234.269 133.419C232.135 132.647 231.054 132.099 230.151 131.099C228.902 129.718 228.634 127.832 229.513 125.313C229.859 124.337 230.508 123.593 231.431 123.082Z" fill="#2E3746"/>
<path fill-rule="evenodd" clip-rule="evenodd" d="M239.25 73.6862C239.631 71.3812 241.774 69.8199 244.071 70.1493L244.141 70.1599L272.6 74.7758C274.903 75.1573 276.462 77.3029 276.133 79.6027L276.123 79.6724L270.226 115.903C270.187 116.14 269.964 116.3 269.728 116.262C269.5 116.225 269.343 116.016 269.366 115.789L269.37 115.763L275.266 79.5341C275.559 77.6991 274.338 75.9744 272.515 75.6421L272.46 75.6325L244.003 71.017C242.17 70.7239 240.447 71.9465 240.115 73.7713L240.106 73.8268L231.825 124.771C231.532 126.606 232.753 128.331 234.576 128.663L234.631 128.673L261.181 132.999C261.418 133.038 261.578 133.261 261.54 133.497C261.502 133.726 261.294 133.883 261.067 133.86L261.042 133.856L234.491 129.53C232.188 129.148 230.629 127.003 230.958 124.703L230.968 124.633L239.25 73.6862Z" fill="#2E3746"/>
<path fill-rule="evenodd" clip-rule="evenodd" d="M252 77.9742L250.77 85.4059C250.684 85.8657 251 86.3081 251.465 86.3955L254.335 86.8745C254.795 86.9608 255.237 86.6448 255.324 86.179L256.554 78.7473C256.64 78.2876 256.325 77.8451 255.859 77.7578L252.998 77.2803C252.529 77.1924 252.087 77.5085 252 77.9742ZM252.853 78.1367L255.698 78.6115L254.472 86.0178L251.627 85.5429L252.853 78.1367Z" fill="#00DBB1"/>
<path fill-rule="evenodd" clip-rule="evenodd" d="M250.236 88.5641L249.006 95.9958L249.003 96.0129C248.946 96.4713 249.243 96.8994 249.7 96.9853L252.571 97.4643C253.03 97.5507 253.472 97.2346 253.56 96.7689L254.79 89.3372C254.876 88.8774 254.56 88.435 254.095 88.3476L251.233 87.8702C250.765 87.7823 250.323 88.0983 250.236 88.5641ZM251.087 88.7266L253.933 89.2013L252.707 96.6076L249.861 96.1327L251.087 88.7266Z" fill="#00DBB1"/>
<path fill-rule="evenodd" clip-rule="evenodd" d="M245.626 76.9039L244.396 84.3356L244.393 84.3527C244.337 84.8066 244.643 85.2355 245.086 85.3241L247.961 85.8042C248.421 85.8905 248.863 85.5745 248.95 85.1087L250.18 77.677C250.266 77.2173 249.95 76.7748 249.485 76.6875L246.624 76.21C246.155 76.1221 245.713 76.4382 245.626 76.9039ZM246.478 77.0664L249.323 77.5411L248.097 84.9474L245.252 84.4726L245.252 84.4707C245.255 84.4693 245.254 84.4661 245.254 84.4623L246.478 77.0664Z" fill="#00DBB1"/>
<path fill-rule="evenodd" clip-rule="evenodd" d="M243.862 87.5562L242.632 94.9879L242.63 95.0051C242.573 95.459 242.879 95.8878 243.322 95.9765L246.197 96.4565C246.657 96.5429 247.099 96.2268 247.186 95.7611L248.416 88.3294C248.502 87.8696 248.187 87.4272 247.722 87.3398L244.86 86.8623C244.392 86.7744 243.95 87.0905 243.862 87.5562ZM244.714 87.7188L247.56 88.1935L246.334 95.5998L243.488 95.1249L243.489 95.123C243.492 95.1216 243.491 95.1184 243.49 95.1146L244.714 87.7188Z" fill="#00DBB1"/>
<path fill-rule="evenodd" clip-rule="evenodd" d="M248.474 99.275L247.243 106.707C247.154 107.151 247.474 107.609 247.938 107.696L250.808 108.175C251.268 108.262 251.71 107.946 251.797 107.48L253.027 100.048C253.114 99.5884 252.798 99.1459 252.333 99.0586L249.471 98.5811C249.003 98.4932 248.561 98.8093 248.474 99.275ZM249.326 99.4375L252.171 99.9122L250.945 107.319L248.1 106.844L249.326 99.4375Z" fill="#00DBB1"/>
<path fill-rule="evenodd" clip-rule="evenodd" d="M246.725 109.806L245.495 117.238C245.408 117.698 245.724 118.14 246.189 118.227L249.06 118.706C249.519 118.793 249.961 118.477 250.049 118.011L251.279 110.579C251.365 110.12 251.049 109.677 250.584 109.59L247.722 109.112C247.254 109.024 246.812 109.341 246.725 109.806ZM247.577 109.969L250.423 110.443L249.197 117.85L246.352 117.375L247.577 109.969Z" fill="#00DBB1"/>
<path fill-rule="evenodd" clip-rule="evenodd" d="M256.705 119.743C256.896 119.613 257.153 119.656 257.292 119.837L257.308 119.858C257.473 120.101 257.833 120.296 258.276 120.368C258.512 120.406 258.673 120.629 258.635 120.866C258.596 121.103 258.374 121.263 258.137 121.225C257.477 121.118 256.904 120.807 256.591 120.346C256.456 120.148 256.507 119.878 256.705 119.743Z" fill="#00DBB1"/>
<path fill-rule="evenodd" clip-rule="evenodd" d="M255.828 121.142C256.027 121.01 256.296 121.065 256.428 121.265C256.827 121.869 257.953 122.272 258.96 122.145C259.198 122.114 259.415 122.283 259.445 122.521C259.475 122.758 259.307 122.976 259.069 123.006C257.759 123.172 256.304 122.652 255.705 121.744C255.573 121.544 255.628 121.274 255.828 121.142Z" fill="#00DBB1"/>
<path fill-rule="evenodd" clip-rule="evenodd" d="M254.483 122.144C254.682 122.01 254.951 122.064 255.085 122.263C255.854 123.411 258.021 124.087 259.792 123.701C260.026 123.65 260.257 123.798 260.308 124.032C260.359 124.267 260.211 124.498 259.977 124.549C257.882 125.006 255.349 124.217 254.364 122.746C254.231 122.547 254.284 122.277 254.483 122.144Z" fill="#00DBB1"/>
<path fill-rule="evenodd" clip-rule="evenodd" d="M252.56 122.941C252.759 122.807 253.028 122.861 253.161 123.06C254.386 124.892 257.704 125.977 260.543 125.464C260.778 125.422 261.004 125.578 261.047 125.814C261.089 126.05 260.933 126.276 260.697 126.318C257.543 126.888 253.875 125.689 252.44 123.543C252.307 123.343 252.361 123.074 252.56 122.941Z" fill="#00DBB1"/>
<path fill-rule="evenodd" clip-rule="evenodd" d="M259.722 87.2875L260.951 79.9083C261.023 79.4742 261.428 79.1848 261.861 79.2572L268.293 80.3279C268.726 80.4002 269.015 80.8054 268.943 81.2394L267.715 88.6187C267.642 89.0528 267.238 89.3421 266.804 89.2698L260.373 88.1991C259.953 88.1267 259.664 87.7216 259.722 87.2875Z" fill="#00DBB1"/>
<path fill-rule="evenodd" clip-rule="evenodd" d="M268.642 83.5821L268.786 82.7284L260.707 81.3828L260.562 82.2365L262.369 82.5403L261.907 85.3329L260.129 85.0435L259.984 85.8972L267.948 87.2139L268.092 86.3602L266.286 86.0563L266.748 83.2638L268.642 83.5821ZM265.881 83.1478L265.433 85.8101L262.773 85.3615L263.221 82.6992L265.881 83.1478Z" fill="#2E3746"/>
<path fill-rule="evenodd" clip-rule="evenodd" d="M269.371 116.355L268.402 115.242L268.191 114.998C267.965 114.735 267.766 114.5 267.575 114.269L267.405 114.063C265.47 111.692 264.218 109.506 263.515 106.845L263.48 106.712C262.715 103.706 259.923 102.546 257.664 103.97C256.508 104.698 255.678 106.019 255.373 107.798C255.015 109.88 255.383 112.483 256.572 115.504L256.807 116.1C257.756 118.489 258.549 120.328 259.305 121.94L259.45 122.248C259.748 122.868 260.707 124.821 260.924 125.321C261.196 125.945 261.408 126.536 261.613 127.256C261.697 127.551 261.78 127.87 261.865 128.221C262.198 129.603 262.249 130.779 262 131.859L261.98 131.942C261.326 134.617 261.069 137.973 261.445 141.652C261.942 146.522 263.501 151.544 266.33 156.571C266.448 156.78 266.374 157.044 266.166 157.162C265.957 157.28 265.693 157.206 265.575 156.997C262.686 151.865 261.091 146.727 260.582 141.74C260.202 138.019 260.453 134.611 261.107 131.863L261.138 131.735C261.373 130.78 261.334 129.716 261.022 128.425L260.967 128.203C260.904 127.949 260.841 127.714 260.779 127.494C260.597 126.854 260.41 126.327 260.177 125.778L260.129 125.667C259.906 125.154 258.831 122.969 258.613 122.507L258.473 122.209C257.662 120.472 256.806 118.472 255.765 115.822C254.522 112.663 254.132 109.902 254.518 107.65C254.864 105.637 255.83 104.1 257.202 103.235C259.964 101.495 263.412 102.927 264.32 106.497C264.981 109.079 266.183 111.193 268.077 113.513L268.243 113.716C268.468 113.987 268.705 114.266 268.986 114.591L270.082 115.85L270.272 116.072C270.974 116.898 271.432 117.502 271.789 118.103L273.267 120.615L275.632 124.655L279.537 131.345C279.658 131.552 279.588 131.818 279.381 131.939C279.174 132.06 278.909 131.99 278.788 131.783L273.521 122.764C272.378 120.811 271.524 119.357 271.043 118.547C270.706 117.978 270.256 117.388 269.545 116.556L269.371 116.355Z" fill="#2E3746"/>
<circle cx="54" cy="132" r="1" transform="rotate(90 54 132)" fill="#00DBB1" fill-opacity="0.4"/>
<circle cx="54" cy="140" r="1" transform="rotate(90 54 140)" fill="#00DBB1" fill-opacity="0.4"/>
<circle cx="54" cy="148" r="1" transform="rotate(90 54 148)" fill="#00DBB1" fill-opacity="0.4"/>
<circle cx="54" cy="156" r="1" transform="rotate(90 54 156)" fill="#00DBB1" fill-opacity="0.4"/>
<circle cx="54" cy="164" r="1" transform="rotate(90 54 164)" fill="#00DBB1" fill-opacity="0.4"/>
<circle cx="46" cy="132" r="1" transform="rotate(90 46 132)" fill="#00DBB1" fill-opacity="0.4"/>
<circle cx="46" cy="140" r="1" transform="rotate(90 46 140)" fill="#00DBB1" fill-opacity="0.4"/>
<circle cx="46" cy="148" r="1" transform="rotate(90 46 148)" fill="#00DBB1" fill-opacity="0.4"/>
<circle cx="46" cy="156" r="1" transform="rotate(90 46 156)" fill="#00DBB1" fill-opacity="0.4"/>
<circle cx="46" cy="164" r="1" transform="rotate(90 46 164)" fill="#00DBB1" fill-opacity="0.4"/>
<circle cx="38" cy="132" r="1" transform="rotate(90 38 132)" fill="#00DBB1" fill-opacity="0.4"/>
<circle cx="38" cy="140" r="1" transform="rotate(90 38 140)" fill="#00DBB1" fill-opacity="0.4"/>
<circle cx="38" cy="148" r="1" transform="rotate(90 38 148)" fill="#00DBB1" fill-opacity="0.4"/>
<circle cx="38" cy="156" r="1" transform="rotate(90 38 156)" fill="#00DBB1" fill-opacity="0.4"/>
<circle cx="38" cy="164" r="1" transform="rotate(90 38 164)" fill="#00DBB1" fill-opacity="0.4"/>
<circle cx="30" cy="132" r="1" transform="rotate(90 30 132)" fill="#00DBB1" fill-opacity="0.4"/>
<circle cx="30" cy="140" r="1" transform="rotate(90 30 140)" fill="#00DBB1" fill-opacity="0.4"/>
<circle cx="30" cy="148" r="1" transform="rotate(90 30 148)" fill="#00DBB1" fill-opacity="0.4"/>
<circle cx="30" cy="156" r="1" transform="rotate(90 30 156)" fill="#00DBB1" fill-opacity="0.4"/>
<circle cx="30" cy="164" r="1" transform="rotate(90 30 164)" fill="#00DBB1" fill-opacity="0.4"/>
<circle cx="22" cy="132" r="1" transform="rotate(90 22 132)" fill="#00DBB1" fill-opacity="0.4"/>
<circle cx="22" cy="140" r="1" transform="rotate(90 22 140)" fill="#00DBB1" fill-opacity="0.4"/>
<circle cx="22" cy="148" r="1" transform="rotate(90 22 148)" fill="#00DBB1" fill-opacity="0.4"/>
<circle cx="22" cy="156" r="1" transform="rotate(90 22 156)" fill="#00DBB1" fill-opacity="0.4"/>
<circle cx="22" cy="164" r="1" transform="rotate(90 22 164)" fill="#00DBB1" fill-opacity="0.4"/>
<circle cx="14" cy="132" r="1" transform="rotate(90 14 132)" fill="#00DBB1" fill-opacity="0.4"/>
<circle cx="14" cy="140" r="1" transform="rotate(90 14 140)" fill="#00DBB1" fill-opacity="0.4"/>
<circle cx="14" cy="148" r="1" transform="rotate(90 14 148)" fill="#00DBB1" fill-opacity="0.4"/>
<circle cx="14" cy="156" r="1" transform="rotate(90 14 156)" fill="#00DBB1" fill-opacity="0.4"/>
<circle cx="14" cy="164" r="1" transform="rotate(90 14 164)" fill="#00DBB1" fill-opacity="0.4"/>
<path d="M78.2376 22.9224C77.9837 21.2075 76.3014 20.0854 74.6141 20.5308L68.7959 22.0743C68.1615 20.2254 67.2304 18.4381 65.2719 17.3037C65.0449 17.1714 64.7652 17.1589 64.5272 17.2735L36.3816 30.674C32.9294 31.5889 45.1798 28.3424 19.5641 35.1308C19.0846 35.2561 18.8367 35.7789 19.0334 36.2266C20.2759 39.0568 20.7189 40.4669 20.8445 40.8175L13.4584 45.1922C12.9828 45.4741 12.9275 46.1484 13.361 46.5006C16.2128 48.8245 18.642 51.2243 20.652 53.6464L16.1386 54.4766C15.723 54.5526 15.4386 54.9391 15.4891 55.3589C16.881 66.9187 20.1883 70.9416 26.2251 78.5016C26.3802 78.6964 26.7231 78.8707 27.0699 78.7745L56.884 70.3342L56.8443 70.3954C56.4738 70.9637 56.9409 71.71 57.6141 71.6245L60.3943 71.2776L61.262 73.8443C61.4749 74.476 62.3267 74.5855 62.6907 74.0235L66.8568 67.5946C67.919 67.7142 68.9211 67.707 70.3696 67.2404L75.0917 72.2891C75.5259 72.7512 76.3051 72.5499 76.4542 71.9287L77.1844 68.8839L80.1084 68.2047C80.7079 68.0658 80.9318 67.3274 80.512 66.8797L78.1225 64.3209L81.8157 63.2735C82.1296 63.1836 82.3628 62.8713 82.3928 62.5901C82.4297 62.2468 82.4925 61.4409 82.4835 61.55C82.4495 59.9731 85.0241 41.2596 78.2376 22.9224ZM75.023 22.0776C75.8205 21.8666 76.5745 22.4254 76.6605 23.2047C76.7989 24.4306 82.932 36.7249 80.9194 60.9426L76.2881 62.2752C76.2895 62.2727 76.2903 62.2701 76.2917 62.2675C78.3802 58.4349 77.8699 53.6537 74.512 51.0964C72.7261 49.736 70.4459 49.2537 68.0969 49.7443C63.3475 50.7329 59.736 55.4745 60.0459 60.3131C60.1275 61.585 60.5406 62.8937 61.0851 63.8529L58.8721 67.267L28.4787 75.9849C28.8823 63.4564 26.8837 48.0222 21.9086 36.1684C46.4282 29.6636 53.1672 27.8758 75.023 22.0776ZM25.4117 61.2539C25.8592 65.4251 26.1529 69.5047 26.1384 74.3714C22.0309 69.19 19.2639 65.1662 17.963 55.7675L21.7896 55.0641C23.258 57.0132 24.489 58.9861 25.4117 61.2539ZM44.7897 28.4422L64.8167 18.9068C66.1239 19.8094 66.7867 21.1597 67.2477 22.4849C64.9077 23.1057 75.639 20.259 44.7897 28.4422ZM15.2516 45.9901L21.374 42.3641C22.3604 45.0466 23.8755 50.7852 24.7974 56.621C22.2886 52.5977 18.8884 49.0599 15.2516 45.9901ZM62.2485 71.7662L61.7011 70.1464C61.5797 69.7873 61.2222 69.5617 60.8443 69.6089L59.1225 69.8235C59.5552 69.1559 62.1608 65.1359 62.0892 65.2464C62.8261 66.0535 63.9668 66.8415 65.1751 67.2558L62.2485 71.7662ZM61.6428 60.211C61.2211 53.6395 68.8251 48.7793 73.5423 52.3693C77.3307 55.2558 76.3456 61.4189 72.5152 64.3079C68.059 67.9065 61.9971 65.7266 61.6428 60.211ZM76.3412 67.437C76.0459 67.5058 75.8147 67.7349 75.7438 68.0297L75.2449 70.1099L71.948 66.5849C72.8723 66.1014 74.1047 65.2048 74.9563 64.187C75.0971 64.0286 75.231 63.8671 75.3585 63.7046L76.0553 64.4516C76.0611 64.4579 76.0688 64.4614 76.0747 64.4675L78.3975 66.9599L76.3412 67.437Z" fill="#2E3746"/>
<path d="M35.001 47.041C35.3363 48.1414 36.7682 47.7273 36.4429 46.6613L34.8186 41.299L40.9856 46.0262C41.505 46.4415 42.4146 46.0285 42.1497 45.1592L39.9481 37.8904C39.6254 36.8167 38.1741 37.2077 38.4943 38.2733L40.1144 43.6217L33.9678 38.9171C33.4504 38.5057 32.5376 38.9101 32.8005 39.7723L35.001 47.041Z" fill="#2E3746"/>
<path d="M43.9677 44.6517C44.1187 45.1494 44.492 45.3303 44.9408 45.2118L49.2785 44.0702C49.5103 44.0091 49.6744 43.9082 49.7699 43.7666C50.0151 43.4058 49.746 42.5828 48.8955 42.8064L45.3281 43.7462L44.5557 41.1959L47.8827 40.3194C48.7723 40.0855 48.4734 39.2607 48.094 39.0877C47.9332 39.0136 47.7368 39.0073 47.504 39.0683L44.1769 39.9449L43.4495 37.5439L47.0169 36.604C47.2497 36.5428 47.4128 36.4386 47.5072 36.2949C47.7373 35.9329 47.5127 35.1095 46.6349 35.3413L42.2972 36.4827C41.8471 36.6015 41.6325 36.9387 41.7811 37.4333L43.9677 44.6517Z" fill="#2E3746"/>
<path d="M59.3773 32.4415L59.1552 39.1182L55.2713 33.5755C54.8279 32.9259 53.8862 33.1465 53.8626 33.9328L53.5815 40.5044L49.7062 34.9875C49.1549 34.2079 47.793 34.8793 48.4659 35.862L53.28 42.5492C53.7196 43.1713 54.8231 42.9004 54.8776 42.1286L55.1415 35.7622L58.902 41.0698C59.3305 41.6758 60.4518 41.435 60.5124 40.646C60.8359 32.6637 60.9151 32.5613 60.8278 32.2601C60.5896 31.4846 59.4075 31.5962 59.3773 32.4415Z" fill="#2E3746"/>
<path d="M63.8238 33.4613C63.546 32.5452 64.2675 31.9542 65.2003 31.7082C66.6369 31.3299 67.291 31.9092 67.8235 31.9538C68.0734 31.9754 68.2585 31.8823 68.3536 31.648C68.4669 31.3597 68.3557 31.0098 68.2012 30.8454C68.1304 30.7694 68.0306 30.7006 67.8976 30.6384C65.3626 29.4157 61.5079 31.1973 62.34 33.959C63.2984 37.1162 67.9034 34.6868 68.434 36.4332C68.7193 37.3762 67.9504 37.8949 66.9942 38.1476C66.1036 38.3818 65.3058 38.3686 64.4429 38.0318C64.224 37.9652 64.0416 37.9491 63.8978 37.9867C63.4066 38.1171 63.4315 39.0381 64.0437 39.285C64.4761 39.4845 64.9922 39.5971 65.5919 39.6207C68.0847 39.7192 70.6371 38.2605 69.9329 35.9439C69.0155 32.9166 64.3923 35.332 63.8238 33.4613Z" fill="#2E3746"/>
<path d="M72.1088 61.2571L71.6057 59.181L73.0651 57.3092C73.4852 56.7724 73.0793 55.9834 72.3875 56.0185L70.3349 56.1383L69.3125 54.4675C68.9673 53.9039 68.1195 53.9786 67.8828 54.5998L67.0437 56.8008L64.9073 57.5654C64.3062 57.7789 64.1863 58.5826 64.7015 58.9623L66.2672 60.1175L66.05 62.2946C65.9806 62.9886 66.7767 63.4348 67.3333 63.0081L69.1667 61.5988L71.0896 62.2081C71.6828 62.3953 72.2547 61.863 72.1088 61.2571Z" fill="#2E3746"/>
<path d="M50.2106 53.2707C50.645 53.1873 50.9299 52.7696 50.8476 52.3353C50.7648 51.8998 50.3414 51.6155 49.9127 51.6978L31.7976 55.1342C31.3632 55.2176 31.0783 55.6353 31.1606 56.0696C31.2433 56.5054 31.6626 56.7883 32.0955 56.7071L50.2106 53.2707Z" fill="#2E3746"/>
<path d="M51.0446 59.4032C51.479 59.3199 51.7639 58.9022 51.6816 58.4678C51.5988 58.0324 51.1754 57.749 50.7467 57.8303L32.6316 61.2668C32.1972 61.3501 31.9123 61.7678 31.9946 62.2022C32.0773 62.638 32.4966 62.9208 32.9295 62.8397L51.0446 59.4032Z" fill="#2E3746"/>
<path d="M51.5826 63.9637L33.4675 67.4001C33.0332 67.4835 32.7483 67.9012 32.8306 68.3356C32.9132 68.7713 33.3326 69.0542 33.7655 68.9731L51.8806 65.5366C52.3149 65.4533 52.5998 65.0356 52.5175 64.6012C52.4347 64.1658 52.0102 63.8803 51.5826 63.9637Z" fill="#2E3746"/>
<path d="M15.9978 25.1396C15.6723 25.4375 15.6499 25.9437 15.9483 26.2698L20.128 30.8333C20.2858 31.0052 20.5019 31.0927 20.7181 31.0927C21.4064 31.0927 21.7804 30.268 21.3082 29.7521L17.1285 25.1885C16.8301 24.8635 16.3238 24.8416 15.9978 25.1396Z" fill="#2E3746"/>
<path d="M26.3361 29.0254C26.7376 28.841 26.9137 28.366 26.7293 27.9639L22.5137 18.791C22.3288 18.39 21.8517 18.2118 21.4527 18.3983C21.0512 18.5827 20.8751 19.0577 21.0595 19.4598L25.2751 28.6327C25.464 29.0425 25.9468 29.2059 26.3361 29.0254Z" fill="#2E3746"/>
<path d="M29.8369 20.7931L29.3067 24.5754C29.2399 25.0517 29.6063 25.4868 30.0999 25.4868C30.4926 25.4868 30.8353 25.1972 30.8911 24.7983L31.4213 21.016C31.4827 20.5785 31.178 20.1733 30.7405 20.1118C30.303 20.0577 29.8989 20.3556 29.8369 20.7931Z" fill="#2E3746"/>
</g>
<defs>
<clipPath id="clip0_31_727">
<rect width="327" height="171" rx="6" fill="white"/>
</clipPath>
</defs>
</svg>
