<svg width="33" height="32" viewBox="0 0 33 32" fill="none" xmlns="http://www.w3.org/2000/svg">
<path d="M28.5948 5.96956C28.4933 5.28359 27.8204 4.83474 27.1455 5.01289L24.8182 5.63029C24.5644 4.89076 24.192 4.17581 23.4086 3.72206C23.3177 3.66914 23.2059 3.66414 23.1107 3.70998L11.8525 9.07019C10.4716 9.43614 15.3717 8.13755 5.12546 10.8529C4.93365 10.903 4.83449 11.1121 4.91317 11.2912C5.41017 12.4233 5.58738 12.9874 5.63762 13.1276L2.68317 14.8775C2.49293 14.9902 2.47082 15.26 2.64421 15.4008C3.78491 16.3304 4.7566 17.2903 5.56059 18.2591L3.75525 18.5912C3.589 18.6216 3.47525 18.7762 3.49546 18.9441C4.0522 23.5681 5.37511 25.1772 7.78983 28.2012C7.85189 28.2792 7.98906 28.3489 8.12775 28.3104L20.0534 24.9342L20.0375 24.9587C19.8893 25.1861 20.0762 25.4846 20.3455 25.4504L21.4575 25.3116L21.8046 26.3383C21.8898 26.591 22.2305 26.6348 22.3761 26.41L24.0425 23.8384C24.4674 23.8863 24.8682 23.8834 25.4476 23.6967L27.3365 25.7162C27.5102 25.9011 27.8219 25.8205 27.8815 25.5721L28.1736 24.3541L29.3432 24.0825C29.583 24.0269 29.6725 23.7316 29.5046 23.5525L28.5488 22.5289L30.0261 22.11C30.1517 22.074 30.2449 21.9491 30.2569 21.8366C30.2717 21.6993 30.2968 21.3769 30.2932 21.4206C30.2796 20.7898 31.3095 13.3044 28.5948 5.96956ZM27.309 5.63164C27.628 5.54722 27.9296 5.77073 27.964 6.08248C28.0194 6.57281 30.4726 11.4906 29.6676 21.1776L27.815 21.7107C27.8156 21.7097 27.8159 21.7086 27.8165 21.7076C28.6519 20.1746 28.4478 18.2621 27.1046 17.2391C26.3902 16.695 25.4782 16.5021 24.5386 16.6983C22.6388 17.0937 21.1942 18.9904 21.3182 20.9258C21.3508 21.4346 21.516 21.9581 21.7338 22.3417L20.8486 23.7074L8.69129 27.1946C8.85271 22.1832 8.05329 16.0095 6.06324 11.2679C15.8711 8.66602 18.5667 7.9509 27.309 5.63164ZM7.46447 21.3022C7.64347 22.9706 7.76095 24.6025 7.75515 26.5491C6.11215 24.4766 5.00535 22.8671 4.48499 19.1076L6.01564 18.8262C6.603 19.6059 7.09542 20.395 7.46447 21.3022ZM15.2157 8.17748L23.2265 4.36331C23.7494 4.72435 24.0145 5.26446 24.1989 5.79456C23.2629 6.04285 27.5554 4.9042 15.2157 8.17748ZM3.40046 15.1966L5.84942 13.7462C6.24395 14.8192 6.85001 17.1147 7.21877 19.449C6.21525 17.8397 4.85516 16.4246 3.40046 15.1966ZM22.1992 25.5071L21.9802 24.8591C21.9317 24.7155 21.7887 24.6252 21.6375 24.6441L20.9488 24.73C21.1219 24.4629 22.1641 22.8549 22.1355 22.8991C22.4303 23.222 22.8865 23.5372 23.3698 23.7029L22.1992 25.5071ZM21.9569 20.885C21.7883 18.2564 24.8298 16.3123 26.7167 17.7483C28.2321 18.9029 27.838 21.3682 26.3059 22.5237C24.5234 23.9632 22.0987 23.0912 21.9569 20.885ZM27.8363 23.7754C27.7182 23.8029 27.6257 23.8946 27.5973 24.0125L27.3977 24.8446L26.079 23.4346C26.4487 23.2412 26.9417 22.8825 27.2823 22.4754C27.3386 22.412 27.3922 22.3474 27.4432 22.2824L27.7219 22.5812C27.7242 22.5837 27.7273 22.5851 27.7297 22.5876L28.6588 23.5846L27.8363 23.7754Z" fill="#2D3646"/>
<path d="M11.3002 15.6167C11.4343 16.0569 12.0071 15.8913 11.877 15.4649L11.2272 13.3199L13.694 15.2108C13.9018 15.377 14.2656 15.2118 14.1597 14.864L13.279 11.9565C13.15 11.527 12.5694 11.6834 12.6975 12.1097L13.3456 14.249L10.8869 12.3672C10.68 12.2026 10.3148 12.3644 10.42 12.7092L11.3002 15.6167Z" fill="#2D3646"/>
<path d="M14.8875 14.6615C14.9479 14.8606 15.0972 14.933 15.2767 14.8856L17.0118 14.4289C17.1045 14.4045 17.1702 14.3641 17.2084 14.3075C17.3064 14.1631 17.1988 13.834 16.8586 13.9234L15.4317 14.2993L15.1227 13.2792L16.4535 12.9286C16.8093 12.835 16.6897 12.5051 16.538 12.4359C16.4737 12.4063 16.3951 12.4037 16.302 12.4282L14.9712 12.7788L14.6802 11.8184L16.1071 11.4424C16.2003 11.418 16.2655 11.3763 16.3033 11.3188C16.3953 11.174 16.3055 10.8446 15.9544 10.9373L14.2193 11.3939C14.0392 11.4414 13.9534 11.5763 14.0128 11.7742L14.8875 14.6615Z" fill="#2D3646"/>
<path d="M21.0509 9.77725L20.9621 12.4479L19.4085 10.2308C19.2312 9.97098 18.8545 10.0592 18.845 10.3738L18.7326 13.0024L17.1825 10.7956C16.962 10.4838 16.4172 10.7524 16.6864 11.1454L18.612 13.8203C18.7878 14.0691 19.2292 13.9608 19.251 13.6521L19.3566 11.1055L20.8608 13.2285C21.0322 13.471 21.4807 13.3746 21.505 13.059C21.6344 9.8661 21.6661 9.82517 21.6311 9.70469C21.5358 9.39447 21.063 9.4391 21.0509 9.77725Z" fill="#2D3646"/>
<path d="M22.8291 10.1857C22.718 9.81929 23.0066 9.58291 23.3797 9.4845C23.9544 9.33318 24.216 9.56488 24.429 9.58272C24.529 9.59139 24.603 9.55413 24.641 9.46043C24.6864 9.3451 24.6419 9.20515 24.5801 9.13939C24.5518 9.10897 24.5119 9.08147 24.4586 9.05658C23.4447 8.56751 21.9028 9.28013 22.2356 10.3848C22.619 11.6477 24.461 10.6759 24.6732 11.3745C24.7873 11.7517 24.4798 11.9592 24.0973 12.0603C23.7411 12.1539 23.4219 12.1487 23.0768 12.0139C22.9892 11.9873 22.9162 11.9809 22.8587 11.9959C22.6623 12.0481 22.6722 12.4165 22.9171 12.5152C23.0901 12.595 23.2965 12.6401 23.5364 12.6495C24.5335 12.6889 25.5544 12.1054 25.2727 11.1788C24.9058 9.96785 23.0565 10.934 22.8291 10.1857Z" fill="#2D3646"/>
<path d="M26.1435 21.3042L25.9423 20.4738L26.526 19.7251C26.6941 19.5104 26.5317 19.1948 26.255 19.2088L25.434 19.2567L25.025 18.5884C24.8869 18.363 24.5478 18.3928 24.4531 18.6413L24.1175 19.5217L23.2629 19.8276C23.0225 19.913 22.9745 20.2345 23.1806 20.3863L23.8069 20.8484L23.72 21.7192C23.6922 21.9968 24.0107 22.1753 24.2333 22.0047L24.9667 21.4409L25.7358 21.6847C25.9731 21.7596 26.2019 21.5466 26.1435 21.3042Z" fill="#2D3646"/>
<path d="M17.3844 18.1082C17.5582 18.0749 17.6722 17.9078 17.6392 17.7341C17.6061 17.5599 17.4367 17.4461 17.2653 17.4791L10.0192 18.8536C9.84549 18.887 9.73153 19.0541 9.76445 19.2278C9.79752 19.4021 9.96525 19.5153 10.1384 19.4828L17.3844 18.1082Z" fill="#2D3646"/>
<path d="M17.7175 20.5617C17.8912 20.5284 18.0052 20.3613 17.9722 20.1876C17.9391 20.0134 17.7697 19.9001 17.5983 19.9326L10.3523 21.3071C10.1785 21.3405 10.0645 21.5076 10.0975 21.6813C10.1305 21.8556 10.2983 21.9688 10.4714 21.9363L17.7175 20.5617Z" fill="#2D3646"/>
<path d="M17.9323 22.3859L10.6862 23.7605C10.5125 23.7938 10.3985 23.9609 10.4314 24.1347C10.4645 24.309 10.6322 24.4221 10.8054 24.3897L18.0514 23.0151C18.2252 22.9817 18.3392 22.8147 18.3062 22.6409C18.2731 22.4667 18.1033 22.3526 17.9323 22.3859Z" fill="#2D3646"/>
<path d="M3.69853 6.85714C3.56832 6.97631 3.55936 7.17881 3.67873 7.30922L5.35061 9.13464C5.41373 9.20339 5.50019 9.23839 5.58665 9.23839C5.86195 9.23839 6.01159 8.90851 5.82269 8.70214L4.15082 6.87672C4.03144 6.74672 3.82894 6.73797 3.69853 6.85714Z" fill="#2D3646"/>
<path d="M7.83423 8.41133C7.99486 8.33758 8.06527 8.14758 7.99152 7.98674L6.30527 4.31758C6.23131 4.15716 6.04048 4.08591 5.8809 4.16049C5.72027 4.23424 5.64986 4.42424 5.72361 4.58508L7.40986 8.25424C7.48541 8.41818 7.67852 8.48354 7.83423 8.41133Z" fill="#2D3646"/>
<path d="M9.23476 5.11757L9.02268 6.63049C8.99597 6.82102 9.14252 6.99507 9.33997 6.99507C9.49705 6.99507 9.63413 6.87924 9.65643 6.71965L9.86851 5.20674C9.89309 5.03174 9.77122 4.86965 9.59622 4.84507C9.42122 4.8234 9.25955 4.94257 9.23476 5.11757Z" fill="#2D3646"/>
</svg>
