<svg width="608" height="220" viewBox="0 0 608 220" fill="none" xmlns="http://www.w3.org/2000/svg">
<g clip-path="url(#clip0_30_28)">
<rect width="608" height="220" rx="6" fill="#E0F7F0"/>
<path fill-rule="evenodd" clip-rule="evenodd" d="M243.164 171.968C243.62 171.968 243.993 172.324 244.019 172.773L244.02 172.824V201.939C244.02 202.412 243.637 202.795 243.164 202.795C242.708 202.795 242.335 202.439 242.309 201.989L242.308 201.939V172.824C242.308 172.351 242.691 171.968 243.164 171.968Z" fill="#2E3746"/>
<path fill-rule="evenodd" clip-rule="evenodd" d="M211.88 134.809C212.353 134.809 212.736 135.192 212.736 135.665C212.736 136.12 212.38 136.493 211.93 136.519L211.88 136.52H167.27C165.052 136.52 163.236 138.406 163.189 140.761L163.188 140.855V144.163C163.188 144.712 162.677 145.119 162.142 144.997C160.549 144.634 158.929 144.448 157.309 144.448C144.714 144.448 134.447 155.268 134.447 168.601C134.447 181.916 144.723 192.755 157.309 192.755C158.947 192.755 160.537 192.572 162.142 192.206C162.661 192.088 163.156 192.466 163.187 192.989L163.188 193.04V202.308C163.188 202.781 162.805 203.164 162.332 203.164C161.876 203.164 161.503 202.808 161.477 202.359L161.476 202.308V194.088L161.304 194.12C160.085 194.333 158.864 194.448 157.62 194.464L157.309 194.466C143.756 194.466 132.734 182.841 132.734 168.601C132.734 154.343 143.747 142.737 157.309 142.737C158.647 142.737 159.983 142.854 161.306 143.084L161.476 143.115V140.855C161.476 137.565 164.003 134.865 167.171 134.81L167.27 134.809H211.88Z" fill="#2E3746"/>
<path fill-rule="evenodd" clip-rule="evenodd" d="M157.31 151.95C148.578 151.95 141.47 159.444 141.47 168.604C141.47 177.774 148.559 185.258 157.31 185.258C159.168 185.258 160.957 184.931 162.639 184.289C162.971 184.162 163.19 183.844 163.19 183.49V153.718C163.19 153.363 162.971 153.045 162.639 152.919C160.957 152.277 159.168 151.95 157.31 151.95ZM157.524 153.662C158.882 153.683 160.192 153.901 161.441 154.309L161.476 154.321V182.885L161.441 182.897C160.127 183.327 158.744 183.546 157.309 183.546C149.525 183.546 143.181 176.849 143.181 168.603C143.181 160.368 149.544 153.66 157.309 153.66L157.524 153.662Z" fill="#2E3746"/>
<path fill-rule="evenodd" clip-rule="evenodd" d="M241.167 115.448L212.026 115.363C211.57 115.361 211.196 115.717 211.169 116.166L211.157 122.645L211.111 153.564L211.11 154.494C211.108 159.698 211.372 162.826 212.48 166.072C214.112 170.851 217.317 173.673 222.412 173.85L222.442 173.851H241.165C241.638 173.851 242.021 173.468 242.021 172.995V116.304C242.021 115.832 241.639 115.45 241.167 115.448ZM212.88 117.078L240.31 117.158V172.141L222.472 172.142C218.151 171.991 215.52 169.674 214.102 165.522C213.091 162.559 212.83 159.61 212.824 154.734L212.853 133.057L212.88 117.078Z" fill="#2E3746"/>
<path fill-rule="evenodd" clip-rule="evenodd" d="M219.046 125.201L237.084 125.23C237.557 125.23 237.94 125.614 237.939 126.087C237.938 126.542 237.581 126.914 237.132 126.939L237.082 126.941L219.043 126.912C218.57 126.911 218.188 126.528 218.188 126.055C218.189 125.6 218.546 125.228 218.996 125.203L219.046 125.201Z" fill="#2E3746"/>
<path fill-rule="evenodd" clip-rule="evenodd" d="M219.017 133.329L237.055 133.358C237.528 133.358 237.911 133.742 237.91 134.214C237.909 134.67 237.552 135.042 237.103 135.067L237.052 135.069L219.014 135.04C218.541 135.039 218.158 134.656 218.159 134.183C218.16 133.728 218.517 133.356 218.966 133.33L219.017 133.329Z" fill="#2E3746"/>
<path fill-rule="evenodd" clip-rule="evenodd" d="M218.988 141.485L237.055 141.513C237.528 141.514 237.911 141.898 237.91 142.37C237.909 142.826 237.552 143.197 237.103 143.223L237.053 143.224L218.986 143.196C218.513 143.195 218.13 142.811 218.131 142.339C218.132 141.883 218.489 141.511 218.938 141.486L218.988 141.485Z" fill="#2E3746"/>
<path fill-rule="evenodd" clip-rule="evenodd" d="M218.988 149.613L237.027 149.641C237.5 149.642 237.882 150.025 237.882 150.498C237.881 150.954 237.524 151.325 237.074 151.351L237.024 151.352L218.986 151.324C218.513 151.323 218.13 150.939 218.131 150.467C218.132 150.011 218.489 149.639 218.938 149.614L218.988 149.613Z" fill="#2E3746"/>
<path fill-rule="evenodd" clip-rule="evenodd" d="M218.961 157.768L237.028 157.797C237.501 157.798 237.884 158.181 237.883 158.654C237.882 159.109 237.525 159.481 237.075 159.506L237.025 159.508L218.958 159.479C218.486 159.479 218.103 159.095 218.104 158.622C218.104 158.167 218.461 157.795 218.911 157.77L218.961 157.768Z" fill="#2E3746"/>
<path fill-rule="evenodd" clip-rule="evenodd" d="M271.363 173.166L222.442 172.995C230.548 173.024 237.113 166.465 237.141 158.366L238.026 99.707C238.055 91.6082 244.619 85.0779 252.725 85.0779L251.241 85.1349C259.347 85.1634 265.883 91.7223 265.883 99.8211V103.443L265.397 123.861C265.397 123.861 264.655 141.17 281.381 136.608C281.209 137.064 271.363 173.166 271.363 173.166Z" fill="#00DBB1"/>
<path fill-rule="evenodd" clip-rule="evenodd" d="M323.08 22.3407C311.806 24.4224 303.443 31.9794 303.415 40.9907L302.815 66.8839L306.126 64.9733L346.883 64.8022L346.826 41.1333C346.826 30.525 333.012 20.1734 323.08 22.3407Z" fill="#00DBB1"/>
<path fill-rule="evenodd" clip-rule="evenodd" d="M252.7 84.2481C255.891 84.2639 259.228 85.5727 261.765 87.8867C264.607 90.4796 266.268 94.1258 266.339 98.4642L266.358 99.7242C266.406 103.26 266.407 106.209 266.375 110.283L266.318 116.655L266.304 120.599C266.302 123.21 266.367 124.768 266.608 126.573C267.436 132.774 270.052 136.245 275.502 136.434C275.539 136.436 275.575 136.439 275.612 136.445L275.691 136.457C275.759 136.466 275.855 136.477 275.979 136.488C277.487 136.627 279.273 136.5 281.052 135.907C281.501 135.758 281.986 136 282.136 136.448C282.285 136.897 282.043 137.381 281.594 137.531C279.626 138.186 277.677 138.341 275.989 138.206L275.822 138.192C275.695 138.18 275.588 138.168 275.502 138.157L275.391 138.142L275.273 138.137C271.957 137.983 269.455 136.709 267.717 134.471L267.629 134.357C266.174 132.427 265.324 129.895 264.911 126.799L264.876 126.53C264.64 124.656 264.584 123.001 264.593 120.22L264.598 119.064L264.601 117.364C264.604 116.604 264.611 115.755 264.623 114.46L264.664 109.99C264.698 105.604 264.691 102.516 264.627 98.4919C264.564 94.6269 263.106 91.427 260.61 89.1502C258.386 87.1215 255.457 85.9728 252.692 85.9591C252.219 85.9567 251.838 85.5718 251.84 85.0993C251.842 84.6268 252.227 84.2457 252.7 84.2481Z" fill="#2E3746"/>
<path fill-rule="evenodd" clip-rule="evenodd" d="M269.71 90.8684L284.323 90.9254C284.796 90.9273 285.178 91.3118 285.176 91.7843C285.175 92.2399 284.817 92.6109 284.367 92.6352L284.317 92.6364L269.703 92.5794C269.231 92.5776 268.849 92.193 268.851 91.7206C268.852 91.265 269.21 90.8939 269.66 90.8697L269.71 90.8684Z" fill="#2E3746"/>
<path fill-rule="evenodd" clip-rule="evenodd" d="M271.135 97.4841L286.348 97.5126C286.821 97.5135 287.203 97.8973 287.202 98.3698C287.202 98.8254 286.844 99.1971 286.395 99.2223L286.345 99.2237L271.132 99.1951C270.659 99.1942 270.276 98.8105 270.277 98.338C270.278 97.8824 270.635 97.5107 271.085 97.4855L271.135 97.4841Z" fill="#2E3746"/>
<path fill-rule="evenodd" clip-rule="evenodd" d="M271.079 104.072L287.662 104.129C288.134 104.131 288.516 104.515 288.515 104.988C288.513 105.443 288.156 105.815 287.706 105.839L287.656 105.84L271.073 105.783C270.6 105.782 270.218 105.397 270.22 104.925C270.221 104.469 270.579 104.098 271.029 104.074L271.079 104.072Z" fill="#2E3746"/>
<path fill-rule="evenodd" clip-rule="evenodd" d="M271.08 109.946L287.32 110.003C287.793 110.004 288.175 110.389 288.173 110.861C288.172 111.317 287.814 111.688 287.364 111.713L287.314 111.714L271.074 111.657C270.601 111.655 270.219 111.271 270.221 110.798C270.222 110.343 270.58 109.972 271.03 109.947L271.08 109.946Z" fill="#2E3746"/>
<path fill-rule="evenodd" clip-rule="evenodd" d="M271.05 115.847L287.319 115.875C287.792 115.876 288.174 116.26 288.174 116.732C288.173 117.188 287.816 117.56 287.366 117.585L287.316 117.586L271.047 117.558C270.574 117.557 270.192 117.173 270.192 116.701C270.193 116.245 270.55 115.874 271 115.848L271.05 115.847Z" fill="#2E3746"/>
<path fill-rule="evenodd" clip-rule="evenodd" d="M271.05 121.725L285.806 121.754C286.279 121.755 286.662 122.138 286.661 122.611C286.66 123.066 286.303 123.438 285.853 123.463L285.803 123.465L271.047 123.436C270.574 123.435 270.191 123.051 270.192 122.579C270.193 122.123 270.55 121.752 271 121.726L271.05 121.725Z" fill="#2E3746"/>
<path fill-rule="evenodd" clip-rule="evenodd" d="M271.051 127.599L284.037 127.627C284.51 127.628 284.892 128.012 284.891 128.485C284.89 128.94 284.533 129.312 284.083 129.337L284.033 129.338L271.047 129.31C270.574 129.309 270.191 128.925 270.192 128.452C270.193 127.997 270.551 127.625 271 127.6L271.051 127.599Z" fill="#2E3746"/>
<path fill-rule="evenodd" clip-rule="evenodd" d="M324.252 21.4006C337.45 21.4297 347.342 29.6797 347.509 40.7412L347.511 41.0772V93.7762C347.511 94.2487 347.128 94.6317 346.655 94.6317C346.199 94.6317 345.826 94.2756 345.8 93.8265L345.799 93.7762L345.799 41.0749C345.826 30.8594 336.692 23.139 324.248 23.1116C323.775 23.1106 323.393 22.7267 323.394 22.2543C323.395 21.7818 323.779 21.3996 324.252 21.4006Z" fill="#2E3746"/>
<path fill-rule="evenodd" clip-rule="evenodd" d="M279.611 83.9944C282.813 83.9944 286.161 85.301 288.702 87.6228C291.543 90.2187 293.198 93.8726 293.254 98.2131C293.26 98.6856 292.882 99.0735 292.409 99.0797C291.936 99.0858 291.548 98.7078 291.542 98.2354C291.491 94.3695 290.04 91.1638 287.546 88.8854C285.36 86.8882 282.491 85.7474 279.763 85.7065L279.611 85.7054H252.611C252.138 85.7054 251.755 85.3224 251.755 84.8499C251.755 84.3943 252.111 84.0219 252.561 83.9958L252.611 83.9944H279.611Z" fill="#2E3746"/>
<path fill-rule="evenodd" clip-rule="evenodd" d="M502.177 77.9796L465.073 77.9226L461.135 102.105C467.585 106.782 473.351 112.314 475.976 118.331C478.288 123.578 482.769 138.435 487.935 156.657L506.687 83.3123C507.372 80.6032 505.174 77.9796 502.177 77.9796Z" fill="#2E3746"/>
<path fill-rule="evenodd" clip-rule="evenodd" d="M399.23 179.953C395.291 174.963 397.032 171.598 400.171 168.347C391.438 165.125 384.531 160.933 382.818 157.853C380.82 154.231 384.045 149.383 386.1 146.902C381.591 144.906 377.509 141.541 380.392 133.271C380.992 131.532 382.162 130.249 383.732 129.365L385.187 120.496C384.074 120.895 382.961 121.323 381.819 121.779C367.406 127.539 361.384 113.851 371.459 108.234C374.684 106.437 382.076 103.072 388.498 100.306L389.383 94.9163L346.799 94.8592V77.8632L316.345 77.6921C314.204 77.6921 312.321 79.0609 311.835 81.0001L282.638 181.237C281.953 183.946 284.15 186.541 287.147 186.569L406.736 186.797C403.796 185.486 401.827 183.261 399.23 179.953Z" fill="#2E3746"/>
<path fill-rule="evenodd" clip-rule="evenodd" d="M467.214 64.2625L527.955 64.3765C532.369 64.4078 536.01 70.3731 535.007 74.9866L534.975 75.1259L503.066 208.984C502.956 209.443 502.495 209.727 502.035 209.618C501.591 209.512 501.311 209.079 501.39 208.637L501.4 208.587L533.31 74.7288C534.174 71.1165 531.245 66.2097 528.044 66.0897L527.947 66.0875L467.211 65.9735C466.738 65.9726 466.356 65.5888 466.356 65.1163C466.357 64.6607 466.714 64.289 467.164 64.2638L467.214 64.2625Z" fill="#2E3746"/>
<path fill-rule="evenodd" clip-rule="evenodd" d="M306.755 63.9766L346.57 64.0621C347.043 64.0631 347.425 64.447 347.424 64.9195C347.423 65.3751 347.066 65.7467 346.617 65.7718L346.566 65.7731L306.753 65.6876C304.717 65.6876 302.406 68.6193 301.618 71.7114L301.591 71.8206L301.581 71.8586L263.621 201.867C263.488 202.32 263.013 202.581 262.559 202.448C262.121 202.321 261.863 201.875 261.964 201.436L261.977 201.388L299.932 71.3978L299.955 71.3021C300.899 67.5739 303.66 64.0492 306.662 63.9777L306.755 63.9766Z" fill="#2E3746"/>
<path fill-rule="evenodd" clip-rule="evenodd" d="M442.498 223.956C442.498 223.956 188.507 225.125 175.378 225.096C149.462 225.039 153.943 200.971 153.943 200.971L263.086 201.142L440.842 201.114L442.498 223.956Z" fill="#2E3746"/>
<path fill-rule="evenodd" clip-rule="evenodd" d="M519.101 64.4331C523.786 64.4331 526.996 67.7429 526.043 72.0601L526.012 72.1913L497.842 188.511C497.731 188.97 497.268 189.253 496.808 189.142C496.365 189.034 496.087 188.601 496.167 188.158L496.178 188.109L524.347 71.7911C525.118 68.5712 522.799 66.1441 519.101 66.1441C518.628 66.1441 518.245 65.7611 518.245 65.2886C518.245 64.8161 518.628 64.4331 519.101 64.4331Z" fill="#2E3746"/>
<path fill-rule="evenodd" clip-rule="evenodd" d="M353.137 34.7151L389.385 34.7721C389.857 34.7729 390.24 35.1565 390.239 35.629C390.239 36.0846 389.882 36.4564 389.432 36.4818L389.382 36.4831L353.134 36.4261C352.661 36.4253 352.279 36.0417 352.279 35.5692C352.28 35.1136 352.637 34.7418 353.087 34.7165L353.137 34.7151Z" fill="#2E3746"/>
<path fill-rule="evenodd" clip-rule="evenodd" d="M355.049 43.4424L391.297 43.4994C391.77 43.5002 392.152 43.8838 392.152 44.3563C392.151 44.8119 391.794 45.1837 391.344 45.209L391.294 45.2104L355.046 45.1534C354.573 45.1526 354.191 44.769 354.191 44.2965C354.192 43.8409 354.549 43.4691 354.999 43.4438L355.049 43.4424Z" fill="#2E3746"/>
<path fill-rule="evenodd" clip-rule="evenodd" d="M354.964 52.1421L391.183 52.2276C391.656 52.2288 392.038 52.6127 392.037 53.0852C392.036 53.5408 391.679 53.9124 391.229 53.9373L391.179 53.9386L354.96 53.8531C354.487 53.852 354.104 53.468 354.105 52.9956C354.107 52.54 354.464 52.1684 354.913 52.1434L354.964 52.1421Z" fill="#2E3746"/>
<path fill-rule="evenodd" clip-rule="evenodd" d="M354.934 59.8965L391.182 59.982C391.655 59.9832 392.037 60.3671 392.036 60.8396C392.035 61.2952 391.678 61.6667 391.228 61.6917L391.178 61.693L354.93 61.6075C354.458 61.6064 354.075 61.2224 354.076 60.75C354.077 60.2944 354.435 59.9228 354.884 59.8978L354.934 59.8965Z" fill="#2E3746"/>
<path fill-rule="evenodd" clip-rule="evenodd" d="M354.934 67.6511L391.154 67.7367C391.626 67.7378 392.009 68.1217 392.008 68.5942C392.007 69.0498 391.649 69.4214 391.2 69.4463L391.15 69.4477L354.93 69.3621C354.458 69.361 354.075 68.9771 354.076 68.5046C354.077 68.049 354.435 67.6774 354.884 67.6525L354.934 67.6511Z" fill="#2E3746"/>
<path fill-rule="evenodd" clip-rule="evenodd" d="M354.906 75.4102L391.154 75.4957C391.627 75.4968 392.009 75.8807 392.008 76.3532C392.007 76.8088 391.65 77.1804 391.2 77.2054L391.15 77.2067L354.902 77.1212C354.429 77.12 354.047 76.7361 354.048 76.2636C354.049 75.808 354.406 75.4364 354.856 75.4115L354.906 75.4102Z" fill="#2E3746"/>
<path fill-rule="evenodd" clip-rule="evenodd" d="M354.905 83.197L391.125 83.2541C391.597 83.2548 391.98 83.6384 391.979 84.1109C391.979 84.5665 391.622 84.9384 391.172 84.9637L391.122 84.9651L354.903 84.908C354.43 84.9073 354.047 84.5237 354.048 84.0512C354.049 83.5956 354.406 83.2237 354.855 83.1984L354.905 83.197Z" fill="#2E3746"/>
<path fill-rule="evenodd" clip-rule="evenodd" d="M375.597 21.4006C388.929 21.43 398.887 29.8472 398.857 41.0795C398.856 41.552 398.471 41.934 397.998 41.9327C397.525 41.9315 397.143 41.5474 397.144 41.0749C397.171 30.9616 388.22 23.2937 375.968 23.1148L375.595 23.1116H325.077C324.604 23.1116 324.221 22.7286 324.221 22.2561C324.221 21.8005 324.577 21.4281 325.027 21.4021L325.077 21.4006L375.597 21.4006Z" fill="#2E3746"/>
<path fill-rule="evenodd" clip-rule="evenodd" d="M387.555 99.7457C387.988 99.5567 388.493 99.7546 388.682 100.188C388.871 100.621 388.673 101.125 388.24 101.314L386.938 101.883C380.198 104.841 374.443 107.522 371.818 108.976C367.5 111.384 366.18 115.573 368.142 118.828C370.238 122.306 375.248 123.461 381.437 120.983L381.808 120.829C381.891 120.794 381.976 120.758 382.063 120.72L383.148 120.247L383.407 120.136C383.614 120.048 383.803 119.97 383.995 119.894C384.227 119.802 384.459 119.714 384.698 119.629C385.144 119.47 385.633 119.702 385.793 120.147C385.952 120.592 385.72 121.081 385.274 121.24C385.054 121.319 384.841 121.399 384.627 121.484C384.448 121.555 384.271 121.628 384.075 121.711L383.018 122.171C382.677 122.32 382.39 122.442 382.08 122.569C375.162 125.339 369.244 123.974 366.675 119.71C364.195 115.596 365.849 110.345 370.985 107.481L371.252 107.335C374.227 105.72 380.43 102.852 387.555 99.7457Z" fill="#2E3746"/>
<path fill-rule="evenodd" clip-rule="evenodd" d="M460.356 101.513C460.633 101.13 461.168 101.044 461.551 101.321C468.966 106.673 474.257 112.251 476.761 117.955C480.966 127.563 492.628 169.024 507.087 223.734C507.208 224.19 506.935 224.659 506.478 224.779C506.021 224.9 505.552 224.627 505.432 224.17L504.142 219.299C490.326 167.18 479.217 127.837 475.193 118.641C472.835 113.271 467.738 107.897 460.548 102.708C460.165 102.431 460.079 101.896 460.356 101.513Z" fill="#2E3746"/>
<path fill-rule="evenodd" clip-rule="evenodd" d="M419.618 187.409C419.909 187.037 420.447 186.971 420.82 187.261C426.42 191.63 433.41 195.697 441.927 199.414C442.205 199.535 442.396 199.792 442.434 200.09L442.439 200.146L443.895 224.072C443.924 224.543 443.564 224.949 443.092 224.977C442.637 225.005 442.243 224.672 442.19 224.225L442.186 224.175L440.762 200.771L440.436 200.627C432.288 197.01 425.527 193.061 420.035 188.819L419.766 188.61C419.393 188.319 419.327 187.782 419.618 187.409Z" fill="#2E3746"/>
<path fill-rule="evenodd" clip-rule="evenodd" d="M399.566 167.94C399.901 167.606 400.443 167.606 400.777 167.94C401.112 168.274 401.112 168.816 400.777 169.15C398.942 170.983 398.025 172.335 397.771 173.737C397.485 175.325 398.08 177.089 399.805 179.298L400.148 179.732C403.271 183.653 405.005 185.213 407.642 186.209C410.725 187.374 415.044 187.55 422.578 186.8L423.002 186.756C429.88 186.01 434.408 183.995 435.991 181.247C437.506 178.617 436.246 175.248 432.104 171.712C431.378 171.107 430.707 170.61 430.027 170.181C429.627 169.93 429.506 169.402 429.758 169.002C430.01 168.602 430.539 168.482 430.939 168.734C431.69 169.206 432.419 169.747 433.208 170.404C437.914 174.421 439.482 178.616 437.476 182.1C435.52 185.496 430.358 187.745 422.747 188.503L422.035 188.572C414.69 189.264 410.325 189.052 407.036 187.81C403.96 186.647 402.017 184.859 398.559 180.483C396.48 177.865 395.695 175.596 396.086 173.433C396.417 171.602 397.505 169.999 399.566 167.94Z" fill="#2E3746"/>
<path fill-rule="evenodd" clip-rule="evenodd" d="M385.67 146.494C385.974 146.132 386.513 146.083 386.876 146.386C387.239 146.689 387.288 147.229 386.985 147.591C385.539 149.32 384.51 150.788 383.806 152.325C382.89 154.325 382.757 156.046 383.538 157.465C384.82 159.782 389.649 163.018 396.181 165.864C403.27 168.952 411.433 171.218 418.87 172C425.74 172.733 429.778 170.534 430.567 166.782C431.279 163.397 429.081 159.581 425.384 158.166L425.028 158.033C423.694 157.536 422.051 156.963 420.281 156.382C419.832 156.234 419.588 155.751 419.735 155.302C419.883 154.853 420.367 154.609 420.816 154.757L421.301 154.917C423.067 155.503 424.691 156.076 425.993 156.567C430.464 158.278 433.131 162.909 432.243 167.134C431.251 171.853 426.353 174.519 418.69 173.701C403.501 172.105 385.293 164.172 382.038 158.291C380.954 156.321 381.128 154.059 382.249 151.613C383.031 149.905 384.135 148.331 385.67 146.494Z" fill="#2E3746"/>
<path fill-rule="evenodd" clip-rule="evenodd" d="M383.373 128.586C383.787 128.357 384.308 128.507 384.537 128.92C384.766 129.334 384.616 129.854 384.203 130.083C382.738 130.894 381.739 132.035 381.2 133.552C379.662 137.954 380.098 141.012 382.115 143.24C383.573 144.851 385.422 145.827 389.008 147.15L394.07 148.985L395.817 149.614C396.945 150.018 398.005 150.396 399.037 150.761L400.368 151.23L401.068 151.475C405.81 153.129 409.501 154.331 411.967 154.995L412.093 155.029C415.952 156.055 418.906 155.468 420.8 153.597C422.515 151.901 423.293 149.178 422.952 146.17C422.899 145.701 423.237 145.277 423.707 145.224C424.177 145.171 424.601 145.508 424.654 145.978C425.05 149.473 424.123 152.719 422.004 154.813C419.675 157.115 416.151 157.838 411.814 156.724L411.653 156.682C409.177 156.023 405.496 154.829 400.754 153.177L399.084 152.592L398.466 152.374C397.225 151.935 395.943 151.478 394.553 150.977L388.977 148.96C384.763 147.437 382.628 146.358 380.845 144.388C378.379 141.665 377.849 137.949 379.585 132.984C380.268 131.06 381.55 129.595 383.373 128.586Z" fill="#2E3746"/>
<path fill-rule="evenodd" clip-rule="evenodd" d="M398.813 31.2378C399.565 26.6949 403.798 23.6178 408.333 24.2671L408.471 24.2879L464.672 33.3852C469.219 34.1371 472.299 38.3659 471.649 42.8985L471.628 43.0359L459.983 114.442C459.907 114.908 459.467 115.225 459 115.149C458.55 115.075 458.239 114.664 458.286 114.217L458.293 114.167L469.937 42.7634C470.515 39.1468 468.104 35.7476 464.505 35.0927L464.395 35.0737L408.199 25.9772C404.579 25.3995 401.177 27.809 400.521 31.4056L400.502 31.515L384.149 131.92C383.57 135.537 385.982 138.936 389.582 139.591L389.691 139.61L442.122 148.136C442.589 148.212 442.905 148.652 442.829 149.118C442.756 149.568 442.345 149.878 441.897 149.832L441.847 149.825L389.414 141.298C384.867 140.546 381.787 136.318 382.437 131.785L382.458 131.648L398.813 31.2378Z" fill="#2E3746"/>
<path fill-rule="evenodd" clip-rule="evenodd" d="M423.989 39.6893L421.56 54.3362C421.39 55.2423 422.013 56.1144 422.932 56.2865L428.6 57.2305C429.508 57.4008 430.381 56.7779 430.553 55.8599L432.982 41.213C433.153 40.3069 432.529 39.4348 431.61 39.2627L425.959 38.3217C425.035 38.1484 424.162 38.7713 423.989 39.6893ZM425.671 40.0077L431.29 40.9434L428.869 55.5403L423.251 54.6044L425.671 40.0077Z" fill="#00DBB1"/>
<path fill-rule="evenodd" clip-rule="evenodd" d="M420.507 60.5599L418.077 75.2068L418.073 75.2405C417.959 76.144 418.545 76.9877 419.449 77.1571L425.118 78.1011C426.025 78.2714 426.898 77.6485 427.07 76.7305L429.5 62.0836C429.67 61.1775 429.046 60.3054 428.128 60.1333L422.476 59.1923C421.552 59.019 420.679 59.6419 420.507 60.5599ZM422.188 60.8784L427.808 61.814L425.387 76.4109L419.768 75.475L422.188 60.8784Z" fill="#00DBB1"/>
<path fill-rule="evenodd" clip-rule="evenodd" d="M411.402 37.5777L408.973 52.2246L408.968 52.2584C408.856 53.153 409.461 53.9982 410.335 54.1729L416.013 55.119C416.921 55.2892 417.794 54.6663 417.966 53.7484L420.395 39.1014C420.566 38.1953 419.942 37.3233 419.023 37.1512L413.372 36.2101C412.448 36.0369 411.575 36.6598 411.402 37.5777ZM413.085 37.8962L418.704 38.8318L416.283 53.4287L410.664 52.4928L410.665 52.4891C410.671 52.4863 410.669 52.48 410.668 52.4725L413.085 37.8962Z" fill="#00DBB1"/>
<path fill-rule="evenodd" clip-rule="evenodd" d="M407.92 58.5684L405.491 73.2154L405.486 73.2491C405.374 74.1437 405.978 74.9889 406.853 75.1637L412.531 76.1097C413.439 76.2799 414.312 75.657 414.484 74.7391L416.913 60.0921C417.083 59.1861 416.46 58.314 415.541 58.1419L409.89 57.2008C408.965 57.0276 408.092 57.6505 407.92 58.5684ZM409.602 58.8869L415.222 59.8225L412.801 74.4194L407.182 73.4835L407.182 73.4798C407.188 73.477 407.186 73.4707 407.185 73.4633L409.602 58.8869Z" fill="#00DBB1"/>
<path fill-rule="evenodd" clip-rule="evenodd" d="M417.026 81.6658L414.597 96.3128C414.421 97.1894 415.053 98.0914 415.969 98.263L421.637 99.2071C422.545 99.3773 423.418 98.7544 423.59 97.8365L426.019 83.1896C426.189 82.2835 425.566 81.4114 424.647 81.2393L418.996 80.2982C418.071 80.125 417.198 80.7479 417.026 81.6658ZM418.709 81.9843L424.328 82.9199L421.907 97.5168L416.288 96.5809L418.709 81.9843Z" fill="#00DBB1"/>
<path fill-rule="evenodd" clip-rule="evenodd" d="M413.571 102.426L411.142 117.073C410.972 117.979 411.595 118.851 412.514 119.023L418.182 119.967C419.09 120.137 419.963 119.514 420.135 118.596L422.564 103.95C422.735 103.043 422.111 102.171 421.192 101.999L415.541 101.058C414.617 100.885 413.744 101.508 413.571 102.426ZM415.253 102.744L420.872 103.68L418.452 118.277L412.833 117.341L415.253 102.744Z" fill="#00DBB1"/>
<path fill-rule="evenodd" clip-rule="evenodd" d="M433.283 122.011C433.66 121.756 434.167 121.84 434.442 122.196L434.473 122.238C434.798 122.716 435.511 123.102 436.385 123.243C436.852 123.319 437.169 123.758 437.093 124.225C437.017 124.691 436.577 125.008 436.111 124.932C434.807 124.721 433.675 124.108 433.056 123.2C432.791 122.809 432.892 122.277 433.283 122.011Z" fill="#00DBB1"/>
<path fill-rule="evenodd" clip-rule="evenodd" d="M431.551 124.767C431.946 124.506 432.477 124.615 432.738 125.009C433.525 126.2 435.749 126.994 437.738 126.742C438.207 126.683 438.636 127.015 438.695 127.483C438.755 127.952 438.422 128.38 437.953 128.44C435.365 128.767 432.492 127.741 431.309 125.952C431.048 125.558 431.157 125.027 431.551 124.767Z" fill="#00DBB1"/>
<path fill-rule="evenodd" clip-rule="evenodd" d="M428.894 126.738C429.287 126.475 429.819 126.58 430.082 126.973C431.601 129.237 435.881 130.569 439.378 129.807C439.84 129.706 440.296 129.999 440.397 130.461C440.498 130.922 440.205 131.378 439.743 131.479C435.605 132.38 430.604 130.823 428.66 127.925C428.396 127.533 428.501 127.002 428.894 126.738Z" fill="#00DBB1"/>
<path fill-rule="evenodd" clip-rule="evenodd" d="M425.098 128.31C425.491 128.047 426.023 128.153 426.286 128.545C428.704 132.157 435.257 134.295 440.863 133.284C441.328 133.2 441.774 133.509 441.858 133.974C441.942 134.439 441.633 134.884 441.167 134.968C434.939 136.091 427.696 133.728 424.862 129.497C424.599 129.104 424.705 128.573 425.098 128.31Z" fill="#00DBB1"/>
<path fill-rule="evenodd" clip-rule="evenodd" d="M439.242 58.0418L441.668 43.4982C441.811 42.6427 442.61 42.0724 443.466 42.215L456.167 44.3252C457.023 44.4678 457.594 45.2662 457.452 46.1218L455.026 60.6653C454.883 61.5208 454.084 62.0912 453.227 61.9486L440.526 59.8383C439.699 59.6957 439.128 58.8973 439.242 58.0418Z" fill="#00DBB1"/>
<path fill-rule="evenodd" clip-rule="evenodd" d="M456.855 50.7413L457.141 49.0588L441.186 46.4067L440.9 48.0892L444.468 48.6881L443.555 54.1918L440.044 53.6215L439.759 55.304L455.485 57.899L455.771 56.2165L452.203 55.6177L453.116 50.1139L456.855 50.7413ZM451.403 49.8863L450.518 55.1334L445.267 54.2494L446.151 49.0023L451.403 49.8863Z" fill="#2E3746"/>
<path fill-rule="evenodd" clip-rule="evenodd" d="M458.297 115.329L456.383 113.135L455.966 112.653C455.52 112.136 455.127 111.673 454.75 111.219L454.414 110.811C450.594 106.139 448.12 101.83 446.732 96.5867L446.663 96.3237C445.153 90.3995 439.638 88.1138 435.177 90.9194C432.895 92.3547 431.256 94.9581 430.653 98.4631C429.947 102.567 430.674 107.698 433.02 113.651L433.486 114.826C435.36 119.535 436.926 123.159 438.418 126.336L438.706 126.942C439.294 128.165 441.187 132.015 441.616 132.999C442.153 134.23 442.571 135.394 442.976 136.813C443.141 137.395 443.306 138.023 443.473 138.715C444.132 141.438 444.233 143.757 443.74 145.886L443.701 146.049C442.41 151.321 441.902 157.935 442.644 165.186C443.626 174.784 446.705 184.683 452.292 194.589C452.524 195 452.378 195.522 451.966 195.754C451.554 195.986 451.032 195.84 450.8 195.429C445.096 185.314 441.946 175.189 440.94 165.36C440.19 158.025 440.685 151.309 441.977 145.894L442.038 145.641C442.503 143.758 442.425 141.662 441.809 139.117L441.701 138.679C441.576 138.179 441.453 137.716 441.329 137.282C440.969 136.02 440.601 134.982 440.14 133.9L440.046 133.682C439.605 132.671 437.483 128.363 437.052 127.454L436.776 126.866C435.173 123.442 433.484 119.5 431.427 114.278C428.973 108.052 428.202 102.611 428.965 98.1733C429.648 94.2059 431.555 91.1752 434.265 89.4713C439.72 86.041 446.529 88.8632 448.323 95.9003C449.627 100.988 452 105.155 455.74 109.728L456.07 110.128C456.513 110.663 456.981 111.211 457.536 111.851L459.7 114.333L460.075 114.77C461.462 116.398 462.367 117.589 463.071 118.774L465.991 123.725L470.66 131.687L478.373 144.873C478.611 145.281 478.473 145.805 478.065 146.043C477.656 146.281 477.132 146.143 476.894 145.735L466.492 127.961C464.234 124.11 462.548 121.245 461.599 119.648C460.933 118.528 460.044 117.365 458.64 115.725L458.297 115.329Z" fill="#2E3746"/>
<circle cx="57" cy="132" r="1" transform="rotate(90 57 132)" fill="#00DBB1" fill-opacity="0.4"/>
<circle cx="57" cy="140" r="1" transform="rotate(90 57 140)" fill="#00DBB1" fill-opacity="0.4"/>
<circle cx="57" cy="148" r="1" transform="rotate(90 57 148)" fill="#00DBB1" fill-opacity="0.4"/>
<circle cx="57" cy="156" r="1" transform="rotate(90 57 156)" fill="#00DBB1" fill-opacity="0.4"/>
<circle cx="57" cy="164" r="1" transform="rotate(90 57 164)" fill="#00DBB1" fill-opacity="0.4"/>
<circle cx="57" cy="172" r="1" transform="rotate(90 57 172)" fill="#00DBB1" fill-opacity="0.4"/>
<circle cx="57" cy="180" r="1" transform="rotate(90 57 180)" fill="#00DBB1" fill-opacity="0.4"/>
<circle cx="57" cy="188" r="1" transform="rotate(90 57 188)" fill="#00DBB1" fill-opacity="0.4"/>
<circle cx="57" cy="196" r="1" transform="rotate(90 57 196)" fill="#00DBB1" fill-opacity="0.4"/>
<circle cx="57" cy="204" r="1" transform="rotate(90 57 204)" fill="#00DBB1" fill-opacity="0.4"/>
<circle cx="49" cy="132" r="1" transform="rotate(90 49 132)" fill="#00DBB1" fill-opacity="0.4"/>
<circle cx="49" cy="140" r="1" transform="rotate(90 49 140)" fill="#00DBB1" fill-opacity="0.4"/>
<circle cx="49" cy="148" r="1" transform="rotate(90 49 148)" fill="#00DBB1" fill-opacity="0.4"/>
<circle cx="49" cy="156" r="1" transform="rotate(90 49 156)" fill="#00DBB1" fill-opacity="0.4"/>
<circle cx="49" cy="164" r="1" transform="rotate(90 49 164)" fill="#00DBB1" fill-opacity="0.4"/>
<circle cx="49" cy="172" r="1" transform="rotate(90 49 172)" fill="#00DBB1" fill-opacity="0.4"/>
<circle cx="49" cy="180" r="1" transform="rotate(90 49 180)" fill="#00DBB1" fill-opacity="0.4"/>
<circle cx="49" cy="188" r="1" transform="rotate(90 49 188)" fill="#00DBB1" fill-opacity="0.4"/>
<circle cx="49" cy="196" r="1" transform="rotate(90 49 196)" fill="#00DBB1" fill-opacity="0.4"/>
<circle cx="49" cy="204" r="1" transform="rotate(90 49 204)" fill="#00DBB1" fill-opacity="0.4"/>
<circle cx="41" cy="132" r="1" transform="rotate(90 41 132)" fill="#00DBB1" fill-opacity="0.4"/>
<circle cx="41" cy="140" r="1" transform="rotate(90 41 140)" fill="#00DBB1" fill-opacity="0.4"/>
<circle cx="41" cy="148" r="1" transform="rotate(90 41 148)" fill="#00DBB1" fill-opacity="0.4"/>
<circle cx="41" cy="156" r="1" transform="rotate(90 41 156)" fill="#00DBB1" fill-opacity="0.4"/>
<circle cx="41" cy="164" r="1" transform="rotate(90 41 164)" fill="#00DBB1" fill-opacity="0.4"/>
<circle cx="41" cy="172" r="1" transform="rotate(90 41 172)" fill="#00DBB1" fill-opacity="0.4"/>
<circle cx="41" cy="180" r="1" transform="rotate(90 41 180)" fill="#00DBB1" fill-opacity="0.4"/>
<circle cx="41" cy="188" r="1" transform="rotate(90 41 188)" fill="#00DBB1" fill-opacity="0.4"/>
<circle cx="41" cy="196" r="1" transform="rotate(90 41 196)" fill="#00DBB1" fill-opacity="0.4"/>
<circle cx="41" cy="204" r="1" transform="rotate(90 41 204)" fill="#00DBB1" fill-opacity="0.4"/>
<circle cx="33" cy="132" r="1" transform="rotate(90 33 132)" fill="#00DBB1" fill-opacity="0.4"/>
<circle cx="33" cy="140" r="1" transform="rotate(90 33 140)" fill="#00DBB1" fill-opacity="0.4"/>
<circle cx="33" cy="148" r="1" transform="rotate(90 33 148)" fill="#00DBB1" fill-opacity="0.4"/>
<circle cx="33" cy="156" r="1" transform="rotate(90 33 156)" fill="#00DBB1" fill-opacity="0.4"/>
<circle cx="33" cy="164" r="1" transform="rotate(90 33 164)" fill="#00DBB1" fill-opacity="0.4"/>
<circle cx="33" cy="172" r="1" transform="rotate(90 33 172)" fill="#00DBB1" fill-opacity="0.4"/>
<circle cx="33" cy="180" r="1" transform="rotate(90 33 180)" fill="#00DBB1" fill-opacity="0.4"/>
<circle cx="33" cy="188" r="1" transform="rotate(90 33 188)" fill="#00DBB1" fill-opacity="0.4"/>
<circle cx="33" cy="196" r="1" transform="rotate(90 33 196)" fill="#00DBB1" fill-opacity="0.4"/>
<circle cx="33" cy="204" r="1" transform="rotate(90 33 204)" fill="#00DBB1" fill-opacity="0.4"/>
<circle cx="25" cy="132" r="1" transform="rotate(90 25 132)" fill="#00DBB1" fill-opacity="0.4"/>
<circle cx="25" cy="140" r="1" transform="rotate(90 25 140)" fill="#00DBB1" fill-opacity="0.4"/>
<circle cx="25" cy="148" r="1" transform="rotate(90 25 148)" fill="#00DBB1" fill-opacity="0.4"/>
<circle cx="25" cy="156" r="1" transform="rotate(90 25 156)" fill="#00DBB1" fill-opacity="0.4"/>
<circle cx="25" cy="164" r="1" transform="rotate(90 25 164)" fill="#00DBB1" fill-opacity="0.4"/>
<circle cx="25" cy="172" r="1" transform="rotate(90 25 172)" fill="#00DBB1" fill-opacity="0.4"/>
<circle cx="25" cy="180" r="1" transform="rotate(90 25 180)" fill="#00DBB1" fill-opacity="0.4"/>
<circle cx="25" cy="188" r="1" transform="rotate(90 25 188)" fill="#00DBB1" fill-opacity="0.4"/>
<circle cx="25" cy="196" r="1" transform="rotate(90 25 196)" fill="#00DBB1" fill-opacity="0.4"/>
<circle cx="25" cy="204" r="1" transform="rotate(90 25 204)" fill="#00DBB1" fill-opacity="0.4"/>
<circle cx="17" cy="132" r="1" transform="rotate(90 17 132)" fill="#00DBB1" fill-opacity="0.4"/>
<circle cx="17" cy="140" r="1" transform="rotate(90 17 140)" fill="#00DBB1" fill-opacity="0.4"/>
<circle cx="17" cy="148" r="1" transform="rotate(90 17 148)" fill="#00DBB1" fill-opacity="0.4"/>
<circle cx="17" cy="156" r="1" transform="rotate(90 17 156)" fill="#00DBB1" fill-opacity="0.4"/>
<circle cx="17" cy="164" r="1" transform="rotate(90 17 164)" fill="#00DBB1" fill-opacity="0.4"/>
<circle cx="17" cy="172" r="1" transform="rotate(90 17 172)" fill="#00DBB1" fill-opacity="0.4"/>
<circle cx="17" cy="180" r="1" transform="rotate(90 17 180)" fill="#00DBB1" fill-opacity="0.4"/>
<circle cx="17" cy="188" r="1" transform="rotate(90 17 188)" fill="#00DBB1" fill-opacity="0.4"/>
<circle cx="17" cy="196" r="1" transform="rotate(90 17 196)" fill="#00DBB1" fill-opacity="0.4"/>
<circle cx="17" cy="204" r="1" transform="rotate(90 17 204)" fill="#00DBB1" fill-opacity="0.4"/>
<path d="M88.2366 30.9239C87.9827 29.209 86.3005 28.0869 84.6132 28.5322L78.7949 30.0757C78.1605 28.2269 77.2294 26.4395 75.271 25.3052C75.0439 25.1729 74.7642 25.1604 74.5262 25.2749L46.3807 38.6755C42.9284 39.5903 55.1788 36.3439 29.5632 43.1322C29.0836 43.2576 28.8357 43.7804 29.0324 44.2281C30.2749 47.0582 30.718 48.4684 30.8436 48.819L23.4574 53.1937C22.9818 53.4755 22.9265 54.1499 23.36 54.502C26.2118 56.826 28.641 59.2257 30.651 61.6479L26.1376 62.4781C25.722 62.5541 25.4376 62.9406 25.4882 63.3604C26.88 74.9202 30.1873 78.943 36.2241 86.5031C36.3792 86.6979 36.7222 86.8722 37.0689 86.776L66.883 78.3356L66.8434 78.3968C66.4728 78.9652 66.94 79.7114 67.6132 79.626L70.3934 79.2791L71.2611 81.8458C71.4739 82.4774 72.3257 82.5869 72.6897 82.0249L76.8559 75.596C77.9181 75.7156 78.9201 75.7085 80.3686 75.2419L85.0908 80.2906C85.5249 80.7527 86.3042 80.5514 86.4533 79.9301L87.1835 76.8854L90.1074 76.2062C90.7069 76.0672 90.9308 75.3289 90.5111 74.8812L88.1215 72.3223L91.8147 71.2749C92.1287 71.185 92.3618 70.8728 92.3918 70.5916C92.4288 70.2483 92.4915 69.4423 92.4825 69.5515C92.4485 67.9746 95.0231 49.2611 88.2366 30.9239ZM85.022 30.0791C85.8196 29.8681 86.5735 30.4268 86.6595 31.2062C86.7979 32.432 92.9311 44.7264 90.9184 68.9441L86.2871 70.2766C86.2885 70.2742 86.2893 70.2716 86.2907 70.269C88.3792 66.4364 87.8689 61.6552 84.5111 59.0979C82.7251 57.7374 80.4449 57.2551 78.096 57.7458C73.3465 58.7343 69.735 63.476 70.0449 68.3145C70.1265 69.5865 70.5396 70.8952 71.0841 71.8544L68.8711 75.2684L38.4777 83.9864C38.8813 71.4579 36.8827 56.0237 31.9076 44.1699C56.4272 37.665 63.1662 35.8773 85.022 30.0791ZM35.4107 69.2554C35.8582 73.4266 36.1519 77.5062 36.1374 82.3729C32.0299 77.1915 29.2629 73.1676 27.962 63.769L31.7886 63.0656C33.257 65.0147 34.4881 66.9875 35.4107 69.2554ZM54.7887 36.4437L74.8158 26.9083C76.1229 27.8109 76.7857 29.1611 77.2467 30.4864C74.9067 31.1071 85.6381 28.2605 54.7887 36.4437ZM25.2507 53.9916L31.3731 50.3656C32.3594 53.048 33.8745 58.7867 34.7964 64.6225C32.2876 60.5992 28.8874 57.0614 25.2507 53.9916ZM72.2475 79.7676L71.7001 78.1479C71.5787 77.7887 71.2212 77.5631 70.8434 77.6104L69.1215 77.8249C69.5542 77.1574 72.1598 73.1373 72.0882 73.2479C72.8252 74.055 73.9658 74.843 75.1741 75.2572L72.2475 79.7676ZM71.6418 68.2124C71.2202 61.641 78.8241 56.7807 83.5413 60.3708C87.3298 63.2572 86.3446 69.4204 82.5142 72.3093C78.0581 75.908 71.9962 73.728 71.6418 68.2124ZM86.3402 75.4385C86.0449 75.5072 85.8137 75.7364 85.7428 76.0312L85.2439 78.1114L81.947 74.5864C82.8713 74.1029 84.1037 73.2063 84.9553 72.1885C85.0961 72.03 85.23 71.8686 85.3575 71.7061L86.0543 72.4531C86.0601 72.4593 86.0678 72.4628 86.0738 72.469L88.3965 74.9614L86.3402 75.4385Z" fill="#2E3746"/>
<path d="M45 55.042C45.3353 56.1424 46.7672 55.7283 46.442 54.6623L44.8176 49.2999L50.9846 54.0271C51.504 54.4425 52.4136 54.0295 52.1487 53.1602L49.9471 45.8913C49.6245 44.8177 48.1731 45.2087 48.4933 46.2743L50.1134 51.6227L43.9668 46.918C43.4495 46.5066 42.5366 46.9111 42.7995 47.7732L45 55.042Z" fill="#2E3746"/>
<path d="M53.9677 52.6536C54.1187 53.1513 54.492 53.3323 54.9408 53.2138L59.2785 52.0721C59.5103 52.011 59.6744 51.9101 59.7699 51.7686C60.0151 51.4077 59.746 50.5848 58.8955 50.8083L55.3281 51.7482L54.5557 49.1979L57.8827 48.3213C58.7723 48.0875 58.4734 47.2627 58.094 47.0897C57.9332 47.0156 57.7368 47.0092 57.504 47.0703L54.1769 47.9469L53.4495 45.5458L57.0169 44.606C57.2497 44.5448 57.4128 44.4406 57.5072 44.2969C57.7373 43.9348 57.5127 43.1114 56.6349 43.3432L52.2972 44.4846C51.8471 44.6035 51.6325 44.9407 51.7811 45.4353L53.9677 52.6536Z" fill="#2E3746"/>
<path d="M69.3763 40.443L69.1542 47.1197L65.2703 41.577C64.8269 40.9273 63.8852 41.148 63.8616 41.9343L63.5805 48.5059L59.7052 42.989C59.154 42.2094 57.792 42.8808 58.4649 43.8634L63.279 50.5507C63.7186 51.1727 64.8221 50.9019 64.8766 50.1301L65.1405 43.7637L68.901 49.0712C69.3295 49.6773 70.4508 49.4364 70.5114 48.6474C70.835 40.6651 70.9142 40.5628 70.8268 40.2616C70.5886 39.486 69.4065 39.5976 69.3763 40.443Z" fill="#2E3746"/>
<path d="M73.8238 41.4645C73.546 40.5484 74.2675 39.9574 75.2003 39.7114C76.6369 39.3331 77.291 39.9123 77.8235 39.9569C78.0734 39.9786 78.2585 39.8854 78.3536 39.6512C78.4669 39.3629 78.3557 39.013 78.2012 38.8486C78.1304 38.7726 78.0306 38.7038 77.8976 38.6416C75.3626 37.4189 71.5079 39.2005 72.34 41.9621C73.2984 45.1194 77.9034 42.69 78.434 44.4364C78.7193 45.3794 77.9504 45.8981 76.9942 46.1508C76.1036 46.385 75.3058 46.3718 74.4429 46.0349C74.224 45.9684 74.0416 45.9522 73.8978 45.9899C73.4066 46.1203 73.4315 47.0413 74.0437 47.2882C74.4761 47.4877 74.9922 47.6003 75.5919 47.6239C78.0847 47.7223 80.6371 46.2636 79.9329 43.947C79.0155 40.9197 74.3923 43.3351 73.8238 41.4645Z" fill="#2E3746"/>
<path d="M82.1079 69.2603L81.6047 67.1842L83.0641 65.3123C83.4843 64.7756 83.0784 63.9866 82.3865 64.0217L80.3339 64.1415L79.3115 62.4707C78.9663 61.907 78.1185 61.9817 77.8818 62.603L77.0428 64.804L74.9063 65.5686C74.3052 65.7821 74.1853 66.5858 74.7006 66.9655L76.2662 68.1207L76.049 70.2978C75.9796 70.9918 76.7757 71.4379 77.3323 71.0113L79.1657 69.6019L81.0886 70.2113C81.6818 70.3985 82.2537 69.8661 82.1079 69.2603Z" fill="#2E3746"/>
<path d="M60.2097 61.2707C60.644 61.1873 60.9289 60.7696 60.8466 60.3353C60.7638 59.8998 60.3404 59.6155 59.9117 59.6978L41.7966 63.1342C41.3623 63.2176 41.0774 63.6353 41.1597 64.0696C41.2423 64.5054 41.6617 64.7883 42.0946 64.7071L60.2097 61.2707Z" fill="#2E3746"/>
<path d="M61.0436 67.4042C61.478 67.3209 61.7629 66.9031 61.6806 66.4688C61.5978 66.0334 61.1744 65.75 60.7457 65.8313L42.6306 69.2677C42.1963 69.3511 41.9114 69.7688 41.9936 70.2031C42.0763 70.6389 42.4957 70.9218 42.9285 70.8406L61.0436 67.4042Z" fill="#2E3746"/>
<path d="M61.5807 71.9644L43.4656 75.4009C43.0312 75.4842 42.7463 75.9019 42.8286 76.3363C42.9113 76.7721 43.3306 77.0549 43.7635 76.9738L61.8786 73.5373C62.313 73.454 62.5979 73.0363 62.5156 72.6019C62.4328 72.1665 62.0083 71.8811 61.5807 71.9644Z" fill="#2E3746"/>
<path d="M25.9968 33.1427C25.6713 33.4406 25.6489 33.9469 25.9473 34.2729L30.127 38.8365C30.2848 39.0084 30.501 39.0959 30.7171 39.0959C31.4054 39.0959 31.7795 38.2711 31.3072 37.7552L27.1275 33.1917C26.8291 32.8667 26.3228 32.8448 25.9968 33.1427Z" fill="#2E3746"/>
<path d="M36.3351 37.0281C36.7367 36.8437 36.9127 36.3687 36.7283 35.9666L32.5127 26.7937C32.3278 26.3927 31.8507 26.2145 31.4518 26.401C31.0502 26.5854 30.8742 27.0604 31.0585 27.4624L35.2742 36.6354C35.463 37.0452 35.9458 37.2086 36.3351 37.0281Z" fill="#2E3746"/>
<path d="M39.8369 28.7938L39.3067 32.5761C39.2399 33.0524 39.6063 33.4876 40.0999 33.4876C40.4926 33.4876 40.8353 33.198 40.8911 32.799L41.4213 29.0167C41.4827 28.5792 41.178 28.174 40.7405 28.1126C40.303 28.0584 39.8989 28.3563 39.8369 28.7938Z" fill="#2E3746"/>
</g>
<defs>
<clipPath id="clip0_30_28">
<rect width="608" height="220" rx="6" fill="white"/>
</clipPath>
</defs>
</svg>
