<svg width="247" height="247" viewBox="0 0 247 247" fill="none" xmlns="http://www.w3.org/2000/svg">
<path d="M237.39 92.2228C236.528 81.5045 236.432 72.0123 232.075 61.8596C228.577 53.7076 224.689 45.4593 219.354 38.3215C203.066 16.5287 177.567 6.81468 151.017 5.8252C107.486 4.20291 65.1067 32.0186 50.554 73.2942C48.204 79.9603 44.337 85.5776 39.9626 90.8708C39.5076 90.5951 39.2473 89.8546 39.2468 88.5751C39.2458 77.1815 26.3707 89.9218 24.3532 93.0256C-1.75223 133.178 3.86554 199.2 47.3726 224.871C65.2391 235.414 85.0391 240.477 105.587 242.123C124.276 243.62 144.521 240.799 158.62 227.364C170.829 215.731 174.995 198.456 185.201 185.671C184.383 187.295 182.322 191.94 182.353 197.427C182.392 204.267 199.648 201.522 217.296 171.324C233.852 142.994 239.363 116.735 237.39 92.2228Z" fill="#00DBB1"/>
<path opacity="0.7" d="M237.39 92.2228C236.528 81.5045 236.432 72.0123 232.075 61.8596C228.577 53.7076 224.689 45.4593 219.354 38.3215C203.066 16.5287 177.567 6.81468 151.017 5.8252C107.486 4.20291 65.1067 32.0186 50.554 73.2942C48.204 79.9603 44.337 85.5776 39.9626 90.8708C39.5076 90.5951 39.2473 89.8546 39.2468 88.5751C39.2458 77.1815 26.3707 89.9218 24.3532 93.0256C-1.75223 133.178 3.86554 199.2 47.3726 224.871C65.2391 235.414 85.0391 240.477 105.587 242.123C124.276 243.62 144.521 240.799 158.62 227.364C170.829 215.731 174.995 198.456 185.201 185.671C184.383 187.295 182.322 191.94 182.353 197.427C182.392 204.267 199.648 201.522 217.296 171.324C233.852 142.994 239.363 116.735 237.39 92.2228Z" fill="white"/>
<path d="M221.524 187.724C221.559 187.74 221.907 185.166 221.911 185.001C221.949 183.091 220.9 179.379 218.878 178.683C217.422 178.182 215.976 179.165 215.638 180.604C215.293 182.074 216.149 183.725 217.06 184.823C218.13 186.111 221.521 187.722 221.524 187.724Z" fill="#263238"/>
<path d="M183.722 191.388C185.325 191.873 189.043 191.346 189.046 191.345C189.085 191.34 187.955 189 187.867 188.861C186.846 187.247 183.923 184.73 181.853 185.265C180.361 185.65 179.698 187.267 180.21 188.654C180.733 190.07 182.357 190.975 183.722 191.388Z" fill="#263238"/>
<path d="M202.98 220.226C203.338 220.889 203.697 221.553 204.013 222.212C204.219 222.667 204.449 223.091 204.63 223.559C204.82 224.019 205.007 224.474 205.193 224.925C205.518 225.807 205.859 226.715 206.155 227.582C206.366 228.184 206.556 228.762 206.748 229.344C206.362 228.709 205.58 227.483 205.504 227.388C204.304 225.902 201.112 223.737 199.116 224.506C197.678 225.061 197.206 226.743 197.874 228.062C198.556 229.409 200.274 230.122 201.678 230.375C203.223 230.654 206.476 229.844 206.882 229.74C207.197 230.704 207.494 231.643 207.76 232.534C208.238 234.117 208.641 235.567 208.981 236.855H210.4C210.008 235.474 209.535 233.895 208.97 232.156C208.654 231.177 208.297 230.137 207.92 229.072C208.156 228.944 209.497 228.207 210.662 227.362C211.888 228.409 214.837 229.456 215.219 229.589C214.951 230.566 214.68 231.514 214.411 232.404C213.914 234.06 213.429 235.553 212.985 236.855H214.42C214.802 235.631 215.21 234.264 215.628 232.756C215.904 231.765 216.18 230.7 216.453 229.604C216.862 229.64 220.21 229.915 221.692 229.39C223.036 228.914 224.617 227.933 225.073 226.494C225.519 225.085 224.781 223.5 223.273 223.185C221.179 222.749 218.378 225.4 217.434 227.06C217.378 227.158 216.892 228.287 216.598 229.006C216.707 228.557 216.817 228.123 216.924 227.661C217.141 226.747 217.331 225.828 217.539 224.841C217.623 224.361 217.707 223.875 217.793 223.385C217.887 222.901 217.926 222.378 217.996 221.869C218.133 220.688 218.214 219.483 218.269 218.268C219.07 218.456 221.923 219.083 223.331 218.814C224.732 218.547 226.443 217.818 227.111 216.464C227.766 215.139 227.277 213.46 225.834 212.921C223.831 212.172 220.66 214.368 219.475 215.866C219.401 215.959 218.672 217.129 218.283 217.78C218.311 217.049 218.341 216.32 218.345 215.58C218.357 213.443 218.301 211.28 218.255 209.122C218.241 208.46 218.235 207.802 218.226 207.142C218.51 207.212 221.885 208.031 223.462 207.731C224.863 207.464 226.573 206.734 227.242 205.38C227.897 204.055 227.408 202.377 225.965 201.837C223.962 201.088 220.791 203.285 219.606 204.782C219.517 204.895 218.469 206.581 218.224 207.022C218.206 205.57 218.2 204.122 218.252 202.695C218.323 200.725 218.499 198.796 218.81 196.941C218.942 196.974 222.461 197.844 224.076 197.536C225.477 197.269 227.187 196.54 227.856 195.185C228.511 193.861 228.022 192.182 226.578 191.642C224.575 190.894 221.405 193.09 220.22 194.588C220.142 194.686 219.343 195.969 218.977 196.588C218.914 196.564 218.925 196.569 218.863 196.545C219.219 194.561 219.814 192.684 220.457 190.955C220.827 189.953 221.238 189.015 221.658 188.112C222.296 188.341 225.227 189.357 226.711 189.241C228.133 189.129 229.913 188.592 230.727 187.319C231.523 186.074 231.221 184.352 229.846 183.657C227.937 182.693 224.545 184.528 223.203 185.886C223.13 185.961 222.471 186.793 221.999 187.407C222.195 187.002 222.39 186.581 222.585 186.197C223.314 184.753 224.071 183.476 224.75 182.351C225.142 181.714 225.508 181.146 225.857 180.618C226.601 180.516 229.595 180.067 230.836 179.294C232.046 178.54 233.379 177.242 233.514 175.739C233.646 174.266 232.585 172.877 231.045 172.895C228.906 172.918 226.741 176.111 226.175 177.934C226.127 178.092 225.646 180.645 225.685 180.64C225.685 180.64 225.721 180.635 225.73 180.634C225.384 181.136 225.019 181.677 224.632 182.277C223.927 183.39 223.141 184.653 222.377 186.087C221.61 187.517 220.817 189.093 220.132 190.828C219.443 192.566 218.807 194.43 218.4 196.434C218.395 196.457 218.393 196.481 218.389 196.504C218.326 195.881 218.091 194.144 218.058 194.012C217.591 192.161 215.599 188.857 213.465 188.719C211.927 188.621 210.793 189.951 210.847 191.428C210.902 192.937 212.163 194.304 213.332 195.122C214.65 196.044 218.079 196.682 218.352 196.731C217.982 198.644 217.757 200.637 217.641 202.667C217.573 203.826 217.541 204.997 217.524 206.172C217.452 205.635 217.384 205.154 217.367 205.088C216.899 203.237 214.908 199.933 212.774 199.795C211.236 199.696 210.102 201.027 210.156 202.504C210.211 204.013 211.473 205.38 212.641 206.198C213.827 207.028 216.74 207.63 217.513 207.779C217.511 208.23 217.504 208.68 217.504 209.13C217.503 211.291 217.511 213.448 217.454 215.564C217.434 216.31 217.387 217.043 217.344 217.778C217.279 217.3 217.221 216.899 217.206 216.839C216.738 214.987 214.747 211.684 212.612 211.547C211.075 211.447 209.941 212.778 209.995 214.255C210.05 215.764 211.311 217.13 212.48 217.948C213.612 218.74 216.295 219.32 217.213 219.502C217.145 220.252 217.079 221.004 216.979 221.728C216.899 222.221 216.857 222.701 216.751 223.192C216.655 223.68 216.56 224.162 216.466 224.641C216.251 225.556 216.035 226.502 215.804 227.389C215.647 228.007 215.487 228.593 215.326 229.185C215.355 228.442 215.379 226.989 215.368 226.867C215.247 225.604 214.556 223.609 213.495 222.275C213.478 222.088 213.445 221.904 213.394 221.723C212.989 220.301 211.499 219.387 210.067 219.957C208.08 220.747 207.207 224.504 207.335 226.409C207.342 226.521 207.56 227.732 207.711 228.493C207.554 228.059 207.407 227.636 207.241 227.191C206.918 226.309 206.569 225.439 206.198 224.5C206.003 224.053 205.805 223.602 205.606 223.146C205.418 222.69 205.161 222.232 204.94 221.77C204.402 220.708 203.805 219.659 203.181 218.614C203.952 218.329 206.678 217.279 207.704 216.278C208.725 215.283 209.749 213.73 209.561 212.232C209.375 210.766 208.042 209.636 206.54 209.982C204.456 210.462 203.024 214.043 202.861 215.946C202.852 216.065 202.888 217.444 202.923 218.2C202.543 217.576 202.166 216.95 201.761 216.331C200.591 214.543 199.352 212.769 198.123 210.994C197.747 210.451 197.378 209.905 197.007 209.36C197.282 209.261 200.549 208.082 201.699 206.962C202.72 205.966 203.744 204.413 203.555 202.916C203.37 201.449 202.036 200.319 200.535 200.665C198.45 201.146 197.018 204.727 196.856 206.63C196.843 206.773 196.9 208.757 196.939 209.26C196.122 208.059 195.319 206.855 194.575 205.635C193.547 203.953 192.631 202.247 191.866 200.528C191.994 200.483 195.41 199.267 196.587 198.12C197.608 197.124 198.632 195.572 198.443 194.074C198.258 192.607 196.924 191.477 195.423 191.824C193.339 192.304 191.906 195.885 191.744 197.788C191.733 197.913 191.775 199.425 191.811 200.143C191.746 200.158 191.758 200.156 191.692 200.17C190.894 198.319 190.355 196.425 189.937 194.627C189.694 193.587 189.518 192.578 189.37 191.594C190.03 191.433 193.035 190.663 194.208 189.748C195.332 188.87 196.521 187.44 196.498 185.93C196.474 184.452 195.273 183.182 193.743 183.362C191.618 183.61 189.802 187.012 189.432 188.886C189.411 188.988 189.321 190.046 189.267 190.818C189.207 190.373 189.137 189.914 189.088 189.486C188.899 187.88 188.826 186.397 188.772 185.084C188.747 184.336 188.74 183.66 188.739 183.028C189.304 182.532 191.554 180.506 192.162 179.177C192.755 177.88 193.151 176.063 192.435 174.734C191.733 173.433 190.082 172.86 188.806 173.724C187.035 174.924 186.99 178.78 187.525 180.614C187.571 180.773 188.578 183.167 188.608 183.142C188.608 183.142 188.636 183.118 188.642 183.112C188.63 183.721 188.625 184.374 188.633 185.087C188.659 186.404 188.7 187.893 188.854 189.509C189.004 191.125 189.211 192.877 189.598 194.702C189.981 196.532 190.479 198.437 191.245 200.334C191.254 200.355 191.265 200.376 191.274 200.398C190.878 199.913 189.724 198.593 189.624 198.502C188.212 197.215 184.729 195.559 182.873 196.621C181.536 197.387 181.324 199.122 182.184 200.324C183.062 201.552 184.868 201.996 186.294 202.034C187.902 202.076 191.114 200.716 191.369 200.607C192.116 202.407 193.028 204.193 194.051 205.95C194.634 206.955 195.253 207.949 195.887 208.938C195.53 208.529 195.209 208.167 195.158 208.121C193.747 206.834 190.263 205.178 188.408 206.24C187.071 207.005 186.859 208.74 187.719 209.943C188.597 211.171 190.403 211.615 191.829 211.653C193.276 211.691 196.037 210.586 196.764 210.284C197.011 210.661 197.254 211.04 197.502 211.416C198.694 213.219 199.89 215.014 201.01 216.81C201.405 217.443 201.771 218.08 202.139 218.718C201.822 218.355 201.552 218.053 201.506 218.011C200.095 216.724 196.612 215.067 194.756 216.13C193.419 216.896 193.207 218.631 194.067 219.833C194.945 221.061 196.751 221.505 198.177 221.543C199.556 221.577 202.114 220.581 202.98 220.226Z" fill="#263238"/>
<path opacity="0.3" d="M183.722 191.388C185.325 191.873 189.043 191.346 189.046 191.345C189.085 191.34 187.955 189 187.867 188.861C186.846 187.247 183.923 184.73 181.853 185.265C180.361 185.65 179.698 187.267 180.21 188.654C180.733 190.07 182.357 190.975 183.722 191.388Z" fill="#263238"/>
<path opacity="0.3" d="M221.524 187.724C221.559 187.74 221.907 185.166 221.911 185.001C221.949 183.091 220.9 179.379 218.878 178.683C217.422 178.182 215.976 179.165 215.638 180.604C215.293 182.074 216.149 183.725 217.06 184.823C218.13 186.111 221.521 187.722 221.524 187.724Z" fill="#263238"/>
<path opacity="0.3" d="M202.98 220.226C203.338 220.889 203.697 221.553 204.013 222.212C204.219 222.667 204.449 223.091 204.63 223.559C204.82 224.019 205.007 224.474 205.193 224.925C205.518 225.807 205.859 226.715 206.155 227.582C206.366 228.184 206.556 228.762 206.748 229.344C206.362 228.709 205.58 227.483 205.504 227.388C204.304 225.902 201.112 223.737 199.116 224.506C197.678 225.061 197.206 226.743 197.874 228.062C198.556 229.409 200.274 230.122 201.678 230.375C203.223 230.654 206.476 229.844 206.882 229.74C207.197 230.704 207.494 231.643 207.76 232.534C208.238 234.117 208.641 235.567 208.981 236.855H210.4C210.008 235.474 209.535 233.895 208.97 232.156C208.654 231.177 208.297 230.137 207.92 229.072C208.156 228.944 209.497 228.207 210.662 227.362C211.888 228.409 214.837 229.456 215.219 229.589C214.951 230.566 214.68 231.514 214.411 232.404C213.914 234.06 213.429 235.553 212.985 236.855H214.42C214.802 235.631 215.21 234.264 215.628 232.756C215.904 231.765 216.18 230.7 216.453 229.604C216.862 229.64 220.21 229.915 221.692 229.39C223.036 228.914 224.617 227.933 225.073 226.494C225.519 225.085 224.781 223.5 223.273 223.185C221.179 222.749 218.378 225.4 217.434 227.06C217.378 227.158 216.892 228.287 216.598 229.006C216.707 228.557 216.817 228.123 216.924 227.661C217.141 226.747 217.331 225.828 217.539 224.841C217.623 224.361 217.707 223.875 217.793 223.385C217.887 222.901 217.926 222.378 217.996 221.869C218.133 220.688 218.214 219.483 218.269 218.268C219.07 218.456 221.923 219.083 223.331 218.814C224.732 218.547 226.443 217.818 227.111 216.464C227.766 215.139 227.277 213.46 225.834 212.921C223.831 212.172 220.66 214.368 219.475 215.866C219.401 215.959 218.672 217.129 218.283 217.78C218.311 217.049 218.341 216.32 218.345 215.58C218.357 213.443 218.301 211.28 218.255 209.122C218.241 208.46 218.235 207.802 218.226 207.142C218.51 207.212 221.885 208.031 223.462 207.731C224.863 207.464 226.573 206.734 227.242 205.38C227.897 204.055 227.408 202.377 225.965 201.837C223.962 201.088 220.791 203.285 219.606 204.782C219.517 204.895 218.469 206.581 218.224 207.022C218.206 205.57 218.2 204.122 218.252 202.695C218.323 200.725 218.499 198.796 218.81 196.941C218.942 196.974 222.461 197.844 224.076 197.536C225.477 197.269 227.187 196.54 227.856 195.185C228.511 193.861 228.022 192.182 226.578 191.642C224.575 190.894 221.405 193.09 220.22 194.588C220.142 194.686 219.343 195.969 218.977 196.588C218.914 196.564 218.925 196.569 218.863 196.545C219.219 194.561 219.814 192.684 220.457 190.955C220.827 189.953 221.238 189.015 221.658 188.112C222.296 188.341 225.227 189.357 226.711 189.241C228.133 189.129 229.913 188.592 230.727 187.319C231.523 186.074 231.221 184.352 229.846 183.657C227.937 182.693 224.545 184.528 223.203 185.886C223.13 185.961 222.471 186.793 221.999 187.407C222.195 187.002 222.39 186.581 222.585 186.197C223.314 184.753 224.071 183.476 224.75 182.351C225.142 181.714 225.508 181.146 225.857 180.618C226.601 180.516 229.595 180.067 230.836 179.294C232.046 178.54 233.379 177.242 233.514 175.739C233.646 174.266 232.585 172.877 231.045 172.895C228.906 172.918 226.741 176.111 226.175 177.934C226.127 178.092 225.646 180.645 225.685 180.64C225.685 180.64 225.721 180.635 225.73 180.634C225.384 181.136 225.019 181.677 224.632 182.277C223.927 183.39 223.141 184.653 222.377 186.087C221.61 187.517 220.817 189.093 220.132 190.828C219.443 192.566 218.807 194.43 218.4 196.434C218.395 196.457 218.393 196.481 218.389 196.504C218.326 195.881 218.091 194.144 218.058 194.012C217.591 192.161 215.599 188.857 213.465 188.719C211.927 188.621 210.793 189.951 210.847 191.428C210.902 192.937 212.163 194.304 213.332 195.122C214.65 196.044 218.079 196.682 218.352 196.731C217.982 198.644 217.757 200.637 217.641 202.667C217.573 203.826 217.541 204.997 217.524 206.172C217.452 205.635 217.384 205.154 217.367 205.088C216.899 203.237 214.908 199.933 212.774 199.795C211.236 199.696 210.102 201.027 210.156 202.504C210.211 204.013 211.473 205.38 212.641 206.198C213.827 207.028 216.74 207.63 217.513 207.779C217.511 208.23 217.504 208.68 217.504 209.13C217.503 211.291 217.511 213.448 217.454 215.564C217.434 216.31 217.387 217.043 217.344 217.778C217.279 217.3 217.221 216.899 217.206 216.839C216.738 214.987 214.747 211.684 212.612 211.547C211.075 211.447 209.941 212.778 209.995 214.255C210.05 215.764 211.311 217.13 212.48 217.948C213.612 218.74 216.295 219.32 217.213 219.502C217.145 220.252 217.079 221.004 216.979 221.728C216.899 222.221 216.857 222.701 216.751 223.192C216.655 223.68 216.56 224.162 216.466 224.641C216.251 225.556 216.035 226.502 215.804 227.389C215.647 228.007 215.487 228.593 215.326 229.185C215.355 228.442 215.379 226.989 215.368 226.867C215.247 225.604 214.556 223.609 213.495 222.275C213.478 222.088 213.445 221.904 213.394 221.723C212.989 220.301 211.499 219.387 210.067 219.957C208.08 220.747 207.207 224.504 207.335 226.409C207.342 226.521 207.56 227.732 207.711 228.493C207.554 228.059 207.407 227.636 207.241 227.191C206.918 226.309 206.569 225.439 206.198 224.5C206.003 224.053 205.805 223.602 205.606 223.146C205.418 222.69 205.161 222.232 204.94 221.77C204.402 220.708 203.805 219.659 203.181 218.614C203.952 218.329 206.678 217.279 207.704 216.278C208.725 215.283 209.749 213.73 209.561 212.232C209.375 210.766 208.042 209.636 206.54 209.982C204.456 210.462 203.024 214.043 202.861 215.946C202.852 216.065 202.888 217.444 202.923 218.2C202.543 217.576 202.166 216.95 201.761 216.331C200.591 214.543 199.352 212.769 198.123 210.994C197.747 210.451 197.378 209.905 197.007 209.36C197.282 209.261 200.549 208.082 201.699 206.962C202.72 205.966 203.744 204.413 203.555 202.916C203.37 201.449 202.036 200.319 200.535 200.665C198.45 201.146 197.018 204.727 196.856 206.63C196.843 206.773 196.9 208.757 196.939 209.26C196.122 208.059 195.319 206.855 194.575 205.635C193.547 203.953 192.631 202.247 191.866 200.528C191.994 200.483 195.41 199.267 196.587 198.12C197.608 197.124 198.632 195.572 198.443 194.074C198.258 192.607 196.924 191.477 195.423 191.824C193.339 192.304 191.906 195.885 191.744 197.788C191.733 197.913 191.775 199.425 191.811 200.143C191.746 200.158 191.758 200.156 191.692 200.17C190.894 198.319 190.355 196.425 189.937 194.627C189.694 193.587 189.518 192.578 189.37 191.594C190.03 191.433 193.035 190.663 194.208 189.748C195.332 188.87 196.521 187.44 196.498 185.93C196.474 184.452 195.273 183.182 193.743 183.362C191.618 183.61 189.802 187.012 189.432 188.886C189.411 188.988 189.321 190.046 189.267 190.818C189.207 190.373 189.137 189.914 189.088 189.486C188.899 187.88 188.826 186.397 188.772 185.084C188.747 184.336 188.74 183.66 188.739 183.028C189.304 182.532 191.554 180.506 192.162 179.177C192.755 177.88 193.151 176.063 192.435 174.734C191.733 173.433 190.082 172.86 188.806 173.724C187.035 174.924 186.99 178.78 187.525 180.614C187.571 180.773 188.578 183.167 188.608 183.142C188.608 183.142 188.636 183.118 188.642 183.112C188.63 183.721 188.625 184.374 188.633 185.087C188.659 186.404 188.7 187.893 188.854 189.509C189.004 191.125 189.211 192.877 189.598 194.702C189.981 196.532 190.479 198.437 191.245 200.334C191.254 200.355 191.265 200.376 191.274 200.398C190.878 199.913 189.724 198.593 189.624 198.502C188.212 197.215 184.729 195.559 182.873 196.621C181.536 197.387 181.324 199.122 182.184 200.324C183.062 201.552 184.868 201.996 186.294 202.034C187.902 202.076 191.114 200.716 191.369 200.607C192.116 202.407 193.028 204.193 194.051 205.95C194.634 206.955 195.253 207.949 195.887 208.938C195.53 208.529 195.209 208.167 195.158 208.121C193.747 206.834 190.263 205.178 188.408 206.24C187.071 207.005 186.859 208.74 187.719 209.943C188.597 211.171 190.403 211.615 191.829 211.653C193.276 211.691 196.037 210.586 196.764 210.284C197.011 210.661 197.254 211.04 197.502 211.416C198.694 213.219 199.89 215.014 201.01 216.81C201.405 217.443 201.771 218.08 202.139 218.718C201.822 218.355 201.552 218.053 201.506 218.011C200.095 216.724 196.612 215.067 194.756 216.13C193.419 216.896 193.207 218.631 194.067 219.833C194.945 221.061 196.751 221.505 198.177 221.543C199.556 221.577 202.114 220.581 202.98 220.226Z" fill="#263238"/>
<path d="M51.876 207.691C51.8972 207.701 52.1037 206.173 52.1057 206.075C52.1284 204.942 51.506 202.738 50.3056 202.325C49.4411 202.027 48.583 202.611 48.3824 203.465C48.1774 204.337 48.6852 205.317 49.2262 205.969C49.861 206.734 51.8745 207.69 51.876 207.691Z" fill="#263238"/>
<path d="M29.4357 209.863C30.3872 210.15 32.5944 209.838 32.5959 209.837C32.6186 209.834 31.9482 208.445 31.8959 208.362C31.2892 207.404 29.5548 205.91 28.3252 206.227C27.4395 206.456 27.0463 207.416 27.3501 208.239C27.6613 209.08 28.6256 209.618 29.4357 209.863Z" fill="#263238"/>
<path d="M40.8681 226.984C41.0805 227.378 41.2939 227.772 41.4817 228.163C41.6037 228.433 41.7405 228.685 41.8477 228.963C41.9604 229.236 42.0715 229.506 42.1817 229.774C42.3748 230.297 42.5774 230.836 42.7532 231.351C42.8782 231.708 42.9903 232.052 43.105 232.396C42.8762 232.019 42.4119 231.292 42.3664 231.235C41.6541 230.354 39.7591 229.068 38.5745 229.525C37.7213 229.854 37.4407 230.853 37.8369 231.636C38.242 232.435 39.2616 232.858 40.095 233.008C41.0124 233.174 42.9434 232.693 43.184 232.631C43.3707 233.203 43.5476 233.761 43.7057 234.29C43.9892 235.23 44.2283 236.091 44.4299 236.855H45.2726C45.0395 236.035 44.7594 235.098 44.4234 234.066C44.2357 233.484 44.0238 232.867 43.8 232.235C43.9403 232.159 44.7361 231.721 45.4277 231.219C46.1559 231.841 47.9066 232.463 48.1334 232.541C47.9738 233.121 47.8133 233.684 47.6537 234.212C47.3588 235.196 47.0708 236.082 46.808 236.855H47.6591C47.8864 236.129 48.1289 235.317 48.3764 234.421C48.5404 233.833 48.7044 233.201 48.8665 232.55C49.1095 232.572 51.0969 232.735 51.9767 232.424C52.7745 232.141 53.7126 231.559 53.9838 230.704C54.2491 229.868 53.8109 228.927 52.9153 228.74C51.6724 228.481 50.0096 230.055 49.4494 231.04C49.4163 231.099 49.1278 231.769 48.9529 232.195C49.0176 231.929 49.0833 231.672 49.1471 231.396C49.276 230.854 49.3886 230.309 49.5121 229.722C49.562 229.437 49.6119 229.149 49.6623 228.858C49.7186 228.571 49.7418 228.26 49.7833 227.958C49.8644 227.257 49.9128 226.541 49.9454 225.82C50.4206 225.932 52.1145 226.304 52.9504 226.145C53.7818 225.986 54.7974 225.553 55.1946 224.749C55.5834 223.962 55.2929 222.966 54.4363 222.646C53.2473 222.201 51.3651 223.505 50.6617 224.394C50.6177 224.449 50.185 225.144 49.9543 225.53C49.9706 225.097 49.9888 224.663 49.9913 224.224C49.9982 222.956 49.9651 221.672 49.938 220.39C49.9296 219.997 49.9256 219.607 49.9207 219.215C50.0891 219.256 52.0933 219.743 53.0289 219.564C53.8608 219.406 54.876 218.972 55.2732 218.169C55.6619 217.382 55.3715 216.386 54.5149 216.065C53.3258 215.621 51.4437 216.925 50.7402 217.813C50.6874 217.88 50.0654 218.881 49.9197 219.143C49.9083 218.281 49.9054 217.421 49.9365 216.574C49.978 215.405 50.0832 214.26 50.2675 213.158C50.346 213.178 52.4351 213.695 53.3935 213.512C54.2254 213.353 55.2406 212.92 55.6377 212.116C56.0265 211.33 55.736 210.333 54.8794 210.013C53.6904 209.568 51.8082 210.872 51.1048 211.761C51.0588 211.819 50.5846 212.581 50.3672 212.949C50.3297 212.934 50.3366 212.937 50.2991 212.923C50.5105 211.745 50.8637 210.631 51.2456 209.604C51.4654 209.009 51.7094 208.453 51.9584 207.917C52.3378 208.053 54.0772 208.656 54.958 208.587C55.8022 208.52 56.8589 208.201 57.342 207.446C57.8148 206.706 57.6355 205.684 56.8189 205.272C55.6856 204.699 53.6721 205.789 52.8753 206.595C52.8318 206.639 52.4406 207.133 52.161 207.497C52.277 207.257 52.3926 207.007 52.5087 206.779C52.9415 205.922 53.391 205.164 53.7941 204.496C54.0268 204.118 54.2442 203.781 54.4511 203.468C54.8933 203.407 56.6702 203.141 57.4067 202.682C58.125 202.235 58.9164 201.464 58.9969 200.571C59.0755 199.698 58.4456 198.873 57.5312 198.883C56.2617 198.897 54.9763 200.792 54.6408 201.875C54.6122 201.968 54.3262 203.484 54.3494 203.482C54.3494 203.482 54.3706 203.479 54.3761 203.478C54.1705 203.776 53.9542 204.097 53.7245 204.453C53.306 205.114 52.8387 205.864 52.3857 206.715C51.9308 207.564 51.46 208.499 51.0534 209.529C50.6444 210.561 50.2665 211.667 50.0249 212.857C50.0219 212.871 50.021 212.885 50.0185 212.899C49.9809 212.529 49.8416 211.497 49.8219 211.419C49.5442 210.32 48.3626 208.359 47.0955 208.277C46.1826 208.219 45.5097 209.008 45.5419 209.885C45.575 210.781 46.3234 211.593 47.0169 212.078C47.7994 212.625 49.8347 213.004 49.9972 213.033C49.7774 214.169 49.644 215.352 49.5749 216.557C49.5349 217.245 49.5156 217.94 49.5052 218.637C49.4627 218.318 49.4222 218.034 49.4123 217.994C49.1347 216.895 47.9526 214.934 46.686 214.852C45.773 214.794 45.1002 215.583 45.1318 216.46C45.1644 217.356 45.9133 218.167 46.6069 218.653C47.3109 219.145 49.0399 219.503 49.4988 219.591C49.4978 219.859 49.4934 220.126 49.4934 220.393C49.4924 221.676 49.4973 222.957 49.4637 224.213C49.4519 224.655 49.4242 225.091 49.398 225.527C49.36 225.244 49.3254 225.005 49.3165 224.97C49.0389 223.87 47.8567 221.91 46.5896 221.828C45.6767 221.769 45.0039 222.558 45.036 223.436C45.0686 224.331 45.8175 225.142 46.5111 225.628C47.1829 226.098 48.7761 226.443 49.3209 226.55C49.2804 226.996 49.2409 227.442 49.1816 227.872C49.1347 228.164 49.1095 228.449 49.0463 228.741C48.9895 229.03 48.9332 229.317 48.8773 229.601C48.7499 230.144 48.6215 230.705 48.4841 231.232C48.3912 231.6 48.2959 231.947 48.2006 232.299C48.2174 231.858 48.2322 230.995 48.2253 230.923C48.1536 230.173 47.7436 228.989 47.1133 228.197C47.1034 228.086 47.0836 227.977 47.0535 227.869C46.8129 227.026 45.9287 226.483 45.0785 226.821C43.8988 227.29 43.3806 229.52 43.4562 230.651C43.4606 230.718 43.5901 231.436 43.6795 231.889C43.5866 231.631 43.4997 231.38 43.4009 231.115C43.2092 230.592 43.0022 230.075 42.7819 229.518C42.6658 229.253 42.5487 228.985 42.4306 228.715C42.319 228.444 42.1668 228.172 42.0349 227.897C41.7153 227.268 41.3616 226.644 40.9906 226.024C41.4486 225.855 43.0669 225.231 43.676 224.638C44.2822 224.047 44.8903 223.125 44.7781 222.236C44.6685 221.365 43.8766 220.694 42.9854 220.9C41.7484 221.185 40.8978 223.311 40.8014 224.44C40.7955 224.511 40.8172 225.329 40.838 225.779C40.6122 225.408 40.3889 225.037 40.1484 224.669C39.4538 223.607 38.7182 222.554 37.9891 221.501C37.7653 221.178 37.5465 220.854 37.3261 220.53C37.4897 220.472 39.4291 219.772 40.1113 219.107C40.7174 218.515 41.3256 217.594 41.2134 216.705C41.1038 215.835 40.3119 215.164 39.4207 215.369C38.1837 215.654 37.3331 217.78 37.2367 218.91C37.2293 218.995 37.2629 220.172 37.2861 220.471C36.801 219.758 36.3243 219.043 35.8827 218.319C35.2721 217.321 34.7282 216.308 34.2742 215.288C34.3503 215.26 36.3782 214.539 37.0767 213.858C37.6828 213.267 38.2909 212.345 38.1788 211.456C38.0691 210.586 37.2772 209.915 36.3861 210.12C35.1486 210.405 34.2984 212.532 34.2021 213.661C34.1957 213.735 34.2204 214.633 34.2416 215.059C34.2026 215.068 34.21 215.066 34.171 215.075C33.6977 213.976 33.3771 212.852 33.1296 211.785C32.9849 211.167 32.8811 210.568 32.7932 209.984C33.1844 209.888 34.9683 209.431 35.6648 208.887C36.3322 208.366 37.0376 207.517 37.0243 206.621C37.0105 205.744 36.2971 204.99 35.3887 205.096C34.128 205.243 33.0491 207.263 32.8293 208.375C32.8174 208.435 32.764 209.064 32.731 209.522C32.6954 209.258 32.6539 208.986 32.6247 208.731C32.5131 207.778 32.4696 206.898 32.4375 206.118C32.4227 205.674 32.4182 205.273 32.4182 204.897C32.7532 204.603 34.089 203.401 34.4501 202.612C34.8023 201.841 35.0369 200.763 34.6121 199.974C34.1957 199.202 33.2151 198.862 32.4578 199.374C31.4065 200.086 31.3804 202.376 31.6975 203.464C31.7252 203.558 32.3229 204.98 32.3407 204.965C32.3407 204.965 32.357 204.951 32.3609 204.947C32.354 205.308 32.3506 205.696 32.3555 206.119C32.3708 206.902 32.395 207.785 32.4864 208.745C32.5753 209.704 32.6983 210.744 32.9276 211.827C33.1558 212.913 33.4507 214.044 33.9057 215.17C33.9111 215.183 33.918 215.195 33.923 215.208C33.6878 214.92 33.0026 214.137 32.9434 214.083C32.1055 213.319 30.0377 212.336 28.936 212.966C28.1422 213.421 28.0162 214.451 28.527 215.165C29.0487 215.894 30.1207 216.157 30.9669 216.179C31.9213 216.205 33.8281 215.397 33.9798 215.332C34.4229 216.401 34.9643 217.461 35.5715 218.504C35.9177 219.1 36.2853 219.691 36.6612 220.278C36.4498 220.035 36.2591 219.82 36.229 219.792C35.3911 219.029 33.3233 218.045 32.2216 218.676C31.4278 219.13 31.3018 220.16 31.8126 220.874C32.3338 221.603 33.4062 221.867 34.2525 221.889C35.1115 221.912 36.7506 221.256 37.1824 221.076C37.3291 221.3 37.4729 221.525 37.6201 221.748C38.3275 222.819 39.0378 223.884 39.7023 224.951C39.9369 225.326 40.1538 225.705 40.3726 226.083C40.1844 225.868 40.0244 225.688 39.9967 225.664C39.1589 224.9 37.091 223.916 35.9894 224.547C35.1955 225.002 35.0695 226.032 35.5803 226.745C36.1015 227.474 37.1735 227.738 38.0202 227.761C38.8358 227.786 40.3544 227.195 40.8681 226.984Z" fill="#263238"/>
<path opacity="0.3" d="M29.4357 209.863C30.3872 210.15 32.5944 209.838 32.5959 209.837C32.6186 209.834 31.9482 208.445 31.8959 208.362C31.2892 207.404 29.5548 205.91 28.3252 206.227C27.4395 206.456 27.0463 207.416 27.3501 208.239C27.6613 209.08 28.6256 209.618 29.4357 209.863Z" fill="#263238"/>
<path opacity="0.3" d="M51.876 207.691C51.8972 207.701 52.1037 206.173 52.1057 206.075C52.1284 204.942 51.506 202.738 50.3056 202.325C49.4411 202.027 48.583 202.611 48.3824 203.465C48.1774 204.337 48.6852 205.317 49.2262 205.969C49.861 206.734 51.8745 207.69 51.876 207.691Z" fill="#263238"/>
<path opacity="0.3" d="M40.8681 226.984C41.0805 227.378 41.2939 227.772 41.4817 228.163C41.6037 228.433 41.7405 228.685 41.8477 228.963C41.9604 229.236 42.0715 229.506 42.1817 229.774C42.3748 230.297 42.5774 230.836 42.7532 231.351C42.8782 231.708 42.9903 232.052 43.105 232.396C42.8762 232.019 42.4119 231.292 42.3664 231.235C41.6541 230.354 39.7591 229.068 38.5745 229.525C37.7213 229.854 37.4407 230.853 37.8369 231.636C38.242 232.435 39.2616 232.858 40.095 233.008C41.0124 233.174 42.9434 232.693 43.184 232.631C43.3707 233.203 43.5476 233.761 43.7057 234.29C43.9892 235.23 44.2283 236.091 44.4299 236.855H45.2726C45.0395 236.035 44.7594 235.098 44.4234 234.066C44.2357 233.484 44.0238 232.867 43.8 232.235C43.9403 232.159 44.7361 231.721 45.4277 231.219C46.1559 231.841 47.9066 232.463 48.1334 232.541C47.9738 233.121 47.8133 233.684 47.6537 234.212C47.3588 235.196 47.0708 236.082 46.808 236.855H47.6591C47.8864 236.129 48.1289 235.317 48.3764 234.421C48.5404 233.833 48.7044 233.201 48.8665 232.55C49.1095 232.572 51.0969 232.735 51.9767 232.424C52.7745 232.141 53.7126 231.559 53.9838 230.704C54.2491 229.868 53.8109 228.927 52.9153 228.74C51.6724 228.481 50.0096 230.055 49.4494 231.04C49.4163 231.099 49.1278 231.769 48.9529 232.195C49.0176 231.929 49.0833 231.672 49.1471 231.396C49.276 230.854 49.3886 230.309 49.5121 229.722C49.562 229.437 49.6119 229.149 49.6623 228.858C49.7186 228.571 49.7418 228.26 49.7833 227.958C49.8644 227.257 49.9128 226.541 49.9454 225.82C50.4206 225.932 52.1145 226.304 52.9504 226.145C53.7818 225.986 54.7974 225.553 55.1946 224.749C55.5834 223.962 55.2929 222.966 54.4363 222.646C53.2473 222.201 51.3651 223.505 50.6617 224.394C50.6177 224.449 50.185 225.144 49.9543 225.53C49.9706 225.097 49.9888 224.663 49.9913 224.224C49.9982 222.956 49.9651 221.672 49.938 220.39C49.9296 219.997 49.9256 219.607 49.9207 219.215C50.0891 219.256 52.0933 219.743 53.0289 219.564C53.8608 219.406 54.876 218.972 55.2732 218.169C55.6619 217.382 55.3715 216.386 54.5149 216.065C53.3258 215.621 51.4437 216.925 50.7402 217.813C50.6874 217.88 50.0654 218.881 49.9197 219.143C49.9083 218.281 49.9054 217.421 49.9365 216.574C49.978 215.405 50.0832 214.26 50.2675 213.158C50.346 213.178 52.4351 213.695 53.3935 213.512C54.2254 213.353 55.2406 212.92 55.6377 212.116C56.0265 211.33 55.736 210.333 54.8794 210.013C53.6904 209.568 51.8082 210.872 51.1048 211.761C51.0588 211.819 50.5846 212.581 50.3672 212.949C50.3297 212.934 50.3366 212.937 50.2991 212.923C50.5105 211.745 50.8637 210.631 51.2456 209.604C51.4654 209.009 51.7094 208.453 51.9584 207.917C52.3378 208.053 54.0772 208.656 54.958 208.587C55.8022 208.52 56.8589 208.201 57.342 207.446C57.8148 206.706 57.6355 205.684 56.8189 205.272C55.6856 204.699 53.6721 205.789 52.8753 206.595C52.8318 206.639 52.4406 207.133 52.161 207.497C52.277 207.257 52.3926 207.007 52.5087 206.779C52.9415 205.922 53.391 205.164 53.7941 204.496C54.0268 204.118 54.2442 203.781 54.4511 203.468C54.8933 203.407 56.6702 203.141 57.4067 202.682C58.125 202.235 58.9164 201.464 58.9969 200.571C59.0755 199.698 58.4456 198.873 57.5312 198.883C56.2617 198.897 54.9763 200.792 54.6408 201.875C54.6122 201.968 54.3262 203.484 54.3494 203.482C54.3494 203.482 54.3706 203.479 54.3761 203.478C54.1705 203.776 53.9542 204.097 53.7245 204.453C53.306 205.114 52.8387 205.864 52.3857 206.715C51.9308 207.564 51.46 208.499 51.0534 209.529C50.6444 210.561 50.2665 211.667 50.0249 212.857C50.0219 212.871 50.021 212.885 50.0185 212.899C49.9809 212.529 49.8416 211.497 49.8219 211.419C49.5442 210.32 48.3626 208.359 47.0955 208.277C46.1826 208.219 45.5097 209.008 45.5419 209.885C45.575 210.781 46.3234 211.593 47.0169 212.078C47.7994 212.625 49.8347 213.004 49.9972 213.033C49.7774 214.169 49.644 215.352 49.5749 216.557C49.5349 217.245 49.5156 217.94 49.5052 218.637C49.4627 218.318 49.4222 218.034 49.4123 217.994C49.1347 216.895 47.9526 214.934 46.686 214.852C45.773 214.794 45.1002 215.583 45.1318 216.46C45.1644 217.356 45.9133 218.167 46.6069 218.653C47.3109 219.145 49.0399 219.503 49.4988 219.591C49.4978 219.859 49.4934 220.126 49.4934 220.393C49.4924 221.676 49.4973 222.957 49.4637 224.213C49.4519 224.655 49.4242 225.091 49.398 225.527C49.36 225.244 49.3254 225.005 49.3165 224.97C49.0389 223.87 47.8567 221.91 46.5896 221.828C45.6767 221.769 45.0039 222.558 45.036 223.436C45.0686 224.331 45.8175 225.142 46.5111 225.628C47.1829 226.098 48.7761 226.443 49.3209 226.55C49.2804 226.996 49.2409 227.442 49.1816 227.872C49.1347 228.164 49.1095 228.449 49.0463 228.741C48.9895 229.03 48.9332 229.317 48.8773 229.601C48.7499 230.144 48.6215 230.705 48.4841 231.232C48.3912 231.6 48.2959 231.947 48.2006 232.299C48.2174 231.858 48.2322 230.995 48.2253 230.923C48.1536 230.173 47.7436 228.989 47.1133 228.197C47.1034 228.086 47.0836 227.977 47.0535 227.869C46.8129 227.026 45.9287 226.483 45.0785 226.821C43.8988 227.29 43.3806 229.52 43.4562 230.651C43.4606 230.718 43.5901 231.436 43.6795 231.889C43.5866 231.631 43.4997 231.38 43.4009 231.115C43.2092 230.592 43.0022 230.075 42.7819 229.518C42.6658 229.253 42.5487 228.985 42.4306 228.715C42.319 228.444 42.1668 228.172 42.0349 227.897C41.7153 227.268 41.3616 226.644 40.9906 226.024C41.4486 225.855 43.0669 225.231 43.676 224.638C44.2822 224.047 44.8903 223.125 44.7781 222.236C44.6685 221.365 43.8766 220.694 42.9854 220.9C41.7484 221.185 40.8978 223.311 40.8014 224.44C40.7955 224.511 40.8172 225.329 40.838 225.779C40.6122 225.408 40.3889 225.037 40.1484 224.669C39.4538 223.607 38.7182 222.554 37.9891 221.501C37.7653 221.178 37.5465 220.854 37.3261 220.53C37.4897 220.472 39.4291 219.772 40.1113 219.107C40.7174 218.515 41.3256 217.594 41.2134 216.705C41.1038 215.835 40.3119 215.164 39.4207 215.369C38.1837 215.654 37.3331 217.78 37.2367 218.91C37.2293 218.995 37.2629 220.172 37.2861 220.471C36.801 219.758 36.3243 219.043 35.8827 218.319C35.2721 217.321 34.7282 216.308 34.2742 215.288C34.3503 215.26 36.3782 214.539 37.0767 213.858C37.6828 213.267 38.2909 212.345 38.1788 211.456C38.0691 210.586 37.2772 209.915 36.3861 210.12C35.1486 210.405 34.2984 212.532 34.2021 213.661C34.1957 213.735 34.2204 214.633 34.2416 215.059C34.2026 215.068 34.21 215.066 34.171 215.075C33.6977 213.976 33.3771 212.852 33.1296 211.785C32.9849 211.167 32.8811 210.568 32.7932 209.984C33.1844 209.888 34.9683 209.431 35.6648 208.887C36.3322 208.366 37.0376 207.517 37.0243 206.621C37.0105 205.744 36.2971 204.99 35.3887 205.096C34.128 205.243 33.0491 207.263 32.8293 208.375C32.8174 208.435 32.764 209.064 32.731 209.522C32.6954 209.258 32.6539 208.986 32.6247 208.731C32.5131 207.778 32.4696 206.898 32.4375 206.118C32.4227 205.674 32.4182 205.273 32.4182 204.897C32.7532 204.603 34.089 203.401 34.4501 202.612C34.8023 201.841 35.0369 200.763 34.6121 199.974C34.1957 199.202 33.2151 198.862 32.4578 199.374C31.4065 200.086 31.3804 202.376 31.6975 203.464C31.7252 203.558 32.3229 204.98 32.3407 204.965C32.3407 204.965 32.357 204.951 32.3609 204.947C32.354 205.308 32.3506 205.696 32.3555 206.119C32.3708 206.902 32.395 207.785 32.4864 208.745C32.5753 209.704 32.6983 210.744 32.9276 211.827C33.1558 212.913 33.4507 214.044 33.9057 215.17C33.9111 215.183 33.918 215.195 33.923 215.208C33.6878 214.92 33.0026 214.137 32.9434 214.083C32.1055 213.319 30.0377 212.336 28.936 212.966C28.1422 213.421 28.0162 214.451 28.527 215.165C29.0487 215.894 30.1207 216.157 30.9669 216.179C31.9213 216.205 33.8281 215.397 33.9798 215.332C34.4229 216.401 34.9643 217.461 35.5715 218.504C35.9177 219.1 36.2853 219.691 36.6612 220.278C36.4498 220.035 36.2591 219.82 36.229 219.792C35.3911 219.029 33.3233 218.045 32.2216 218.676C31.4278 219.13 31.3018 220.16 31.8126 220.874C32.3338 221.603 33.4062 221.867 34.2525 221.889C35.1115 221.912 36.7506 221.256 37.1824 221.076C37.3291 221.3 37.4729 221.525 37.6201 221.748C38.3275 222.819 39.0378 223.884 39.7023 224.951C39.9369 225.326 40.1538 225.705 40.3726 226.083C40.1844 225.868 40.0244 225.688 39.9967 225.664C39.1589 224.9 37.091 223.916 35.9894 224.547C35.1955 225.002 35.0695 226.032 35.5803 226.745C36.1015 227.474 37.1735 227.738 38.0202 227.761C38.8358 227.786 40.3544 227.195 40.8681 226.984Z" fill="#263238"/>
<g opacity="0.2">
<path d="M163.358 94.6429C163.461 94.6914 164.468 87.2384 164.478 86.7607C164.589 81.2338 161.554 70.4898 155.7 68.4738C151.484 67.0209 147.301 69.8684 146.323 74.0338C145.323 78.2881 147.8 83.0675 150.437 86.2449C153.533 89.9751 163.351 94.639 163.358 94.6429Z" fill="black"/>
<path d="M53.9366 105.244C58.5767 106.646 69.339 105.121 69.3464 105.119C69.458 105.103 66.1878 98.331 65.9324 97.9269C62.9753 93.2561 54.517 85.9691 48.5223 87.5163C44.2043 88.6318 42.2861 93.3139 43.7686 97.3282C45.2822 101.428 49.9841 104.048 53.9366 105.244Z" fill="black"/>
<path d="M109.68 188.722C110.714 190.642 111.755 192.563 112.671 194.471C113.267 195.788 113.932 197.015 114.457 198.37C115.005 199.701 115.547 201.019 116.085 202.324C117.026 204.876 118.015 207.503 118.871 210.016C119.481 211.758 120.029 213.43 120.586 215.113C119.47 213.276 117.208 209.726 116.985 209.452C113.512 205.151 104.271 198.884 98.4944 201.111C94.3335 202.715 92.9651 207.586 94.8991 211.403C96.8741 215.302 101.846 217.365 105.91 218.098C110.384 218.904 119.798 216.562 120.972 216.261C121.884 219.048 122.745 221.769 123.517 224.349C124.898 228.93 126.066 233.129 127.049 236.856H131.158C130.022 232.857 128.655 228.286 127.018 223.254C126.103 220.419 125.068 217.408 123.977 214.327C124.662 213.956 128.542 211.823 131.914 209.375C135.465 212.408 144.002 215.437 145.106 215.821C144.329 218.649 143.546 221.393 142.766 223.97C141.328 228.764 139.924 233.084 138.641 236.856H142.793C143.9 233.312 145.083 229.355 146.29 224.988C147.091 222.119 147.89 219.038 148.679 215.865C149.864 215.969 159.554 216.766 163.846 215.246C167.737 213.867 172.311 211.029 173.631 206.863C174.924 202.783 172.788 198.196 168.422 197.286C162.362 196.021 154.254 203.696 151.52 208.501C151.358 208.784 149.952 212.055 149.099 214.134C149.414 212.836 149.736 211.579 150.044 210.239C150.673 207.595 151.223 204.936 151.824 202.077C152.066 200.687 152.31 199.282 152.557 197.864C152.832 196.463 152.944 194.947 153.146 193.476C153.542 190.055 153.778 186.567 153.938 183.05C156.256 183.594 164.515 185.41 168.59 184.633C172.644 183.859 177.597 181.747 179.532 177.829C181.427 173.992 180.012 169.135 175.834 167.572C170.035 165.404 160.858 171.764 157.428 176.098C157.213 176.368 155.102 179.755 153.977 181.639C154.057 179.523 154.146 177.412 154.157 175.27C154.189 169.084 154.029 162.823 153.897 156.576C153.855 154.661 153.837 152.756 153.811 150.846C154.633 151.049 164.404 153.42 168.967 152.549C173.023 151.776 177.975 149.663 179.911 145.745C181.806 141.908 180.39 137.051 176.212 135.489C170.413 133.321 161.236 139.68 157.806 144.014C157.547 144.341 154.516 149.219 153.805 150.497C153.751 146.293 153.734 142.102 153.887 137.97C154.089 132.268 154.602 126.685 155.5 121.314C155.883 121.41 166.069 123.93 170.743 123.039C174.799 122.265 179.751 120.153 181.686 116.234C183.581 112.398 182.166 107.54 177.988 105.978C172.189 103.81 163.012 110.169 159.582 114.504C159.357 114.788 157.044 118.501 155.985 120.294C155.802 120.225 155.835 120.238 155.653 120.169C156.684 114.427 158.406 108.994 160.268 103.987C161.341 101.086 162.529 98.3722 163.745 95.7579C165.594 96.4213 174.077 99.3621 178.372 99.0252C182.488 98.7016 187.642 97.146 189.997 93.4648C192.302 89.8591 191.427 84.8751 187.447 82.864C181.921 80.0719 172.101 85.3849 168.216 89.3162C168.005 89.5305 166.097 91.9418 164.732 93.7177C165.299 92.5464 165.862 91.3272 166.427 90.2147C168.538 86.0365 170.728 82.3409 172.695 79.0829C173.829 77.2398 174.89 75.5948 175.898 74.0669C178.053 73.7719 186.72 72.4732 190.311 70.2359C193.814 68.0524 197.672 64.2965 198.065 59.9439C198.448 55.6817 195.376 51.662 190.916 51.7114C184.727 51.7801 178.459 61.0198 176.822 66.3002C176.682 66.7566 175.289 74.1469 175.401 74.1326C175.401 74.1326 175.506 74.1182 175.531 74.1148C174.53 75.5662 173.475 77.1326 172.355 78.869C170.314 82.0904 168.037 85.749 165.826 89.8981C163.607 94.0378 161.311 98.5994 159.329 103.621C157.334 108.652 155.492 114.046 154.314 119.849C154.3 119.915 154.295 119.986 154.282 120.051C154.1 118.247 153.421 113.218 153.324 112.837C151.972 107.478 146.207 97.9162 140.029 97.517C135.579 97.2305 132.296 101.081 132.452 105.357C132.613 109.724 136.263 113.681 139.646 116.048C143.461 118.719 153.387 120.564 154.178 120.708C153.106 126.245 152.456 132.014 152.12 137.889C151.923 141.247 151.83 144.636 151.78 148.035C151.573 146.48 151.375 145.091 151.326 144.9C149.973 139.54 144.209 129.978 138.031 129.579C133.58 129.292 130.298 133.142 130.454 137.419C130.614 141.786 134.265 145.742 137.647 148.11C141.08 150.512 149.511 152.255 151.749 152.687C151.744 153.991 151.723 155.293 151.723 156.597C151.719 162.853 151.743 169.098 151.578 175.222C151.521 177.382 151.386 179.505 151.258 181.63C151.071 180.249 150.903 179.087 150.859 178.913C149.506 173.553 143.742 163.992 137.564 163.593C133.113 163.305 129.83 167.156 129.987 171.433C130.147 175.799 133.799 179.756 137.181 182.123C140.456 184.417 148.224 186.095 150.881 186.62C150.684 188.792 150.491 190.968 150.203 193.065C149.974 194.492 149.852 195.882 149.542 197.303C149.265 198.715 148.99 200.113 148.718 201.498C148.096 204.146 147.472 206.883 146.8 209.451C146.346 211.241 145.882 212.938 145.418 214.649C145.5 212.5 145.571 208.292 145.538 207.94C145.188 204.284 143.189 198.509 140.116 194.649C140.067 194.108 139.972 193.575 139.824 193.052C138.651 188.937 134.339 186.289 130.194 187.938C124.442 190.226 121.914 201.101 122.284 206.616C122.306 206.941 122.937 210.445 123.372 212.65C122.919 211.392 122.494 210.168 122.012 208.879C121.077 206.326 120.069 203.806 118.994 201.09C118.429 199.797 117.857 198.491 117.28 197.172C116.737 195.851 115.994 194.526 115.352 193.187C113.794 190.114 112.068 187.076 110.26 184.053C112.493 183.229 120.384 180.187 123.353 177.291C126.309 174.409 129.274 169.915 128.727 165.58C128.191 161.334 124.332 158.064 119.984 159.065C113.952 160.456 109.806 170.822 109.336 176.33C109.307 176.674 109.414 180.664 109.515 182.855C108.413 181.047 107.325 179.236 106.152 177.444C102.766 172.268 99.1781 167.134 95.6218 161.995C94.5311 160.422 93.4645 158.842 92.3891 157.264C93.1869 156.979 102.645 153.566 105.97 150.323C108.926 147.44 111.891 142.946 111.344 138.61C110.808 134.365 106.948 131.095 102.602 132.097C96.5688 133.488 92.4227 143.854 91.9529 149.362C91.9178 149.777 92.0803 155.518 92.193 156.975C89.8277 153.499 87.5024 150.013 85.3501 146.482C82.3732 141.615 79.7219 136.676 77.5073 131.7C77.8793 131.568 87.7657 128.051 91.1724 124.729C94.1284 121.847 97.0929 117.353 96.5461 113.017C96.0101 108.772 92.1495 105.502 87.8038 106.504C81.771 107.895 77.6244 118.261 77.1551 123.768C77.1235 124.13 77.243 128.507 77.3492 130.585C77.16 130.629 77.1946 130.62 77.0049 130.664C74.696 125.305 73.1349 119.823 71.9261 114.618C71.2202 111.606 70.7133 108.687 70.285 105.836C72.1939 105.371 80.8917 103.143 84.288 100.492C87.5429 97.9518 90.9831 93.8111 90.916 89.4416C90.8493 85.1631 87.371 81.4877 82.9413 82.0069C76.793 82.7262 71.5339 92.5751 70.4614 97.9977C70.4026 98.2921 70.1423 101.356 69.9832 103.59C69.8098 102.301 69.6068 100.973 69.465 99.7341C68.9201 95.0846 68.7082 90.7932 68.5511 86.9909C68.479 84.8282 68.4582 82.8714 68.4562 81.0402C70.0904 79.6051 76.6028 73.7413 78.3634 69.8945C80.0811 66.1401 81.2262 60.8795 79.1528 57.0328C77.122 53.266 72.3416 51.6076 68.6489 54.1088C63.5237 57.5811 63.3942 68.7445 64.9414 74.052C65.0758 74.5105 67.9914 81.4428 68.0779 81.3687C68.0779 81.3687 68.1574 81.299 68.1762 81.2822C68.1416 83.0443 68.1263 84.9349 68.15 86.9993C68.2241 90.812 68.3431 95.1206 68.7887 99.8003C69.2215 104.477 69.8231 109.548 70.9401 114.83C72.0521 120.127 73.4911 125.642 75.7097 131.133C75.7353 131.195 75.7689 131.256 75.7941 131.318C74.6466 129.914 71.3061 126.094 71.0171 125.83C66.9318 122.105 56.8487 117.311 51.4765 120.386C47.6055 122.602 46.9915 127.624 49.4817 131.105C52.0243 134.659 57.2518 135.945 61.3792 136.053C66.0337 136.176 75.3313 132.239 76.0703 131.923C78.231 137.132 80.8715 142.303 83.832 147.388C85.521 150.297 87.3127 153.176 89.146 156.038C88.1145 154.855 87.1838 153.806 87.0381 153.673C82.9522 149.949 72.8692 145.154 67.4974 148.23C63.6259 150.445 63.0129 155.467 65.5026 158.947C68.0447 162.502 73.2727 163.788 77.4001 163.897C81.5882 164.007 89.5827 160.81 91.6871 159.935C92.4019 161.026 93.1029 162.123 93.8217 163.211C97.2708 168.432 100.735 173.627 103.976 178.827C105.12 180.658 106.178 182.504 107.245 184.347C106.326 183.299 105.546 182.423 105.413 182.301C101.328 178.577 91.245 173.782 85.8727 176.857C82.0022 179.073 81.3882 184.096 83.8779 187.576C86.4206 191.131 91.6476 192.416 95.7754 192.525C99.7699 192.634 107.175 189.748 109.68 188.722Z" fill="black"/>
<path opacity="0.3" d="M53.9366 105.244C58.5767 106.646 69.339 105.121 69.3464 105.119C69.458 105.103 66.1878 98.331 65.9324 97.9269C62.9753 93.2561 54.517 85.9691 48.5223 87.5163C44.2043 88.6318 42.2861 93.3139 43.7686 97.3282C45.2822 101.428 49.9841 104.048 53.9366 105.244Z" fill="black"/>
<path opacity="0.3" d="M163.358 94.6429C163.461 94.6914 164.468 87.2384 164.478 86.7607C164.589 81.2338 161.554 70.4898 155.7 68.4738C151.484 67.0209 147.301 69.8684 146.323 74.0338C145.323 78.2881 147.8 83.0675 150.437 86.2449C153.533 89.9751 163.351 94.639 163.358 94.6429Z" fill="black"/>
<path opacity="0.3" d="M109.68 188.722C110.714 190.642 111.755 192.563 112.671 194.471C113.267 195.788 113.932 197.015 114.457 198.37C115.005 199.701 115.547 201.019 116.085 202.324C117.026 204.876 118.015 207.503 118.871 210.016C119.481 211.758 120.029 213.43 120.586 215.113C119.47 213.276 117.208 209.726 116.985 209.452C113.512 205.151 104.271 198.884 98.4944 201.111C94.3335 202.715 92.9651 207.586 94.8991 211.403C96.8741 215.302 101.846 217.365 105.91 218.098C110.384 218.904 119.798 216.562 120.972 216.261C121.884 219.048 122.745 221.769 123.517 224.349C124.898 228.93 126.066 233.129 127.049 236.856H131.158C130.022 232.857 128.655 228.286 127.018 223.254C126.103 220.419 125.068 217.408 123.977 214.327C124.662 213.956 128.542 211.823 131.914 209.375C135.465 212.408 144.002 215.437 145.106 215.821C144.329 218.649 143.546 221.393 142.766 223.97C141.328 228.764 139.924 233.084 138.641 236.856H142.793C143.9 233.312 145.083 229.355 146.29 224.988C147.091 222.119 147.89 219.038 148.679 215.865C149.864 215.969 159.554 216.766 163.846 215.246C167.737 213.867 172.311 211.029 173.631 206.863C174.924 202.783 172.788 198.196 168.422 197.286C162.362 196.021 154.254 203.696 151.52 208.501C151.358 208.784 149.952 212.055 149.099 214.134C149.414 212.836 149.736 211.579 150.044 210.239C150.673 207.595 151.223 204.936 151.824 202.077C152.066 200.687 152.31 199.282 152.557 197.864C152.832 196.463 152.944 194.947 153.146 193.476C153.542 190.055 153.778 186.567 153.938 183.05C156.256 183.594 164.515 185.41 168.59 184.633C172.644 183.859 177.597 181.747 179.532 177.829C181.427 173.992 180.012 169.135 175.834 167.572C170.035 165.404 160.858 171.764 157.428 176.098C157.213 176.368 155.102 179.755 153.977 181.639C154.057 179.523 154.146 177.412 154.157 175.27C154.189 169.084 154.029 162.823 153.897 156.576C153.855 154.661 153.837 152.756 153.811 150.846C154.633 151.049 164.404 153.42 168.967 152.549C173.023 151.776 177.975 149.663 179.911 145.745C181.806 141.908 180.39 137.051 176.212 135.489C170.413 133.321 161.236 139.68 157.806 144.014C157.547 144.341 154.516 149.219 153.805 150.497C153.751 146.293 153.734 142.102 153.887 137.97C154.089 132.268 154.602 126.685 155.5 121.314C155.883 121.41 166.069 123.93 170.743 123.039C174.799 122.265 179.751 120.153 181.686 116.234C183.581 112.398 182.166 107.54 177.988 105.978C172.189 103.81 163.012 110.169 159.582 114.504C159.357 114.788 157.044 118.501 155.985 120.294C155.802 120.225 155.835 120.238 155.653 120.169C156.684 114.427 158.406 108.994 160.268 103.987C161.341 101.086 162.529 98.3722 163.745 95.7579C165.594 96.4213 174.077 99.3621 178.372 99.0252C182.488 98.7016 187.642 97.146 189.997 93.4648C192.302 89.8591 191.427 84.8751 187.447 82.864C181.921 80.0719 172.101 85.3849 168.216 89.3162C168.005 89.5305 166.097 91.9418 164.732 93.7177C165.299 92.5464 165.862 91.3272 166.427 90.2147C168.538 86.0365 170.728 82.3409 172.695 79.0829C173.829 77.2398 174.89 75.5948 175.898 74.0669C178.053 73.7719 186.72 72.4732 190.311 70.2359C193.814 68.0524 197.672 64.2965 198.065 59.9439C198.448 55.6817 195.376 51.662 190.916 51.7114C184.727 51.7801 178.459 61.0198 176.822 66.3002C176.682 66.7566 175.289 74.1469 175.401 74.1326C175.401 74.1326 175.506 74.1182 175.531 74.1148C174.53 75.5662 173.475 77.1326 172.355 78.869C170.314 82.0904 168.037 85.749 165.826 89.8981C163.607 94.0378 161.311 98.5994 159.329 103.621C157.334 108.652 155.492 114.046 154.314 119.849C154.3 119.915 154.295 119.986 154.282 120.051C154.1 118.247 153.421 113.218 153.324 112.837C151.972 107.478 146.207 97.9162 140.029 97.517C135.579 97.2305 132.296 101.081 132.452 105.357C132.613 109.724 136.263 113.681 139.646 116.048C143.461 118.719 153.387 120.564 154.178 120.708C153.106 126.245 152.456 132.014 152.12 137.889C151.923 141.247 151.83 144.636 151.78 148.035C151.573 146.48 151.375 145.091 151.326 144.9C149.973 139.54 144.209 129.978 138.031 129.579C133.58 129.292 130.298 133.142 130.454 137.419C130.614 141.786 134.265 145.742 137.647 148.11C141.08 150.512 149.511 152.255 151.749 152.687C151.744 153.991 151.723 155.293 151.723 156.597C151.719 162.853 151.743 169.098 151.578 175.222C151.521 177.382 151.386 179.505 151.258 181.63C151.071 180.249 150.903 179.087 150.859 178.913C149.506 173.553 143.742 163.992 137.564 163.593C133.113 163.305 129.83 167.156 129.987 171.433C130.147 175.799 133.799 179.756 137.181 182.123C140.456 184.417 148.224 186.095 150.881 186.62C150.684 188.792 150.491 190.968 150.203 193.065C149.974 194.492 149.852 195.882 149.542 197.303C149.265 198.715 148.99 200.113 148.718 201.498C148.096 204.146 147.472 206.883 146.8 209.451C146.346 211.241 145.882 212.938 145.418 214.649C145.5 212.5 145.571 208.292 145.538 207.94C145.188 204.284 143.189 198.509 140.116 194.649C140.067 194.108 139.972 193.575 139.824 193.052C138.651 188.937 134.339 186.289 130.194 187.938C124.442 190.226 121.914 201.101 122.284 206.616C122.306 206.941 122.937 210.445 123.372 212.65C122.919 211.392 122.494 210.168 122.012 208.879C121.077 206.326 120.069 203.806 118.994 201.09C118.429 199.797 117.857 198.491 117.28 197.172C116.737 195.851 115.994 194.526 115.352 193.187C113.794 190.114 112.068 187.076 110.26 184.053C112.493 183.229 120.384 180.187 123.353 177.291C126.309 174.409 129.274 169.915 128.727 165.58C128.191 161.334 124.332 158.064 119.984 159.065C113.952 160.456 109.806 170.822 109.336 176.33C109.307 176.674 109.414 180.664 109.515 182.855C108.413 181.047 107.325 179.236 106.152 177.444C102.766 172.268 99.1781 167.134 95.6218 161.995C94.5311 160.422 93.4645 158.842 92.3891 157.264C93.1869 156.979 102.645 153.566 105.97 150.323C108.926 147.44 111.891 142.946 111.344 138.61C110.808 134.365 106.948 131.095 102.602 132.097C96.5688 133.488 92.4227 143.854 91.9529 149.362C91.9178 149.777 92.0803 155.518 92.193 156.975C89.8277 153.499 87.5024 150.013 85.3501 146.482C82.3732 141.615 79.7219 136.676 77.5073 131.7C77.8793 131.568 87.7657 128.051 91.1724 124.729C94.1284 121.847 97.0929 117.353 96.5461 113.017C96.0101 108.772 92.1495 105.502 87.8038 106.504C81.771 107.895 77.6244 118.261 77.1551 123.768C77.1235 124.13 77.243 128.507 77.3492 130.585C77.16 130.629 77.1946 130.62 77.0049 130.664C74.696 125.305 73.1349 119.823 71.9261 114.618C71.2202 111.606 70.7133 108.687 70.285 105.836C72.1939 105.371 80.8917 103.143 84.288 100.492C87.5429 97.9518 90.9831 93.8111 90.916 89.4416C90.8493 85.1631 87.371 81.4877 82.9413 82.0069C76.793 82.7262 71.5339 92.5751 70.4614 97.9977C70.4026 98.2921 70.1423 101.356 69.9832 103.59C69.8098 102.301 69.6068 100.973 69.465 99.7341C68.9201 95.0846 68.7082 90.7932 68.5511 86.9909C68.479 84.8282 68.4582 82.8714 68.4562 81.0402C70.0904 79.6051 76.6028 73.7413 78.3634 69.8945C80.0811 66.1401 81.2262 60.8795 79.1528 57.0328C77.122 53.266 72.3416 51.6076 68.6489 54.1088C63.5237 57.5811 63.3942 68.7445 64.9414 74.052C65.0758 74.5105 67.9914 81.4428 68.0779 81.3687C68.0779 81.3687 68.1574 81.299 68.1762 81.2822C68.1416 83.0443 68.1263 84.9349 68.15 86.9993C68.2241 90.812 68.3431 95.1206 68.7887 99.8003C69.2215 104.477 69.8231 109.548 70.9401 114.83C72.0521 120.127 73.4911 125.642 75.7097 131.133C75.7353 131.195 75.7689 131.256 75.7941 131.318C74.6466 129.914 71.3061 126.094 71.0171 125.83C66.9318 122.105 56.8487 117.311 51.4765 120.386C47.6055 122.602 46.9915 127.624 49.4817 131.105C52.0243 134.659 57.2518 135.945 61.3792 136.053C66.0337 136.176 75.3313 132.239 76.0703 131.923C78.231 137.132 80.8715 142.303 83.832 147.388C85.521 150.297 87.3127 153.176 89.146 156.038C88.1145 154.855 87.1838 153.806 87.0381 153.673C82.9522 149.949 72.8692 145.154 67.4974 148.23C63.6259 150.445 63.0129 155.467 65.5026 158.947C68.0447 162.502 73.2727 163.788 77.4001 163.897C81.5882 164.007 89.5827 160.81 91.6871 159.935C92.4019 161.026 93.1029 162.123 93.8217 163.211C97.2708 168.432 100.735 173.627 103.976 178.827C105.12 180.658 106.178 182.504 107.245 184.347C106.326 183.299 105.546 182.423 105.413 182.301C101.328 178.577 91.245 173.782 85.8727 176.857C82.0022 179.073 81.3882 184.096 83.8779 187.576C86.4206 191.131 91.6476 192.416 95.7754 192.525C99.7699 192.634 107.175 189.748 109.68 188.722Z" fill="black"/>
</g>
<path d="M59.1873 24.8564C59.1873 24.8564 56.7568 18.6063 48.0758 17.9117C39.3947 17.2171 38.3539 26.5928 36.6175 27.9814C34.8815 29.3705 31.4092 25.5509 27.9369 26.9396C24.4646 28.3287 23.0759 31.4537 23.0759 31.4537C23.0759 31.4537 19.9509 30.0646 17.8677 30.4119C15.7845 30.7592 13.3535 33.8842 13.3535 33.8842H72.0348C72.0348 33.8842 72.0348 27.9814 67.8679 25.8977C63.701 23.8145 61.9651 28.3282 60.9232 27.9809C59.8814 27.6336 59.1873 24.8564 59.1873 24.8564Z" stroke="#263238" stroke-miterlimit="10"/>
<path d="M227.492 70.9268C227.492 70.9268 225.425 65.6103 218.04 65.0195C210.656 64.4287 209.77 72.4038 208.293 73.585C206.817 74.7666 203.862 71.5176 200.909 72.6987C197.955 73.8804 196.773 76.5386 196.773 76.5386C196.773 76.5386 194.115 75.357 192.343 75.6524C190.571 75.9478 188.503 78.606 188.503 78.606H238.42C238.42 78.606 238.42 73.585 234.875 71.8125C231.331 70.04 229.854 73.8799 228.968 73.5845C228.082 73.2891 227.492 70.9268 227.492 70.9268Z" stroke="#263238" stroke-miterlimit="10"/>
<path d="M63.0708 168.494C63.0708 168.494 60.1587 161.005 49.7575 160.173C39.3568 159.341 38.1085 170.574 36.0283 172.238C33.948 173.902 29.7876 169.326 25.6276 170.989C21.4671 172.654 19.8028 176.398 19.8028 176.398C19.8028 176.398 16.0583 174.734 13.5621 175.149C11.0659 175.565 8.15381 179.31 8.15381 179.31H78.4638C78.4638 179.31 78.4638 172.237 73.4715 169.741C68.4791 167.245 66.3989 172.653 65.1505 172.237C63.9032 171.822 63.0708 168.494 63.0708 168.494Z" stroke="#263238" stroke-miterlimit="10"/>
<path d="M214.054 146.246C226.947 146.246 237.399 135.793 237.399 122.9C237.399 110.007 226.947 99.5547 214.054 99.5547C201.161 99.5547 190.708 110.007 190.708 122.9C190.708 135.793 201.161 146.246 214.054 146.246Z" stroke="#263238" stroke-miterlimit="10"/>
<path d="M214.054 146.246C221.467 146.246 227.476 135.793 227.476 122.9C227.476 110.007 221.467 99.5547 214.054 99.5547C206.641 99.5547 200.632 110.007 200.632 122.9C200.632 135.793 206.641 146.246 214.054 146.246Z" stroke="#263238" stroke-miterlimit="10"/>
<path d="M214.054 99.5547V146.246" stroke="#263238" stroke-miterlimit="10"/>
<path d="M200.352 104.094H227.616" stroke="#263238" stroke-miterlimit="10"/>
<path d="M200.352 141.984H227.616" stroke="#263238" stroke-miterlimit="10"/>
<path d="M192.496 113.414H235.471" stroke="#263238" stroke-miterlimit="10"/>
<path d="M192.496 132.051H235.471" stroke="#263238" stroke-miterlimit="10"/>
<path d="M190.802 122.73H237.166" stroke="#263238" stroke-miterlimit="10"/>
<path d="M209.238 31.9758H154.558C152.655 31.9758 151.113 30.433 151.113 28.5301V22.4574C151.113 20.5545 152.656 19.0117 154.558 19.0117H209.238C211.141 19.0117 212.683 20.5545 212.683 22.4574V28.5306C212.683 30.433 211.141 31.9758 209.238 31.9758Z" stroke="#263238" stroke-miterlimit="10"/>
<path d="M197.674 18.9688V32.2282" stroke="#263238" stroke-miterlimit="10"/>
<path d="M211.26 29.2144L207.725 26.5631C208.019 25.9886 208.189 25.3395 208.189 24.6508C208.189 22.3275 206.299 20.4375 203.976 20.4375C201.652 20.4375 199.762 22.3275 199.762 24.6508C199.762 26.9741 201.652 28.8646 203.976 28.8646C205.076 28.8646 206.077 28.4368 206.828 27.7433L210.37 30.4005C210.504 30.5003 210.66 30.5487 210.814 30.5487C211.04 30.5487 211.262 30.4464 211.408 30.2523C211.653 29.9248 211.587 29.4604 211.26 29.2144ZM203.975 27.3826C202.469 27.3826 201.244 26.1575 201.244 24.6508C201.244 23.1446 202.469 21.9195 203.975 21.9195C205.481 21.9195 206.706 23.1446 206.706 24.6508C206.707 26.1575 205.481 27.3826 203.975 27.3826Z" stroke="#263238" stroke-miterlimit="10"/>
<path d="M52.8371 79.4537L38.8544 68.9661C40.0183 66.6927 40.6886 64.1263 40.6886 61.4019C40.6886 52.2111 33.2114 44.7344 24.0211 44.7344C14.8302 44.7344 7.35352 52.2111 7.35352 61.4019C7.35352 70.5928 14.8307 78.0705 24.0211 78.0705C28.3757 78.0705 32.3326 76.378 35.305 73.6339L49.3183 84.1447C49.8469 84.5399 50.4634 84.7306 51.076 84.7306C51.9671 84.7306 52.847 84.326 53.4235 83.5578C54.3942 82.2626 54.1309 80.4259 52.8371 79.4537ZM24.0206 72.2077C18.0624 72.2077 13.2153 67.3606 13.2153 61.4014C13.2153 55.4433 18.0624 50.5962 24.0206 50.5962C29.9782 50.5962 34.8258 55.4433 34.8258 61.4014C34.8258 67.3601 29.9787 72.2077 24.0206 72.2077Z" stroke="#263238" stroke-miterlimit="10"/>
<path d="M121.977 95.957C95.2272 95.957 72.5294 111.108 64.4974 132.127C64.3472 132.519 64.4777 132.965 64.8106 133.221L87.3039 150.514C87.4704 150.642 87.6744 150.711 87.8844 150.711H91.4886C92.032 150.711 92.4608 150.258 92.4381 149.716C92.4267 149.449 92.4203 149.182 92.4203 148.913C92.4203 134.647 105.653 123.081 121.977 123.081C138.301 123.081 151.533 134.647 151.533 148.913C151.533 163.18 138.301 174.746 121.977 174.746C119.4 174.746 116.903 174.452 114.52 173.91C114.294 173.858 114.062 173.831 113.83 173.831C111.611 173.831 110.077 176.049 110.86 178.125L114.143 186.829V206.777H150.251V198.53C150.251 196.883 151.155 195.356 152.621 194.603C170.538 185.405 182.567 168.388 182.567 148.914C182.568 119.667 155.44 95.957 121.977 95.957Z" fill="#263238" stroke="#263238" stroke-miterlimit="10"/>
<path d="M150.251 210.684H114.144V236.854H150.251V210.684Z" fill="#263238" stroke="#263238" stroke-miterlimit="10"/>
<path d="M177.629 148.913C177.629 119.666 150.501 95.957 117.038 95.957C90.3155 95.957 67.6369 111.077 59.5832 132.063C59.4212 132.484 59.5847 132.964 59.9666 133.206L86.0216 149.735C86.6549 150.137 87.4819 149.682 87.4819 148.932V148.914C87.4819 134.647 100.715 123.082 117.038 123.082C133.362 123.082 146.595 134.647 146.595 148.914C146.595 163.181 133.362 174.746 117.038 174.746C115.611 174.746 114.208 174.656 112.835 174.483C110.93 174.244 109.242 175.706 109.242 177.627V186.829H109.206V206.777H145.313V198.53C145.313 196.883 146.218 195.356 147.683 194.604C165.599 185.404 177.629 168.388 177.629 148.913Z" fill="#00DBB1" stroke="#263238" stroke-miterlimit="10"/>
<path d="M145.312 210.684H109.205V236.854H145.312V210.684Z" fill="#00DBB1" stroke="#263238" stroke-miterlimit="10"/>
<path d="M113.865 44.8516C113.865 44.8516 110.299 46.4116 108.694 47.1694C107.089 47.9272 105.841 48.2394 105.841 48.2394L108.561 49.6661L116.228 48.4627L113.865 44.8516Z" fill="white" stroke="#263238" stroke-miterlimit="10"/>
<path d="M102.498 46.5036C102.498 46.5036 101.651 45.7014 101.295 44.8541C100.938 44.0069 100.225 44.4086 100.225 45.0325C100.225 45.6564 100.626 46.6375 100.804 46.7264C100.982 46.8153 102.855 47.1275 102.855 47.1275L102.498 46.5036Z" stroke="#263238" stroke-miterlimit="10"/>
<path d="M115.289 50.2817L116.044 54.5598C116.044 54.5598 114.557 63.0531 114.274 67.9363C113.991 72.82 113.779 76.0048 114.062 77.2788C114.345 78.5529 118.025 90.9389 118.025 90.9389C118.025 90.9389 117.389 91.7175 117.389 91.9299C117.389 92.1423 117.318 92.9208 117.318 92.9208C117.318 92.9208 116.327 93.9118 115.548 94.4779C114.77 95.0441 113.142 95.5395 113.425 96.1057C113.708 96.6718 115.619 96.1057 117.743 96.1057C119.866 96.1057 121.352 96.3887 122.131 95.8226C122.91 95.2565 122.202 93.1333 122.202 93.1333C122.202 93.1333 122.272 91.6468 122.343 91.2225C122.414 90.7976 121.423 88.6038 121.494 87.967C121.565 87.3302 119.795 74.59 119.795 74.59L123.334 61.4965C123.334 61.4965 129.138 76.2182 129.846 76.9256C130.554 77.6335 140.109 89.8072 140.109 89.8072C140.109 89.8072 139.472 90.5151 139.684 90.8688C139.896 91.2225 140.25 91.6473 140.25 91.6473C140.25 91.6473 139.542 93.1338 139.118 93.7705C138.693 94.4078 137.49 94.7615 137.702 95.1858C137.914 95.6107 140.108 95.6813 140.675 95.5395C141.241 95.3983 143.506 92.9208 144.143 92.4254C144.779 91.9299 145.983 91.01 145.983 90.3728C145.983 89.736 144.779 88.9575 144.709 88.7451C144.638 88.5326 144.496 87.6128 144.072 87.3298C143.647 87.0467 143.081 86.7636 142.798 86.6219C142.515 86.4801 135.437 74.1651 135.437 74.1651C135.437 74.1651 132.253 55.197 131.403 53.0032C130.554 50.8093 125.727 44.5039 125.727 44.5039L115.289 50.2817Z" fill="#263238" stroke="#263238" stroke-miterlimit="10"/>
<path d="M107.585 38.5398C107.585 38.5398 108.517 42.8267 109.697 43.9451C110.878 45.0635 113.239 45.3743 113.239 45.3743L115.289 50.2827C115.289 50.2827 122.745 47.9836 125.727 44.5043C125.727 44.5043 122.248 38.9745 119.701 35.433C117.153 31.8915 118.21 31.2701 114.606 29.1577C111.002 27.0454 108.082 29.9654 108.082 29.9654C108.082 29.9654 105.348 30.0899 107.585 38.5398Z" fill="#00DBB1" stroke="#263238" stroke-miterlimit="10"/>
<path d="M103.182 17.9157C103.182 17.9157 102.455 16.4416 97.7324 17.187C93.0103 17.9325 91.7679 21.7225 91.5816 23.2138C91.3954 24.7047 91.5634 24.6257 91.1281 24.9987C90.6934 25.3716 88.6428 25.1227 89.0158 27.2973C89.3888 29.4718 91.9358 28.2294 92.3088 28.9749C92.6818 29.7203 93.241 30.2173 94.2971 30.2795C95.3533 30.3418 96.3473 29.0989 96.4717 28.6019C96.5957 28.1049 97.6524 27.6697 99.5163 28.7881C101.38 29.9066 103.865 31.8944 106.475 29.7198C109.085 27.5462 105.667 19.8418 103.182 17.9157Z" fill="#263238" stroke="#263238" stroke-miterlimit="10"/>
<path d="M93.4219 27.187C93.4219 27.187 93.8131 28.4734 94.2049 29.1442C94.5961 29.8151 96.05 30.4306 96.1063 31.4369C96.1621 32.4432 95.8267 33.1145 96.1063 33.282C96.3859 33.4499 97.7281 33.0582 97.7281 33.0582C97.7281 33.0582 100.692 35.0154 101.419 34.7358C102.145 34.4562 103.543 32.499 103.543 32.499L106.715 34.7516L107.585 38.5416L108.704 36.74C108.704 36.74 106.591 34.1924 107.337 32.0801C108.082 29.9677 108.082 29.9677 108.082 29.9677C108.082 29.9677 103.32 29.3117 102.705 28.5287C102.09 27.7457 100.972 25.789 99.9654 25.5094C98.9586 25.2298 98.5674 26.6278 98.679 26.9632C98.7907 27.2986 97.0014 27.2428 95.883 26.7953C94.7646 26.3477 95.0442 26.4598 94.7646 26.3477C94.4845 26.2361 93.4219 26.6836 93.4219 27.187Z" fill="white" stroke="#263238" stroke-miterlimit="10"/>
<path d="M95.5472 29.4778C95.5472 29.4778 95.4913 28.4715 96.3302 28.3594" stroke="#263238" stroke-miterlimit="10"/>
<path d="M97.0813 29.8188C97.3555 30.0441 97.4667 30.3627 97.3298 30.5297C97.1925 30.6966 96.859 30.6492 96.5844 30.4239C96.3102 30.1987 96.1991 29.8801 96.3359 29.7131C96.4737 29.5461 96.8072 29.5935 97.0813 29.8188Z" fill="#263238"/>
<path d="M99.1821 33.1145C99.1821 33.1145 99.5176 32.8907 99.238 31.9961" stroke="#263238" stroke-miterlimit="10"/>
<path d="M101.53 26.8516C101.53 26.8516 102.313 27.6904 102.034 28.1379C101.754 28.5855 101.475 28.753 101.475 28.753C101.475 28.753 102.201 29.4801 102.258 29.9272" fill="white"/>
<path d="M101.53 26.8516C101.53 26.8516 102.313 27.6904 102.034 28.1379C101.754 28.5855 101.475 28.753 101.475 28.753C101.475 28.753 102.201 29.4801 102.258 29.9272" stroke="#263238" stroke-miterlimit="10"/>
<path d="M99.1689 24.6289C99.1689 24.6289 101.928 26.4305 103.382 28.6777C104.836 30.9254 108.991 30.8069 110.458 29.5694C111.924 28.3319 112.197 27.1389 113.329 27.4234C114.462 27.708 117.175 28.6318 118.947 27.335C120.719 26.0378 119.388 23.4497 121.19 23.9195C122.992 24.3893 125.163 23.837 126.376 21.9529C127.589 20.0688 128.522 16.8459 125.119 12.639C122.491 9.38998 118.603 10.2352 117.433 10.4012C116.263 10.5672 116.646 9.27734 112.825 9.27734C108.885 9.27734 107.013 12.6444 106.753 13.5816C106.494 14.5187 107.562 15.1574 104.508 14.1101C101.453 13.0629 99.9569 14.2243 100.012 15.7962C100.067 17.3681 96.612 17.9031 95.9653 18.1565" fill="#263238"/>
<path d="M99.1689 24.6289C99.1689 24.6289 101.928 26.4305 103.382 28.6777C104.836 30.9254 108.991 30.8069 110.458 29.5694C111.924 28.3319 112.197 27.1389 113.329 27.4234C114.462 27.708 117.175 28.6318 118.947 27.335C120.719 26.0378 119.388 23.4497 121.19 23.9195C122.992 24.3893 125.163 23.837 126.376 21.9529C127.589 20.0688 128.522 16.8459 125.119 12.639C122.491 9.38998 118.603 10.2352 117.433 10.4012C116.263 10.5672 116.646 9.27734 112.825 9.27734C108.885 9.27734 107.013 12.6444 106.753 13.5816C106.494 14.5187 107.562 15.1574 104.508 14.1101C101.453 13.0629 99.9569 14.2243 100.012 15.7962C100.067 17.3681 96.612 17.9031 95.9653 18.1565" stroke="#263238" stroke-miterlimit="10"/>
<path d="M134.442 57.0037C134.301 57.0037 134.157 56.9869 134.014 56.9518L95.632 47.0501C94.9571 46.8851 94.5442 46.2044 94.7092 45.5296C94.8742 44.8548 95.5549 44.4413 96.2297 44.6068L134.868 53.4612C135.832 53.6969 136.422 54.6696 136.186 55.6334C135.985 56.4539 135.25 57.0037 134.442 57.0037Z" fill="#8F8F8F" stroke="#263238" stroke-miterlimit="10"/>
<path d="M118.458 50.3441L117.277 51.2141C117.277 51.2141 116.718 52.1462 116.283 52.457C115.848 52.7677 115.6 52.9539 116.035 53.1402C116.469 53.3264 117.525 52.8917 117.525 52.8917C117.525 52.8917 117.152 54.5071 117.463 54.6316C117.774 54.7556 118.457 54.8178 118.644 54.5693C118.831 54.3208 119.141 54.1963 119.141 54.1963C119.141 54.1963 119.327 54.4448 120.445 54.1341C121.564 53.8234 121.626 51.8973 121.75 51.0273C121.874 50.1574 126.845 39.2227 127.155 37.7936C127.466 36.3644 127.155 35.4945 126.721 35.246C126.286 34.9975 113.859 31.1453 112.369 31.0208C110.878 30.8968 109.262 33.0092 110.132 35.0593C111.002 37.1094 114.481 37.7931 115.413 37.9171C116.345 38.0416 121.812 38.7248 121.812 38.7248C121.812 38.7248 120.694 44.3786 120.445 46.4292C120.197 48.4803 119.203 49.7849 118.458 50.3441Z" fill="white" stroke="#263238" stroke-miterlimit="10"/>
<path d="M100.581 47.4376C100.581 47.4376 100.358 49.0426 100.447 49.2654C100.536 49.4882 101.249 49.8894 101.428 49.221C101.606 48.5521 101.651 47.4376 101.339 47.2593C101.027 47.081 100.848 46.9921 100.581 47.4376Z" fill="white" stroke="#263238" stroke-miterlimit="10"/>
<path d="M101.743 48.1212C101.743 48.1212 101.848 49.738 101.98 49.9381C102.113 50.1387 102.892 50.3876 102.932 49.6965C102.972 49.0059 102.79 47.9053 102.449 47.7932C102.107 47.682 101.915 47.6306 101.743 48.1212Z" fill="white" stroke="#263238" stroke-miterlimit="10"/>
<path d="M102.901 48.297C102.901 48.297 103.007 49.9138 103.139 50.1139C103.271 50.314 104.051 50.5634 104.09 49.8723C104.13 49.1812 103.949 48.0811 103.608 47.9689C103.266 47.8578 103.074 47.8064 102.901 48.297Z" fill="white" stroke="#263238" stroke-miterlimit="10"/>
<path d="M104.174 48.5379C104.174 48.5379 104.263 49.9137 104.376 50.0841C104.489 50.2545 105.152 50.4664 105.186 49.8786C105.219 49.2907 105.065 48.3541 104.775 48.2588C104.484 48.1639 104.32 48.1204 104.174 48.5379Z" fill="white" stroke="#263238" stroke-miterlimit="10"/>
<path d="M97.0165 47.5452L97.1257 45.422L95.6412 43.2286C94.675 40.5373 88.4051 38.2461 83.9468 37.1524C79.4884 36.0587 74.2155 36.7962 71.8981 37.9739C69.5803 39.1516 69.0463 39.861 69.0463 39.861L68.9015 42.6778C68.2682 45.8755 74.0406 49.7129 81.7944 51.2482C89.5482 52.7836 96.3477 51.4359 96.9805 48.2383C97.0264 48.011 97.0353 47.7789 97.0165 47.5452ZM90.3105 47.9019C85.7612 48.5806 81.6087 48.0792 77.9916 46.5004C75.2593 45.3079 72.648 43.4104 71.533 42.5528C72.4983 40.3264 77.8261 39.4821 83.8875 40.6825C89.6283 41.8192 94.0555 44.4004 94.5465 46.7321C93.8075 47.1144 92.5246 47.5714 90.3105 47.9019Z" fill="#8F8F8F" stroke="#263238" stroke-miterlimit="10"/>
<path d="M84.2326 36.853C76.4788 35.3177 69.6798 36.6653 69.0465 39.863C68.4132 43.0606 74.1856 46.8975 81.9394 48.4334C89.6933 49.9687 96.4922 48.6211 97.1255 45.4234C97.7588 42.2253 91.9864 38.3884 84.2326 36.853ZM94.7138 44.7037C94.2168 47.2132 88.6287 48.2205 82.2324 46.9539C75.8361 45.6872 71.0532 42.6264 71.5501 40.1169C72.0471 37.6074 77.6352 36.6001 84.0315 37.8667C90.4283 39.1333 95.2108 42.1942 94.7138 44.7037Z" fill="white" stroke="#263238" stroke-miterlimit="10"/>
<path d="M191.391 236.855H241.964" stroke="#263238" stroke-miterlimit="10"/>
<path d="M8.04883 236.855H187.325" stroke="#263238" stroke-miterlimit="10"/>
</svg>
