<svg width="111" height="38" viewBox="0 0 111 38" fill="none" xmlns="http://www.w3.org/2000/svg">
<path d="M36.3808 12.4854H31.022C30.6553 12.4854 30.3434 12.754 30.2862 13.1191L28.1189 26.9774C28.0758 27.2508 28.2858 27.4974 28.5608 27.4974H31.1192C31.4859 27.4974 31.7977 27.2287 31.8549 26.8628L32.4395 23.125C32.4959 22.7591 32.8085 22.4905 33.1744 22.4905H34.8708C38.4008 22.4905 40.438 20.7678 40.9701 17.354C41.2099 15.8604 40.9803 14.6869 40.2868 13.8651C39.5252 12.9627 38.1743 12.4854 36.3808 12.4854ZM36.999 17.5468C36.7059 19.486 35.2368 19.486 33.8162 19.486H33.0075L33.5748 15.8644C33.6085 15.6455 33.7966 15.4843 34.016 15.4843H34.3866C35.3543 15.4843 36.2671 15.4843 36.7389 16.0406C37.0202 16.3725 37.1063 16.8656 36.999 17.5468Z" fill="#253B80"/>
<path d="M52.3992 17.4843H49.8331C49.6144 17.4843 49.4256 17.6456 49.3919 17.8644L49.2783 18.5883L49.0989 18.3259C48.5433 17.5128 47.3045 17.241 46.0681 17.241C43.2323 17.241 40.8104 19.407 40.3387 22.4454C40.0934 23.9611 40.4421 25.4104 41.2946 26.4211C42.0766 27.3504 43.1955 27.7376 44.5268 27.7376C46.8117 27.7376 48.0787 26.2559 48.0787 26.2559L47.9643 26.975C47.9212 27.25 48.1312 27.4966 48.4046 27.4966H50.7161C51.0836 27.4966 51.3939 27.2279 51.4519 26.862L52.8388 18.0043C52.8827 17.7317 52.6735 17.4843 52.3992 17.4843ZM48.8223 22.5213C48.5747 23.9998 47.4111 24.9923 45.927 24.9923C45.1818 24.9923 44.5863 24.7513 44.204 24.2946C43.8247 23.841 43.6805 23.1953 43.8012 22.4762C44.0324 21.0104 45.2155 19.9854 46.6769 19.9854C47.4056 19.9854 47.998 20.2296 48.3882 20.6903C48.7792 21.1558 48.9343 21.8053 48.8223 22.5213Z" fill="#253B80"/>
<path d="M66.0661 17.4843H63.4874C63.2413 17.4843 63.0102 17.6076 62.8707 17.8138L59.3141 23.0973L57.8065 18.0201C57.7117 17.7024 57.421 17.4843 57.0919 17.4843H54.5579C54.25 17.4843 54.036 17.7878 54.134 18.0801L56.9744 26.4866L54.304 30.2884C54.094 30.5879 54.3056 30.9996 54.6684 30.9996H57.2439C57.4884 30.9996 57.7172 30.8795 57.8559 30.6772L66.4328 18.1916C66.6381 17.8929 66.4273 17.4843 66.0661 17.4843Z" fill="#253B80"/>
<path d="M74.8328 12.4862H69.441C69.0729 12.4862 68.7592 12.7519 68.7016 13.113L66.5213 26.8192C66.4779 27.0896 66.6892 27.3335 66.9643 27.3335H69.7311C69.9881 27.3335 70.208 27.1475 70.2482 26.8942L70.867 23.0091C70.9238 22.6472 71.2383 22.3815 71.6064 22.3815H73.3122C76.8642 22.3815 78.9129 20.6777 79.4489 17.3014C79.6909 15.8242 79.4584 14.6636 78.7608 13.8508C77.9954 12.9582 76.6372 12.4862 74.8328 12.4862ZM75.4548 17.4921C75.1607 19.41 73.6827 19.41 72.2528 19.41H71.4401L72.0116 15.8281C72.0455 15.6116 72.2331 15.4522 72.4546 15.4522H72.8275C73.8002 15.4522 74.7193 15.4522 75.1938 16.0024C75.4768 16.3307 75.5628 16.8184 75.4548 17.4921Z" fill="#179BD7"/>
<path d="M90.9467 17.4303H88.3667C88.1452 17.4303 87.9568 17.5898 87.9237 17.8063L87.8094 18.5222L87.6281 18.2627C87.0692 17.4585 85.8237 17.1896 84.5798 17.1896C81.7271 17.1896 79.2913 19.3319 78.8168 22.337C78.5708 23.836 78.9201 25.2694 79.7777 26.269C80.566 27.1881 81.69 27.5711 83.0293 27.5711C85.3279 27.5711 86.6025 26.1056 86.6025 26.1056L86.4875 26.8169C86.4441 27.0888 86.6554 27.3327 86.932 27.3327H89.2567C89.6248 27.3327 89.9385 27.067 89.996 26.7051L91.3921 17.9446C91.4346 17.675 91.2234 17.4303 90.9467 17.4303ZM87.3482 22.412C87.1007 23.8743 85.9286 24.8559 84.4356 24.8559C83.6875 24.8559 83.0869 24.6176 82.7022 24.1658C82.3207 23.7172 82.1772 23.0787 82.297 22.3674C82.5311 20.9176 83.7198 19.904 85.19 19.904C85.923 19.904 86.519 20.1455 86.9115 20.6011C87.3065 21.0615 87.4625 21.7039 87.3482 22.412Z" fill="#179BD7"/>
<path d="M93.9902 12.8621L91.7775 26.8192C91.7341 27.0896 91.9454 27.3334 92.2205 27.3334H94.445C94.8147 27.3334 95.1284 27.0677 95.1852 26.7058L97.3671 13.0004C97.4105 12.73 97.1992 12.4854 96.9241 12.4854H94.4332C94.2132 12.4861 94.0241 12.6456 93.9902 12.8621Z" fill="#179BD7"/>
<path d="M5.5782 30.3141L5.99042 27.6418L5.07218 27.6201H0.6875L3.73463 7.90113C3.74409 7.84161 3.77483 7.7861 3.81975 7.74668C3.86468 7.70727 3.92222 7.68555 3.98212 7.68555H11.3753C13.8297 7.68555 15.5235 8.20682 16.4079 9.23568C16.8225 9.71834 17.0865 10.2227 17.2142 10.7778C17.3482 11.3602 17.3505 12.056 17.2197 12.9047L17.2102 12.9666V13.5104L17.6248 13.7501C17.974 13.9392 18.2514 14.1556 18.4642 14.4033C18.8189 14.816 19.0483 15.3405 19.1452 15.9623C19.2453 16.6018 19.2122 17.3628 19.0483 18.2244C18.8591 19.2154 18.5533 20.0786 18.1403 20.7849C17.7604 21.4356 17.2765 21.9754 16.7019 22.3937C16.1533 22.7911 15.5015 23.0928 14.7645 23.2858C14.0504 23.4757 13.2362 23.5714 12.3432 23.5714H11.7678C11.3564 23.5714 10.9568 23.7226 10.6431 23.9937C10.3286 24.2704 10.1205 24.6485 10.0567 25.062L10.0133 25.3025L9.28503 30.0125L9.25193 30.1854C9.24326 30.2401 9.22829 30.2675 9.20622 30.286C9.18651 30.3029 9.15814 30.3141 9.13055 30.3141H5.5782Z" fill="#253B80"/>
<path d="M17.9192 13.1719C17.8974 13.3136 17.8725 13.4586 17.8445 13.6075C16.882 18.6377 13.5891 20.3754 9.3835 20.3754H7.24218C6.72786 20.3754 6.29446 20.7556 6.21432 21.272L5.11798 28.3495L4.80752 30.3557C4.75539 30.6947 5.01216 31.0004 5.3483 31.0004H9.14618C9.59592 31.0004 9.97796 30.6678 10.0488 30.2163L10.0861 30.0199L10.8012 25.4008L10.8471 25.1474C10.9171 24.6943 11.2999 24.3617 11.7497 24.3617H12.3177C15.9973 24.3617 18.8778 22.841 19.7197 18.4405C20.0714 16.6022 19.8893 15.0672 18.9587 13.9877C18.6771 13.6621 18.3277 13.3921 17.9192 13.1719Z" fill="#179BD7"/>
<path d="M16.8263 12.8392C16.6798 12.7953 16.5287 12.7555 16.3737 12.7196C16.218 12.6846 16.0583 12.6535 15.894 12.6264C15.319 12.5308 14.689 12.4854 14.0141 12.4854H8.31686C8.1766 12.4854 8.04331 12.518 7.92397 12.577C7.66127 12.7069 7.46599 12.9627 7.41872 13.2758L6.20675 21.1693L6.17188 21.3996C6.25169 20.8801 6.68332 20.4976 7.19555 20.4976H9.32813C13.5166 20.4976 16.796 18.7485 17.7546 13.6886C17.7833 13.5388 17.8073 13.393 17.829 13.2503C17.5865 13.118 17.3238 13.0049 17.0409 12.9085C16.9712 12.8846 16.8991 12.8615 16.8263 12.8392Z" fill="#222D65"/>
<path d="M7.67752 13.0998C7.72623 12.7885 7.92747 12.5341 8.19819 12.4058C8.32197 12.3472 8.45853 12.3147 8.60307 12.3147H14.4742C15.1698 12.3147 15.819 12.3598 16.4116 12.4549C16.5809 12.4819 16.7454 12.5128 16.9059 12.5476C17.0656 12.5833 17.2213 12.6229 17.3723 12.6665C17.4473 12.6886 17.5216 12.7116 17.5943 12.7346C17.8857 12.8305 18.1565 12.9438 18.4064 13.0745C18.7003 11.215 18.404 9.9489 17.3906 8.80246C16.2734 7.54034 14.257 7 11.6768 7H4.18614C3.65908 7 3.20948 7.3803 3.12802 7.89766L0.00797685 27.5187C-0.0535136 27.907 0.248349 28.2571 0.642846 28.2571H5.26741L6.42854 20.9483L7.67752 13.0998Z" fill="#253B80"/>
</svg>
