<svg width="44" height="44" viewBox="0 0 44 44" fill="none" xmlns="http://www.w3.org/2000/svg">
<rect x="0.5" y="0.5" width="43" height="43" rx="21.5" stroke="#EBECF0"/>
<path d="M20.56 15.0875C20.647 15.2267 20.7057 15.3817 20.7328 15.5436C20.7599 15.7055 20.7549 15.8711 20.718 16.0311C20.6811 16.191 20.613 16.3421 20.5177 16.4758C20.4224 16.6094 20.3017 16.723 20.1625 16.81C18.6411 17.7576 17.4325 19.1323 16.6875 20.7625C17.4399 20.6996 18.1937 20.8652 18.8504 21.2378C19.507 21.6103 20.036 22.1724 20.368 22.8504C20.7 23.5285 20.8196 24.291 20.7111 25.0382C20.6027 25.7853 20.2712 26.4823 19.7601 27.038C19.249 27.5937 18.5821 27.9822 17.8466 28.1526C17.1111 28.3231 16.3413 28.2676 15.6379 27.9933C14.9345 27.7191 14.3302 27.2389 13.9042 26.6156C13.4781 25.9924 13.2501 25.255 13.25 24.5V24.4663C13.2514 24.3695 13.2555 24.2728 13.2625 24.1763C13.2737 23.9888 13.2963 23.7263 13.34 23.4038C13.4275 22.7625 13.5987 21.8788 13.945 20.8863C14.635 18.8988 16.0325 16.4425 18.8375 14.69C18.9767 14.603 19.1317 14.5443 19.2936 14.5172C19.4555 14.4901 19.6211 14.4951 19.7811 14.532C19.941 14.5689 20.0921 14.637 20.2258 14.7323C20.3594 14.8276 20.473 14.9483 20.56 15.0875ZM29.31 15.0875C29.397 15.2267 29.4557 15.3817 29.4828 15.5436C29.5099 15.7055 29.5049 15.8711 29.468 16.0311C29.4311 16.191 29.363 16.3421 29.2677 16.4758C29.1724 16.6094 29.0517 16.723 28.9125 16.81C27.3911 17.7576 26.1825 19.1323 25.4375 20.7625C26.1899 20.6996 26.9437 20.8652 27.6004 21.2378C28.257 21.6103 28.786 22.1724 29.118 22.8504C29.45 23.5285 29.5696 24.291 29.4611 25.0382C29.3526 25.7853 29.0212 26.4823 28.5101 27.038C27.999 27.5937 27.3321 27.9822 26.5966 28.1526C25.8611 28.3231 25.0913 28.2676 24.3879 27.9933C23.6845 27.7191 23.0802 27.2389 22.6542 26.6156C22.2281 25.9924 22.0001 25.255 22 24.5V24.4663C22.0014 24.3695 22.0055 24.2728 22.0125 24.1763C22.0238 23.9888 22.0462 23.7263 22.09 23.4038C22.1775 22.7625 22.3488 21.8788 22.695 20.8863C23.385 18.8988 24.7825 16.4425 27.5875 14.69C27.7267 14.603 27.8817 14.5443 28.0436 14.5172C28.2055 14.4901 28.3711 14.4951 28.5311 14.532C28.691 14.5689 28.8421 14.637 28.9758 14.7323C29.1094 14.8276 29.223 14.9483 29.31 15.0875Z" fill="#00DBB1"/>
</svg>
