<svg width="17" height="14" viewBox="0 0 17 14" fill="none" xmlns="http://www.w3.org/2000/svg">
<path d="M7.31 0.587503C7.397 0.726704 7.45573 0.881679 7.48284 1.04358C7.50995 1.20548 7.5049 1.37113 7.46799 1.53108C7.43108 1.69103 7.36303 1.84214 7.26772 1.97579C7.1724 2.10944 7.0517 2.223 6.9125 2.31C5.39112 3.25762 4.18251 4.63231 3.4375 6.2625C4.18986 6.19959 4.94369 6.36523 5.60036 6.73776C6.25704 7.1103 6.78598 7.67237 7.11797 8.35044C7.44997 9.02851 7.56956 9.791 7.46111 10.5382C7.35265 11.2853 7.0212 11.9823 6.51011 12.538C5.99902 13.0937 5.3321 13.4822 4.59661 13.6526C3.86112 13.8231 3.0913 13.7676 2.38789 13.4933C1.68447 13.2191 1.0802 12.7389 0.654154 12.1156C0.228104 11.4924 0.000109425 10.755 0 10V9.96625C0.00135926 9.86949 0.00552767 9.77278 0.0125 9.67625C0.02375 9.48875 0.04625 9.22625 0.09 8.90375C0.1775 8.2625 0.34875 7.37875 0.695 6.38625C1.385 4.39875 2.7825 1.9425 5.5875 0.190003C5.7267 0.103002 5.88168 0.044271 6.04357 0.0171626C6.20547 -0.00994579 6.37113 -0.00490029 6.53108 0.032011C6.69102 0.0689223 6.84214 0.136976 6.97578 0.232288C7.10943 0.3276 7.223 0.448302 7.31 0.587503ZM16.06 0.587503C16.147 0.726704 16.2057 0.881679 16.2328 1.04358C16.26 1.20548 16.2549 1.37113 16.218 1.53108C16.1811 1.69103 16.113 1.84214 16.0177 1.97579C15.9224 2.10944 15.8017 2.223 15.6625 2.31C14.1411 3.25762 12.9325 4.63231 12.1875 6.2625C12.9399 6.19959 13.6937 6.36523 14.3504 6.73776C15.007 7.1103 15.536 7.67237 15.868 8.35044C16.2 9.02851 16.3196 9.791 16.2111 10.5382C16.1026 11.2853 15.7712 11.9823 15.2601 12.538C14.749 13.0937 14.0821 13.4822 13.3466 13.6526C12.6111 13.8231 11.8413 13.7676 11.1379 13.4933C10.4345 13.2191 9.8302 12.7389 9.40415 12.1156C8.9781 11.4924 8.75011 10.755 8.75 10V9.96625C8.75136 9.86949 8.75553 9.77278 8.7625 9.67625C8.77375 9.48875 8.79625 9.22625 8.84 8.90375C8.9275 8.2625 9.09875 7.37875 9.445 6.38625C10.135 4.39875 11.5325 1.9425 14.3375 0.190003C14.4767 0.103002 14.6317 0.044271 14.7936 0.0171626C14.9555 -0.00994579 15.1211 -0.00490029 15.2811 0.032011C15.441 0.0689223 15.5921 0.136976 15.7258 0.232288C15.8594 0.3276 15.973 0.448302 16.06 0.587503Z" fill="#00DBB1" fill-opacity="0.2"/>
</svg>
