<svg width="50" height="20" viewBox="0 0 50 20" fill="none" xmlns="http://www.w3.org/2000/svg">
<g clip-path="url(#clip0_14604_76490)">
<path d="M9.11916 2.56901C8.54494 3.24199 7.626 3.77299 6.70715 3.69706C6.59231 2.78711 7.04211 1.82009 7.56858 1.22284C8.1428 0.5309 9.14787 0.0379147 9.96144 0C10.0571 0.947962 9.68381 1.87697 9.11916 2.56901ZM9.95197 3.87725C8.6215 3.80142 7.48254 4.62607 6.8508 4.62607C6.20959 4.62607 5.2428 3.91517 4.18997 3.93412C2.82132 3.95308 1.54827 4.72085 0.849546 5.94379C-0.586192 8.38957 0.476304 12.0109 1.8641 14.0016C2.54368 14.9875 3.35726 16.0682 4.42923 16.0302C5.44387 15.9923 5.84582 15.3762 7.07102 15.3762C8.30568 15.3762 8.65988 16.0302 9.73185 16.0113C10.8421 15.9923 11.5408 15.0255 12.2204 14.0395C12.9956 12.9209 13.3115 11.8307 13.3307 11.7738C13.3115 11.7549 11.1867 10.9492 11.1676 8.52228C11.1484 6.49365 12.8426 5.52673 12.9191 5.46986C11.9619 4.06682 10.4689 3.91517 9.95197 3.87725ZM17.6379 1.12806V15.9071H19.9541V10.8544H23.1605C26.0893 10.8544 28.1472 8.8637 28.1472 5.9818C28.1472 3.1 26.1276 1.12815 23.2371 1.12815L17.6379 1.12806ZM19.9541 3.06199H22.6245C24.6346 3.06199 25.7831 4.1237 25.7831 5.99119C25.7831 7.85867 24.6346 8.92995 22.6149 8.92995H19.9541V3.06199ZM32.3777 16.0208C33.8326 16.0208 35.1821 15.2909 35.7947 14.1343H35.8425V15.907H37.9866V8.55071C37.9866 6.41782 36.2637 5.04322 33.6124 5.04322C31.1525 5.04322 29.334 6.43678 29.267 8.35166H31.3536C31.5258 7.44161 32.3776 6.84436 33.5454 6.84436C34.962 6.84436 35.7564 7.49848 35.7564 8.70246V9.51763L32.8658 9.68825C30.1762 9.84938 28.7215 10.9396 28.7215 12.8356C28.7215 14.7505 30.2241 16.0208 32.3777 16.0208ZM32.9998 14.267C31.7652 14.267 30.9802 13.6793 30.9802 12.7787C30.9802 11.8498 31.7364 11.3094 33.1817 11.2241L35.7564 11.0629V11.8971C35.7564 13.2811 34.5696 14.267 32.9999 14.267M40.8485 19.9264C43.1074 19.9264 44.1698 19.0734 45.0982 16.4853L49.1659 5.1854H46.8114L44.0835 13.9162H44.0357L41.3079 5.1854H38.8863L42.8105 15.9449L42.5999 16.5991C42.2458 17.7082 41.6715 18.1348 40.6474 18.1348C40.4656 18.1348 40.1115 18.1158 39.9678 18.0969V19.8696C40.1018 19.9075 40.676 19.9264 40.8484 19.9264" fill="#2D3646"/>
</g>
<defs>
<clipPath id="clip0_14604_76490">
<rect width="49" height="20" fill="white" transform="translate(0.166016)"/>
</clipPath>
</defs>
</svg>
