<svg width="82" height="20" viewBox="0 0 82 20" fill="none" xmlns="http://www.w3.org/2000/svg">
<path d="M30.747 4.57031H26.2813C25.9758 4.57031 25.7159 4.79421 25.6682 5.09845L23.8621 16.647C23.8262 16.8749 24.0012 17.0804 24.2304 17.0804H26.3623C26.6679 17.0804 26.9278 16.8565 26.9754 16.5516L27.4626 13.4367C27.5096 13.1318 27.7701 12.9079 28.075 12.9079H29.4887C32.4303 12.9079 34.128 11.4723 34.5714 8.6275C34.7712 7.38288 34.5799 6.40497 34.002 5.7201C33.3673 4.96806 32.2416 4.57031 30.747 4.57031ZM31.2622 8.78818C31.0179 10.4042 29.7936 10.4042 28.6098 10.4042H27.936L28.4087 7.38617C28.4368 7.20376 28.5935 7.06942 28.7763 7.06942H29.0852C29.8916 7.06942 30.6523 7.06942 31.0454 7.53303C31.2798 7.80961 31.3516 8.22053 31.2622 8.78818Z" fill="#253B80"/>
<path d="M44.0956 8.73615H41.9572C41.775 8.73615 41.6176 8.87049 41.5896 9.0529L41.4949 9.65611L41.3453 9.43748C40.8824 8.75986 39.8501 8.53332 38.8197 8.53332C36.4566 8.53332 34.4383 10.3383 34.0452 12.8704C33.8408 14.1334 34.1314 15.3412 34.8418 16.1834C35.4935 16.9579 36.4259 17.2805 37.5353 17.2805C39.4393 17.2805 40.4952 16.0458 40.4952 16.0458L40.3999 16.6451C40.3639 16.8742 40.5389 17.0797 40.7668 17.0797H42.6931C42.9993 17.0797 43.2579 16.8558 43.3062 16.5509L44.4619 9.16946C44.4985 8.94227 44.3242 8.73615 44.0956 8.73615ZM41.1148 12.9336C40.9085 14.1657 39.9389 14.9928 38.7021 14.9928C38.0812 14.9928 37.5849 14.792 37.2663 14.4113C36.9502 14.0333 36.8301 13.4953 36.9306 12.8961C37.1233 11.6745 38.1093 10.8204 39.327 10.8204C39.9343 10.8204 40.4279 11.0239 40.7531 11.4078C41.0789 11.7957 41.2082 12.337 41.1148 12.9336Z" fill="#253B80"/>
<path d="M55.4846 8.73612H53.3357C53.1307 8.73612 52.938 8.83885 52.8218 9.01073L49.858 13.4136L48.6017 9.1826C48.5227 8.91787 48.2805 8.73612 48.0062 8.73612H45.8945C45.6379 8.73612 45.4596 8.98899 45.5413 9.23265L47.9083 16.2381L45.683 19.4062C45.508 19.6558 45.6843 19.9989 45.9866 19.9989H48.1329C48.3366 19.9989 48.5273 19.8988 48.6428 19.7302L55.7902 9.3255C55.9613 9.07658 55.7856 8.73612 55.4846 8.73612Z" fill="#253B80"/>
<path d="M62.7884 4.571H58.2953C57.9885 4.571 57.727 4.79245 57.6791 5.09335L55.8621 16.5152C55.826 16.7406 56.0021 16.9438 56.2313 16.9438H58.537C58.7511 16.9438 58.9344 16.7888 58.9679 16.5777L59.4836 13.3401C59.5309 13.0386 59.793 12.8171 60.0997 12.8171H61.5213C64.4812 12.8171 66.1885 11.3973 66.6351 8.58367C66.8368 7.35271 66.643 6.38553 66.0617 5.70818C65.4238 4.96439 64.292 4.571 62.7884 4.571ZM63.3067 8.74259C63.0617 10.3409 61.83 10.3409 60.6384 10.3409H59.9611L60.4374 7.35597C60.4656 7.17556 60.622 7.04269 60.8066 7.04269H61.1173C61.9279 7.04269 62.6938 7.04269 63.0892 7.50121C63.3251 7.77475 63.3967 8.18117 63.3067 8.74259Z" fill="#179BD7"/>
<path d="M76.2166 8.69113H74.0666C73.882 8.69113 73.725 8.824 73.6974 9.00441L73.6022 9.601L73.4511 9.38477C72.9853 8.71458 71.9475 8.49053 70.9109 8.49053C68.5336 8.49053 66.5038 10.2757 66.1084 12.78C65.9034 14.0292 66.1944 15.2237 66.9091 16.0567C67.566 16.8226 68.5027 17.1418 69.6188 17.1418C71.5343 17.1418 72.5965 15.9206 72.5965 15.9206L72.5006 16.5133C72.4644 16.7399 72.6405 16.9431 72.871 16.9431H74.8082C75.115 16.9431 75.3764 16.7217 75.4244 16.4201L76.5877 9.11969C76.6232 8.89499 76.4471 8.69113 76.2166 8.69113ZM73.2179 12.8425C73.0116 14.0611 72.0348 14.8791 70.7907 14.8791C70.1673 14.8791 69.6667 14.6805 69.3462 14.304C69.0282 13.9302 68.9087 13.3981 69.0085 12.8054C69.2036 11.5972 70.1942 10.7525 71.4193 10.7525C72.0302 10.7525 72.5268 10.9538 72.854 11.3335C73.1831 11.7171 73.3131 12.2524 73.2179 12.8425Z" fill="#179BD7"/>
<path d="M78.7528 4.88424L76.9089 16.5152C76.8728 16.7405 77.0488 16.9437 77.2781 16.9437H79.1318C79.4399 16.9437 79.7013 16.7223 79.7486 16.4207L81.5669 4.99952C81.603 4.77417 81.427 4.57031 81.1977 4.57031H79.122C78.9387 4.57096 78.781 4.70383 78.7528 4.88424Z" fill="#179BD7"/>
<path d="M5.07556 19.4275L5.41908 17.2006L4.65389 17.1825H1L3.53926 0.749968C3.54715 0.700362 3.57276 0.654107 3.6102 0.62126C3.64764 0.588412 3.69559 0.570312 3.74551 0.570312H9.90647C11.9518 0.570312 13.3633 1.0047 14.1003 1.86209C14.4457 2.26431 14.6658 2.68462 14.7722 3.14717C14.8838 3.63251 14.8858 4.21237 14.7768 4.9196L14.7689 4.97121V5.42438L15.1144 5.62414C15.4054 5.78168 15.6366 5.962 15.8139 6.16847C16.1095 6.51237 16.3006 6.94944 16.3814 7.46763C16.4648 8.00056 16.4372 8.63472 16.3006 9.35267C16.143 10.1786 15.8881 10.8979 15.544 11.4864C15.2274 12.0287 14.8241 12.4786 14.3453 12.8271C13.8881 13.1583 13.3449 13.4097 12.7308 13.5706C12.1357 13.7288 11.4572 13.8085 10.713 13.8085H10.2336C9.89071 13.8085 9.5577 13.9346 9.29629 14.1605C9.03421 14.3911 8.86081 14.7062 8.80761 15.0507L8.77149 15.2512L8.16459 19.1761L8.137 19.3202C8.12977 19.3658 8.11729 19.3886 8.0989 19.404C8.08248 19.4181 8.05884 19.4275 8.03585 19.4275H5.07556Z" fill="#253B80"/>
<path d="M15.3607 5.14062C15.3425 5.25877 15.3218 5.37955 15.2984 5.50364C14.4963 9.69546 11.7523 11.1436 8.24763 11.1436H6.4632C6.0346 11.1436 5.67344 11.4604 5.60665 11.8907L4.69305 17.7887L4.43433 19.4605C4.39089 19.743 4.60486 19.9978 4.88498 19.9978H8.04986C8.42464 19.9978 8.74301 19.7206 8.80202 19.3444L8.83314 19.1807L9.42903 15.3314L9.46728 15.1202C9.52564 14.7427 9.84466 14.4655 10.2194 14.4655H10.6928C13.7591 14.4655 16.1595 13.1982 16.8611 9.53111C17.1542 7.99919 17.0025 6.72007 16.227 5.82045C15.9922 5.54918 15.7011 5.32411 15.3607 5.14062Z" fill="#179BD7"/>
<path d="M14.4509 4.86515C14.3288 4.82862 14.2029 4.79542 14.0738 4.76554C13.944 4.73632 13.8109 4.71042 13.674 4.68785C13.1949 4.60816 12.6699 4.57031 12.1074 4.57031H7.35974C7.24286 4.57031 7.13179 4.59754 7.03234 4.64668C6.81343 4.75492 6.65069 4.96807 6.6113 5.22904L5.60133 11.807L5.57227 11.9989C5.63878 11.5659 5.99847 11.2472 6.42532 11.2472H8.20247C11.6928 11.2472 14.4257 9.78965 15.2245 5.57301C15.2484 5.44817 15.2684 5.32665 15.2865 5.20779C15.0844 5.09756 14.8655 5.00326 14.6298 4.92292C14.5717 4.903 14.5116 4.88374 14.4509 4.86515Z" fill="#222D65"/>
<path d="M6.82662 5.08321C6.86721 4.82373 7.03491 4.6118 7.26051 4.50484C7.36366 4.45598 7.47746 4.42891 7.59791 4.42891H12.4905C13.0701 4.42891 13.6112 4.46654 14.105 4.54577C14.246 4.56822 14.3831 4.59397 14.5169 4.62302C14.65 4.65273 14.7798 4.68574 14.9055 4.72206C14.9681 4.74054 15.03 4.75969 15.0905 4.77884C15.3334 4.85873 15.559 4.95314 15.7673 5.06208C16.0122 3.51249 15.7653 2.45742 14.9208 1.50205C13.9898 0.450286 12.3095 0 10.1593 0H3.91715C3.47793 0 3.10326 0.316917 3.03539 0.748055L0.435358 17.099C0.384116 17.4225 0.635668 17.7143 0.964414 17.7143H4.8182L5.78581 11.6236L6.82662 5.08321Z" fill="#253B80"/>
</svg>
