<svg width="300" height="300" viewBox="0 0 300 300" fill="none" xmlns="http://www.w3.org/2000/svg">
<path d="M147.128 19.068C145.506 18.695 143.907 19.736 143.555 21.3551L136.335 54.2731C135.925 56.1367 137.341 57.9157 139.266 57.9157C140.645 57.9157 141.887 56.9606 142.194 55.5583L149.415 22.6403C149.77 21.0231 148.747 19.4216 147.128 19.068Z" fill="#2E3746"/>
<path d="M87.2854 32.5826C85.9807 33.6041 85.7483 35.4889 86.7698 36.7936L107.531 63.3385C108.551 64.6436 110.439 64.8749 111.742 63.8541C113.047 62.8326 113.28 60.9479 112.258 59.6432L91.4963 33.0983C90.4768 31.7897 88.592 31.5631 87.2854 32.5826Z" fill="#2E3746"/>
<path d="M119.499 30.617C117.899 31.0467 116.95 32.6932 117.382 34.2928L122.012 51.5154C122.442 53.1158 124.089 54.0623 125.688 53.6326C127.288 53.2029 128.237 51.5564 127.805 49.9568L123.174 32.7342C122.745 31.1365 121.102 30.1932 119.499 30.617Z" fill="#2E3746"/>
<path d="M177.419 146.667C198.7 153.905 220.374 134.887 214.257 113.188C208.106 91.5234 179.378 86.1733 164.93 103.405C152.346 118.427 159.227 140.503 177.419 146.667ZM169.53 107.261C180.121 94.6173 200.884 97.1524 207.489 112.232C210.22 124.58 201.154 136.761 187.909 138.175C178.158 139.171 169.076 134.153 165.194 125.645C164.988 124.781 164.74 123.928 164.645 123.032C164.041 117.341 165.776 111.739 169.53 107.261Z" fill="#2E3746"/>
<path d="M43.8467 277.932C45.5029 277.932 46.8467 276.589 46.8467 274.932C46.8467 273.276 45.5029 271.932 43.8467 271.932C38.1455 271.932 33.5068 267.561 33.5068 262.19C33.5068 254.485 42.4137 250.138 48.5342 253.499C51.083 254.924 53.9983 252.166 52.6611 249.518C48.6171 241.545 54.8723 232.268 64.251 232.268C71.3291 232.268 77.0869 237.71 77.0869 244.401C77.0869 246.057 78.4307 247.401 80.0869 247.401C81.7432 247.401 83.0869 246.057 83.0869 244.401C83.0869 238.568 80.1633 233.427 75.7068 230.109C76.52 223.117 80.5469 195.699 94.4873 183.436C94.7876 184.004 95.1462 184.551 95.6123 185.049C122.196 211.244 120.499 210.222 122.535 211.105C118.25 218.322 116.117 225.623 115.195 229.633C105.031 228.455 96.7764 236.905 96.7764 247.057C96.7764 248.714 98.1201 250.057 99.7764 250.057C101.433 250.057 102.776 248.714 102.776 247.057C102.776 240.671 107.542 235.475 113.401 235.475C118.929 235.475 123.567 240.171 123.962 246.163C124.103 248.3 126.367 249.601 128.292 248.655C133.429 246.099 141.007 249.115 141.007 254.827C141.007 256.483 142.351 257.827 144.007 257.827C148.765 257.827 152.634 261.678 152.634 266.417C152.634 271.147 148.765 274.999 144.007 274.999C142.351 274.999 141.007 276.342 141.007 277.999C141.007 279.655 142.351 280.999 144.007 280.999C152.071 280.999 158.634 274.456 158.634 266.417C158.634 259.284 153.474 253.331 146.683 252.073C144.967 244.906 137.065 240.505 129.312 242.038C128.011 237.402 124.931 233.594 120.947 231.426C122.202 225.849 126.512 211.001 137.764 202.756L144.716 209.385C148.021 212.533 153.268 212.594 156.661 209.53L165.093 201.93L168.849 234.225C167.675 237.135 168.486 240.533 170.766 242.63C171.326 243.144 176.677 247.976 176.274 247.604C176.387 247.703 176.516 247.773 176.633 247.865C179.52 250.16 183.344 250.026 186.022 247.96C202.61 235.015 218.51 221.509 226.967 203.653C228.84 199.702 231.287 193.158 231.8 189.567C232.614 184.16 226.936 180.634 222.564 182.948C218.289 185.201 214.196 187.735 210.208 190.41L208.1 162.323C223.815 146.952 239.416 129.643 250.526 110.196C261.394 91.1725 268.562 70.8581 271.829 49.8053L272.286 46.7155C274.249 33.0617 261.796 21.5436 248.427 24.8776C220.784 31.7884 193.635 44.95 170.347 63.8874C156.81 74.8984 145.877 88.9407 135.162 102.707L108.235 102.13C110.574 98.2218 112.788 94.2316 114.735 90.0846C117.188 84.8657 112.153 78.9119 106.521 80.6452C81.961 88.23 66.311 108.735 51.7022 129.903C49.8812 132.535 50.4732 136.185 52.4678 138.182L58.9463 144.645C60.5126 146.208 63.0565 147.131 65.7493 146.122C65.8313 146.091 65.9067 146.043 65.9878 146.009L101.467 147.851C99.9287 150.021 98.4639 152.088 97.2705 153.772C94.7295 157.356 95.1943 162.159 98.376 165.194L104.27 170.815C98.0225 173.935 97.3823 173.83 95.8853 175.22C95.6895 175.287 95.4866 175.315 95.3018 175.424C77.0684 186.248 71.4756 216.251 70.0105 227.226C56.5787 223.036 44.0025 233.748 45.5361 246.456C35.5296 245.536 27.5068 253.113 27.5068 262.19C27.5068 270.87 34.8369 277.932 43.8467 277.932ZM224.085 189.23C217.866 211.859 199.524 227.193 181.05 241.553C180.483 241.999 179.595 241.944 179.028 241.436L174.335 237.213C174.296 236.884 174.333 236.547 174.505 236.26C186.422 216.48 203.433 200.266 224.085 189.23ZM204.493 194.447C192.684 203.28 182.346 213.946 173.948 226.115L170.56 196.991C183.292 185.512 192.767 176.956 202.488 167.716L204.493 194.447ZM249.884 30.6979C259.215 28.3694 267.691 36.5176 266.349 45.86C265.973 47.7846 264.981 59.364 258.875 77.2174C235.08 70.1715 220.955 49.7355 216.535 42.3463C227.199 37.5192 238.313 33.591 249.884 30.6979ZM106.839 86.8781C96.7466 107.555 81.3989 125.229 62.2705 138.036C62.1182 138.141 61.8213 138.118 61.6572 137.958L56.7925 133.092C70.0841 113.854 84.6036 94.3722 106.839 86.8781ZM74.1526 140.425C84.4447 132.556 95.4603 121.551 104.508 108.052L130.552 108.611C117.463 125.276 110.563 135.041 105.58 142.057L74.1526 140.425ZM102.165 157.241C113.563 141.165 120.362 131.286 135.399 112.151C147.564 96.5316 159.674 80.3026 174.132 68.5436C185.612 59.2067 197.961 51.3273 211.053 44.8981C215.474 52.5524 230.381 74.9049 256.816 82.8649C238.305 131.315 204.73 157.643 152.642 205.077C151.542 206.069 149.913 206.049 148.856 205.042C132.717 189.65 111.274 169.201 102.517 160.85C101.511 159.891 101.362 158.374 102.165 157.241Z" fill="#2E3746"/>
<path d="M80.1232 253.948C78.8517 255.01 78.6798 256.901 79.7404 258.174C80.8009 259.448 82.6935 259.623 83.9669 258.557C84.367 258.553 89.8967 253.317 95.3927 260.901C96.3671 262.241 98.2479 262.54 99.5822 261.569C100.924 260.596 101.225 258.721 100.252 257.377C97.4728 253.545 94.1525 251.362 90.381 250.893C84.8126 250.19 80.5861 253.565 80.1232 253.948Z" fill="#2E3746"/>
<path d="M96.984 218.114C95.6149 217.184 93.7496 217.532 92.8141 218.907C87.9684 226.024 89.2047 234.54 89.2594 234.899C89.5132 236.562 91.0696 237.656 92.6656 237.407C94.3004 237.165 95.4293 235.637 95.191 234.005C95.1813 233.938 94.2828 227.411 97.775 222.282C98.7066 220.915 98.3531 219.048 96.984 218.114Z" fill="#2E3746"/>
</svg>
