<svg width="25" height="24" viewBox="0 0 25 24" fill="none" xmlns="http://www.w3.org/2000/svg">
<path d="M22.833 10H2.83301M11.833 14H6.83301M2.83301 8.2L2.83301 15.8C2.83301 16.9201 2.83301 17.4802 3.05099 17.908C3.24274 18.2843 3.5487 18.5903 3.92503 18.782C4.35285 19 4.9129 19 6.03301 19L19.633 19C20.7531 19 21.3132 19 21.741 18.782C22.1173 18.5903 22.4233 18.2843 22.615 17.908C22.833 17.4802 22.833 16.9201 22.833 15.8V8.2C22.833 7.0799 22.833 6.51984 22.615 6.09202C22.4233 5.7157 22.1173 5.40974 21.741 5.21799C21.3132 5 20.7531 5 19.633 5L6.03301 5C4.9129 5 4.35285 5 3.92503 5.21799C3.5487 5.40973 3.24274 5.71569 3.051 6.09202C2.83301 6.51984 2.83301 7.07989 2.83301 8.2Z" stroke="black" stroke-width="1.5" stroke-linecap="round" stroke-linejoin="round"/>
</svg>
