<svg width="608" height="118" viewBox="0 0 608 118" fill="none" xmlns="http://www.w3.org/2000/svg">
<circle cx="115" cy="117" r="1" transform="rotate(-180 115 117)" fill="#00DBB1" fill-opacity="0.4"/>
<circle cx="107" cy="117" r="1" transform="rotate(-180 107 117)" fill="#00DBB1" fill-opacity="0.4"/>
<circle cx="99" cy="117" r="1" transform="rotate(-180 99 117)" fill="#00DBB1" fill-opacity="0.4"/>
<circle cx="91" cy="117" r="1" transform="rotate(-180 91 117)" fill="#00DBB1" fill-opacity="0.4"/>
<circle cx="83" cy="117" r="1" transform="rotate(-180 83 117)" fill="#00DBB1" fill-opacity="0.4"/>
<circle cx="75" cy="117" r="1" transform="rotate(-180 75 117)" fill="#00DBB1" fill-opacity="0.4"/>
<circle cx="67" cy="117" r="1" transform="rotate(-180 67 117)" fill="#00DBB1" fill-opacity="0.4"/>
<circle cx="59" cy="117" r="1" transform="rotate(-180 59 117)" fill="#00DBB1" fill-opacity="0.4"/>
<circle cx="51" cy="117" r="1" transform="rotate(-180 51 117)" fill="#00DBB1" fill-opacity="0.4"/>
<circle cx="43" cy="117" r="1" transform="rotate(-180 43 117)" fill="#00DBB1" fill-opacity="0.4"/>
<circle cx="115" cy="109" r="1" transform="rotate(-180 115 109)" fill="#00DBB1" fill-opacity="0.4"/>
<circle cx="107" cy="109" r="1" transform="rotate(-180 107 109)" fill="#00DBB1" fill-opacity="0.4"/>
<circle cx="99" cy="109" r="1" transform="rotate(-180 99 109)" fill="#00DBB1" fill-opacity="0.4"/>
<circle cx="91" cy="109" r="1" transform="rotate(-180 91 109)" fill="#00DBB1" fill-opacity="0.4"/>
<circle cx="83" cy="109" r="1" transform="rotate(-180 83 109)" fill="#00DBB1" fill-opacity="0.4"/>
<circle cx="75" cy="109" r="1" transform="rotate(-180 75 109)" fill="#00DBB1" fill-opacity="0.4"/>
<circle cx="67" cy="109" r="1" transform="rotate(-180 67 109)" fill="#00DBB1" fill-opacity="0.4"/>
<circle cx="59" cy="109" r="1" transform="rotate(-180 59 109)" fill="#00DBB1" fill-opacity="0.4"/>
<circle cx="51" cy="109" r="1" transform="rotate(-180 51 109)" fill="#00DBB1" fill-opacity="0.4"/>
<circle cx="43" cy="109" r="1" transform="rotate(-180 43 109)" fill="#00DBB1" fill-opacity="0.4"/>
<circle cx="115" cy="101" r="1" transform="rotate(-180 115 101)" fill="#00DBB1" fill-opacity="0.4"/>
<circle cx="107" cy="101" r="1" transform="rotate(-180 107 101)" fill="#00DBB1" fill-opacity="0.4"/>
<circle cx="99" cy="101" r="1" transform="rotate(-180 99 101)" fill="#00DBB1" fill-opacity="0.4"/>
<circle cx="91" cy="101" r="1" transform="rotate(-180 91 101)" fill="#00DBB1" fill-opacity="0.4"/>
<circle cx="83" cy="101" r="1" transform="rotate(-180 83 101)" fill="#00DBB1" fill-opacity="0.4"/>
<circle cx="75" cy="101" r="1" transform="rotate(-180 75 101)" fill="#00DBB1" fill-opacity="0.4"/>
<circle cx="67" cy="101" r="1" transform="rotate(-180 67 101)" fill="#00DBB1" fill-opacity="0.4"/>
<circle cx="59" cy="101" r="1" transform="rotate(-180 59 101)" fill="#00DBB1" fill-opacity="0.4"/>
<circle cx="51" cy="101" r="1" transform="rotate(-180 51 101)" fill="#00DBB1" fill-opacity="0.4"/>
<circle cx="43" cy="101" r="1" transform="rotate(-180 43 101)" fill="#00DBB1" fill-opacity="0.4"/>
<circle cx="115" cy="93" r="1" transform="rotate(-180 115 93)" fill="#00DBB1" fill-opacity="0.4"/>
<circle cx="107" cy="93" r="1" transform="rotate(-180 107 93)" fill="#00DBB1" fill-opacity="0.4"/>
<circle cx="99" cy="93" r="1" transform="rotate(-180 99 93)" fill="#00DBB1" fill-opacity="0.4"/>
<circle cx="91" cy="93" r="1" transform="rotate(-180 91 93)" fill="#00DBB1" fill-opacity="0.4"/>
<circle cx="83" cy="93" r="1" transform="rotate(-180 83 93)" fill="#00DBB1" fill-opacity="0.4"/>
<circle cx="75" cy="93" r="1" transform="rotate(-180 75 93)" fill="#00DBB1" fill-opacity="0.4"/>
<circle cx="67" cy="93" r="1" transform="rotate(-180 67 93)" fill="#00DBB1" fill-opacity="0.4"/>
<circle cx="59" cy="93" r="1" transform="rotate(-180 59 93)" fill="#00DBB1" fill-opacity="0.4"/>
<circle cx="51" cy="93" r="1" transform="rotate(-180 51 93)" fill="#00DBB1" fill-opacity="0.4"/>
<circle cx="43" cy="93" r="1" transform="rotate(-180 43 93)" fill="#00DBB1" fill-opacity="0.4"/>
<circle cx="115" cy="85" r="1" transform="rotate(-180 115 85)" fill="#00DBB1" fill-opacity="0.4"/>
<circle cx="107" cy="85" r="1" transform="rotate(-180 107 85)" fill="#00DBB1" fill-opacity="0.4"/>
<circle cx="99" cy="85" r="1" transform="rotate(-180 99 85)" fill="#00DBB1" fill-opacity="0.4"/>
<circle cx="91" cy="85" r="1" transform="rotate(-180 91 85)" fill="#00DBB1" fill-opacity="0.4"/>
<circle cx="83" cy="85" r="1" transform="rotate(-180 83 85)" fill="#00DBB1" fill-opacity="0.4"/>
<circle cx="75" cy="85" r="1" transform="rotate(-180 75 85)" fill="#00DBB1" fill-opacity="0.4"/>
<circle cx="67" cy="85" r="1" transform="rotate(-180 67 85)" fill="#00DBB1" fill-opacity="0.4"/>
<circle cx="59" cy="85" r="1" transform="rotate(-180 59 85)" fill="#00DBB1" fill-opacity="0.4"/>
<circle cx="51" cy="85" r="1" transform="rotate(-180 51 85)" fill="#00DBB1" fill-opacity="0.4"/>
<circle cx="43" cy="85" r="1" transform="rotate(-180 43 85)" fill="#00DBB1" fill-opacity="0.4"/>
<circle cx="115" cy="77" r="1" transform="rotate(-180 115 77)" fill="#00DBB1" fill-opacity="0.4"/>
<circle cx="107" cy="77" r="1" transform="rotate(-180 107 77)" fill="#00DBB1" fill-opacity="0.4"/>
<circle cx="99" cy="77" r="1" transform="rotate(-180 99 77)" fill="#00DBB1" fill-opacity="0.4"/>
<circle cx="91" cy="77" r="1" transform="rotate(-180 91 77)" fill="#00DBB1" fill-opacity="0.4"/>
<circle cx="83" cy="77" r="1" transform="rotate(-180 83 77)" fill="#00DBB1" fill-opacity="0.4"/>
<circle cx="75" cy="77" r="1" transform="rotate(-180 75 77)" fill="#00DBB1" fill-opacity="0.4"/>
<circle cx="67" cy="77" r="1" transform="rotate(-180 67 77)" fill="#00DBB1" fill-opacity="0.4"/>
<circle cx="59" cy="77" r="1" transform="rotate(-180 59 77)" fill="#00DBB1" fill-opacity="0.4"/>
<circle cx="51" cy="77" r="1" transform="rotate(-180 51 77)" fill="#00DBB1" fill-opacity="0.4"/>
<circle cx="43" cy="77" r="1" transform="rotate(-180 43 77)" fill="#00DBB1" fill-opacity="0.4"/>
<circle cx="115" cy="69" r="1" transform="rotate(-180 115 69)" fill="#00DBB1" fill-opacity="0.4"/>
<circle cx="107" cy="69" r="1" transform="rotate(-180 107 69)" fill="#00DBB1" fill-opacity="0.4"/>
<circle cx="99" cy="69" r="1" transform="rotate(-180 99 69)" fill="#00DBB1" fill-opacity="0.4"/>
<circle cx="91" cy="69" r="1" transform="rotate(-180 91 69)" fill="#00DBB1" fill-opacity="0.4"/>
<circle cx="83" cy="69" r="1" transform="rotate(-180 83 69)" fill="#00DBB1" fill-opacity="0.4"/>
<circle cx="75" cy="69" r="1" transform="rotate(-180 75 69)" fill="#00DBB1" fill-opacity="0.4"/>
<circle cx="67" cy="69" r="1" transform="rotate(-180 67 69)" fill="#00DBB1" fill-opacity="0.4"/>
<circle cx="59" cy="69" r="1" transform="rotate(-180 59 69)" fill="#00DBB1" fill-opacity="0.4"/>
<circle cx="51" cy="69" r="1" transform="rotate(-180 51 69)" fill="#00DBB1" fill-opacity="0.4"/>
<circle cx="43" cy="69" r="1" transform="rotate(-180 43 69)" fill="#00DBB1" fill-opacity="0.4"/>
<circle cx="115" cy="61" r="1" transform="rotate(-180 115 61)" fill="#00DBB1" fill-opacity="0.4"/>
<circle cx="107" cy="61" r="1" transform="rotate(-180 107 61)" fill="#00DBB1" fill-opacity="0.4"/>
<circle cx="99" cy="61" r="1" transform="rotate(-180 99 61)" fill="#00DBB1" fill-opacity="0.4"/>
<circle cx="91" cy="61" r="1" transform="rotate(-180 91 61)" fill="#00DBB1" fill-opacity="0.4"/>
<circle cx="83" cy="61" r="1" transform="rotate(-180 83 61)" fill="#00DBB1" fill-opacity="0.4"/>
<circle cx="75" cy="61" r="1" transform="rotate(-180 75 61)" fill="#00DBB1" fill-opacity="0.4"/>
<circle cx="67" cy="61" r="1" transform="rotate(-180 67 61)" fill="#00DBB1" fill-opacity="0.4"/>
<circle cx="59" cy="61" r="1" transform="rotate(-180 59 61)" fill="#00DBB1" fill-opacity="0.4"/>
<circle cx="51" cy="61" r="1" transform="rotate(-180 51 61)" fill="#00DBB1" fill-opacity="0.4"/>
<circle cx="43" cy="61" r="1" transform="rotate(-180 43 61)" fill="#00DBB1" fill-opacity="0.4"/>
<circle cx="115" cy="53" r="1" transform="rotate(-180 115 53)" fill="#00DBB1" fill-opacity="0.4"/>
<circle cx="107" cy="53" r="1" transform="rotate(-180 107 53)" fill="#00DBB1" fill-opacity="0.4"/>
<circle cx="99" cy="53" r="1" transform="rotate(-180 99 53)" fill="#00DBB1" fill-opacity="0.4"/>
<circle cx="91" cy="53" r="1" transform="rotate(-180 91 53)" fill="#00DBB1" fill-opacity="0.4"/>
<circle cx="83" cy="53" r="1" transform="rotate(-180 83 53)" fill="#00DBB1" fill-opacity="0.4"/>
<circle cx="75" cy="53" r="1" transform="rotate(-180 75 53)" fill="#00DBB1" fill-opacity="0.4"/>
<circle cx="67" cy="53" r="1" transform="rotate(-180 67 53)" fill="#00DBB1" fill-opacity="0.4"/>
<circle cx="59" cy="53" r="1" transform="rotate(-180 59 53)" fill="#00DBB1" fill-opacity="0.4"/>
<circle cx="51" cy="53" r="1" transform="rotate(-180 51 53)" fill="#00DBB1" fill-opacity="0.4"/>
<circle cx="43" cy="53" r="1" transform="rotate(-180 43 53)" fill="#00DBB1" fill-opacity="0.4"/>
<circle cx="115" cy="45" r="1" transform="rotate(-180 115 45)" fill="#00DBB1" fill-opacity="0.4"/>
<circle cx="107" cy="45" r="1" transform="rotate(-180 107 45)" fill="#00DBB1" fill-opacity="0.4"/>
<circle cx="99" cy="45" r="1" transform="rotate(-180 99 45)" fill="#00DBB1" fill-opacity="0.4"/>
<circle cx="91" cy="45" r="1" transform="rotate(-180 91 45)" fill="#00DBB1" fill-opacity="0.4"/>
<circle cx="83" cy="45" r="1" transform="rotate(-180 83 45)" fill="#00DBB1" fill-opacity="0.4"/>
<circle cx="75" cy="45" r="1" transform="rotate(-180 75 45)" fill="#00DBB1" fill-opacity="0.4"/>
<circle cx="67" cy="45" r="1" transform="rotate(-180 67 45)" fill="#00DBB1" fill-opacity="0.4"/>
<circle cx="59" cy="45" r="1" transform="rotate(-180 59 45)" fill="#00DBB1" fill-opacity="0.4"/>
<circle cx="51" cy="45" r="1" transform="rotate(-180 51 45)" fill="#00DBB1" fill-opacity="0.4"/>
<circle cx="43" cy="45" r="1" transform="rotate(-180 43 45)" fill="#00DBB1" fill-opacity="0.4"/>
<circle cx="115" cy="37" r="1" transform="rotate(-180 115 37)" fill="#00DBB1" fill-opacity="0.4"/>
<circle cx="107" cy="37" r="1" transform="rotate(-180 107 37)" fill="#00DBB1" fill-opacity="0.4"/>
<circle cx="99" cy="37" r="1" transform="rotate(-180 99 37)" fill="#00DBB1" fill-opacity="0.4"/>
<circle cx="91" cy="37" r="1" transform="rotate(-180 91 37)" fill="#00DBB1" fill-opacity="0.4"/>
<circle cx="83" cy="37" r="1" transform="rotate(-180 83 37)" fill="#00DBB1" fill-opacity="0.4"/>
<circle cx="75" cy="37" r="1" transform="rotate(-180 75 37)" fill="#00DBB1" fill-opacity="0.4"/>
<circle cx="67" cy="37" r="1" transform="rotate(-180 67 37)" fill="#00DBB1" fill-opacity="0.4"/>
<circle cx="59" cy="37" r="1" transform="rotate(-180 59 37)" fill="#00DBB1" fill-opacity="0.4"/>
<circle cx="51" cy="37" r="1" transform="rotate(-180 51 37)" fill="#00DBB1" fill-opacity="0.4"/>
<circle cx="43" cy="37" r="1" transform="rotate(-180 43 37)" fill="#00DBB1" fill-opacity="0.4"/>
<circle cx="115" cy="29" r="1" transform="rotate(-180 115 29)" fill="#00DBB1" fill-opacity="0.4"/>
<circle cx="107" cy="29" r="1" transform="rotate(-180 107 29)" fill="#00DBB1" fill-opacity="0.4"/>
<circle cx="99" cy="29" r="1" transform="rotate(-180 99 29)" fill="#00DBB1" fill-opacity="0.4"/>
<circle cx="91" cy="29" r="1" transform="rotate(-180 91 29)" fill="#00DBB1" fill-opacity="0.4"/>
<circle cx="83" cy="29" r="1" transform="rotate(-180 83 29)" fill="#00DBB1" fill-opacity="0.4"/>
<circle cx="75" cy="29" r="1" transform="rotate(-180 75 29)" fill="#00DBB1" fill-opacity="0.4"/>
<circle cx="67" cy="29" r="1" transform="rotate(-180 67 29)" fill="#00DBB1" fill-opacity="0.4"/>
<circle cx="59" cy="29" r="1" transform="rotate(-180 59 29)" fill="#00DBB1" fill-opacity="0.4"/>
<circle cx="51" cy="29" r="1" transform="rotate(-180 51 29)" fill="#00DBB1" fill-opacity="0.4"/>
<circle cx="43" cy="29" r="1" transform="rotate(-180 43 29)" fill="#00DBB1" fill-opacity="0.4"/>
<circle cx="115" cy="21" r="1" transform="rotate(-180 115 21)" fill="#00DBB1" fill-opacity="0.4"/>
<circle cx="107" cy="21" r="1" transform="rotate(-180 107 21)" fill="#00DBB1" fill-opacity="0.4"/>
<circle cx="99" cy="21" r="1" transform="rotate(-180 99 21)" fill="#00DBB1" fill-opacity="0.4"/>
<circle cx="91" cy="21" r="1" transform="rotate(-180 91 21)" fill="#00DBB1" fill-opacity="0.4"/>
<circle cx="83" cy="21" r="1" transform="rotate(-180 83 21)" fill="#00DBB1" fill-opacity="0.4"/>
<circle cx="75" cy="21" r="1" transform="rotate(-180 75 21)" fill="#00DBB1" fill-opacity="0.4"/>
<circle cx="67" cy="21" r="1" transform="rotate(-180 67 21)" fill="#00DBB1" fill-opacity="0.4"/>
<circle cx="59" cy="21" r="1" transform="rotate(-180 59 21)" fill="#00DBB1" fill-opacity="0.4"/>
<circle cx="51" cy="21" r="1" transform="rotate(-180 51 21)" fill="#00DBB1" fill-opacity="0.4"/>
<circle cx="43" cy="21" r="1" transform="rotate(-180 43 21)" fill="#00DBB1" fill-opacity="0.4"/>
<circle cx="115" cy="13" r="1" transform="rotate(-180 115 13)" fill="#00DBB1" fill-opacity="0.4"/>
<circle cx="107" cy="13" r="1" transform="rotate(-180 107 13)" fill="#00DBB1" fill-opacity="0.4"/>
<circle cx="99" cy="13" r="1" transform="rotate(-180 99 13)" fill="#00DBB1" fill-opacity="0.4"/>
<circle cx="91" cy="13" r="1" transform="rotate(-180 91 13)" fill="#00DBB1" fill-opacity="0.4"/>
<circle cx="83" cy="13" r="1" transform="rotate(-180 83 13)" fill="#00DBB1" fill-opacity="0.4"/>
<circle cx="75" cy="13" r="1" transform="rotate(-180 75 13)" fill="#00DBB1" fill-opacity="0.4"/>
<circle cx="67" cy="13" r="1" transform="rotate(-180 67 13)" fill="#00DBB1" fill-opacity="0.4"/>
<circle cx="59" cy="13" r="1" transform="rotate(-180 59 13)" fill="#00DBB1" fill-opacity="0.4"/>
<circle cx="51" cy="13" r="1" transform="rotate(-180 51 13)" fill="#00DBB1" fill-opacity="0.4"/>
<circle cx="43" cy="13" r="1" transform="rotate(-180 43 13)" fill="#00DBB1" fill-opacity="0.4"/>
<circle cx="115" cy="5" r="1" transform="rotate(-180 115 5)" fill="#00DBB1" fill-opacity="0.4"/>
<circle cx="107" cy="5" r="1" transform="rotate(-180 107 5)" fill="#00DBB1" fill-opacity="0.4"/>
<circle cx="99" cy="5" r="1" transform="rotate(-180 99 5)" fill="#00DBB1" fill-opacity="0.4"/>
<circle cx="91" cy="5" r="1" transform="rotate(-180 91 5)" fill="#00DBB1" fill-opacity="0.4"/>
<circle cx="83" cy="5" r="1" transform="rotate(-180 83 5)" fill="#00DBB1" fill-opacity="0.4"/>
<circle cx="75" cy="5" r="1" transform="rotate(-180 75 5)" fill="#00DBB1" fill-opacity="0.4"/>
<circle cx="67" cy="5" r="1" transform="rotate(-180 67 5)" fill="#00DBB1" fill-opacity="0.4"/>
<circle cx="59" cy="5" r="1" transform="rotate(-180 59 5)" fill="#00DBB1" fill-opacity="0.4"/>
<circle cx="51" cy="5" r="1" transform="rotate(-180 51 5)" fill="#00DBB1" fill-opacity="0.4"/>
<circle cx="43" cy="5" r="1" transform="rotate(-180 43 5)" fill="#00DBB1" fill-opacity="0.4"/>
<circle cx="593" cy="7" r="1" transform="rotate(90 593 7)" fill="#00DBB1" fill-opacity="0.4"/>
<circle cx="593" cy="15" r="1" transform="rotate(90 593 15)" fill="#00DBB1" fill-opacity="0.4"/>
<circle cx="593" cy="23" r="1" transform="rotate(90 593 23)" fill="#00DBB1" fill-opacity="0.4"/>
<circle cx="593" cy="31" r="1" transform="rotate(90 593 31)" fill="#00DBB1" fill-opacity="0.4"/>
<circle cx="593" cy="39" r="1" transform="rotate(90 593 39)" fill="#00DBB1" fill-opacity="0.4"/>
<circle cx="593" cy="47" r="1" transform="rotate(90 593 47)" fill="#00DBB1" fill-opacity="0.4"/>
<circle cx="593" cy="55" r="1" transform="rotate(90 593 55)" fill="#00DBB1" fill-opacity="0.4"/>
<circle cx="593" cy="63" r="1" transform="rotate(90 593 63)" fill="#00DBB1" fill-opacity="0.4"/>
<circle cx="593" cy="71" r="1" transform="rotate(90 593 71)" fill="#00DBB1" fill-opacity="0.4"/>
<circle cx="593" cy="79" r="1" transform="rotate(90 593 79)" fill="#00DBB1" fill-opacity="0.4"/>
<circle cx="585" cy="7" r="1" transform="rotate(90 585 7)" fill="#00DBB1" fill-opacity="0.4"/>
<circle cx="585" cy="15" r="1" transform="rotate(90 585 15)" fill="#00DBB1" fill-opacity="0.4"/>
<circle cx="585" cy="23" r="1" transform="rotate(90 585 23)" fill="#00DBB1" fill-opacity="0.4"/>
<circle cx="585" cy="31" r="1" transform="rotate(90 585 31)" fill="#00DBB1" fill-opacity="0.4"/>
<circle cx="585" cy="39" r="1" transform="rotate(90 585 39)" fill="#00DBB1" fill-opacity="0.4"/>
<circle cx="585" cy="47" r="1" transform="rotate(90 585 47)" fill="#00DBB1" fill-opacity="0.4"/>
<circle cx="585" cy="55" r="1" transform="rotate(90 585 55)" fill="#00DBB1" fill-opacity="0.4"/>
<circle cx="585" cy="63" r="1" transform="rotate(90 585 63)" fill="#00DBB1" fill-opacity="0.4"/>
<circle cx="585" cy="71" r="1" transform="rotate(90 585 71)" fill="#00DBB1" fill-opacity="0.4"/>
<circle cx="585" cy="79" r="1" transform="rotate(90 585 79)" fill="#00DBB1" fill-opacity="0.4"/>
<circle cx="577" cy="7" r="1" transform="rotate(90 577 7)" fill="#00DBB1" fill-opacity="0.4"/>
<circle cx="577" cy="15" r="1" transform="rotate(90 577 15)" fill="#00DBB1" fill-opacity="0.4"/>
<circle cx="577" cy="23" r="1" transform="rotate(90 577 23)" fill="#00DBB1" fill-opacity="0.4"/>
<circle cx="577" cy="31" r="1" transform="rotate(90 577 31)" fill="#00DBB1" fill-opacity="0.4"/>
<circle cx="577" cy="39" r="1" transform="rotate(90 577 39)" fill="#00DBB1" fill-opacity="0.4"/>
<circle cx="577" cy="47" r="1" transform="rotate(90 577 47)" fill="#00DBB1" fill-opacity="0.4"/>
<circle cx="577" cy="55" r="1" transform="rotate(90 577 55)" fill="#00DBB1" fill-opacity="0.4"/>
<circle cx="577" cy="63" r="1" transform="rotate(90 577 63)" fill="#00DBB1" fill-opacity="0.4"/>
<circle cx="577" cy="71" r="1" transform="rotate(90 577 71)" fill="#00DBB1" fill-opacity="0.4"/>
<circle cx="577" cy="79" r="1" transform="rotate(90 577 79)" fill="#00DBB1" fill-opacity="0.4"/>
<circle cx="569" cy="7" r="1" transform="rotate(90 569 7)" fill="#00DBB1" fill-opacity="0.4"/>
<circle cx="569" cy="15" r="1" transform="rotate(90 569 15)" fill="#00DBB1" fill-opacity="0.4"/>
<circle cx="569" cy="23" r="1" transform="rotate(90 569 23)" fill="#00DBB1" fill-opacity="0.4"/>
<circle cx="569" cy="31" r="1" transform="rotate(90 569 31)" fill="#00DBB1" fill-opacity="0.4"/>
<circle cx="569" cy="39" r="1" transform="rotate(90 569 39)" fill="#00DBB1" fill-opacity="0.4"/>
<circle cx="569" cy="47" r="1" transform="rotate(90 569 47)" fill="#00DBB1" fill-opacity="0.4"/>
<circle cx="569" cy="55" r="1" transform="rotate(90 569 55)" fill="#00DBB1" fill-opacity="0.4"/>
<circle cx="569" cy="63" r="1" transform="rotate(90 569 63)" fill="#00DBB1" fill-opacity="0.4"/>
<circle cx="569" cy="71" r="1" transform="rotate(90 569 71)" fill="#00DBB1" fill-opacity="0.4"/>
<circle cx="569" cy="79" r="1" transform="rotate(90 569 79)" fill="#00DBB1" fill-opacity="0.4"/>
<circle cx="561" cy="7" r="1" transform="rotate(90 561 7)" fill="#00DBB1" fill-opacity="0.4"/>
<circle cx="561" cy="15" r="1" transform="rotate(90 561 15)" fill="#00DBB1" fill-opacity="0.4"/>
<circle cx="561" cy="23" r="1" transform="rotate(90 561 23)" fill="#00DBB1" fill-opacity="0.4"/>
<circle cx="561" cy="31" r="1" transform="rotate(90 561 31)" fill="#00DBB1" fill-opacity="0.4"/>
<circle cx="561" cy="39" r="1" transform="rotate(90 561 39)" fill="#00DBB1" fill-opacity="0.4"/>
<circle cx="561" cy="47" r="1" transform="rotate(90 561 47)" fill="#00DBB1" fill-opacity="0.4"/>
<circle cx="561" cy="55" r="1" transform="rotate(90 561 55)" fill="#00DBB1" fill-opacity="0.4"/>
<circle cx="561" cy="63" r="1" transform="rotate(90 561 63)" fill="#00DBB1" fill-opacity="0.4"/>
<circle cx="561" cy="71" r="1" transform="rotate(90 561 71)" fill="#00DBB1" fill-opacity="0.4"/>
<circle cx="561" cy="79" r="1" transform="rotate(90 561 79)" fill="#00DBB1" fill-opacity="0.4"/>
<circle cx="553" cy="7" r="1" transform="rotate(90 553 7)" fill="#00DBB1" fill-opacity="0.4"/>
<circle cx="553" cy="15" r="1" transform="rotate(90 553 15)" fill="#00DBB1" fill-opacity="0.4"/>
<circle cx="553" cy="23" r="1" transform="rotate(90 553 23)" fill="#00DBB1" fill-opacity="0.4"/>
<circle cx="553" cy="31" r="1" transform="rotate(90 553 31)" fill="#00DBB1" fill-opacity="0.4"/>
<circle cx="553" cy="39" r="1" transform="rotate(90 553 39)" fill="#00DBB1" fill-opacity="0.4"/>
<circle cx="553" cy="47" r="1" transform="rotate(90 553 47)" fill="#00DBB1" fill-opacity="0.4"/>
<circle cx="553" cy="55" r="1" transform="rotate(90 553 55)" fill="#00DBB1" fill-opacity="0.4"/>
<circle cx="553" cy="63" r="1" transform="rotate(90 553 63)" fill="#00DBB1" fill-opacity="0.4"/>
<circle cx="553" cy="71" r="1" transform="rotate(90 553 71)" fill="#00DBB1" fill-opacity="0.4"/>
<circle cx="553" cy="79" r="1" transform="rotate(90 553 79)" fill="#00DBB1" fill-opacity="0.4"/>
<circle cx="545" cy="7" r="1" transform="rotate(90 545 7)" fill="#00DBB1" fill-opacity="0.4"/>
<circle cx="545" cy="15" r="1" transform="rotate(90 545 15)" fill="#00DBB1" fill-opacity="0.4"/>
<circle cx="545" cy="23" r="1" transform="rotate(90 545 23)" fill="#00DBB1" fill-opacity="0.4"/>
<circle cx="545" cy="31" r="1" transform="rotate(90 545 31)" fill="#00DBB1" fill-opacity="0.4"/>
<circle cx="545" cy="39" r="1" transform="rotate(90 545 39)" fill="#00DBB1" fill-opacity="0.4"/>
<circle cx="545" cy="47" r="1" transform="rotate(90 545 47)" fill="#00DBB1" fill-opacity="0.4"/>
<circle cx="545" cy="55" r="1" transform="rotate(90 545 55)" fill="#00DBB1" fill-opacity="0.4"/>
<circle cx="545" cy="63" r="1" transform="rotate(90 545 63)" fill="#00DBB1" fill-opacity="0.4"/>
<circle cx="545" cy="71" r="1" transform="rotate(90 545 71)" fill="#00DBB1" fill-opacity="0.4"/>
<circle cx="545" cy="79" r="1" transform="rotate(90 545 79)" fill="#00DBB1" fill-opacity="0.4"/>
<circle cx="537" cy="7" r="1" transform="rotate(90 537 7)" fill="#00DBB1" fill-opacity="0.4"/>
<circle cx="537" cy="15" r="1" transform="rotate(90 537 15)" fill="#00DBB1" fill-opacity="0.4"/>
<circle cx="537" cy="23" r="1" transform="rotate(90 537 23)" fill="#00DBB1" fill-opacity="0.4"/>
<circle cx="537" cy="31" r="1" transform="rotate(90 537 31)" fill="#00DBB1" fill-opacity="0.4"/>
<circle cx="537" cy="39" r="1" transform="rotate(90 537 39)" fill="#00DBB1" fill-opacity="0.4"/>
<circle cx="537" cy="47" r="1" transform="rotate(90 537 47)" fill="#00DBB1" fill-opacity="0.4"/>
<circle cx="537" cy="55" r="1" transform="rotate(90 537 55)" fill="#00DBB1" fill-opacity="0.4"/>
<circle cx="537" cy="63" r="1" transform="rotate(90 537 63)" fill="#00DBB1" fill-opacity="0.4"/>
<circle cx="537" cy="71" r="1" transform="rotate(90 537 71)" fill="#00DBB1" fill-opacity="0.4"/>
<circle cx="537" cy="79" r="1" transform="rotate(90 537 79)" fill="#00DBB1" fill-opacity="0.4"/>
<circle cx="529" cy="7" r="1" transform="rotate(90 529 7)" fill="#00DBB1" fill-opacity="0.4"/>
<circle cx="529" cy="15" r="1" transform="rotate(90 529 15)" fill="#00DBB1" fill-opacity="0.4"/>
<circle cx="529" cy="23" r="1" transform="rotate(90 529 23)" fill="#00DBB1" fill-opacity="0.4"/>
<circle cx="529" cy="31" r="1" transform="rotate(90 529 31)" fill="#00DBB1" fill-opacity="0.4"/>
<circle cx="529" cy="39" r="1" transform="rotate(90 529 39)" fill="#00DBB1" fill-opacity="0.4"/>
<circle cx="529" cy="47" r="1" transform="rotate(90 529 47)" fill="#00DBB1" fill-opacity="0.4"/>
<circle cx="529" cy="55" r="1" transform="rotate(90 529 55)" fill="#00DBB1" fill-opacity="0.4"/>
<circle cx="529" cy="63" r="1" transform="rotate(90 529 63)" fill="#00DBB1" fill-opacity="0.4"/>
<circle cx="529" cy="71" r="1" transform="rotate(90 529 71)" fill="#00DBB1" fill-opacity="0.4"/>
<circle cx="529" cy="79" r="1" transform="rotate(90 529 79)" fill="#00DBB1" fill-opacity="0.4"/>
<circle cx="521" cy="7" r="1" transform="rotate(90 521 7)" fill="#00DBB1" fill-opacity="0.4"/>
<circle cx="521" cy="15" r="1" transform="rotate(90 521 15)" fill="#00DBB1" fill-opacity="0.4"/>
<circle cx="521" cy="23" r="1" transform="rotate(90 521 23)" fill="#00DBB1" fill-opacity="0.4"/>
<circle cx="521" cy="31" r="1" transform="rotate(90 521 31)" fill="#00DBB1" fill-opacity="0.4"/>
<circle cx="521" cy="39" r="1" transform="rotate(90 521 39)" fill="#00DBB1" fill-opacity="0.4"/>
<circle cx="521" cy="47" r="1" transform="rotate(90 521 47)" fill="#00DBB1" fill-opacity="0.4"/>
<circle cx="521" cy="55" r="1" transform="rotate(90 521 55)" fill="#00DBB1" fill-opacity="0.4"/>
<circle cx="521" cy="63" r="1" transform="rotate(90 521 63)" fill="#00DBB1" fill-opacity="0.4"/>
<circle cx="521" cy="71" r="1" transform="rotate(90 521 71)" fill="#00DBB1" fill-opacity="0.4"/>
<circle cx="521" cy="79" r="1" transform="rotate(90 521 79)" fill="#00DBB1" fill-opacity="0.4"/>
<circle cx="513" cy="7" r="1" transform="rotate(90 513 7)" fill="#00DBB1" fill-opacity="0.4"/>
<circle cx="513" cy="15" r="1" transform="rotate(90 513 15)" fill="#00DBB1" fill-opacity="0.4"/>
<circle cx="513" cy="23" r="1" transform="rotate(90 513 23)" fill="#00DBB1" fill-opacity="0.4"/>
<circle cx="513" cy="31" r="1" transform="rotate(90 513 31)" fill="#00DBB1" fill-opacity="0.4"/>
<circle cx="513" cy="39" r="1" transform="rotate(90 513 39)" fill="#00DBB1" fill-opacity="0.4"/>
<circle cx="513" cy="47" r="1" transform="rotate(90 513 47)" fill="#00DBB1" fill-opacity="0.4"/>
<circle cx="513" cy="55" r="1" transform="rotate(90 513 55)" fill="#00DBB1" fill-opacity="0.4"/>
<circle cx="513" cy="63" r="1" transform="rotate(90 513 63)" fill="#00DBB1" fill-opacity="0.4"/>
<circle cx="513" cy="71" r="1" transform="rotate(90 513 71)" fill="#00DBB1" fill-opacity="0.4"/>
<circle cx="513" cy="79" r="1" transform="rotate(90 513 79)" fill="#00DBB1" fill-opacity="0.4"/>
<circle cx="505" cy="7" r="1" transform="rotate(90 505 7)" fill="#00DBB1" fill-opacity="0.4"/>
<circle cx="505" cy="15" r="1" transform="rotate(90 505 15)" fill="#00DBB1" fill-opacity="0.4"/>
<circle cx="505" cy="23" r="1" transform="rotate(90 505 23)" fill="#00DBB1" fill-opacity="0.4"/>
<circle cx="505" cy="31" r="1" transform="rotate(90 505 31)" fill="#00DBB1" fill-opacity="0.4"/>
<circle cx="505" cy="39" r="1" transform="rotate(90 505 39)" fill="#00DBB1" fill-opacity="0.4"/>
<circle cx="505" cy="47" r="1" transform="rotate(90 505 47)" fill="#00DBB1" fill-opacity="0.4"/>
<circle cx="505" cy="55" r="1" transform="rotate(90 505 55)" fill="#00DBB1" fill-opacity="0.4"/>
<circle cx="505" cy="63" r="1" transform="rotate(90 505 63)" fill="#00DBB1" fill-opacity="0.4"/>
<circle cx="505" cy="71" r="1" transform="rotate(90 505 71)" fill="#00DBB1" fill-opacity="0.4"/>
<circle cx="505" cy="79" r="1" transform="rotate(90 505 79)" fill="#00DBB1" fill-opacity="0.4"/>
<circle cx="497" cy="7" r="1" transform="rotate(90 497 7)" fill="#00DBB1" fill-opacity="0.4"/>
<circle cx="497" cy="15" r="1" transform="rotate(90 497 15)" fill="#00DBB1" fill-opacity="0.4"/>
<circle cx="497" cy="23" r="1" transform="rotate(90 497 23)" fill="#00DBB1" fill-opacity="0.4"/>
<circle cx="497" cy="31" r="1" transform="rotate(90 497 31)" fill="#00DBB1" fill-opacity="0.4"/>
<circle cx="497" cy="39" r="1" transform="rotate(90 497 39)" fill="#00DBB1" fill-opacity="0.4"/>
<circle cx="497" cy="47" r="1" transform="rotate(90 497 47)" fill="#00DBB1" fill-opacity="0.4"/>
<circle cx="497" cy="55" r="1" transform="rotate(90 497 55)" fill="#00DBB1" fill-opacity="0.4"/>
<circle cx="497" cy="63" r="1" transform="rotate(90 497 63)" fill="#00DBB1" fill-opacity="0.4"/>
<circle cx="497" cy="71" r="1" transform="rotate(90 497 71)" fill="#00DBB1" fill-opacity="0.4"/>
<circle cx="497" cy="79" r="1" transform="rotate(90 497 79)" fill="#00DBB1" fill-opacity="0.4"/>
<circle cx="489" cy="7" r="1" transform="rotate(90 489 7)" fill="#00DBB1" fill-opacity="0.4"/>
<circle cx="489" cy="15" r="1" transform="rotate(90 489 15)" fill="#00DBB1" fill-opacity="0.4"/>
<circle cx="489" cy="23" r="1" transform="rotate(90 489 23)" fill="#00DBB1" fill-opacity="0.4"/>
<circle cx="489" cy="31" r="1" transform="rotate(90 489 31)" fill="#00DBB1" fill-opacity="0.4"/>
<circle cx="489" cy="39" r="1" transform="rotate(90 489 39)" fill="#00DBB1" fill-opacity="0.4"/>
<circle cx="489" cy="47" r="1" transform="rotate(90 489 47)" fill="#00DBB1" fill-opacity="0.4"/>
<circle cx="489" cy="55" r="1" transform="rotate(90 489 55)" fill="#00DBB1" fill-opacity="0.4"/>
<circle cx="489" cy="63" r="1" transform="rotate(90 489 63)" fill="#00DBB1" fill-opacity="0.4"/>
<circle cx="489" cy="71" r="1" transform="rotate(90 489 71)" fill="#00DBB1" fill-opacity="0.4"/>
<circle cx="489" cy="79" r="1" transform="rotate(90 489 79)" fill="#00DBB1" fill-opacity="0.4"/>
<circle cx="481" cy="7" r="1" transform="rotate(90 481 7)" fill="#00DBB1" fill-opacity="0.4"/>
<circle cx="481" cy="15" r="1" transform="rotate(90 481 15)" fill="#00DBB1" fill-opacity="0.4"/>
<circle cx="481" cy="23" r="1" transform="rotate(90 481 23)" fill="#00DBB1" fill-opacity="0.4"/>
<circle cx="481" cy="31" r="1" transform="rotate(90 481 31)" fill="#00DBB1" fill-opacity="0.4"/>
<circle cx="481" cy="39" r="1" transform="rotate(90 481 39)" fill="#00DBB1" fill-opacity="0.4"/>
<circle cx="481" cy="47" r="1" transform="rotate(90 481 47)" fill="#00DBB1" fill-opacity="0.4"/>
<circle cx="481" cy="55" r="1" transform="rotate(90 481 55)" fill="#00DBB1" fill-opacity="0.4"/>
<circle cx="481" cy="63" r="1" transform="rotate(90 481 63)" fill="#00DBB1" fill-opacity="0.4"/>
<circle cx="481" cy="71" r="1" transform="rotate(90 481 71)" fill="#00DBB1" fill-opacity="0.4"/>
<circle cx="481" cy="79" r="1" transform="rotate(90 481 79)" fill="#00DBB1" fill-opacity="0.4"/>
</svg>
