<svg width="32" height="32" viewBox="0 0 32 32" fill="none" xmlns="http://www.w3.org/2000/svg">
<path d="M2 16C2 8.26801 8.26801 2 16 2C23.732 2 30 8.26801 30 16C30 23.732 23.732 30 16 30C8.26801 30 2 23.732 2 16Z" fill="#172A73"/>
<path d="M5.57422 9.74414V10.3399L7.75216 10.6828C9.29537 10.9258 10.5391 12.0857 10.8987 13.6173L13.4482 24.477C13.5113 24.7458 13.7495 24.9356 14.0236 24.9356H17.6013C17.8373 24.9356 18.0507 24.7942 18.1442 24.5759L24.3157 10.16C24.3999 9.96336 24.2568 9.74414 24.0442 9.74414H20.7479C20.5099 9.74414 20.2951 9.88796 20.2029 10.1091L16.0686 20.0207L14.4194 11.2005C14.2615 10.3559 13.5293 9.74414 12.6764 9.74414H5.57422Z" fill="white"/>
</svg>
